G04 #@! TF.GenerationSoftware,KiCad,Pcbnew,(5.1.6)-1*
G04 #@! TF.CreationDate,2021-05-26T15:33:52+02:00*
G04 #@! TF.ProjectId,PowerSupplyPCB,506f7765-7253-4757-9070-6c795043422e,0.1*
G04 #@! TF.SameCoordinates,Original*
G04 #@! TF.FileFunction,Copper,L2,Bot*
G04 #@! TF.FilePolarity,Positive*
%FSLAX46Y46*%
G04 Gerber Fmt 4.6, Leading zero omitted, Abs format (unit mm)*
G04 Created by KiCad (PCBNEW (5.1.6)-1) date 2021-05-26 15:33:52*
%MOMM*%
%LPD*%
G01*
G04 APERTURE LIST*
G04 #@! TA.AperFunction,ComponentPad*
%ADD10C,1.700000*%
G04 #@! TD*
G04 #@! TA.AperFunction,ComponentPad*
%ADD11R,4.000000X4.000000*%
G04 #@! TD*
G04 #@! TA.AperFunction,ComponentPad*
%ADD12C,4.000000*%
G04 #@! TD*
G04 #@! TA.AperFunction,ComponentPad*
%ADD13C,2.800000*%
G04 #@! TD*
G04 #@! TA.AperFunction,ComponentPad*
%ADD14R,2.800000X2.800000*%
G04 #@! TD*
G04 #@! TA.AperFunction,ComponentPad*
%ADD15C,2.300000*%
G04 #@! TD*
G04 #@! TA.AperFunction,ComponentPad*
%ADD16O,3.600000X2.080000*%
G04 #@! TD*
G04 #@! TA.AperFunction,ComponentPad*
%ADD17R,1.700000X1.700000*%
G04 #@! TD*
G04 #@! TA.AperFunction,ComponentPad*
%ADD18O,1.700000X1.700000*%
G04 #@! TD*
G04 #@! TA.AperFunction,ComponentPad*
%ADD19R,1.600000X1.600000*%
G04 #@! TD*
G04 #@! TA.AperFunction,ComponentPad*
%ADD20C,1.600000*%
G04 #@! TD*
G04 #@! TA.AperFunction,ComponentPad*
%ADD21R,2.300000X2.300000*%
G04 #@! TD*
G04 #@! TA.AperFunction,ComponentPad*
%ADD22O,2.000000X1.905000*%
G04 #@! TD*
G04 #@! TA.AperFunction,ComponentPad*
%ADD23R,2.000000X1.905000*%
G04 #@! TD*
G04 #@! TA.AperFunction,SMDPad,CuDef*
%ADD24R,0.650000X1.060000*%
G04 #@! TD*
G04 #@! TA.AperFunction,ComponentPad*
%ADD25C,6.400000*%
G04 #@! TD*
G04 #@! TA.AperFunction,ComponentPad*
%ADD26C,0.800000*%
G04 #@! TD*
G04 #@! TA.AperFunction,ComponentPad*
%ADD27C,1.500000*%
G04 #@! TD*
G04 #@! TA.AperFunction,ViaPad*
%ADD28C,0.800000*%
G04 #@! TD*
G04 #@! TA.AperFunction,Conductor*
%ADD29C,2.500000*%
G04 #@! TD*
G04 #@! TA.AperFunction,Conductor*
%ADD30C,0.500000*%
G04 #@! TD*
G04 #@! TA.AperFunction,Conductor*
%ADD31C,0.250000*%
G04 #@! TD*
G04 #@! TA.AperFunction,Conductor*
%ADD32C,1.000000*%
G04 #@! TD*
G04 #@! TA.AperFunction,Conductor*
%ADD33C,0.254000*%
G04 #@! TD*
G04 APERTURE END LIST*
G04 #@! TA.AperFunction,ComponentPad*
G36*
G01*
X219493200Y-109991600D02*
X219493200Y-111191600D01*
G75*
G02*
X219243200Y-111441600I-250000J0D01*
G01*
X218043200Y-111441600D01*
G75*
G02*
X217793200Y-111191600I0J250000D01*
G01*
X217793200Y-109991600D01*
G75*
G02*
X218043200Y-109741600I250000J0D01*
G01*
X219243200Y-109741600D01*
G75*
G02*
X219493200Y-109991600I0J-250000D01*
G01*
G37*
G04 #@! TD.AperFunction*
D10*
X218643200Y-108051600D03*
X218643200Y-105511600D03*
X218643200Y-102971600D03*
X216103200Y-110591600D03*
X216103200Y-108051600D03*
X216103200Y-105511600D03*
X216103200Y-102971600D03*
D11*
X122275600Y-78498700D03*
D12*
X122275600Y-88498700D03*
X183616600Y-87673200D03*
D11*
X183616600Y-77673200D03*
G04 #@! TA.AperFunction,SMDPad,CuDef*
G36*
G01*
X189787850Y-83065200D02*
X188875350Y-83065200D01*
G75*
G02*
X188631600Y-82821450I0J243750D01*
G01*
X188631600Y-82333950D01*
G75*
G02*
X188875350Y-82090200I243750J0D01*
G01*
X189787850Y-82090200D01*
G75*
G02*
X190031600Y-82333950I0J-243750D01*
G01*
X190031600Y-82821450D01*
G75*
G02*
X189787850Y-83065200I-243750J0D01*
G01*
G37*
G04 #@! TD.AperFunction*
G04 #@! TA.AperFunction,SMDPad,CuDef*
G36*
G01*
X189787850Y-84940200D02*
X188875350Y-84940200D01*
G75*
G02*
X188631600Y-84696450I0J243750D01*
G01*
X188631600Y-84208950D01*
G75*
G02*
X188875350Y-83965200I243750J0D01*
G01*
X189787850Y-83965200D01*
G75*
G02*
X190031600Y-84208950I0J-243750D01*
G01*
X190031600Y-84696450D01*
G75*
G02*
X189787850Y-84940200I-243750J0D01*
G01*
G37*
G04 #@! TD.AperFunction*
G04 #@! TA.AperFunction,SMDPad,CuDef*
G36*
G01*
X155136000Y-113384650D02*
X155136000Y-112472150D01*
G75*
G02*
X155379750Y-112228400I243750J0D01*
G01*
X155867250Y-112228400D01*
G75*
G02*
X156111000Y-112472150I0J-243750D01*
G01*
X156111000Y-113384650D01*
G75*
G02*
X155867250Y-113628400I-243750J0D01*
G01*
X155379750Y-113628400D01*
G75*
G02*
X155136000Y-113384650I0J243750D01*
G01*
G37*
G04 #@! TD.AperFunction*
G04 #@! TA.AperFunction,SMDPad,CuDef*
G36*
G01*
X153261000Y-113384650D02*
X153261000Y-112472150D01*
G75*
G02*
X153504750Y-112228400I243750J0D01*
G01*
X153992250Y-112228400D01*
G75*
G02*
X154236000Y-112472150I0J-243750D01*
G01*
X154236000Y-113384650D01*
G75*
G02*
X153992250Y-113628400I-243750J0D01*
G01*
X153504750Y-113628400D01*
G75*
G02*
X153261000Y-113384650I0J243750D01*
G01*
G37*
G04 #@! TD.AperFunction*
G04 #@! TA.AperFunction,SMDPad,CuDef*
G36*
G01*
X152864400Y-116739350D02*
X152864400Y-117651850D01*
G75*
G02*
X152620650Y-117895600I-243750J0D01*
G01*
X152133150Y-117895600D01*
G75*
G02*
X151889400Y-117651850I0J243750D01*
G01*
X151889400Y-116739350D01*
G75*
G02*
X152133150Y-116495600I243750J0D01*
G01*
X152620650Y-116495600D01*
G75*
G02*
X152864400Y-116739350I0J-243750D01*
G01*
G37*
G04 #@! TD.AperFunction*
G04 #@! TA.AperFunction,SMDPad,CuDef*
G36*
G01*
X154739400Y-116739350D02*
X154739400Y-117651850D01*
G75*
G02*
X154495650Y-117895600I-243750J0D01*
G01*
X154008150Y-117895600D01*
G75*
G02*
X153764400Y-117651850I0J243750D01*
G01*
X153764400Y-116739350D01*
G75*
G02*
X154008150Y-116495600I243750J0D01*
G01*
X154495650Y-116495600D01*
G75*
G02*
X154739400Y-116739350I0J-243750D01*
G01*
G37*
G04 #@! TD.AperFunction*
G04 #@! TA.AperFunction,SMDPad,CuDef*
G36*
G01*
X154739400Y-114605750D02*
X154739400Y-115518250D01*
G75*
G02*
X154495650Y-115762000I-243750J0D01*
G01*
X154008150Y-115762000D01*
G75*
G02*
X153764400Y-115518250I0J243750D01*
G01*
X153764400Y-114605750D01*
G75*
G02*
X154008150Y-114362000I243750J0D01*
G01*
X154495650Y-114362000D01*
G75*
G02*
X154739400Y-114605750I0J-243750D01*
G01*
G37*
G04 #@! TD.AperFunction*
G04 #@! TA.AperFunction,SMDPad,CuDef*
G36*
G01*
X152864400Y-114605750D02*
X152864400Y-115518250D01*
G75*
G02*
X152620650Y-115762000I-243750J0D01*
G01*
X152133150Y-115762000D01*
G75*
G02*
X151889400Y-115518250I0J243750D01*
G01*
X151889400Y-114605750D01*
G75*
G02*
X152133150Y-114362000I243750J0D01*
G01*
X152620650Y-114362000D01*
G75*
G02*
X152864400Y-114605750I0J-243750D01*
G01*
G37*
G04 #@! TD.AperFunction*
G04 #@! TA.AperFunction,SMDPad,CuDef*
G36*
G01*
X150064150Y-115516600D02*
X150976650Y-115516600D01*
G75*
G02*
X151220400Y-115760350I0J-243750D01*
G01*
X151220400Y-116247850D01*
G75*
G02*
X150976650Y-116491600I-243750J0D01*
G01*
X150064150Y-116491600D01*
G75*
G02*
X149820400Y-116247850I0J243750D01*
G01*
X149820400Y-115760350D01*
G75*
G02*
X150064150Y-115516600I243750J0D01*
G01*
G37*
G04 #@! TD.AperFunction*
G04 #@! TA.AperFunction,SMDPad,CuDef*
G36*
G01*
X150064150Y-117391600D02*
X150976650Y-117391600D01*
G75*
G02*
X151220400Y-117635350I0J-243750D01*
G01*
X151220400Y-118122850D01*
G75*
G02*
X150976650Y-118366600I-243750J0D01*
G01*
X150064150Y-118366600D01*
G75*
G02*
X149820400Y-118122850I0J243750D01*
G01*
X149820400Y-117635350D01*
G75*
G02*
X150064150Y-117391600I243750J0D01*
G01*
G37*
G04 #@! TD.AperFunction*
D13*
X107162600Y-93738700D03*
X107162600Y-88658700D03*
X107162600Y-83578700D03*
D14*
X107162600Y-78498700D03*
D15*
X97510600Y-97548700D03*
X87510600Y-97548700D03*
D16*
X87477600Y-78879700D03*
G04 #@! TA.AperFunction,ComponentPad*
G36*
G01*
X89027601Y-84999700D02*
X85927599Y-84999700D01*
G75*
G02*
X85677600Y-84749701I0J249999D01*
G01*
X85677600Y-83169699D01*
G75*
G02*
X85927599Y-82919700I249999J0D01*
G01*
X89027601Y-82919700D01*
G75*
G02*
X89277600Y-83169699I0J-249999D01*
G01*
X89277600Y-84749701D01*
G75*
G02*
X89027601Y-84999700I-249999J0D01*
G01*
G37*
G04 #@! TD.AperFunction*
G04 #@! TA.AperFunction,ComponentPad*
G36*
G01*
X215213599Y-79998700D02*
X218313601Y-79998700D01*
G75*
G02*
X218563600Y-80248699I0J-249999D01*
G01*
X218563600Y-81828701D01*
G75*
G02*
X218313601Y-82078700I-249999J0D01*
G01*
X215213599Y-82078700D01*
G75*
G02*
X214963600Y-81828701I0J249999D01*
G01*
X214963600Y-80248699D01*
G75*
G02*
X215213599Y-79998700I249999J0D01*
G01*
G37*
G04 #@! TD.AperFunction*
X216763600Y-86118700D03*
D17*
X168148000Y-121462800D03*
D18*
X170688000Y-121462800D03*
X173228000Y-121462800D03*
X175768000Y-121462800D03*
X178308000Y-121462800D03*
D17*
X173228000Y-114909600D03*
D18*
X175768000Y-114909600D03*
X178308000Y-114909600D03*
D19*
X194970400Y-112776000D03*
D20*
X192470400Y-112776000D03*
X192470400Y-114776000D03*
X194970400Y-114776000D03*
D12*
X187720400Y-117636000D03*
X199720400Y-117636000D03*
D21*
X206933800Y-89319100D03*
D15*
X206933800Y-79159100D03*
X206933800Y-71539100D03*
X199313800Y-74079100D03*
X199313800Y-89319100D03*
D22*
X139801600Y-79514700D03*
X139801600Y-76974700D03*
D23*
X139801600Y-74434700D03*
X139801600Y-90373200D03*
D22*
X139801600Y-92913200D03*
X139801600Y-95453200D03*
G04 #@! TA.AperFunction,SMDPad,CuDef*
G36*
G01*
X187692350Y-80461700D02*
X186779850Y-80461700D01*
G75*
G02*
X186536100Y-80217950I0J243750D01*
G01*
X186536100Y-79730450D01*
G75*
G02*
X186779850Y-79486700I243750J0D01*
G01*
X187692350Y-79486700D01*
G75*
G02*
X187936100Y-79730450I0J-243750D01*
G01*
X187936100Y-80217950D01*
G75*
G02*
X187692350Y-80461700I-243750J0D01*
G01*
G37*
G04 #@! TD.AperFunction*
G04 #@! TA.AperFunction,SMDPad,CuDef*
G36*
G01*
X187692350Y-82336700D02*
X186779850Y-82336700D01*
G75*
G02*
X186536100Y-82092950I0J243750D01*
G01*
X186536100Y-81605450D01*
G75*
G02*
X186779850Y-81361700I243750J0D01*
G01*
X187692350Y-81361700D01*
G75*
G02*
X187936100Y-81605450I0J-243750D01*
G01*
X187936100Y-82092950D01*
G75*
G02*
X187692350Y-82336700I-243750J0D01*
G01*
G37*
G04 #@! TD.AperFunction*
G04 #@! TA.AperFunction,SMDPad,CuDef*
G36*
G01*
X187692350Y-84081200D02*
X186779850Y-84081200D01*
G75*
G02*
X186536100Y-83837450I0J243750D01*
G01*
X186536100Y-83349950D01*
G75*
G02*
X186779850Y-83106200I243750J0D01*
G01*
X187692350Y-83106200D01*
G75*
G02*
X187936100Y-83349950I0J-243750D01*
G01*
X187936100Y-83837450D01*
G75*
G02*
X187692350Y-84081200I-243750J0D01*
G01*
G37*
G04 #@! TD.AperFunction*
G04 #@! TA.AperFunction,SMDPad,CuDef*
G36*
G01*
X187692350Y-85956200D02*
X186779850Y-85956200D01*
G75*
G02*
X186536100Y-85712450I0J243750D01*
G01*
X186536100Y-85224950D01*
G75*
G02*
X186779850Y-84981200I243750J0D01*
G01*
X187692350Y-84981200D01*
G75*
G02*
X187936100Y-85224950I0J-243750D01*
G01*
X187936100Y-85712450D01*
G75*
G02*
X187692350Y-85956200I-243750J0D01*
G01*
G37*
G04 #@! TD.AperFunction*
G04 #@! TA.AperFunction,SMDPad,CuDef*
G36*
G01*
X188677600Y-89067701D02*
X188677600Y-86217699D01*
G75*
G02*
X188927599Y-85967700I249999J0D01*
G01*
X189777601Y-85967700D01*
G75*
G02*
X190027600Y-86217699I0J-249999D01*
G01*
X190027600Y-89067701D01*
G75*
G02*
X189777601Y-89317700I-249999J0D01*
G01*
X188927599Y-89317700D01*
G75*
G02*
X188677600Y-89067701I0J249999D01*
G01*
G37*
G04 #@! TD.AperFunction*
G04 #@! TA.AperFunction,SMDPad,CuDef*
G36*
G01*
X194477600Y-89067701D02*
X194477600Y-86217699D01*
G75*
G02*
X194727599Y-85967700I249999J0D01*
G01*
X195577601Y-85967700D01*
G75*
G02*
X195827600Y-86217699I0J-249999D01*
G01*
X195827600Y-89067701D01*
G75*
G02*
X195577601Y-89317700I-249999J0D01*
G01*
X194727599Y-89317700D01*
G75*
G02*
X194477600Y-89067701I0J249999D01*
G01*
G37*
G04 #@! TD.AperFunction*
G04 #@! TA.AperFunction,SMDPad,CuDef*
G36*
G01*
X150064150Y-112085300D02*
X150976650Y-112085300D01*
G75*
G02*
X151220400Y-112329050I0J-243750D01*
G01*
X151220400Y-112816550D01*
G75*
G02*
X150976650Y-113060300I-243750J0D01*
G01*
X150064150Y-113060300D01*
G75*
G02*
X149820400Y-112816550I0J243750D01*
G01*
X149820400Y-112329050D01*
G75*
G02*
X150064150Y-112085300I243750J0D01*
G01*
G37*
G04 #@! TD.AperFunction*
G04 #@! TA.AperFunction,SMDPad,CuDef*
G36*
G01*
X150064150Y-113960300D02*
X150976650Y-113960300D01*
G75*
G02*
X151220400Y-114204050I0J-243750D01*
G01*
X151220400Y-114691550D01*
G75*
G02*
X150976650Y-114935300I-243750J0D01*
G01*
X150064150Y-114935300D01*
G75*
G02*
X149820400Y-114691550I0J243750D01*
G01*
X149820400Y-114204050D01*
G75*
G02*
X150064150Y-113960300I243750J0D01*
G01*
G37*
G04 #@! TD.AperFunction*
D24*
X191226400Y-90644800D03*
X192176400Y-90644800D03*
X193126400Y-90644800D03*
X193126400Y-92844800D03*
X191226400Y-92844800D03*
X192176400Y-92844800D03*
G04 #@! TA.AperFunction,SMDPad,CuDef*
G36*
G01*
X133653850Y-103588400D02*
X132741350Y-103588400D01*
G75*
G02*
X132497600Y-103344650I0J243750D01*
G01*
X132497600Y-102857150D01*
G75*
G02*
X132741350Y-102613400I243750J0D01*
G01*
X133653850Y-102613400D01*
G75*
G02*
X133897600Y-102857150I0J-243750D01*
G01*
X133897600Y-103344650D01*
G75*
G02*
X133653850Y-103588400I-243750J0D01*
G01*
G37*
G04 #@! TD.AperFunction*
G04 #@! TA.AperFunction,SMDPad,CuDef*
G36*
G01*
X133653850Y-105463400D02*
X132741350Y-105463400D01*
G75*
G02*
X132497600Y-105219650I0J243750D01*
G01*
X132497600Y-104732150D01*
G75*
G02*
X132741350Y-104488400I243750J0D01*
G01*
X133653850Y-104488400D01*
G75*
G02*
X133897600Y-104732150I0J-243750D01*
G01*
X133897600Y-105219650D01*
G75*
G02*
X133653850Y-105463400I-243750J0D01*
G01*
G37*
G04 #@! TD.AperFunction*
G04 #@! TA.AperFunction,SMDPad,CuDef*
G36*
G01*
X129589850Y-105463400D02*
X128677350Y-105463400D01*
G75*
G02*
X128433600Y-105219650I0J243750D01*
G01*
X128433600Y-104732150D01*
G75*
G02*
X128677350Y-104488400I243750J0D01*
G01*
X129589850Y-104488400D01*
G75*
G02*
X129833600Y-104732150I0J-243750D01*
G01*
X129833600Y-105219650D01*
G75*
G02*
X129589850Y-105463400I-243750J0D01*
G01*
G37*
G04 #@! TD.AperFunction*
G04 #@! TA.AperFunction,SMDPad,CuDef*
G36*
G01*
X129589850Y-103588400D02*
X128677350Y-103588400D01*
G75*
G02*
X128433600Y-103344650I0J243750D01*
G01*
X128433600Y-102857150D01*
G75*
G02*
X128677350Y-102613400I243750J0D01*
G01*
X129589850Y-102613400D01*
G75*
G02*
X129833600Y-102857150I0J-243750D01*
G01*
X129833600Y-103344650D01*
G75*
G02*
X129589850Y-103588400I-243750J0D01*
G01*
G37*
G04 #@! TD.AperFunction*
G04 #@! TA.AperFunction,SMDPad,CuDef*
G36*
G01*
X131621850Y-103588400D02*
X130709350Y-103588400D01*
G75*
G02*
X130465600Y-103344650I0J243750D01*
G01*
X130465600Y-102857150D01*
G75*
G02*
X130709350Y-102613400I243750J0D01*
G01*
X131621850Y-102613400D01*
G75*
G02*
X131865600Y-102857150I0J-243750D01*
G01*
X131865600Y-103344650D01*
G75*
G02*
X131621850Y-103588400I-243750J0D01*
G01*
G37*
G04 #@! TD.AperFunction*
G04 #@! TA.AperFunction,SMDPad,CuDef*
G36*
G01*
X131621850Y-105463400D02*
X130709350Y-105463400D01*
G75*
G02*
X130465600Y-105219650I0J243750D01*
G01*
X130465600Y-104732150D01*
G75*
G02*
X130709350Y-104488400I243750J0D01*
G01*
X131621850Y-104488400D01*
G75*
G02*
X131865600Y-104732150I0J-243750D01*
G01*
X131865600Y-105219650D01*
G75*
G02*
X131621850Y-105463400I-243750J0D01*
G01*
G37*
G04 #@! TD.AperFunction*
D25*
X218541600Y-71120000D03*
D26*
X220941600Y-71120000D03*
X220238656Y-72817056D03*
X218541600Y-73520000D03*
X216844544Y-72817056D03*
X216141600Y-71120000D03*
X216844544Y-69422944D03*
X218541600Y-68720000D03*
X220238656Y-69422944D03*
X87244256Y-121696144D03*
X85547200Y-120993200D03*
X83850144Y-121696144D03*
X83147200Y-123393200D03*
X83850144Y-125090256D03*
X85547200Y-125793200D03*
X87244256Y-125090256D03*
X87947200Y-123393200D03*
D25*
X85547200Y-123393200D03*
D26*
X98064656Y-69626144D03*
X96367600Y-68923200D03*
X94670544Y-69626144D03*
X93967600Y-71323200D03*
X94670544Y-73020256D03*
X96367600Y-73723200D03*
X98064656Y-73020256D03*
X98767600Y-71323200D03*
D25*
X96367600Y-71323200D03*
X218643200Y-123291600D03*
D26*
X221043200Y-123291600D03*
X220340256Y-124988656D03*
X218643200Y-125691600D03*
X216946144Y-124988656D03*
X216243200Y-123291600D03*
X216946144Y-121594544D03*
X218643200Y-120891600D03*
X220340256Y-121594544D03*
D27*
X138176000Y-117906800D03*
X143056000Y-117906800D03*
D28*
X183083200Y-105765600D03*
X181711600Y-105765600D03*
X180289200Y-105765600D03*
X165404800Y-107340400D03*
X165404800Y-105918000D03*
X165404800Y-108712000D03*
X198882000Y-107543600D03*
X198882000Y-108966000D03*
X198882000Y-110337600D03*
X136372600Y-95453200D03*
X135356600Y-95453200D03*
X131991100Y-95453200D03*
X119049800Y-103759000D03*
X156048590Y-116087010D03*
X134467600Y-101650800D03*
X119467400Y-112688600D03*
X118684050Y-95387150D03*
X93319600Y-114808000D03*
X135636000Y-86512400D03*
X97028000Y-109524800D03*
X88696800Y-112979200D03*
X187858400Y-100431600D03*
X212729601Y-101671599D03*
X142113000Y-86131400D03*
X146100800Y-95504000D03*
X143002000Y-101701600D03*
X143103600Y-105664000D03*
X191516000Y-87172800D03*
X188112400Y-89966800D03*
X144830800Y-104394000D03*
X155752800Y-117551200D03*
X124968000Y-120091200D03*
X156921200Y-115163600D03*
X152450800Y-112776000D03*
X141630400Y-112318800D03*
X147878800Y-110642400D03*
X197756400Y-106164000D03*
X190449200Y-105511600D03*
X190449200Y-102311200D03*
X206654400Y-105867200D03*
X145999200Y-105410000D03*
X175260000Y-98450400D03*
X130657600Y-106172000D03*
X162763200Y-116687600D03*
X131927600Y-106121200D03*
X154882800Y-107956400D03*
X133197600Y-106121200D03*
X154381200Y-121513600D03*
X129387600Y-100736400D03*
X137133538Y-100152210D03*
X152450800Y-113690400D03*
X165100000Y-118719600D03*
X163271200Y-118719600D03*
X165169600Y-113062000D03*
X166166800Y-112572800D03*
X188112400Y-112420400D03*
X209018900Y-107363500D03*
X208956400Y-101990400D03*
X205724800Y-108036400D03*
X207111600Y-102412800D03*
X147440400Y-113062000D03*
X147675600Y-114249200D03*
X152857200Y-122631200D03*
X129133600Y-122021600D03*
X154381200Y-122631200D03*
X118973600Y-122123200D03*
D29*
X117035600Y-93738700D02*
X122275600Y-88498700D01*
X107162600Y-93738700D02*
X117035600Y-93738700D01*
X189322100Y-87673200D02*
X189352600Y-87642700D01*
X183616600Y-87673200D02*
X189322100Y-87673200D01*
D30*
X189331600Y-87621700D02*
X189352600Y-87642700D01*
X189331600Y-84452700D02*
X189331600Y-87621700D01*
D29*
X118750100Y-95453200D02*
X131991100Y-95453200D01*
X117035600Y-93738700D02*
X118684050Y-95387150D01*
X136372600Y-95453200D02*
X139801600Y-95453200D01*
X135356600Y-95453200D02*
X136372600Y-95453200D01*
X131991100Y-95453200D02*
X135356600Y-95453200D01*
D30*
X119049800Y-98933000D02*
X119049800Y-103708200D01*
D31*
X152464410Y-116087010D02*
X152376900Y-115999500D01*
X157070792Y-116087010D02*
X156048590Y-116087010D01*
X157646201Y-115511601D02*
X157070792Y-116087010D01*
X157646201Y-114463601D02*
X157646201Y-115511601D01*
X156111000Y-112928400D02*
X157646201Y-114463601D01*
X155623500Y-112928400D02*
X156111000Y-112928400D01*
X152376900Y-115062000D02*
X152376900Y-115999500D01*
X152376900Y-115999500D02*
X152376900Y-117195600D01*
X156048590Y-116087010D02*
X152464410Y-116087010D01*
X151693400Y-117879100D02*
X152376900Y-117195600D01*
X150520400Y-117879100D02*
X151693400Y-117879100D01*
D30*
X216103200Y-105511600D02*
X216103200Y-102971600D01*
D31*
X129133600Y-103100900D02*
X133197600Y-103100900D01*
X134467600Y-101830900D02*
X133197600Y-103100900D01*
X134467600Y-101650800D02*
X134467600Y-101830900D01*
D32*
X119049800Y-95752900D02*
X118750100Y-95453200D01*
X119049800Y-98933000D02*
X119049800Y-95752900D01*
X119049800Y-98933000D02*
X119049800Y-103759000D01*
X119049800Y-112271000D02*
X119467400Y-112688600D01*
X117859000Y-113461800D02*
X119049800Y-112271000D01*
D29*
X118684050Y-95387150D02*
X118750100Y-95453200D01*
D32*
X119049800Y-103759000D02*
X119049800Y-112271000D01*
X117859000Y-113461800D02*
X94665800Y-113461800D01*
X94665800Y-113461800D02*
X93319600Y-114808000D01*
X93319600Y-114808000D02*
X93268800Y-114858800D01*
D29*
X172110400Y-91084400D02*
X175521600Y-87673200D01*
X172110400Y-98755200D02*
X172110400Y-91084400D01*
X169773600Y-101092000D02*
X172110400Y-98755200D01*
X175521600Y-87673200D02*
X183616600Y-87673200D01*
X143408400Y-95453200D02*
X145846800Y-97891600D01*
X145846800Y-100380800D02*
X146558000Y-101092000D01*
X139801600Y-95453200D02*
X143408400Y-95453200D01*
X146558000Y-101092000D02*
X169773600Y-101092000D01*
X145846800Y-97891600D02*
X145846800Y-100380800D01*
D31*
X192176400Y-92844800D02*
X192176400Y-90644800D01*
X192176400Y-89791500D02*
X192176400Y-90644800D01*
X190027600Y-87642700D02*
X192176400Y-89791500D01*
X189352600Y-87642700D02*
X190027600Y-87642700D01*
X193126400Y-92844800D02*
X192176400Y-92844800D01*
D30*
X135356600Y-95453200D02*
X135356600Y-86791800D01*
X135356600Y-86791800D02*
X135636000Y-86512400D01*
D29*
X107162600Y-78498700D02*
X122275600Y-78498700D01*
X123799600Y-76974700D02*
X139801600Y-76974700D01*
X122275600Y-78498700D02*
X123799600Y-76974700D01*
D32*
X97028000Y-109524800D02*
X97028000Y-106934000D01*
X97028000Y-106934000D02*
X95910400Y-105816400D01*
X95910400Y-105816400D02*
X90525600Y-105816400D01*
X90525600Y-105816400D02*
X88696800Y-107645200D01*
X88696800Y-107645200D02*
X88696800Y-112979200D01*
D30*
X218643200Y-105511600D02*
X218643200Y-102971600D01*
X211734400Y-100676398D02*
X212729601Y-101671599D01*
X211734400Y-100431600D02*
X211734400Y-100676398D01*
D31*
X191226400Y-100314800D02*
X191109600Y-100431600D01*
X191226400Y-92844800D02*
X191226400Y-100314800D01*
D30*
X187858400Y-100431600D02*
X191109600Y-100431600D01*
X191109600Y-100431600D02*
X211734400Y-100431600D01*
D31*
X142113000Y-86131400D02*
X142113000Y-91516200D01*
X142113000Y-91516200D02*
X146100800Y-95504000D01*
X143002000Y-101701600D02*
X143002000Y-105562400D01*
X143002000Y-105562400D02*
X143103600Y-105664000D01*
D30*
X187236100Y-81849200D02*
X188061600Y-82674700D01*
X189234600Y-82674700D02*
X189331600Y-82577700D01*
X188061600Y-82674700D02*
X189234600Y-82674700D01*
X188061600Y-82768200D02*
X188061600Y-82674700D01*
X187236100Y-83593700D02*
X188061600Y-82768200D01*
D31*
X189331600Y-82577700D02*
X191516000Y-84762100D01*
X191516000Y-84762100D02*
X191516000Y-87172800D01*
X187712401Y-90366799D02*
X175055401Y-90366799D01*
X188112400Y-89966800D02*
X187712401Y-90366799D01*
X175055401Y-90366799D02*
X173685410Y-91736790D01*
X173685409Y-99407591D02*
X170425990Y-102667010D01*
X173685410Y-91736790D02*
X173685409Y-99407591D01*
X170425990Y-102667010D02*
X146557790Y-102667010D01*
X146557790Y-102667010D02*
X144830800Y-104394000D01*
X154607500Y-117551200D02*
X154251900Y-117195600D01*
X155752800Y-117551200D02*
X154607500Y-117551200D01*
X155752800Y-117551200D02*
X155752800Y-118160800D01*
X155752800Y-118160800D02*
X152958800Y-120954800D01*
X152958800Y-120954800D02*
X125831600Y-120954800D01*
X125831600Y-120954800D02*
X124968000Y-120091200D01*
X153291300Y-112674400D02*
X153748500Y-113131600D01*
X154251900Y-113431800D02*
X153748500Y-112928400D01*
X154251900Y-115062000D02*
X154251900Y-113431800D01*
X156819600Y-115062000D02*
X156921200Y-115163600D01*
X154251900Y-115062000D02*
X156819600Y-115062000D01*
X152247600Y-112572800D02*
X152450800Y-112776000D01*
X150520400Y-112572800D02*
X152247600Y-112572800D01*
X153596100Y-112776000D02*
X153748500Y-112928400D01*
X152450800Y-112776000D02*
X153596100Y-112776000D01*
D30*
X141630400Y-112318800D02*
X146202400Y-112318800D01*
X146202400Y-112318800D02*
X147878800Y-110642400D01*
D31*
X197356401Y-106563999D02*
X184774001Y-106563999D01*
X197756400Y-106164000D02*
X197356401Y-106563999D01*
X184774001Y-106563999D02*
X180898800Y-110439200D01*
X180898800Y-110439200D02*
X180898800Y-123139200D01*
X180898800Y-123139200D02*
X180390800Y-123647200D01*
X170332400Y-123647200D02*
X168148000Y-121462800D01*
X180390800Y-123647200D02*
X170332400Y-123647200D01*
X190449200Y-105511600D02*
X190449200Y-102311200D01*
X210813115Y-110591600D02*
X216103200Y-110591600D01*
X206654400Y-106432885D02*
X210813115Y-110591600D01*
X206654400Y-105867200D02*
X206654400Y-106432885D01*
X188507402Y-90644800D02*
X188335393Y-90816809D01*
X191226400Y-90644800D02*
X188507402Y-90644800D01*
X188335393Y-90816809D02*
X175241801Y-90816809D01*
X174135418Y-99593992D02*
X170612390Y-103117020D01*
X175241801Y-90816809D02*
X174135419Y-91923191D01*
X174135419Y-91923191D02*
X174135418Y-99593992D01*
X170612390Y-103117020D02*
X146744190Y-103117020D01*
X146744190Y-103117020D02*
X145999200Y-103862010D01*
X145999200Y-103862010D02*
X145999200Y-105410000D01*
X174135418Y-99593992D02*
X174135418Y-99574982D01*
X174135418Y-99574982D02*
X175260000Y-98450400D01*
X129133600Y-104975900D02*
X130329700Y-106172000D01*
X130329700Y-106172000D02*
X130657600Y-106172000D01*
X163633990Y-115816810D02*
X162763200Y-116687600D01*
X163633990Y-111208390D02*
X163633990Y-115816810D01*
X130657600Y-106172000D02*
X132022010Y-107536410D01*
X153307210Y-107536410D02*
X154452201Y-108681401D01*
X154452201Y-108681401D02*
X161107001Y-108681401D01*
X132022010Y-107536410D02*
X153307210Y-107536410D01*
X161107001Y-108681401D02*
X163633990Y-111208390D01*
X131165600Y-104975900D02*
X131927600Y-105737900D01*
X131927600Y-105737900D02*
X131927600Y-106121200D01*
X154012800Y-107086400D02*
X154882800Y-107956400D01*
X131927600Y-106121200D02*
X132892800Y-107086400D01*
X132892800Y-107086400D02*
X154012800Y-107086400D01*
X133197600Y-104975900D02*
X133197600Y-106121200D01*
X163931600Y-121513600D02*
X164084000Y-121361200D01*
X154381200Y-121513600D02*
X163931600Y-121513600D01*
X133712790Y-106636390D02*
X133197600Y-106121200D01*
X164084000Y-121361200D02*
X164084000Y-109423200D01*
X161297190Y-106636390D02*
X133712790Y-106636390D01*
X164084000Y-109423200D02*
X161297190Y-106636390D01*
D30*
X136549348Y-100736400D02*
X137133538Y-100152210D01*
X129387600Y-100736400D02*
X136549348Y-100736400D01*
X187236100Y-79974200D02*
X187236100Y-78371700D01*
X187236100Y-78371700D02*
X187934600Y-77673200D01*
D29*
X183616600Y-77673200D02*
X187934600Y-77673200D01*
X195218699Y-70389101D02*
X187934600Y-77673200D01*
X205783801Y-70389101D02*
X195218699Y-70389101D01*
X206933800Y-71539100D02*
X205783801Y-70389101D01*
D31*
X150520400Y-114447800D02*
X150520400Y-116004100D01*
X150520400Y-114447800D02*
X151074600Y-113893600D01*
X151277800Y-113690400D02*
X151074600Y-113893600D01*
X152450800Y-113690400D02*
X151277800Y-113690400D01*
X171493610Y-119728410D02*
X166996399Y-119728409D01*
X173228000Y-121462800D02*
X171493610Y-119728410D01*
X166996399Y-119728409D02*
X165987590Y-118719600D01*
X165987590Y-118719600D02*
X165100000Y-118719600D01*
X163271200Y-118719600D02*
X161290000Y-118719600D01*
X161290000Y-118719600D02*
X160274000Y-117703600D01*
X160274000Y-117703600D02*
X160274000Y-110947200D01*
X160274000Y-110947200D02*
X158699200Y-109372400D01*
X158699200Y-109372400D02*
X150672800Y-109372400D01*
X150672800Y-109372400D02*
X148336000Y-111709200D01*
X148336000Y-111709200D02*
X148336000Y-113385600D01*
X149398200Y-114447800D02*
X150520400Y-114447800D01*
X148336000Y-113385600D02*
X149398200Y-114447800D01*
D29*
X97510600Y-97548700D02*
X97510600Y-89801700D01*
X98653600Y-88658700D02*
X107162600Y-88658700D01*
X97510600Y-89801700D02*
X98653600Y-88658700D01*
D31*
X199170800Y-89176100D02*
X199313800Y-89319100D01*
X165169600Y-113062000D02*
X165169600Y-117265200D01*
X165169600Y-117265200D02*
X167182800Y-119278400D01*
X173583600Y-119278400D02*
X175768000Y-121462800D01*
X167182800Y-119278400D02*
X173583600Y-119278400D01*
X166166800Y-112572800D02*
X166166800Y-117625990D01*
X166166800Y-117625990D02*
X167369200Y-118828390D01*
X175673590Y-118828390D02*
X178308000Y-121462800D01*
X167369200Y-118828390D02*
X175673590Y-118828390D01*
X192470400Y-112776000D02*
X188468000Y-112776000D01*
X188468000Y-112776000D02*
X188112400Y-112420400D01*
D29*
X87477600Y-78879700D02*
X90779600Y-78879700D01*
X95478600Y-83578700D02*
X107162600Y-83578700D01*
X90779600Y-78879700D02*
X95478600Y-83578700D01*
X87477600Y-97515700D02*
X87510600Y-97548700D01*
X87477600Y-83959700D02*
X87477600Y-97515700D01*
X214884000Y-79159100D02*
X216763600Y-81038700D01*
X206933800Y-79159100D02*
X214884000Y-79159100D01*
D31*
X193126400Y-89668900D02*
X195152600Y-87642700D01*
X193126400Y-90644800D02*
X193126400Y-89668900D01*
D29*
X195152600Y-87642700D02*
X198924500Y-83870800D01*
X198924500Y-83870800D02*
X209854800Y-83870800D01*
X212102700Y-86118700D02*
X216763600Y-86118700D01*
X209854800Y-83870800D02*
X212102700Y-86118700D01*
D31*
X210882001Y-109226601D02*
X209018900Y-107363500D01*
X218643200Y-110591600D02*
X217278201Y-109226601D01*
X217278201Y-109226601D02*
X210882001Y-109226601D01*
X212858601Y-106686601D02*
X208956400Y-102784400D01*
X218643200Y-108051600D02*
X217278201Y-106686601D01*
X217278201Y-106686601D02*
X212858601Y-106686601D01*
X208956400Y-102784400D02*
X208956400Y-101990400D01*
X205724800Y-108036400D02*
X205724800Y-103799600D01*
X205724800Y-103799600D02*
X207111600Y-102412800D01*
X143020800Y-113062000D02*
X138176000Y-117906800D01*
X147440400Y-113062000D02*
X143020800Y-113062000D01*
X146713600Y-114249200D02*
X143056000Y-117906800D01*
X147675600Y-114249200D02*
X146713600Y-114249200D01*
X152857200Y-122631200D02*
X129743200Y-122631200D01*
X129743200Y-122631200D02*
X129133600Y-122021600D01*
X153656199Y-123356201D02*
X120206601Y-123356201D01*
X154381200Y-122631200D02*
X153656199Y-123356201D01*
X120206601Y-123356201D02*
X118973600Y-122123200D01*
D33*
G36*
X190093600Y-84414501D02*
G01*
X190093600Y-87007700D01*
X186347100Y-87007700D01*
X186347100Y-85039200D01*
X188061600Y-85039200D01*
X188086376Y-85036760D01*
X188110201Y-85029533D01*
X188132157Y-85017797D01*
X188151403Y-85002003D01*
X188167197Y-84982757D01*
X188177952Y-84963104D01*
X188589160Y-84023200D01*
X189702299Y-84023200D01*
X190093600Y-84414501D01*
G37*
X190093600Y-84414501D02*
X190093600Y-87007700D01*
X186347100Y-87007700D01*
X186347100Y-85039200D01*
X188061600Y-85039200D01*
X188086376Y-85036760D01*
X188110201Y-85029533D01*
X188132157Y-85017797D01*
X188151403Y-85002003D01*
X188167197Y-84982757D01*
X188177952Y-84963104D01*
X188589160Y-84023200D01*
X189702299Y-84023200D01*
X190093600Y-84414501D01*
G36*
X188257456Y-81773693D02*
G01*
X188266913Y-81796724D01*
X188280681Y-81817466D01*
X188298231Y-81835125D01*
X188318889Y-81849020D01*
X188341861Y-81858618D01*
X188366264Y-81863550D01*
X188379100Y-81864200D01*
X190157100Y-81864200D01*
X190157100Y-83197700D01*
X188379100Y-83197700D01*
X188354324Y-83200140D01*
X188330499Y-83207367D01*
X188308543Y-83219103D01*
X188289297Y-83234897D01*
X188273503Y-83254143D01*
X188258617Y-83284539D01*
X188066799Y-83859993D01*
X188060653Y-83871491D01*
X188037253Y-83948631D01*
X187970063Y-84150200D01*
X186410600Y-84150200D01*
X186410600Y-81229200D01*
X188094108Y-81229200D01*
X188257456Y-81773693D01*
G37*
X188257456Y-81773693D02*
X188266913Y-81796724D01*
X188280681Y-81817466D01*
X188298231Y-81835125D01*
X188318889Y-81849020D01*
X188341861Y-81858618D01*
X188366264Y-81863550D01*
X188379100Y-81864200D01*
X190157100Y-81864200D01*
X190157100Y-83197700D01*
X188379100Y-83197700D01*
X188354324Y-83200140D01*
X188330499Y-83207367D01*
X188308543Y-83219103D01*
X188289297Y-83234897D01*
X188273503Y-83254143D01*
X188258617Y-83284539D01*
X188066799Y-83859993D01*
X188060653Y-83871491D01*
X188037253Y-83948631D01*
X187970063Y-84150200D01*
X186410600Y-84150200D01*
X186410600Y-81229200D01*
X188094108Y-81229200D01*
X188257456Y-81773693D01*
G36*
X188061600Y-80530700D02*
G01*
X186410600Y-80530700D01*
X186410600Y-78244700D01*
X188061600Y-78244700D01*
X188061600Y-80530700D01*
G37*
X188061600Y-80530700D02*
X186410600Y-80530700D01*
X186410600Y-78244700D01*
X188061600Y-78244700D01*
X188061600Y-80530700D01*
G36*
X223164801Y-127406800D02*
G01*
X81482800Y-127406800D01*
X81482800Y-126094081D01*
X83025924Y-126094081D01*
X83386112Y-126583748D01*
X84050082Y-126944049D01*
X84771585Y-127167894D01*
X85522895Y-127246680D01*
X86275138Y-127177378D01*
X86999408Y-126962652D01*
X87667870Y-126610755D01*
X87708288Y-126583748D01*
X88068476Y-126094081D01*
X87966876Y-125992481D01*
X216121924Y-125992481D01*
X216482112Y-126482148D01*
X217146082Y-126842449D01*
X217867585Y-127066294D01*
X218618895Y-127145080D01*
X219371138Y-127075778D01*
X220095408Y-126861052D01*
X220763870Y-126509155D01*
X220804288Y-126482148D01*
X221164476Y-125992481D01*
X218643200Y-123471205D01*
X216121924Y-125992481D01*
X87966876Y-125992481D01*
X85547200Y-123572805D01*
X83025924Y-126094081D01*
X81482800Y-126094081D01*
X81482800Y-123368895D01*
X81693720Y-123368895D01*
X81763022Y-124121138D01*
X81977748Y-124845408D01*
X82329645Y-125513870D01*
X82356652Y-125554288D01*
X82846319Y-125914476D01*
X85367595Y-123393200D01*
X85726805Y-123393200D01*
X88248081Y-125914476D01*
X88737748Y-125554288D01*
X89098049Y-124890318D01*
X89321894Y-124168815D01*
X89400680Y-123417505D01*
X89331378Y-122665262D01*
X89140450Y-122021261D01*
X117938600Y-122021261D01*
X117938600Y-122225139D01*
X117978374Y-122425098D01*
X118056395Y-122613456D01*
X118169663Y-122782974D01*
X118313826Y-122927137D01*
X118483344Y-123040405D01*
X118671702Y-123118426D01*
X118871661Y-123158200D01*
X118933799Y-123158200D01*
X119642802Y-123867204D01*
X119666600Y-123896202D01*
X119782325Y-123991175D01*
X119914354Y-124061747D01*
X120057615Y-124105204D01*
X120169268Y-124116201D01*
X120169276Y-124116201D01*
X120206601Y-124119877D01*
X120243926Y-124116201D01*
X153618877Y-124116201D01*
X153656199Y-124119877D01*
X153693521Y-124116201D01*
X153693532Y-124116201D01*
X153805185Y-124105204D01*
X153948446Y-124061747D01*
X154080475Y-123991175D01*
X154196200Y-123896202D01*
X154220002Y-123867199D01*
X154421001Y-123666200D01*
X154483139Y-123666200D01*
X154683098Y-123626426D01*
X154871456Y-123548405D01*
X155040974Y-123435137D01*
X155185137Y-123290974D01*
X155298405Y-123121456D01*
X155376426Y-122933098D01*
X155416200Y-122733139D01*
X155416200Y-122529261D01*
X155376426Y-122329302D01*
X155353353Y-122273600D01*
X163894278Y-122273600D01*
X163931600Y-122277276D01*
X163968922Y-122273600D01*
X163968933Y-122273600D01*
X164080586Y-122262603D01*
X164223847Y-122219146D01*
X164355876Y-122148574D01*
X164471601Y-122053601D01*
X164495404Y-122024597D01*
X164594998Y-121925003D01*
X164624001Y-121901201D01*
X164718974Y-121785476D01*
X164789546Y-121653447D01*
X164833003Y-121510186D01*
X164844000Y-121398533D01*
X164844000Y-121398524D01*
X164847676Y-121361201D01*
X164844000Y-121323878D01*
X164844000Y-119723956D01*
X164998061Y-119754600D01*
X165201939Y-119754600D01*
X165401898Y-119714826D01*
X165590256Y-119636805D01*
X165733968Y-119540780D01*
X166432604Y-120239416D01*
X166456398Y-120268409D01*
X166485391Y-120292203D01*
X166485396Y-120292208D01*
X166572122Y-120363382D01*
X166690838Y-120426837D01*
X166672188Y-120488318D01*
X166659928Y-120612800D01*
X166659928Y-122312800D01*
X166672188Y-122437282D01*
X166708498Y-122556980D01*
X166767463Y-122667294D01*
X166846815Y-122763985D01*
X166943506Y-122843337D01*
X167053820Y-122902302D01*
X167173518Y-122938612D01*
X167298000Y-122950872D01*
X168561271Y-122950872D01*
X169768601Y-124158203D01*
X169792399Y-124187201D01*
X169821397Y-124210999D01*
X169908123Y-124282174D01*
X169988153Y-124324951D01*
X170040153Y-124352746D01*
X170183414Y-124396203D01*
X170295067Y-124407200D01*
X170295076Y-124407200D01*
X170332399Y-124410876D01*
X170369722Y-124407200D01*
X180353478Y-124407200D01*
X180390800Y-124410876D01*
X180428122Y-124407200D01*
X180428133Y-124407200D01*
X180539786Y-124396203D01*
X180683047Y-124352746D01*
X180815076Y-124282174D01*
X180930801Y-124187201D01*
X180954603Y-124158198D01*
X181409802Y-123703000D01*
X181438801Y-123679201D01*
X181533774Y-123563476D01*
X181604346Y-123431447D01*
X181647803Y-123288186D01*
X181649860Y-123267295D01*
X214789720Y-123267295D01*
X214859022Y-124019538D01*
X215073748Y-124743808D01*
X215425645Y-125412270D01*
X215452652Y-125452688D01*
X215942319Y-125812876D01*
X218463595Y-123291600D01*
X218822805Y-123291600D01*
X221344081Y-125812876D01*
X221833748Y-125452688D01*
X222194049Y-124788718D01*
X222417894Y-124067215D01*
X222496680Y-123315905D01*
X222427378Y-122563662D01*
X222212652Y-121839392D01*
X221860755Y-121170930D01*
X221833748Y-121130512D01*
X221344081Y-120770324D01*
X218822805Y-123291600D01*
X218463595Y-123291600D01*
X215942319Y-120770324D01*
X215452652Y-121130512D01*
X215092351Y-121794482D01*
X214868506Y-122515985D01*
X214789720Y-123267295D01*
X181649860Y-123267295D01*
X181658800Y-123176533D01*
X181658800Y-123176524D01*
X181662476Y-123139201D01*
X181658800Y-123101878D01*
X181658800Y-120590719D01*
X216121924Y-120590719D01*
X218643200Y-123111995D01*
X221164476Y-120590719D01*
X220804288Y-120101052D01*
X220140318Y-119740751D01*
X219418815Y-119516906D01*
X218667505Y-119438120D01*
X217915262Y-119507422D01*
X217190992Y-119722148D01*
X216522530Y-120074045D01*
X216482112Y-120101052D01*
X216121924Y-120590719D01*
X181658800Y-120590719D01*
X181658800Y-119483499D01*
X186052506Y-119483499D01*
X186268628Y-119850258D01*
X186728505Y-120090938D01*
X187226498Y-120237275D01*
X187743471Y-120283648D01*
X188259559Y-120228273D01*
X188754926Y-120073279D01*
X189172172Y-119850258D01*
X189388294Y-119483499D01*
X198052506Y-119483499D01*
X198268628Y-119850258D01*
X198728505Y-120090938D01*
X199226498Y-120237275D01*
X199743471Y-120283648D01*
X200259559Y-120228273D01*
X200754926Y-120073279D01*
X201172172Y-119850258D01*
X201388294Y-119483499D01*
X199720400Y-117815605D01*
X198052506Y-119483499D01*
X189388294Y-119483499D01*
X187720400Y-117815605D01*
X186052506Y-119483499D01*
X181658800Y-119483499D01*
X181658800Y-117659071D01*
X185072752Y-117659071D01*
X185128127Y-118175159D01*
X185283121Y-118670526D01*
X185506142Y-119087772D01*
X185872901Y-119303894D01*
X187540795Y-117636000D01*
X187900005Y-117636000D01*
X189567899Y-119303894D01*
X189934658Y-119087772D01*
X190175338Y-118627895D01*
X190321675Y-118129902D01*
X190363909Y-117659071D01*
X197072752Y-117659071D01*
X197128127Y-118175159D01*
X197283121Y-118670526D01*
X197506142Y-119087772D01*
X197872901Y-119303894D01*
X199540795Y-117636000D01*
X199900005Y-117636000D01*
X201567899Y-119303894D01*
X201934658Y-119087772D01*
X202175338Y-118627895D01*
X202321675Y-118129902D01*
X202368048Y-117612929D01*
X202312673Y-117096841D01*
X202157679Y-116601474D01*
X201934658Y-116184228D01*
X201567899Y-115968106D01*
X199900005Y-117636000D01*
X199540795Y-117636000D01*
X197872901Y-115968106D01*
X197506142Y-116184228D01*
X197265462Y-116644105D01*
X197119125Y-117142098D01*
X197072752Y-117659071D01*
X190363909Y-117659071D01*
X190368048Y-117612929D01*
X190312673Y-117096841D01*
X190157679Y-116601474D01*
X189934658Y-116184228D01*
X189567899Y-115968106D01*
X187900005Y-117636000D01*
X187540795Y-117636000D01*
X185872901Y-115968106D01*
X185506142Y-116184228D01*
X185265462Y-116644105D01*
X185119125Y-117142098D01*
X185072752Y-117659071D01*
X181658800Y-117659071D01*
X181658800Y-115788501D01*
X186052506Y-115788501D01*
X187720400Y-117456395D01*
X189388294Y-115788501D01*
X189172172Y-115421742D01*
X188712295Y-115181062D01*
X188214302Y-115034725D01*
X187697329Y-114988352D01*
X187181241Y-115043727D01*
X186685874Y-115198721D01*
X186268628Y-115421742D01*
X186052506Y-115788501D01*
X181658800Y-115788501D01*
X181658800Y-112318461D01*
X187077400Y-112318461D01*
X187077400Y-112522339D01*
X187117174Y-112722298D01*
X187195195Y-112910656D01*
X187308463Y-113080174D01*
X187452626Y-113224337D01*
X187622144Y-113337605D01*
X187810502Y-113415626D01*
X188010461Y-113455400D01*
X188126838Y-113455400D01*
X188175753Y-113481546D01*
X188319014Y-113525003D01*
X188430667Y-113536000D01*
X188430676Y-113536000D01*
X188467999Y-113539676D01*
X188505322Y-113536000D01*
X191252357Y-113536000D01*
X191355763Y-113690759D01*
X191441004Y-113776000D01*
X191355763Y-113861241D01*
X191198720Y-114096273D01*
X191090547Y-114357426D01*
X191035400Y-114634665D01*
X191035400Y-114917335D01*
X191090547Y-115194574D01*
X191198720Y-115455727D01*
X191355763Y-115690759D01*
X191555641Y-115890637D01*
X191790673Y-116047680D01*
X192051826Y-116155853D01*
X192329065Y-116211000D01*
X192611735Y-116211000D01*
X192888974Y-116155853D01*
X193150127Y-116047680D01*
X193385159Y-115890637D01*
X193507094Y-115768702D01*
X194157303Y-115768702D01*
X194228886Y-116012671D01*
X194484396Y-116133571D01*
X194758584Y-116202300D01*
X195040912Y-116216217D01*
X195320530Y-116174787D01*
X195586692Y-116079603D01*
X195711914Y-116012671D01*
X195777687Y-115788501D01*
X198052506Y-115788501D01*
X199720400Y-117456395D01*
X201388294Y-115788501D01*
X201172172Y-115421742D01*
X200712295Y-115181062D01*
X200214302Y-115034725D01*
X199697329Y-114988352D01*
X199181241Y-115043727D01*
X198685874Y-115198721D01*
X198268628Y-115421742D01*
X198052506Y-115788501D01*
X195777687Y-115788501D01*
X195783497Y-115768702D01*
X194970400Y-114955605D01*
X194157303Y-115768702D01*
X193507094Y-115768702D01*
X193585037Y-115690759D01*
X193719092Y-115490131D01*
X193733729Y-115517514D01*
X193977698Y-115589097D01*
X194790795Y-114776000D01*
X194776653Y-114761858D01*
X194956258Y-114582253D01*
X194970400Y-114596395D01*
X194984543Y-114582253D01*
X195164148Y-114761858D01*
X195150005Y-114776000D01*
X195963102Y-115589097D01*
X196207071Y-115517514D01*
X196327971Y-115262004D01*
X196396700Y-114987816D01*
X196410617Y-114705488D01*
X196369187Y-114425870D01*
X196274003Y-114159708D01*
X196208784Y-114037691D01*
X196221585Y-114027185D01*
X196300937Y-113930494D01*
X196359902Y-113820180D01*
X196396212Y-113700482D01*
X196408472Y-113576000D01*
X196408472Y-111976000D01*
X196396212Y-111851518D01*
X196359902Y-111731820D01*
X196300937Y-111621506D01*
X196221585Y-111524815D01*
X196124894Y-111445463D01*
X196014580Y-111386498D01*
X195894882Y-111350188D01*
X195770400Y-111337928D01*
X194170400Y-111337928D01*
X194045918Y-111350188D01*
X193926220Y-111386498D01*
X193815906Y-111445463D01*
X193719215Y-111524815D01*
X193639863Y-111621506D01*
X193580898Y-111731820D01*
X193551739Y-111827943D01*
X193385159Y-111661363D01*
X193150127Y-111504320D01*
X192888974Y-111396147D01*
X192611735Y-111341000D01*
X192329065Y-111341000D01*
X192051826Y-111396147D01*
X191790673Y-111504320D01*
X191555641Y-111661363D01*
X191355763Y-111861241D01*
X191252357Y-112016000D01*
X189065168Y-112016000D01*
X189029605Y-111930144D01*
X188916337Y-111760626D01*
X188772174Y-111616463D01*
X188602656Y-111503195D01*
X188414298Y-111425174D01*
X188214339Y-111385400D01*
X188010461Y-111385400D01*
X187810502Y-111425174D01*
X187622144Y-111503195D01*
X187452626Y-111616463D01*
X187308463Y-111760626D01*
X187195195Y-111930144D01*
X187117174Y-112118502D01*
X187077400Y-112318461D01*
X181658800Y-112318461D01*
X181658800Y-110754001D01*
X185088803Y-107323999D01*
X197319079Y-107323999D01*
X197356401Y-107327675D01*
X197393723Y-107323999D01*
X197393734Y-107323999D01*
X197505387Y-107313002D01*
X197648648Y-107269545D01*
X197780626Y-107199000D01*
X197858339Y-107199000D01*
X198058298Y-107159226D01*
X198246656Y-107081205D01*
X198416174Y-106967937D01*
X198560337Y-106823774D01*
X198673605Y-106654256D01*
X198751626Y-106465898D01*
X198791400Y-106265939D01*
X198791400Y-106062061D01*
X198751626Y-105862102D01*
X198673605Y-105673744D01*
X198560337Y-105504226D01*
X198416174Y-105360063D01*
X198246656Y-105246795D01*
X198058298Y-105168774D01*
X197858339Y-105129000D01*
X197654461Y-105129000D01*
X197454502Y-105168774D01*
X197266144Y-105246795D01*
X197096626Y-105360063D01*
X196952463Y-105504226D01*
X196839195Y-105673744D01*
X196785241Y-105803999D01*
X191446315Y-105803999D01*
X191484200Y-105613539D01*
X191484200Y-105409661D01*
X191444426Y-105209702D01*
X191366405Y-105021344D01*
X191253137Y-104851826D01*
X191209200Y-104807889D01*
X191209200Y-103014911D01*
X191253137Y-102970974D01*
X191366405Y-102801456D01*
X191444426Y-102613098D01*
X191484200Y-102413139D01*
X191484200Y-102209261D01*
X191444426Y-102009302D01*
X191366405Y-101820944D01*
X191253137Y-101651426D01*
X191108974Y-101507263D01*
X190939456Y-101393995D01*
X190752609Y-101316600D01*
X208166489Y-101316600D01*
X208152463Y-101330626D01*
X208039195Y-101500144D01*
X207961174Y-101688502D01*
X207940815Y-101790857D01*
X207915537Y-101753026D01*
X207771374Y-101608863D01*
X207601856Y-101495595D01*
X207413498Y-101417574D01*
X207213539Y-101377800D01*
X207009661Y-101377800D01*
X206809702Y-101417574D01*
X206621344Y-101495595D01*
X206451826Y-101608863D01*
X206307663Y-101753026D01*
X206194395Y-101922544D01*
X206116374Y-102110902D01*
X206076600Y-102310861D01*
X206076600Y-102372998D01*
X205213798Y-103235801D01*
X205184800Y-103259599D01*
X205161002Y-103288597D01*
X205161001Y-103288598D01*
X205089826Y-103375324D01*
X205019254Y-103507354D01*
X204975798Y-103650615D01*
X204961124Y-103799600D01*
X204964801Y-103836932D01*
X204964800Y-107332689D01*
X204920863Y-107376626D01*
X204807595Y-107546144D01*
X204729574Y-107734502D01*
X204689800Y-107934461D01*
X204689800Y-108138339D01*
X204729574Y-108338298D01*
X204807595Y-108526656D01*
X204920863Y-108696174D01*
X205065026Y-108840337D01*
X205234544Y-108953605D01*
X205422902Y-109031626D01*
X205622861Y-109071400D01*
X205826739Y-109071400D01*
X206026698Y-109031626D01*
X206215056Y-108953605D01*
X206384574Y-108840337D01*
X206528737Y-108696174D01*
X206642005Y-108526656D01*
X206720026Y-108338298D01*
X206759800Y-108138339D01*
X206759800Y-107934461D01*
X206720026Y-107734502D01*
X206642005Y-107546144D01*
X206539605Y-107392891D01*
X210249316Y-111102603D01*
X210273114Y-111131601D01*
X210302112Y-111155399D01*
X210388838Y-111226574D01*
X210498004Y-111284925D01*
X210520868Y-111297146D01*
X210664129Y-111340603D01*
X210775782Y-111351600D01*
X210775791Y-111351600D01*
X210813114Y-111355276D01*
X210850437Y-111351600D01*
X214825022Y-111351600D01*
X214949725Y-111538232D01*
X215156568Y-111745075D01*
X215399789Y-111907590D01*
X215670042Y-112019532D01*
X215956940Y-112076600D01*
X216249460Y-112076600D01*
X216536358Y-112019532D01*
X216806611Y-111907590D01*
X217049832Y-111745075D01*
X217236915Y-111557992D01*
X217304795Y-111684986D01*
X217415238Y-111819562D01*
X217549814Y-111930005D01*
X217703350Y-112012072D01*
X217869946Y-112062608D01*
X218043200Y-112079672D01*
X219243200Y-112079672D01*
X219416454Y-112062608D01*
X219583050Y-112012072D01*
X219736586Y-111930005D01*
X219871162Y-111819562D01*
X219981605Y-111684986D01*
X220063672Y-111531450D01*
X220114208Y-111364854D01*
X220131272Y-111191600D01*
X220131272Y-109991600D01*
X220114208Y-109818346D01*
X220063672Y-109651750D01*
X219981605Y-109498214D01*
X219871162Y-109363638D01*
X219736586Y-109253195D01*
X219609592Y-109185315D01*
X219796675Y-108998232D01*
X219959190Y-108755011D01*
X220071132Y-108484758D01*
X220128200Y-108197860D01*
X220128200Y-107905340D01*
X220071132Y-107618442D01*
X219959190Y-107348189D01*
X219796675Y-107104968D01*
X219589832Y-106898125D01*
X219415440Y-106781600D01*
X219589832Y-106665075D01*
X219796675Y-106458232D01*
X219959190Y-106215011D01*
X220071132Y-105944758D01*
X220128200Y-105657860D01*
X220128200Y-105365340D01*
X220071132Y-105078442D01*
X219959190Y-104808189D01*
X219796675Y-104564968D01*
X219589832Y-104358125D01*
X219528200Y-104316944D01*
X219528200Y-104166256D01*
X219589832Y-104125075D01*
X219796675Y-103918232D01*
X219959190Y-103675011D01*
X220071132Y-103404758D01*
X220128200Y-103117860D01*
X220128200Y-102825340D01*
X220071132Y-102538442D01*
X219959190Y-102268189D01*
X219796675Y-102024968D01*
X219589832Y-101818125D01*
X219346611Y-101655610D01*
X219076358Y-101543668D01*
X218789460Y-101486600D01*
X218496940Y-101486600D01*
X218210042Y-101543668D01*
X217939789Y-101655610D01*
X217696568Y-101818125D01*
X217489725Y-102024968D01*
X217373889Y-102198329D01*
X217131597Y-102122808D01*
X216282805Y-102971600D01*
X217131597Y-103820392D01*
X217373889Y-103744871D01*
X217489725Y-103918232D01*
X217696568Y-104125075D01*
X217758201Y-104166257D01*
X217758200Y-104316944D01*
X217696568Y-104358125D01*
X217489725Y-104564968D01*
X217373889Y-104738329D01*
X217131597Y-104662808D01*
X216282805Y-105511600D01*
X216296948Y-105525743D01*
X216117343Y-105705348D01*
X216103200Y-105691205D01*
X216089058Y-105705348D01*
X215909453Y-105525743D01*
X215923595Y-105511600D01*
X215074803Y-104662808D01*
X214825728Y-104740443D01*
X214699829Y-105004483D01*
X214627861Y-105288011D01*
X214612589Y-105580131D01*
X214654601Y-105869619D01*
X214674788Y-105926601D01*
X213173403Y-105926601D01*
X211246799Y-103999997D01*
X215254408Y-103999997D01*
X215329714Y-104241600D01*
X215254408Y-104483203D01*
X216103200Y-105331995D01*
X216951992Y-104483203D01*
X216876686Y-104241600D01*
X216951992Y-103999997D01*
X216103200Y-103151205D01*
X215254408Y-103999997D01*
X211246799Y-103999997D01*
X210286933Y-103040131D01*
X214612589Y-103040131D01*
X214654601Y-103329619D01*
X214752281Y-103605347D01*
X214825728Y-103742757D01*
X215074803Y-103820392D01*
X215923595Y-102971600D01*
X215074803Y-102122808D01*
X214825728Y-102200443D01*
X214699829Y-102464483D01*
X214627861Y-102748011D01*
X214612589Y-103040131D01*
X210286933Y-103040131D01*
X209815066Y-102568265D01*
X209873605Y-102480656D01*
X209951626Y-102292298D01*
X209991400Y-102092339D01*
X209991400Y-101888461D01*
X209951626Y-101688502D01*
X209873605Y-101500144D01*
X209760337Y-101330626D01*
X209746311Y-101316600D01*
X211119456Y-101316600D01*
X211139355Y-101332931D01*
X211723066Y-101916643D01*
X211734375Y-101973497D01*
X211812396Y-102161855D01*
X211925664Y-102331373D01*
X212069827Y-102475536D01*
X212239345Y-102588804D01*
X212427703Y-102666825D01*
X212627662Y-102706599D01*
X212831540Y-102706599D01*
X213031499Y-102666825D01*
X213219857Y-102588804D01*
X213389375Y-102475536D01*
X213533538Y-102331373D01*
X213646806Y-102161855D01*
X213724827Y-101973497D01*
X213730852Y-101943203D01*
X215254408Y-101943203D01*
X216103200Y-102791995D01*
X216951992Y-101943203D01*
X216874357Y-101694128D01*
X216610317Y-101568229D01*
X216326789Y-101496261D01*
X216034669Y-101480989D01*
X215745181Y-101523001D01*
X215469453Y-101620681D01*
X215332043Y-101694128D01*
X215254408Y-101943203D01*
X213730852Y-101943203D01*
X213764601Y-101773538D01*
X213764601Y-101569660D01*
X213724827Y-101369701D01*
X213646806Y-101181343D01*
X213533538Y-101011825D01*
X213389375Y-100867662D01*
X213219857Y-100754394D01*
X213031499Y-100676373D01*
X212974645Y-100665064D01*
X212610845Y-100301265D01*
X212606595Y-100258110D01*
X212555989Y-100091287D01*
X212473811Y-99937541D01*
X212363217Y-99802783D01*
X212344128Y-99787117D01*
X212228459Y-99692189D01*
X212074713Y-99610011D01*
X211907890Y-99559405D01*
X211777877Y-99546600D01*
X211777876Y-99546600D01*
X211734400Y-99542318D01*
X211690923Y-99546600D01*
X191986400Y-99546600D01*
X191986400Y-93914050D01*
X192049400Y-93851050D01*
X192049400Y-93768941D01*
X192081937Y-93729294D01*
X192140902Y-93618980D01*
X192176400Y-93501959D01*
X192211898Y-93618980D01*
X192270863Y-93729294D01*
X192303400Y-93768941D01*
X192303400Y-93851050D01*
X192462150Y-94009800D01*
X192501400Y-94012872D01*
X192625882Y-94000612D01*
X192651400Y-93992871D01*
X192676918Y-94000612D01*
X192801400Y-94012872D01*
X192840650Y-94009800D01*
X192999400Y-93851050D01*
X192999400Y-93768941D01*
X193031937Y-93729294D01*
X193090902Y-93618980D01*
X193127212Y-93499282D01*
X193139472Y-93374800D01*
X193136400Y-93130550D01*
X192999400Y-92993550D01*
X192999400Y-92971800D01*
X193253400Y-92971800D01*
X193253400Y-93851050D01*
X193412150Y-94009800D01*
X193451400Y-94012872D01*
X193575882Y-94000612D01*
X193695580Y-93964302D01*
X193805894Y-93905337D01*
X193902585Y-93825985D01*
X193981937Y-93729294D01*
X194040902Y-93618980D01*
X194077212Y-93499282D01*
X194089472Y-93374800D01*
X194086400Y-93130550D01*
X193927650Y-92971800D01*
X193253400Y-92971800D01*
X192999400Y-92971800D01*
X192979400Y-92971800D01*
X192979400Y-92717800D01*
X192999400Y-92717800D01*
X192999400Y-92697800D01*
X193253400Y-92697800D01*
X193253400Y-92717800D01*
X193927650Y-92717800D01*
X194086400Y-92559050D01*
X194089472Y-92314800D01*
X194077212Y-92190318D01*
X194040902Y-92070620D01*
X193981937Y-91960306D01*
X193902585Y-91863615D01*
X193805894Y-91784263D01*
X193732065Y-91744800D01*
X193805894Y-91705337D01*
X193902585Y-91625985D01*
X193981937Y-91529294D01*
X194040902Y-91418980D01*
X194077212Y-91299282D01*
X194089472Y-91174800D01*
X194089472Y-90114800D01*
X194077212Y-89990318D01*
X194040902Y-89870620D01*
X194026474Y-89843627D01*
X194140722Y-89729379D01*
X194234213Y-89806105D01*
X194387749Y-89888172D01*
X194554345Y-89938708D01*
X194727599Y-89955772D01*
X195577601Y-89955772D01*
X195750855Y-89938708D01*
X195917451Y-89888172D01*
X196070987Y-89806105D01*
X196205562Y-89695662D01*
X196316005Y-89561087D01*
X196398072Y-89407551D01*
X196448608Y-89240955D01*
X196458226Y-89143293D01*
X197528800Y-89143293D01*
X197528800Y-89494907D01*
X197597396Y-89839765D01*
X197731953Y-90164615D01*
X197927300Y-90456971D01*
X198175929Y-90705600D01*
X198468285Y-90900947D01*
X198793135Y-91035504D01*
X199137993Y-91104100D01*
X199489607Y-91104100D01*
X199834465Y-91035504D01*
X200159315Y-90900947D01*
X200451671Y-90705600D01*
X200700300Y-90456971D01*
X200895647Y-90164615D01*
X201030204Y-89839765D01*
X201098800Y-89494907D01*
X201098800Y-89143293D01*
X201030204Y-88798435D01*
X200895647Y-88473585D01*
X200700300Y-88181229D01*
X200688171Y-88169100D01*
X205145728Y-88169100D01*
X205145728Y-90469100D01*
X205157988Y-90593582D01*
X205194298Y-90713280D01*
X205253263Y-90823594D01*
X205332615Y-90920285D01*
X205429306Y-90999637D01*
X205539620Y-91058602D01*
X205659318Y-91094912D01*
X205783800Y-91107172D01*
X208083800Y-91107172D01*
X208208282Y-91094912D01*
X208327980Y-91058602D01*
X208438294Y-90999637D01*
X208534985Y-90920285D01*
X208614337Y-90823594D01*
X208673302Y-90713280D01*
X208709612Y-90593582D01*
X208721872Y-90469100D01*
X208721872Y-88169100D01*
X208709612Y-88044618D01*
X208673302Y-87924920D01*
X208614337Y-87814606D01*
X208534985Y-87717915D01*
X208438294Y-87638563D01*
X208327980Y-87579598D01*
X208208282Y-87543288D01*
X208083800Y-87531028D01*
X205783800Y-87531028D01*
X205659318Y-87543288D01*
X205539620Y-87579598D01*
X205429306Y-87638563D01*
X205332615Y-87717915D01*
X205253263Y-87814606D01*
X205194298Y-87924920D01*
X205157988Y-88044618D01*
X205145728Y-88169100D01*
X200688171Y-88169100D01*
X200451671Y-87932600D01*
X200159315Y-87737253D01*
X199834465Y-87602696D01*
X199489607Y-87534100D01*
X199137993Y-87534100D01*
X198793135Y-87602696D01*
X198468285Y-87737253D01*
X198175929Y-87932600D01*
X197927300Y-88181229D01*
X197731953Y-88473585D01*
X197597396Y-88798435D01*
X197528800Y-89143293D01*
X196458226Y-89143293D01*
X196465672Y-89067701D01*
X196465672Y-88995420D01*
X199705293Y-85755800D01*
X209074008Y-85755800D01*
X210704330Y-87386123D01*
X210763355Y-87458045D01*
X210835277Y-87517070D01*
X210835279Y-87517072D01*
X210997410Y-87650129D01*
X211050383Y-87693603D01*
X211377852Y-87868639D01*
X211677517Y-87959541D01*
X211733176Y-87976425D01*
X212102700Y-88012820D01*
X212195297Y-88003700D01*
X216856197Y-88003700D01*
X217133124Y-87976425D01*
X217488448Y-87868639D01*
X217633792Y-87790951D01*
X217851957Y-87769464D01*
X218167696Y-87673685D01*
X218458682Y-87518150D01*
X218713734Y-87308834D01*
X218923050Y-87053782D01*
X219078585Y-86762796D01*
X219174364Y-86447057D01*
X219206704Y-86118700D01*
X219174364Y-85790343D01*
X219078585Y-85474604D01*
X218923050Y-85183618D01*
X218713734Y-84928566D01*
X218458682Y-84719250D01*
X218167696Y-84563715D01*
X217851957Y-84467936D01*
X217633792Y-84446449D01*
X217488448Y-84368761D01*
X217133124Y-84260975D01*
X216856197Y-84233700D01*
X212883493Y-84233700D01*
X211253174Y-82603382D01*
X211194145Y-82531455D01*
X210907117Y-82295897D01*
X210579648Y-82120861D01*
X210224324Y-82013075D01*
X209947397Y-81985800D01*
X209947389Y-81985800D01*
X209854800Y-81976681D01*
X209762211Y-81985800D01*
X199017086Y-81985800D01*
X198924499Y-81976681D01*
X198831912Y-81985800D01*
X198831903Y-81985800D01*
X198554976Y-82013075D01*
X198199652Y-82120861D01*
X197872183Y-82295897D01*
X197825815Y-82333950D01*
X197657079Y-82472428D01*
X197657077Y-82472430D01*
X197585155Y-82531455D01*
X197526130Y-82603377D01*
X194799880Y-85329628D01*
X194727599Y-85329628D01*
X194554345Y-85346692D01*
X194387749Y-85397228D01*
X194234213Y-85479295D01*
X194099638Y-85589738D01*
X193989195Y-85724313D01*
X193907128Y-85877849D01*
X193856592Y-86044445D01*
X193839528Y-86217699D01*
X193839528Y-86289980D01*
X193754228Y-86375280D01*
X193577698Y-86590383D01*
X193402662Y-86917852D01*
X193294875Y-87273176D01*
X193258481Y-87642700D01*
X193294875Y-88012224D01*
X193391092Y-88329407D01*
X192615398Y-89105101D01*
X192586400Y-89128899D01*
X192562602Y-89157897D01*
X192562601Y-89157898D01*
X192491426Y-89244624D01*
X192420854Y-89376654D01*
X192400977Y-89442182D01*
X192377398Y-89519914D01*
X192372521Y-89569429D01*
X192303400Y-89638550D01*
X192303400Y-89720659D01*
X192270863Y-89760306D01*
X192211898Y-89870620D01*
X192176400Y-89987641D01*
X192140902Y-89870620D01*
X192081937Y-89760306D01*
X192049400Y-89720659D01*
X192049400Y-89638550D01*
X191890650Y-89479800D01*
X191851400Y-89476728D01*
X191726918Y-89488988D01*
X191701400Y-89496729D01*
X191675882Y-89488988D01*
X191551400Y-89476728D01*
X190901400Y-89476728D01*
X190776918Y-89488988D01*
X190657220Y-89525298D01*
X190622583Y-89543812D01*
X190653412Y-89442182D01*
X190665672Y-89317700D01*
X190662600Y-87928450D01*
X190503852Y-87769702D01*
X190662600Y-87769702D01*
X190662600Y-87758547D01*
X190712063Y-87832574D01*
X190856226Y-87976737D01*
X191025744Y-88090005D01*
X191214102Y-88168026D01*
X191414061Y-88207800D01*
X191617939Y-88207800D01*
X191817898Y-88168026D01*
X192006256Y-88090005D01*
X192175774Y-87976737D01*
X192319937Y-87832574D01*
X192433205Y-87663056D01*
X192511226Y-87474698D01*
X192551000Y-87274739D01*
X192551000Y-87070861D01*
X192511226Y-86870902D01*
X192433205Y-86682544D01*
X192319937Y-86513026D01*
X192276000Y-86469089D01*
X192276000Y-84799422D01*
X192279676Y-84762099D01*
X192276000Y-84724776D01*
X192276000Y-84724767D01*
X192265003Y-84613114D01*
X192221546Y-84469853D01*
X192179771Y-84391698D01*
X192150974Y-84337823D01*
X192079799Y-84251097D01*
X192056001Y-84222099D01*
X192027004Y-84198302D01*
X190667922Y-82839220D01*
X190669672Y-82821450D01*
X190669672Y-82333950D01*
X190652728Y-82161915D01*
X190602547Y-81996491D01*
X190521058Y-81844036D01*
X190411392Y-81710408D01*
X190277764Y-81600742D01*
X190125309Y-81519253D01*
X189959885Y-81469072D01*
X189787850Y-81452128D01*
X188875350Y-81452128D01*
X188703315Y-81469072D01*
X188564876Y-81511067D01*
X188557228Y-81433415D01*
X188507047Y-81267991D01*
X188425558Y-81115536D01*
X188315892Y-80981908D01*
X188230344Y-80911700D01*
X188315892Y-80841492D01*
X188425558Y-80707864D01*
X188507047Y-80555409D01*
X188557228Y-80389985D01*
X188574172Y-80217950D01*
X188574172Y-79730450D01*
X188557228Y-79558415D01*
X188528264Y-79462933D01*
X188659448Y-79423139D01*
X188986917Y-79248103D01*
X189095367Y-79159100D01*
X205039680Y-79159100D01*
X205076075Y-79528624D01*
X205183861Y-79883948D01*
X205358897Y-80211417D01*
X205594455Y-80498445D01*
X205881483Y-80734003D01*
X206208952Y-80909039D01*
X206564276Y-81016825D01*
X206841203Y-81044100D01*
X214103208Y-81044100D01*
X214325528Y-81266420D01*
X214325528Y-81828701D01*
X214342592Y-82001955D01*
X214393128Y-82168551D01*
X214475195Y-82322087D01*
X214585638Y-82456662D01*
X214720213Y-82567105D01*
X214873749Y-82649172D01*
X215040345Y-82699708D01*
X215213599Y-82716772D01*
X215904299Y-82716772D01*
X216038751Y-82788638D01*
X216394076Y-82896425D01*
X216763600Y-82932819D01*
X217133124Y-82896425D01*
X217488448Y-82788638D01*
X217622900Y-82716772D01*
X218313601Y-82716772D01*
X218486855Y-82699708D01*
X218653451Y-82649172D01*
X218806987Y-82567105D01*
X218941562Y-82456662D01*
X219052005Y-82322087D01*
X219134072Y-82168551D01*
X219184608Y-82001955D01*
X219201672Y-81828701D01*
X219201672Y-80248699D01*
X219184608Y-80075445D01*
X219134072Y-79908849D01*
X219052005Y-79755313D01*
X218941562Y-79620738D01*
X218806987Y-79510295D01*
X218653451Y-79428228D01*
X218486855Y-79377692D01*
X218313601Y-79360628D01*
X217751321Y-79360628D01*
X216282374Y-77891682D01*
X216223345Y-77819755D01*
X215936317Y-77584197D01*
X215608848Y-77409161D01*
X215253524Y-77301375D01*
X214976597Y-77274100D01*
X214976589Y-77274100D01*
X214884000Y-77264981D01*
X214791411Y-77274100D01*
X206841203Y-77274100D01*
X206564276Y-77301375D01*
X206208952Y-77409161D01*
X205881483Y-77584197D01*
X205594455Y-77819755D01*
X205358897Y-78106783D01*
X205183861Y-78434252D01*
X205076075Y-78789576D01*
X205039680Y-79159100D01*
X189095367Y-79159100D01*
X189273945Y-79012545D01*
X189332974Y-78940618D01*
X194370299Y-73903293D01*
X197528800Y-73903293D01*
X197528800Y-74254907D01*
X197597396Y-74599765D01*
X197731953Y-74924615D01*
X197927300Y-75216971D01*
X198175929Y-75465600D01*
X198468285Y-75660947D01*
X198793135Y-75795504D01*
X199137993Y-75864100D01*
X199489607Y-75864100D01*
X199834465Y-75795504D01*
X200159315Y-75660947D01*
X200451671Y-75465600D01*
X200700300Y-75216971D01*
X200895647Y-74924615D01*
X201030204Y-74599765D01*
X201098800Y-74254907D01*
X201098800Y-73903293D01*
X201082408Y-73820881D01*
X216020324Y-73820881D01*
X216380512Y-74310548D01*
X217044482Y-74670849D01*
X217765985Y-74894694D01*
X218517295Y-74973480D01*
X219269538Y-74904178D01*
X219993808Y-74689452D01*
X220662270Y-74337555D01*
X220702688Y-74310548D01*
X221062876Y-73820881D01*
X218541600Y-71299605D01*
X216020324Y-73820881D01*
X201082408Y-73820881D01*
X201030204Y-73558435D01*
X200895647Y-73233585D01*
X200700300Y-72941229D01*
X200451671Y-72692600D01*
X200159315Y-72497253D01*
X199834465Y-72362696D01*
X199489607Y-72294100D01*
X199137993Y-72294100D01*
X198793135Y-72362696D01*
X198468285Y-72497253D01*
X198175929Y-72692600D01*
X197927300Y-72941229D01*
X197731953Y-73233585D01*
X197597396Y-73558435D01*
X197528800Y-73903293D01*
X194370299Y-73903293D01*
X195999492Y-72274101D01*
X205003009Y-72274101D01*
X205666380Y-72937472D01*
X205881482Y-73114002D01*
X206208951Y-73289038D01*
X206564275Y-73396824D01*
X206933799Y-73433219D01*
X207303323Y-73396824D01*
X207658648Y-73289038D01*
X207986116Y-73114002D01*
X208273144Y-72878444D01*
X208508702Y-72591416D01*
X208683738Y-72263948D01*
X208791524Y-71908623D01*
X208827919Y-71539099D01*
X208791524Y-71169575D01*
X208769113Y-71095695D01*
X214688120Y-71095695D01*
X214757422Y-71847938D01*
X214972148Y-72572208D01*
X215324045Y-73240670D01*
X215351052Y-73281088D01*
X215840719Y-73641276D01*
X218361995Y-71120000D01*
X218721205Y-71120000D01*
X221242481Y-73641276D01*
X221732148Y-73281088D01*
X222092449Y-72617118D01*
X222316294Y-71895615D01*
X222395080Y-71144305D01*
X222325778Y-70392062D01*
X222111052Y-69667792D01*
X221759155Y-68999330D01*
X221732148Y-68958912D01*
X221242481Y-68598724D01*
X218721205Y-71120000D01*
X218361995Y-71120000D01*
X215840719Y-68598724D01*
X215351052Y-68958912D01*
X214990751Y-69622882D01*
X214766906Y-70344385D01*
X214688120Y-71095695D01*
X208769113Y-71095695D01*
X208683738Y-70814251D01*
X208508702Y-70486782D01*
X208332172Y-70271680D01*
X207182175Y-69121683D01*
X207123146Y-69049756D01*
X206836118Y-68814198D01*
X206508649Y-68639162D01*
X206153325Y-68531376D01*
X205876398Y-68504101D01*
X205876390Y-68504101D01*
X205783801Y-68494982D01*
X205691212Y-68504101D01*
X195311296Y-68504101D01*
X195218699Y-68494981D01*
X195126102Y-68504101D01*
X194849175Y-68531376D01*
X194493851Y-68639162D01*
X194342614Y-68720000D01*
X194166382Y-68814198D01*
X193951278Y-68990729D01*
X193951276Y-68990731D01*
X193879354Y-69049756D01*
X193820329Y-69121678D01*
X187153808Y-75788200D01*
X186254672Y-75788200D01*
X186254672Y-75673200D01*
X186242412Y-75548718D01*
X186206102Y-75429020D01*
X186147137Y-75318706D01*
X186067785Y-75222015D01*
X185971094Y-75142663D01*
X185860780Y-75083698D01*
X185741082Y-75047388D01*
X185616600Y-75035128D01*
X181616600Y-75035128D01*
X181492118Y-75047388D01*
X181372420Y-75083698D01*
X181262106Y-75142663D01*
X181165415Y-75222015D01*
X181086063Y-75318706D01*
X181027098Y-75429020D01*
X180990788Y-75548718D01*
X180978528Y-75673200D01*
X180978528Y-79673200D01*
X180990788Y-79797682D01*
X181027098Y-79917380D01*
X181086063Y-80027694D01*
X181165415Y-80124385D01*
X181262106Y-80203737D01*
X181372420Y-80262702D01*
X181492118Y-80299012D01*
X181616600Y-80311272D01*
X185616600Y-80311272D01*
X185741082Y-80299012D01*
X185860780Y-80262702D01*
X185900352Y-80241550D01*
X185914972Y-80389985D01*
X185965153Y-80555409D01*
X186046642Y-80707864D01*
X186156308Y-80841492D01*
X186241856Y-80911700D01*
X186156308Y-80981908D01*
X186046642Y-81115536D01*
X185965153Y-81267991D01*
X185914972Y-81433415D01*
X185898028Y-81605450D01*
X185898028Y-82092950D01*
X185914972Y-82264985D01*
X185965153Y-82430409D01*
X186046642Y-82582864D01*
X186156308Y-82716492D01*
X186162349Y-82721450D01*
X186156308Y-82726408D01*
X186046642Y-82860036D01*
X185965153Y-83012491D01*
X185914972Y-83177915D01*
X185898028Y-83349950D01*
X185898028Y-83837450D01*
X185914972Y-84009485D01*
X185965153Y-84174909D01*
X186046642Y-84327364D01*
X186156308Y-84460992D01*
X186162664Y-84466208D01*
X186084915Y-84530015D01*
X186005563Y-84626706D01*
X185946598Y-84737020D01*
X185910288Y-84856718D01*
X185898028Y-84981200D01*
X185901100Y-85182950D01*
X186059850Y-85341700D01*
X187109100Y-85341700D01*
X187109100Y-85321700D01*
X187363100Y-85321700D01*
X187363100Y-85341700D01*
X187383100Y-85341700D01*
X187383100Y-85595700D01*
X187363100Y-85595700D01*
X187363100Y-86432450D01*
X187521850Y-86591200D01*
X187936100Y-86594272D01*
X188040891Y-86583951D01*
X188042600Y-87356950D01*
X188201350Y-87515700D01*
X189225600Y-87515700D01*
X189225600Y-85491450D01*
X189177600Y-85443450D01*
X189204600Y-85416450D01*
X189204600Y-84579700D01*
X189184600Y-84579700D01*
X189184600Y-84325700D01*
X189204600Y-84325700D01*
X189204600Y-84305700D01*
X189458600Y-84305700D01*
X189458600Y-84325700D01*
X189478600Y-84325700D01*
X189478600Y-84579700D01*
X189458600Y-84579700D01*
X189458600Y-85416450D01*
X189506600Y-85464450D01*
X189479600Y-85491450D01*
X189479600Y-87515700D01*
X189499600Y-87515700D01*
X189499600Y-87769700D01*
X189479600Y-87769700D01*
X189479600Y-87789700D01*
X189225600Y-87789700D01*
X189225600Y-87769700D01*
X188201350Y-87769700D01*
X188042600Y-87928450D01*
X188040381Y-88931800D01*
X188010461Y-88931800D01*
X187810502Y-88971574D01*
X187622144Y-89049595D01*
X187452626Y-89162863D01*
X187308463Y-89307026D01*
X187195195Y-89476544D01*
X187141241Y-89606799D01*
X185233757Y-89606799D01*
X185284494Y-89520699D01*
X183616600Y-87852805D01*
X181948706Y-89520699D01*
X181999443Y-89606799D01*
X175092724Y-89606799D01*
X175055401Y-89603123D01*
X175018078Y-89606799D01*
X175018068Y-89606799D01*
X174906415Y-89617796D01*
X174763154Y-89661253D01*
X174631125Y-89731825D01*
X174515400Y-89826798D01*
X174491602Y-89855796D01*
X173174408Y-91172991D01*
X173145410Y-91196789D01*
X173121612Y-91225787D01*
X173121611Y-91225788D01*
X173050436Y-91312514D01*
X172979864Y-91444544D01*
X172949590Y-91544348D01*
X172936408Y-91587804D01*
X172927650Y-91676728D01*
X172921734Y-91736790D01*
X172925411Y-91774122D01*
X172925409Y-99092789D01*
X170111189Y-101907010D01*
X146595115Y-101907010D01*
X146557790Y-101903334D01*
X146520465Y-101907010D01*
X146520457Y-101907010D01*
X146408804Y-101918007D01*
X146265543Y-101961464D01*
X146133514Y-102032036D01*
X146017789Y-102127009D01*
X145993991Y-102156007D01*
X144790999Y-103359000D01*
X144728861Y-103359000D01*
X144528902Y-103398774D01*
X144340544Y-103476795D01*
X144171026Y-103590063D01*
X144026863Y-103734226D01*
X143913595Y-103903744D01*
X143835574Y-104092102D01*
X143795800Y-104292061D01*
X143795800Y-104495939D01*
X143835574Y-104695898D01*
X143913595Y-104884256D01*
X144026863Y-105053774D01*
X144171026Y-105197937D01*
X144340544Y-105311205D01*
X144528902Y-105389226D01*
X144728861Y-105429000D01*
X144932739Y-105429000D01*
X144964200Y-105422742D01*
X144964200Y-105511939D01*
X145003974Y-105711898D01*
X145072109Y-105876390D01*
X144116630Y-105876390D01*
X144138600Y-105765939D01*
X144138600Y-105562061D01*
X144098826Y-105362102D01*
X144020805Y-105173744D01*
X143907537Y-105004226D01*
X143763374Y-104860063D01*
X143762000Y-104859145D01*
X143762000Y-102405311D01*
X143805937Y-102361374D01*
X143919205Y-102191856D01*
X143997226Y-102003498D01*
X144037000Y-101803539D01*
X144037000Y-101599661D01*
X143997226Y-101399702D01*
X143919205Y-101211344D01*
X143805937Y-101041826D01*
X143661774Y-100897663D01*
X143492256Y-100784395D01*
X143303898Y-100706374D01*
X143103939Y-100666600D01*
X142900061Y-100666600D01*
X142700102Y-100706374D01*
X142511744Y-100784395D01*
X142342226Y-100897663D01*
X142198063Y-101041826D01*
X142084795Y-101211344D01*
X142006774Y-101399702D01*
X141967000Y-101599661D01*
X141967000Y-101803539D01*
X142006774Y-102003498D01*
X142084795Y-102191856D01*
X142198063Y-102361374D01*
X142242000Y-102405311D01*
X142242001Y-105090524D01*
X142186395Y-105173744D01*
X142108374Y-105362102D01*
X142068600Y-105562061D01*
X142068600Y-105765939D01*
X142090570Y-105876390D01*
X134236940Y-105876390D01*
X134277392Y-105843192D01*
X134387058Y-105709564D01*
X134468547Y-105557109D01*
X134518728Y-105391685D01*
X134535672Y-105219650D01*
X134535672Y-104732150D01*
X134518728Y-104560115D01*
X134468547Y-104394691D01*
X134387058Y-104242236D01*
X134277392Y-104108608D01*
X134271036Y-104103392D01*
X134348785Y-104039585D01*
X134428137Y-103942894D01*
X134487102Y-103832580D01*
X134523412Y-103712882D01*
X134535672Y-103588400D01*
X134532600Y-103386650D01*
X134373850Y-103227900D01*
X133324600Y-103227900D01*
X133324600Y-103247900D01*
X133070600Y-103247900D01*
X133070600Y-103227900D01*
X131292600Y-103227900D01*
X131292600Y-103247900D01*
X131038600Y-103247900D01*
X131038600Y-103227900D01*
X129260600Y-103227900D01*
X129260600Y-103247900D01*
X129006600Y-103247900D01*
X129006600Y-103227900D01*
X127957350Y-103227900D01*
X127798600Y-103386650D01*
X127795528Y-103588400D01*
X127807788Y-103712882D01*
X127844098Y-103832580D01*
X127903063Y-103942894D01*
X127982415Y-104039585D01*
X128060164Y-104103392D01*
X128053808Y-104108608D01*
X127944142Y-104242236D01*
X127862653Y-104394691D01*
X127812472Y-104560115D01*
X127795528Y-104732150D01*
X127795528Y-105219650D01*
X127812472Y-105391685D01*
X127862653Y-105557109D01*
X127944142Y-105709564D01*
X128053808Y-105843192D01*
X128187436Y-105952858D01*
X128339891Y-106034347D01*
X128505315Y-106084528D01*
X128677350Y-106101472D01*
X129184371Y-106101472D01*
X129737030Y-106654132D01*
X129740395Y-106662256D01*
X129853663Y-106831774D01*
X129997826Y-106975937D01*
X130167344Y-107089205D01*
X130355702Y-107167226D01*
X130555661Y-107207000D01*
X130617799Y-107207000D01*
X131458210Y-108047412D01*
X131482009Y-108076411D01*
X131511007Y-108100209D01*
X131597733Y-108171384D01*
X131647266Y-108197860D01*
X131729763Y-108241956D01*
X131873024Y-108285413D01*
X131984677Y-108296410D01*
X131984686Y-108296410D01*
X132022009Y-108300086D01*
X132059332Y-108296410D01*
X152992409Y-108296410D01*
X153308399Y-108612400D01*
X150710122Y-108612400D01*
X150672799Y-108608724D01*
X150635476Y-108612400D01*
X150635467Y-108612400D01*
X150523814Y-108623397D01*
X150380553Y-108666854D01*
X150248524Y-108737426D01*
X150132799Y-108832399D01*
X150109001Y-108861397D01*
X148802522Y-110167877D01*
X148796005Y-110152144D01*
X148682737Y-109982626D01*
X148538574Y-109838463D01*
X148369056Y-109725195D01*
X148180698Y-109647174D01*
X147980739Y-109607400D01*
X147776861Y-109607400D01*
X147576902Y-109647174D01*
X147388544Y-109725195D01*
X147219026Y-109838463D01*
X147074863Y-109982626D01*
X146961595Y-110152144D01*
X146883574Y-110340502D01*
X146872265Y-110397356D01*
X145835822Y-111433800D01*
X142168854Y-111433800D01*
X142120656Y-111401595D01*
X141932298Y-111323574D01*
X141732339Y-111283800D01*
X141528461Y-111283800D01*
X141328502Y-111323574D01*
X141140144Y-111401595D01*
X140970626Y-111514863D01*
X140826463Y-111659026D01*
X140713195Y-111828544D01*
X140635174Y-112016902D01*
X140595400Y-112216861D01*
X140595400Y-112420739D01*
X140635174Y-112620698D01*
X140713195Y-112809056D01*
X140826463Y-112978574D01*
X140970626Y-113122737D01*
X141140144Y-113236005D01*
X141328502Y-113314026D01*
X141528461Y-113353800D01*
X141654198Y-113353800D01*
X138457365Y-116550633D01*
X138312411Y-116521800D01*
X138039589Y-116521800D01*
X137772011Y-116575025D01*
X137519957Y-116679429D01*
X137293114Y-116831001D01*
X137100201Y-117023914D01*
X136948629Y-117250757D01*
X136844225Y-117502811D01*
X136791000Y-117770389D01*
X136791000Y-118043211D01*
X136844225Y-118310789D01*
X136948629Y-118562843D01*
X137100201Y-118789686D01*
X137293114Y-118982599D01*
X137519957Y-119134171D01*
X137772011Y-119238575D01*
X138039589Y-119291800D01*
X138312411Y-119291800D01*
X138579989Y-119238575D01*
X138832043Y-119134171D01*
X139058886Y-118982599D01*
X139251799Y-118789686D01*
X139403371Y-118562843D01*
X139507775Y-118310789D01*
X139561000Y-118043211D01*
X139561000Y-117770389D01*
X139532167Y-117625435D01*
X143335602Y-113822000D01*
X146065998Y-113822000D01*
X143337365Y-116550633D01*
X143192411Y-116521800D01*
X142919589Y-116521800D01*
X142652011Y-116575025D01*
X142399957Y-116679429D01*
X142173114Y-116831001D01*
X141980201Y-117023914D01*
X141828629Y-117250757D01*
X141724225Y-117502811D01*
X141671000Y-117770389D01*
X141671000Y-118043211D01*
X141724225Y-118310789D01*
X141828629Y-118562843D01*
X141980201Y-118789686D01*
X142173114Y-118982599D01*
X142399957Y-119134171D01*
X142652011Y-119238575D01*
X142919589Y-119291800D01*
X143192411Y-119291800D01*
X143459989Y-119238575D01*
X143712043Y-119134171D01*
X143938886Y-118982599D01*
X144131799Y-118789686D01*
X144283371Y-118562843D01*
X144364657Y-118366600D01*
X149182328Y-118366600D01*
X149194588Y-118491082D01*
X149230898Y-118610780D01*
X149289863Y-118721094D01*
X149369215Y-118817785D01*
X149465906Y-118897137D01*
X149576220Y-118956102D01*
X149695918Y-118992412D01*
X149820400Y-119004672D01*
X150234650Y-119001600D01*
X150393400Y-118842850D01*
X150393400Y-118006100D01*
X149344150Y-118006100D01*
X149185400Y-118164850D01*
X149182328Y-118366600D01*
X144364657Y-118366600D01*
X144387775Y-118310789D01*
X144441000Y-118043211D01*
X144441000Y-117770389D01*
X144412167Y-117625435D01*
X147000145Y-115037456D01*
X147015826Y-115053137D01*
X147185344Y-115166405D01*
X147373702Y-115244426D01*
X147573661Y-115284200D01*
X147777539Y-115284200D01*
X147977498Y-115244426D01*
X148165856Y-115166405D01*
X148335374Y-115053137D01*
X148479537Y-114908974D01*
X148592805Y-114739456D01*
X148599322Y-114723723D01*
X148834401Y-114958803D01*
X148858199Y-114987801D01*
X148973924Y-115082774D01*
X149105953Y-115153346D01*
X149249214Y-115196803D01*
X149351825Y-115206909D01*
X149367451Y-115225950D01*
X149330942Y-115270436D01*
X149249453Y-115422891D01*
X149199272Y-115588315D01*
X149182328Y-115760350D01*
X149182328Y-116247850D01*
X149199272Y-116419885D01*
X149249453Y-116585309D01*
X149330942Y-116737764D01*
X149440608Y-116871392D01*
X149446964Y-116876608D01*
X149369215Y-116940415D01*
X149289863Y-117037106D01*
X149230898Y-117147420D01*
X149194588Y-117267118D01*
X149182328Y-117391600D01*
X149185400Y-117593350D01*
X149344150Y-117752100D01*
X150393400Y-117752100D01*
X150393400Y-117732100D01*
X150647400Y-117732100D01*
X150647400Y-117752100D01*
X150667400Y-117752100D01*
X150667400Y-118006100D01*
X150647400Y-118006100D01*
X150647400Y-118842850D01*
X150806150Y-119001600D01*
X151220400Y-119004672D01*
X151344882Y-118992412D01*
X151464580Y-118956102D01*
X151574894Y-118897137D01*
X151671585Y-118817785D01*
X151750937Y-118721094D01*
X151809902Y-118610780D01*
X151834920Y-118528306D01*
X151889400Y-118533672D01*
X152091150Y-118530600D01*
X152249900Y-118371850D01*
X152249900Y-117322600D01*
X152229900Y-117322600D01*
X152229900Y-117068600D01*
X152249900Y-117068600D01*
X152249900Y-115189000D01*
X152229900Y-115189000D01*
X152229900Y-114935000D01*
X152249900Y-114935000D01*
X152249900Y-114915000D01*
X152503900Y-114915000D01*
X152503900Y-114935000D01*
X152523900Y-114935000D01*
X152523900Y-115189000D01*
X152503900Y-115189000D01*
X152503900Y-117068600D01*
X152523900Y-117068600D01*
X152523900Y-117322600D01*
X152503900Y-117322600D01*
X152503900Y-118371850D01*
X152662650Y-118530600D01*
X152864400Y-118533672D01*
X152988882Y-118521412D01*
X153108580Y-118485102D01*
X153218894Y-118426137D01*
X153315585Y-118346785D01*
X153379392Y-118269036D01*
X153384608Y-118275392D01*
X153518236Y-118385058D01*
X153670691Y-118466547D01*
X153836115Y-118516728D01*
X154008150Y-118533672D01*
X154305126Y-118533672D01*
X152643999Y-120194800D01*
X126146402Y-120194800D01*
X126003000Y-120051398D01*
X126003000Y-119989261D01*
X125963226Y-119789302D01*
X125885205Y-119600944D01*
X125771937Y-119431426D01*
X125627774Y-119287263D01*
X125458256Y-119173995D01*
X125269898Y-119095974D01*
X125069939Y-119056200D01*
X124866061Y-119056200D01*
X124666102Y-119095974D01*
X124477744Y-119173995D01*
X124308226Y-119287263D01*
X124164063Y-119431426D01*
X124050795Y-119600944D01*
X123972774Y-119789302D01*
X123933000Y-119989261D01*
X123933000Y-120193139D01*
X123972774Y-120393098D01*
X124050795Y-120581456D01*
X124164063Y-120750974D01*
X124308226Y-120895137D01*
X124477744Y-121008405D01*
X124666102Y-121086426D01*
X124866061Y-121126200D01*
X124928198Y-121126200D01*
X125267801Y-121465803D01*
X125291599Y-121494801D01*
X125407324Y-121589774D01*
X125539353Y-121660346D01*
X125682614Y-121703803D01*
X125794267Y-121714800D01*
X125794277Y-121714800D01*
X125831600Y-121718476D01*
X125868923Y-121714800D01*
X128140404Y-121714800D01*
X128138374Y-121719702D01*
X128098600Y-121919661D01*
X128098600Y-122123539D01*
X128138374Y-122323498D01*
X128216395Y-122511856D01*
X128272752Y-122596201D01*
X120521403Y-122596201D01*
X120008600Y-122083399D01*
X120008600Y-122021261D01*
X119968826Y-121821302D01*
X119890805Y-121632944D01*
X119777537Y-121463426D01*
X119633374Y-121319263D01*
X119463856Y-121205995D01*
X119275498Y-121127974D01*
X119075539Y-121088200D01*
X118871661Y-121088200D01*
X118671702Y-121127974D01*
X118483344Y-121205995D01*
X118313826Y-121319263D01*
X118169663Y-121463426D01*
X118056395Y-121632944D01*
X117978374Y-121821302D01*
X117938600Y-122021261D01*
X89140450Y-122021261D01*
X89116652Y-121940992D01*
X88764755Y-121272530D01*
X88737748Y-121232112D01*
X88248081Y-120871924D01*
X85726805Y-123393200D01*
X85367595Y-123393200D01*
X82846319Y-120871924D01*
X82356652Y-121232112D01*
X81996351Y-121896082D01*
X81772506Y-122617585D01*
X81693720Y-123368895D01*
X81482800Y-123368895D01*
X81482800Y-120692319D01*
X83025924Y-120692319D01*
X85547200Y-123213595D01*
X88068476Y-120692319D01*
X87708288Y-120202652D01*
X87044318Y-119842351D01*
X86322815Y-119618506D01*
X85571505Y-119539720D01*
X84819262Y-119609022D01*
X84094992Y-119823748D01*
X83426530Y-120175645D01*
X83386112Y-120202652D01*
X83025924Y-120692319D01*
X81482800Y-120692319D01*
X81482800Y-107645200D01*
X87556309Y-107645200D01*
X87561800Y-107700952D01*
X87561801Y-113034952D01*
X87578224Y-113201699D01*
X87643125Y-113415647D01*
X87748517Y-113612823D01*
X87890352Y-113785649D01*
X88063178Y-113927484D01*
X88260354Y-114032876D01*
X88474302Y-114097777D01*
X88696800Y-114119691D01*
X88919299Y-114097777D01*
X89133247Y-114032876D01*
X89330423Y-113927484D01*
X89503249Y-113785649D01*
X89645084Y-113612823D01*
X89750476Y-113415647D01*
X89815377Y-113201699D01*
X89831800Y-113034952D01*
X89831800Y-108115331D01*
X90995732Y-106951400D01*
X95440269Y-106951400D01*
X95893001Y-107404132D01*
X95893000Y-109580551D01*
X95909423Y-109747298D01*
X95974324Y-109961246D01*
X96079716Y-110158423D01*
X96221551Y-110331249D01*
X96394377Y-110473084D01*
X96591553Y-110578476D01*
X96805501Y-110643377D01*
X97028000Y-110665291D01*
X97250498Y-110643377D01*
X97464446Y-110578476D01*
X97661623Y-110473084D01*
X97834449Y-110331249D01*
X97976284Y-110158423D01*
X98081676Y-109961247D01*
X98146577Y-109747299D01*
X98163000Y-109580552D01*
X98163000Y-106989751D01*
X98168491Y-106933999D01*
X98146577Y-106711501D01*
X98081676Y-106497553D01*
X98063873Y-106464246D01*
X97976284Y-106300377D01*
X97834449Y-106127551D01*
X97791140Y-106092008D01*
X96752396Y-105053264D01*
X96716849Y-105009951D01*
X96544023Y-104868116D01*
X96346847Y-104762724D01*
X96132899Y-104697823D01*
X95966152Y-104681400D01*
X95966151Y-104681400D01*
X95910400Y-104675909D01*
X95854649Y-104681400D01*
X90581352Y-104681400D01*
X90525600Y-104675909D01*
X90469848Y-104681400D01*
X90303101Y-104697823D01*
X90089153Y-104762724D01*
X89891977Y-104868116D01*
X89719151Y-105009951D01*
X89683609Y-105053260D01*
X87933665Y-106803204D01*
X87890351Y-106838751D01*
X87748516Y-107011577D01*
X87671055Y-107156498D01*
X87643124Y-107208754D01*
X87578223Y-107422702D01*
X87556309Y-107645200D01*
X81482800Y-107645200D01*
X81482800Y-102613400D01*
X127795528Y-102613400D01*
X127798600Y-102815150D01*
X127957350Y-102973900D01*
X129006600Y-102973900D01*
X129006600Y-102137150D01*
X129260600Y-102137150D01*
X129260600Y-102973900D01*
X131038600Y-102973900D01*
X131038600Y-102137150D01*
X131292600Y-102137150D01*
X131292600Y-102973900D01*
X133070600Y-102973900D01*
X133070600Y-102137150D01*
X133324600Y-102137150D01*
X133324600Y-102973900D01*
X134373850Y-102973900D01*
X134532600Y-102815150D01*
X134535672Y-102613400D01*
X134523412Y-102488918D01*
X134487102Y-102369220D01*
X134428137Y-102258906D01*
X134348785Y-102162215D01*
X134252094Y-102082863D01*
X134141780Y-102023898D01*
X134022082Y-101987588D01*
X133897600Y-101975328D01*
X133483350Y-101978400D01*
X133324600Y-102137150D01*
X133070600Y-102137150D01*
X132911850Y-101978400D01*
X132497600Y-101975328D01*
X132373118Y-101987588D01*
X132253420Y-102023898D01*
X132181600Y-102062287D01*
X132109780Y-102023898D01*
X131990082Y-101987588D01*
X131865600Y-101975328D01*
X131451350Y-101978400D01*
X131292600Y-102137150D01*
X131038600Y-102137150D01*
X130879850Y-101978400D01*
X130465600Y-101975328D01*
X130341118Y-101987588D01*
X130221420Y-102023898D01*
X130149600Y-102062287D01*
X130077780Y-102023898D01*
X129958082Y-101987588D01*
X129833600Y-101975328D01*
X129419350Y-101978400D01*
X129260600Y-102137150D01*
X129006600Y-102137150D01*
X128847850Y-101978400D01*
X128433600Y-101975328D01*
X128309118Y-101987588D01*
X128189420Y-102023898D01*
X128079106Y-102082863D01*
X127982415Y-102162215D01*
X127903063Y-102258906D01*
X127844098Y-102369220D01*
X127807788Y-102488918D01*
X127795528Y-102613400D01*
X81482800Y-102613400D01*
X81482800Y-100634461D01*
X128352600Y-100634461D01*
X128352600Y-100838339D01*
X128392374Y-101038298D01*
X128470395Y-101226656D01*
X128583663Y-101396174D01*
X128727826Y-101540337D01*
X128897344Y-101653605D01*
X129085702Y-101731626D01*
X129285661Y-101771400D01*
X129489539Y-101771400D01*
X129689498Y-101731626D01*
X129877856Y-101653605D01*
X129926054Y-101621400D01*
X136505879Y-101621400D01*
X136549348Y-101625681D01*
X136592817Y-101621400D01*
X136592825Y-101621400D01*
X136722838Y-101608595D01*
X136889661Y-101557989D01*
X137043407Y-101475811D01*
X137178165Y-101365217D01*
X137205882Y-101331444D01*
X137378581Y-101158745D01*
X137435436Y-101147436D01*
X137623794Y-101069415D01*
X137793312Y-100956147D01*
X137937475Y-100811984D01*
X138050743Y-100642466D01*
X138128764Y-100454108D01*
X138168538Y-100254149D01*
X138168538Y-100050271D01*
X138128764Y-99850312D01*
X138050743Y-99661954D01*
X137937475Y-99492436D01*
X137793312Y-99348273D01*
X137623794Y-99235005D01*
X137435436Y-99156984D01*
X137235477Y-99117210D01*
X137031599Y-99117210D01*
X136831640Y-99156984D01*
X136643282Y-99235005D01*
X136473764Y-99348273D01*
X136329601Y-99492436D01*
X136216333Y-99661954D01*
X136138312Y-99850312D01*
X136138096Y-99851400D01*
X129926054Y-99851400D01*
X129877856Y-99819195D01*
X129689498Y-99741174D01*
X129489539Y-99701400D01*
X129285661Y-99701400D01*
X129085702Y-99741174D01*
X128897344Y-99819195D01*
X128727826Y-99932463D01*
X128583663Y-100076626D01*
X128470395Y-100246144D01*
X128392374Y-100434502D01*
X128352600Y-100634461D01*
X81482800Y-100634461D01*
X81482800Y-83169699D01*
X85039528Y-83169699D01*
X85039528Y-84749701D01*
X85056592Y-84922955D01*
X85107128Y-85089551D01*
X85189195Y-85243087D01*
X85299638Y-85377662D01*
X85434213Y-85488105D01*
X85587749Y-85570172D01*
X85592600Y-85571644D01*
X85592601Y-97423101D01*
X85583481Y-97515700D01*
X85619875Y-97885224D01*
X85727662Y-98240548D01*
X85902698Y-98568017D01*
X86079228Y-98783120D01*
X86079231Y-98783123D01*
X86138256Y-98855045D01*
X86210178Y-98914070D01*
X86243180Y-98947072D01*
X86458283Y-99123602D01*
X86785752Y-99298638D01*
X87141076Y-99406425D01*
X87510599Y-99442819D01*
X87880124Y-99406425D01*
X88235448Y-99298638D01*
X88562916Y-99123602D01*
X88849945Y-98888045D01*
X89085502Y-98601016D01*
X89260538Y-98273548D01*
X89368325Y-97918224D01*
X89404719Y-97548699D01*
X89368325Y-97179176D01*
X89362600Y-97160303D01*
X89362600Y-89801700D01*
X95616481Y-89801700D01*
X95625601Y-89894299D01*
X95625600Y-97641296D01*
X95652875Y-97918223D01*
X95760661Y-98273547D01*
X95935697Y-98601017D01*
X96171255Y-98888045D01*
X96458283Y-99123603D01*
X96785752Y-99298639D01*
X97141076Y-99406425D01*
X97510600Y-99442820D01*
X97880123Y-99406425D01*
X98235447Y-99298639D01*
X98562917Y-99123603D01*
X98849945Y-98888045D01*
X99085503Y-98601017D01*
X99260539Y-98273548D01*
X99368325Y-97918224D01*
X99395600Y-97641297D01*
X99395600Y-95826180D01*
X138211037Y-95826180D01*
X138282029Y-96044294D01*
X138425631Y-96320123D01*
X138620285Y-96562637D01*
X138858511Y-96762516D01*
X139131154Y-96912079D01*
X139427737Y-97005578D01*
X139674600Y-96878770D01*
X139674600Y-95580200D01*
X139928600Y-95580200D01*
X139928600Y-96878770D01*
X140175463Y-97005578D01*
X140472046Y-96912079D01*
X140744689Y-96762516D01*
X140982915Y-96562637D01*
X141177569Y-96320123D01*
X141321171Y-96044294D01*
X141392163Y-95826180D01*
X141272194Y-95580200D01*
X139928600Y-95580200D01*
X139674600Y-95580200D01*
X138331006Y-95580200D01*
X138211037Y-95826180D01*
X99395600Y-95826180D01*
X99395600Y-95159147D01*
X105921758Y-95159147D01*
X106065735Y-95464470D01*
X106423492Y-95645297D01*
X106809653Y-95752855D01*
X107209377Y-95783010D01*
X107607304Y-95734604D01*
X107988140Y-95609495D01*
X108259465Y-95464470D01*
X108403442Y-95159147D01*
X107162600Y-93918305D01*
X105921758Y-95159147D01*
X99395600Y-95159147D01*
X99395600Y-93785477D01*
X105118290Y-93785477D01*
X105166696Y-94183404D01*
X105291805Y-94564240D01*
X105436830Y-94835565D01*
X105742153Y-94979542D01*
X106982995Y-93738700D01*
X107342205Y-93738700D01*
X108583047Y-94979542D01*
X108888370Y-94835565D01*
X109069197Y-94477808D01*
X109176755Y-94091647D01*
X109206910Y-93691923D01*
X109158504Y-93293996D01*
X109033409Y-92913200D01*
X138158919Y-92913200D01*
X138189570Y-93224404D01*
X138280345Y-93523649D01*
X138427755Y-93799435D01*
X138626137Y-94041163D01*
X138805499Y-94188363D01*
X138620285Y-94343763D01*
X138425631Y-94586277D01*
X138282029Y-94862106D01*
X138211037Y-95080220D01*
X138331006Y-95326200D01*
X139674600Y-95326200D01*
X139674600Y-95306200D01*
X139928600Y-95306200D01*
X139928600Y-95326200D01*
X141272194Y-95326200D01*
X141392163Y-95080220D01*
X141321171Y-94862106D01*
X141177569Y-94586277D01*
X140982915Y-94343763D01*
X140797701Y-94188363D01*
X140977063Y-94041163D01*
X141175445Y-93799435D01*
X141322855Y-93523649D01*
X141413630Y-93224404D01*
X141444281Y-92913200D01*
X141413630Y-92601996D01*
X141322855Y-92302751D01*
X141175445Y-92026965D01*
X141072154Y-91901105D01*
X141156094Y-91856237D01*
X141252785Y-91776885D01*
X141332137Y-91680194D01*
X141360289Y-91627526D01*
X141363998Y-91665185D01*
X141407454Y-91808446D01*
X141478026Y-91940476D01*
X141549201Y-92027202D01*
X141573000Y-92056201D01*
X141601998Y-92079999D01*
X145065800Y-95543802D01*
X145065800Y-95605939D01*
X145105574Y-95805898D01*
X145183595Y-95994256D01*
X145296863Y-96163774D01*
X145441026Y-96307937D01*
X145610544Y-96421205D01*
X145798902Y-96499226D01*
X145998861Y-96539000D01*
X146202739Y-96539000D01*
X146402698Y-96499226D01*
X146591056Y-96421205D01*
X146760574Y-96307937D01*
X146904737Y-96163774D01*
X147018005Y-95994256D01*
X147096026Y-95805898D01*
X147135800Y-95605939D01*
X147135800Y-95402061D01*
X147096026Y-95202102D01*
X147018005Y-95013744D01*
X146904737Y-94844226D01*
X146760574Y-94700063D01*
X146591056Y-94586795D01*
X146402698Y-94508774D01*
X146202739Y-94469000D01*
X146140602Y-94469000D01*
X142873000Y-91201399D01*
X142873000Y-86835111D01*
X142916937Y-86791174D01*
X143030205Y-86621656D01*
X143108226Y-86433298D01*
X143148000Y-86233339D01*
X143148000Y-86029461D01*
X143108226Y-85829502D01*
X143030205Y-85641144D01*
X142916937Y-85471626D01*
X142772774Y-85327463D01*
X142603256Y-85214195D01*
X142414898Y-85136174D01*
X142214939Y-85096400D01*
X142011061Y-85096400D01*
X141811102Y-85136174D01*
X141622744Y-85214195D01*
X141453226Y-85327463D01*
X141309063Y-85471626D01*
X141195795Y-85641144D01*
X141117774Y-85829502D01*
X141078000Y-86029461D01*
X141078000Y-86233339D01*
X141117774Y-86433298D01*
X141195795Y-86621656D01*
X141309063Y-86791174D01*
X141353000Y-86835111D01*
X141353001Y-89105238D01*
X141332137Y-89066206D01*
X141252785Y-88969515D01*
X141156094Y-88890163D01*
X141045780Y-88831198D01*
X140926082Y-88794888D01*
X140801600Y-88782628D01*
X138801600Y-88782628D01*
X138677118Y-88794888D01*
X138557420Y-88831198D01*
X138447106Y-88890163D01*
X138350415Y-88969515D01*
X138271063Y-89066206D01*
X138212098Y-89176520D01*
X138175788Y-89296218D01*
X138163528Y-89420700D01*
X138163528Y-91325700D01*
X138175788Y-91450182D01*
X138212098Y-91569880D01*
X138271063Y-91680194D01*
X138350415Y-91776885D01*
X138447106Y-91856237D01*
X138531046Y-91901105D01*
X138427755Y-92026965D01*
X138280345Y-92302751D01*
X138189570Y-92601996D01*
X138158919Y-92913200D01*
X109033409Y-92913200D01*
X109033395Y-92913160D01*
X108888370Y-92641835D01*
X108583047Y-92497858D01*
X107342205Y-93738700D01*
X106982995Y-93738700D01*
X105742153Y-92497858D01*
X105436830Y-92641835D01*
X105256003Y-92999592D01*
X105148445Y-93385753D01*
X105118290Y-93785477D01*
X99395600Y-93785477D01*
X99395600Y-92318253D01*
X105921758Y-92318253D01*
X107162600Y-93559095D01*
X108403442Y-92318253D01*
X108259465Y-92012930D01*
X107901708Y-91832103D01*
X107515547Y-91724545D01*
X107115823Y-91694390D01*
X106717896Y-91742796D01*
X106337060Y-91867905D01*
X106065735Y-92012930D01*
X105921758Y-92318253D01*
X99395600Y-92318253D01*
X99395600Y-90582492D01*
X99434392Y-90543700D01*
X106395682Y-90543700D01*
X106569013Y-90615496D01*
X106962170Y-90693700D01*
X107363030Y-90693700D01*
X107756187Y-90615496D01*
X108126534Y-90462093D01*
X108299981Y-90346199D01*
X120607706Y-90346199D01*
X120823828Y-90712958D01*
X121283705Y-90953638D01*
X121781698Y-91099975D01*
X122298671Y-91146348D01*
X122814759Y-91090973D01*
X123310126Y-90935979D01*
X123727372Y-90712958D01*
X123943494Y-90346199D01*
X122275600Y-88678305D01*
X120607706Y-90346199D01*
X108299981Y-90346199D01*
X108459837Y-90239387D01*
X108743287Y-89955937D01*
X108965993Y-89622634D01*
X109119396Y-89252287D01*
X109197600Y-88859130D01*
X109197600Y-88521771D01*
X119627952Y-88521771D01*
X119683327Y-89037859D01*
X119838321Y-89533226D01*
X120061342Y-89950472D01*
X120428101Y-90166594D01*
X122095995Y-88498700D01*
X122455205Y-88498700D01*
X124123099Y-90166594D01*
X124489858Y-89950472D01*
X124730538Y-89490595D01*
X124876875Y-88992602D01*
X124923248Y-88475629D01*
X124867873Y-87959541D01*
X124712879Y-87464174D01*
X124489858Y-87046928D01*
X124123099Y-86830806D01*
X122455205Y-88498700D01*
X122095995Y-88498700D01*
X120428101Y-86830806D01*
X120061342Y-87046928D01*
X119820662Y-87506805D01*
X119674325Y-88004798D01*
X119627952Y-88521771D01*
X109197600Y-88521771D01*
X109197600Y-88458270D01*
X109119396Y-88065113D01*
X108965993Y-87694766D01*
X108743287Y-87361463D01*
X108459837Y-87078013D01*
X108126534Y-86855307D01*
X107756187Y-86701904D01*
X107501287Y-86651201D01*
X120607706Y-86651201D01*
X122275600Y-88319095D01*
X123943494Y-86651201D01*
X123727372Y-86284442D01*
X123267495Y-86043762D01*
X122769502Y-85897425D01*
X122252529Y-85851052D01*
X121736441Y-85906427D01*
X121241074Y-86061421D01*
X120823828Y-86284442D01*
X120607706Y-86651201D01*
X107501287Y-86651201D01*
X107363030Y-86623700D01*
X106962170Y-86623700D01*
X106569013Y-86701904D01*
X106395682Y-86773700D01*
X98746188Y-86773700D01*
X98653599Y-86764581D01*
X98561010Y-86773700D01*
X98561003Y-86773700D01*
X98319332Y-86797503D01*
X98284075Y-86800975D01*
X98185736Y-86830806D01*
X97928752Y-86908761D01*
X97601283Y-87083797D01*
X97314255Y-87319355D01*
X97255226Y-87391282D01*
X96243178Y-88403330D01*
X96171256Y-88462355D01*
X96112231Y-88534277D01*
X96112228Y-88534280D01*
X95935698Y-88749383D01*
X95760662Y-89076852D01*
X95652875Y-89432176D01*
X95616481Y-89801700D01*
X89362600Y-89801700D01*
X89362600Y-85571644D01*
X89367451Y-85570172D01*
X89520987Y-85488105D01*
X89655562Y-85377662D01*
X89766005Y-85243087D01*
X89848072Y-85089551D01*
X89898608Y-84922955D01*
X89915672Y-84749701D01*
X89915672Y-83169699D01*
X89898608Y-82996445D01*
X89848072Y-82829849D01*
X89766005Y-82676313D01*
X89655562Y-82541738D01*
X89520987Y-82431295D01*
X89367451Y-82349228D01*
X89200855Y-82298692D01*
X89027601Y-82281628D01*
X88336901Y-82281628D01*
X88202447Y-82209761D01*
X87847123Y-82101975D01*
X87477600Y-82065580D01*
X87108076Y-82101975D01*
X86752752Y-82209761D01*
X86618298Y-82281628D01*
X85927599Y-82281628D01*
X85754345Y-82298692D01*
X85587749Y-82349228D01*
X85434213Y-82431295D01*
X85299638Y-82541738D01*
X85189195Y-82676313D01*
X85107128Y-82829849D01*
X85056592Y-82996445D01*
X85039528Y-83169699D01*
X81482800Y-83169699D01*
X81482800Y-78879700D01*
X85034496Y-78879700D01*
X85066836Y-79208057D01*
X85162615Y-79523796D01*
X85318150Y-79814782D01*
X85527466Y-80069834D01*
X85782518Y-80279150D01*
X86073504Y-80434685D01*
X86389243Y-80530464D01*
X86607408Y-80551951D01*
X86752752Y-80629639D01*
X87108076Y-80737425D01*
X87385003Y-80764700D01*
X89998808Y-80764700D01*
X94080226Y-84846118D01*
X94139255Y-84918045D01*
X94356581Y-85096400D01*
X94426283Y-85153603D01*
X94753751Y-85328639D01*
X94979860Y-85397228D01*
X95109076Y-85436425D01*
X95337695Y-85458942D01*
X95478600Y-85472820D01*
X95571197Y-85463700D01*
X106395682Y-85463700D01*
X106569013Y-85535496D01*
X106962170Y-85613700D01*
X107363030Y-85613700D01*
X107756187Y-85535496D01*
X108126534Y-85382093D01*
X108459837Y-85159387D01*
X108743287Y-84875937D01*
X108965993Y-84542634D01*
X109119396Y-84172287D01*
X109197600Y-83779130D01*
X109197600Y-83378270D01*
X109119396Y-82985113D01*
X108965993Y-82614766D01*
X108743287Y-82281463D01*
X108459837Y-81998013D01*
X108126534Y-81775307D01*
X107756187Y-81621904D01*
X107363030Y-81543700D01*
X106962170Y-81543700D01*
X106569013Y-81621904D01*
X106395682Y-81693700D01*
X96259392Y-81693700D01*
X92177974Y-77612282D01*
X92118945Y-77540355D01*
X91831917Y-77304797D01*
X91504448Y-77129761D01*
X91402054Y-77098700D01*
X105124528Y-77098700D01*
X105124528Y-79898700D01*
X105136788Y-80023182D01*
X105173098Y-80142880D01*
X105232063Y-80253194D01*
X105311415Y-80349885D01*
X105408106Y-80429237D01*
X105518420Y-80488202D01*
X105638118Y-80524512D01*
X105762600Y-80536772D01*
X108562600Y-80536772D01*
X108687082Y-80524512D01*
X108806780Y-80488202D01*
X108917094Y-80429237D01*
X108972581Y-80383700D01*
X119637528Y-80383700D01*
X119637528Y-80498700D01*
X119649788Y-80623182D01*
X119686098Y-80742880D01*
X119745063Y-80853194D01*
X119824415Y-80949885D01*
X119921106Y-81029237D01*
X120031420Y-81088202D01*
X120151118Y-81124512D01*
X120275600Y-81136772D01*
X124275600Y-81136772D01*
X124400082Y-81124512D01*
X124519780Y-81088202D01*
X124630094Y-81029237D01*
X124726785Y-80949885D01*
X124806137Y-80853194D01*
X124865102Y-80742880D01*
X124901412Y-80623182D01*
X124913672Y-80498700D01*
X124913672Y-78859700D01*
X138304158Y-78859700D01*
X138280345Y-78904251D01*
X138189570Y-79203496D01*
X138158919Y-79514700D01*
X138189570Y-79825904D01*
X138280345Y-80125149D01*
X138427755Y-80400935D01*
X138626137Y-80642663D01*
X138867865Y-80841045D01*
X139143651Y-80988455D01*
X139442896Y-81079230D01*
X139676114Y-81102200D01*
X139927086Y-81102200D01*
X140160304Y-81079230D01*
X140459549Y-80988455D01*
X140735335Y-80841045D01*
X140977063Y-80642663D01*
X141175445Y-80400935D01*
X141322855Y-80125149D01*
X141413630Y-79825904D01*
X141444281Y-79514700D01*
X141413630Y-79203496D01*
X141322855Y-78904251D01*
X141175445Y-78628465D01*
X141007371Y-78423667D01*
X141140945Y-78314045D01*
X141376503Y-78027017D01*
X141551539Y-77699548D01*
X141659325Y-77344224D01*
X141695720Y-76974700D01*
X141659325Y-76605176D01*
X141551539Y-76249852D01*
X141376503Y-75922383D01*
X141280176Y-75805009D01*
X141332137Y-75741694D01*
X141391102Y-75631380D01*
X141427412Y-75511682D01*
X141439672Y-75387200D01*
X141439672Y-73482200D01*
X141427412Y-73357718D01*
X141391102Y-73238020D01*
X141332137Y-73127706D01*
X141252785Y-73031015D01*
X141156094Y-72951663D01*
X141045780Y-72892698D01*
X140926082Y-72856388D01*
X140801600Y-72844128D01*
X138801600Y-72844128D01*
X138677118Y-72856388D01*
X138557420Y-72892698D01*
X138447106Y-72951663D01*
X138350415Y-73031015D01*
X138271063Y-73127706D01*
X138212098Y-73238020D01*
X138175788Y-73357718D01*
X138163528Y-73482200D01*
X138163528Y-75089700D01*
X123892186Y-75089700D01*
X123799599Y-75080581D01*
X123707012Y-75089700D01*
X123707003Y-75089700D01*
X123430076Y-75116975D01*
X123074752Y-75224761D01*
X122747283Y-75399797D01*
X122460255Y-75635355D01*
X122401226Y-75707282D01*
X122247880Y-75860628D01*
X120275600Y-75860628D01*
X120151118Y-75872888D01*
X120031420Y-75909198D01*
X119921106Y-75968163D01*
X119824415Y-76047515D01*
X119745063Y-76144206D01*
X119686098Y-76254520D01*
X119649788Y-76374218D01*
X119637528Y-76498700D01*
X119637528Y-76613700D01*
X108972581Y-76613700D01*
X108917094Y-76568163D01*
X108806780Y-76509198D01*
X108687082Y-76472888D01*
X108562600Y-76460628D01*
X105762600Y-76460628D01*
X105638118Y-76472888D01*
X105518420Y-76509198D01*
X105408106Y-76568163D01*
X105311415Y-76647515D01*
X105232063Y-76744206D01*
X105173098Y-76854520D01*
X105136788Y-76974218D01*
X105124528Y-77098700D01*
X91402054Y-77098700D01*
X91149124Y-77021975D01*
X90872197Y-76994700D01*
X90872189Y-76994700D01*
X90779600Y-76985581D01*
X90687011Y-76994700D01*
X87385003Y-76994700D01*
X87108076Y-77021975D01*
X86752752Y-77129761D01*
X86607408Y-77207449D01*
X86389243Y-77228936D01*
X86073504Y-77324715D01*
X85782518Y-77480250D01*
X85527466Y-77689566D01*
X85318150Y-77944618D01*
X85162615Y-78235604D01*
X85066836Y-78551343D01*
X85034496Y-78879700D01*
X81482800Y-78879700D01*
X81482800Y-74024081D01*
X93846324Y-74024081D01*
X94206512Y-74513748D01*
X94870482Y-74874049D01*
X95591985Y-75097894D01*
X96343295Y-75176680D01*
X97095538Y-75107378D01*
X97819808Y-74892652D01*
X98488270Y-74540755D01*
X98528688Y-74513748D01*
X98888876Y-74024081D01*
X96367600Y-71502805D01*
X93846324Y-74024081D01*
X81482800Y-74024081D01*
X81482800Y-71298895D01*
X92514120Y-71298895D01*
X92583422Y-72051138D01*
X92798148Y-72775408D01*
X93150045Y-73443870D01*
X93177052Y-73484288D01*
X93666719Y-73844476D01*
X96187995Y-71323200D01*
X96547205Y-71323200D01*
X99068481Y-73844476D01*
X99558148Y-73484288D01*
X99918449Y-72820318D01*
X100142294Y-72098815D01*
X100221080Y-71347505D01*
X100151778Y-70595262D01*
X100126619Y-70510400D01*
X147751800Y-70510400D01*
X147751800Y-80518000D01*
X147754240Y-80542776D01*
X147761467Y-80566601D01*
X147773203Y-80588557D01*
X147788997Y-80607803D01*
X147808243Y-80623597D01*
X147830199Y-80635333D01*
X147854024Y-80642560D01*
X147878800Y-80645000D01*
X154101800Y-80645000D01*
X154101800Y-89128600D01*
X147878800Y-89128600D01*
X147854024Y-89131040D01*
X147830199Y-89138267D01*
X147808243Y-89150003D01*
X147788997Y-89165797D01*
X147773203Y-89185043D01*
X147761467Y-89206999D01*
X147754240Y-89230824D01*
X147751800Y-89255600D01*
X147751800Y-99314000D01*
X147754240Y-99338776D01*
X147761467Y-99362601D01*
X147773203Y-99384557D01*
X147788997Y-99403803D01*
X147808243Y-99419597D01*
X147830199Y-99431333D01*
X147854024Y-99438560D01*
X147878800Y-99441000D01*
X167741600Y-99441000D01*
X167766376Y-99438560D01*
X167790201Y-99431333D01*
X167812157Y-99419597D01*
X167831403Y-99403803D01*
X167847197Y-99384557D01*
X167858933Y-99362601D01*
X167866160Y-99338776D01*
X167868600Y-99314000D01*
X167868600Y-89357200D01*
X167866160Y-89332424D01*
X167858933Y-89308599D01*
X167847197Y-89286643D01*
X167831403Y-89267397D01*
X167812157Y-89251603D01*
X167790201Y-89239867D01*
X167766376Y-89232640D01*
X167741600Y-89230200D01*
X162077400Y-89230200D01*
X162077400Y-87696271D01*
X180968952Y-87696271D01*
X181024327Y-88212359D01*
X181179321Y-88707726D01*
X181402342Y-89124972D01*
X181769101Y-89341094D01*
X183436995Y-87673200D01*
X183796205Y-87673200D01*
X185464099Y-89341094D01*
X185830858Y-89124972D01*
X186071538Y-88665095D01*
X186217875Y-88167102D01*
X186264248Y-87650129D01*
X186208873Y-87134041D01*
X186053879Y-86638674D01*
X185830858Y-86221428D01*
X185464099Y-86005306D01*
X183796205Y-87673200D01*
X183436995Y-87673200D01*
X181769101Y-86005306D01*
X181402342Y-86221428D01*
X181161662Y-86681305D01*
X181015325Y-87179298D01*
X180968952Y-87696271D01*
X162077400Y-87696271D01*
X162077400Y-85825701D01*
X181948706Y-85825701D01*
X183616600Y-87493595D01*
X185153995Y-85956200D01*
X185898028Y-85956200D01*
X185910288Y-86080682D01*
X185946598Y-86200380D01*
X186005563Y-86310694D01*
X186084915Y-86407385D01*
X186181606Y-86486737D01*
X186291920Y-86545702D01*
X186411618Y-86582012D01*
X186536100Y-86594272D01*
X186950350Y-86591200D01*
X187109100Y-86432450D01*
X187109100Y-85595700D01*
X186059850Y-85595700D01*
X185901100Y-85754450D01*
X185898028Y-85956200D01*
X185153995Y-85956200D01*
X185284494Y-85825701D01*
X185068372Y-85458942D01*
X184608495Y-85218262D01*
X184110502Y-85071925D01*
X183593529Y-85025552D01*
X183077441Y-85080927D01*
X182582074Y-85235921D01*
X182164828Y-85458942D01*
X181948706Y-85825701D01*
X162077400Y-85825701D01*
X162077400Y-80645000D01*
X167792400Y-80645000D01*
X167817176Y-80642560D01*
X167841001Y-80635333D01*
X167862957Y-80623597D01*
X167882203Y-80607803D01*
X167897997Y-80588557D01*
X167909733Y-80566601D01*
X167916960Y-80542776D01*
X167919400Y-80518000D01*
X167919400Y-70510400D01*
X167916960Y-70485624D01*
X167909733Y-70461799D01*
X167897997Y-70439843D01*
X167882203Y-70420597D01*
X167862957Y-70404803D01*
X167841001Y-70393067D01*
X167817176Y-70385840D01*
X167792400Y-70383400D01*
X147878800Y-70383400D01*
X147854024Y-70385840D01*
X147830199Y-70393067D01*
X147808243Y-70404803D01*
X147788997Y-70420597D01*
X147773203Y-70439843D01*
X147761467Y-70461799D01*
X147754240Y-70485624D01*
X147751800Y-70510400D01*
X100126619Y-70510400D01*
X99937052Y-69870992D01*
X99585155Y-69202530D01*
X99558148Y-69162112D01*
X99068481Y-68801924D01*
X96547205Y-71323200D01*
X96187995Y-71323200D01*
X93666719Y-68801924D01*
X93177052Y-69162112D01*
X92816751Y-69826082D01*
X92592906Y-70547585D01*
X92514120Y-71298895D01*
X81482800Y-71298895D01*
X81482800Y-68622319D01*
X93846324Y-68622319D01*
X96367600Y-71143595D01*
X98888876Y-68622319D01*
X98739407Y-68419119D01*
X216020324Y-68419119D01*
X218541600Y-70940395D01*
X221062876Y-68419119D01*
X220702688Y-67929452D01*
X220038718Y-67569151D01*
X219317215Y-67345306D01*
X218565905Y-67266520D01*
X217813662Y-67335822D01*
X217089392Y-67550548D01*
X216420930Y-67902445D01*
X216380512Y-67929452D01*
X216020324Y-68419119D01*
X98739407Y-68419119D01*
X98528688Y-68132652D01*
X97864718Y-67772351D01*
X97143215Y-67548506D01*
X96391905Y-67469720D01*
X95639662Y-67539022D01*
X94915392Y-67753748D01*
X94246930Y-68105645D01*
X94206512Y-68132652D01*
X93846324Y-68622319D01*
X81482800Y-68622319D01*
X81482800Y-66801600D01*
X223164800Y-66801600D01*
X223164801Y-127406800D01*
G37*
X223164801Y-127406800D02*
X81482800Y-127406800D01*
X81482800Y-126094081D01*
X83025924Y-126094081D01*
X83386112Y-126583748D01*
X84050082Y-126944049D01*
X84771585Y-127167894D01*
X85522895Y-127246680D01*
X86275138Y-127177378D01*
X86999408Y-126962652D01*
X87667870Y-126610755D01*
X87708288Y-126583748D01*
X88068476Y-126094081D01*
X87966876Y-125992481D01*
X216121924Y-125992481D01*
X216482112Y-126482148D01*
X217146082Y-126842449D01*
X217867585Y-127066294D01*
X218618895Y-127145080D01*
X219371138Y-127075778D01*
X220095408Y-126861052D01*
X220763870Y-126509155D01*
X220804288Y-126482148D01*
X221164476Y-125992481D01*
X218643200Y-123471205D01*
X216121924Y-125992481D01*
X87966876Y-125992481D01*
X85547200Y-123572805D01*
X83025924Y-126094081D01*
X81482800Y-126094081D01*
X81482800Y-123368895D01*
X81693720Y-123368895D01*
X81763022Y-124121138D01*
X81977748Y-124845408D01*
X82329645Y-125513870D01*
X82356652Y-125554288D01*
X82846319Y-125914476D01*
X85367595Y-123393200D01*
X85726805Y-123393200D01*
X88248081Y-125914476D01*
X88737748Y-125554288D01*
X89098049Y-124890318D01*
X89321894Y-124168815D01*
X89400680Y-123417505D01*
X89331378Y-122665262D01*
X89140450Y-122021261D01*
X117938600Y-122021261D01*
X117938600Y-122225139D01*
X117978374Y-122425098D01*
X118056395Y-122613456D01*
X118169663Y-122782974D01*
X118313826Y-122927137D01*
X118483344Y-123040405D01*
X118671702Y-123118426D01*
X118871661Y-123158200D01*
X118933799Y-123158200D01*
X119642802Y-123867204D01*
X119666600Y-123896202D01*
X119782325Y-123991175D01*
X119914354Y-124061747D01*
X120057615Y-124105204D01*
X120169268Y-124116201D01*
X120169276Y-124116201D01*
X120206601Y-124119877D01*
X120243926Y-124116201D01*
X153618877Y-124116201D01*
X153656199Y-124119877D01*
X153693521Y-124116201D01*
X153693532Y-124116201D01*
X153805185Y-124105204D01*
X153948446Y-124061747D01*
X154080475Y-123991175D01*
X154196200Y-123896202D01*
X154220002Y-123867199D01*
X154421001Y-123666200D01*
X154483139Y-123666200D01*
X154683098Y-123626426D01*
X154871456Y-123548405D01*
X155040974Y-123435137D01*
X155185137Y-123290974D01*
X155298405Y-123121456D01*
X155376426Y-122933098D01*
X155416200Y-122733139D01*
X155416200Y-122529261D01*
X155376426Y-122329302D01*
X155353353Y-122273600D01*
X163894278Y-122273600D01*
X163931600Y-122277276D01*
X163968922Y-122273600D01*
X163968933Y-122273600D01*
X164080586Y-122262603D01*
X164223847Y-122219146D01*
X164355876Y-122148574D01*
X164471601Y-122053601D01*
X164495404Y-122024597D01*
X164594998Y-121925003D01*
X164624001Y-121901201D01*
X164718974Y-121785476D01*
X164789546Y-121653447D01*
X164833003Y-121510186D01*
X164844000Y-121398533D01*
X164844000Y-121398524D01*
X164847676Y-121361201D01*
X164844000Y-121323878D01*
X164844000Y-119723956D01*
X164998061Y-119754600D01*
X165201939Y-119754600D01*
X165401898Y-119714826D01*
X165590256Y-119636805D01*
X165733968Y-119540780D01*
X166432604Y-120239416D01*
X166456398Y-120268409D01*
X166485391Y-120292203D01*
X166485396Y-120292208D01*
X166572122Y-120363382D01*
X166690838Y-120426837D01*
X166672188Y-120488318D01*
X166659928Y-120612800D01*
X166659928Y-122312800D01*
X166672188Y-122437282D01*
X166708498Y-122556980D01*
X166767463Y-122667294D01*
X166846815Y-122763985D01*
X166943506Y-122843337D01*
X167053820Y-122902302D01*
X167173518Y-122938612D01*
X167298000Y-122950872D01*
X168561271Y-122950872D01*
X169768601Y-124158203D01*
X169792399Y-124187201D01*
X169821397Y-124210999D01*
X169908123Y-124282174D01*
X169988153Y-124324951D01*
X170040153Y-124352746D01*
X170183414Y-124396203D01*
X170295067Y-124407200D01*
X170295076Y-124407200D01*
X170332399Y-124410876D01*
X170369722Y-124407200D01*
X180353478Y-124407200D01*
X180390800Y-124410876D01*
X180428122Y-124407200D01*
X180428133Y-124407200D01*
X180539786Y-124396203D01*
X180683047Y-124352746D01*
X180815076Y-124282174D01*
X180930801Y-124187201D01*
X180954603Y-124158198D01*
X181409802Y-123703000D01*
X181438801Y-123679201D01*
X181533774Y-123563476D01*
X181604346Y-123431447D01*
X181647803Y-123288186D01*
X181649860Y-123267295D01*
X214789720Y-123267295D01*
X214859022Y-124019538D01*
X215073748Y-124743808D01*
X215425645Y-125412270D01*
X215452652Y-125452688D01*
X215942319Y-125812876D01*
X218463595Y-123291600D01*
X218822805Y-123291600D01*
X221344081Y-125812876D01*
X221833748Y-125452688D01*
X222194049Y-124788718D01*
X222417894Y-124067215D01*
X222496680Y-123315905D01*
X222427378Y-122563662D01*
X222212652Y-121839392D01*
X221860755Y-121170930D01*
X221833748Y-121130512D01*
X221344081Y-120770324D01*
X218822805Y-123291600D01*
X218463595Y-123291600D01*
X215942319Y-120770324D01*
X215452652Y-121130512D01*
X215092351Y-121794482D01*
X214868506Y-122515985D01*
X214789720Y-123267295D01*
X181649860Y-123267295D01*
X181658800Y-123176533D01*
X181658800Y-123176524D01*
X181662476Y-123139201D01*
X181658800Y-123101878D01*
X181658800Y-120590719D01*
X216121924Y-120590719D01*
X218643200Y-123111995D01*
X221164476Y-120590719D01*
X220804288Y-120101052D01*
X220140318Y-119740751D01*
X219418815Y-119516906D01*
X218667505Y-119438120D01*
X217915262Y-119507422D01*
X217190992Y-119722148D01*
X216522530Y-120074045D01*
X216482112Y-120101052D01*
X216121924Y-120590719D01*
X181658800Y-120590719D01*
X181658800Y-119483499D01*
X186052506Y-119483499D01*
X186268628Y-119850258D01*
X186728505Y-120090938D01*
X187226498Y-120237275D01*
X187743471Y-120283648D01*
X188259559Y-120228273D01*
X188754926Y-120073279D01*
X189172172Y-119850258D01*
X189388294Y-119483499D01*
X198052506Y-119483499D01*
X198268628Y-119850258D01*
X198728505Y-120090938D01*
X199226498Y-120237275D01*
X199743471Y-120283648D01*
X200259559Y-120228273D01*
X200754926Y-120073279D01*
X201172172Y-119850258D01*
X201388294Y-119483499D01*
X199720400Y-117815605D01*
X198052506Y-119483499D01*
X189388294Y-119483499D01*
X187720400Y-117815605D01*
X186052506Y-119483499D01*
X181658800Y-119483499D01*
X181658800Y-117659071D01*
X185072752Y-117659071D01*
X185128127Y-118175159D01*
X185283121Y-118670526D01*
X185506142Y-119087772D01*
X185872901Y-119303894D01*
X187540795Y-117636000D01*
X187900005Y-117636000D01*
X189567899Y-119303894D01*
X189934658Y-119087772D01*
X190175338Y-118627895D01*
X190321675Y-118129902D01*
X190363909Y-117659071D01*
X197072752Y-117659071D01*
X197128127Y-118175159D01*
X197283121Y-118670526D01*
X197506142Y-119087772D01*
X197872901Y-119303894D01*
X199540795Y-117636000D01*
X199900005Y-117636000D01*
X201567899Y-119303894D01*
X201934658Y-119087772D01*
X202175338Y-118627895D01*
X202321675Y-118129902D01*
X202368048Y-117612929D01*
X202312673Y-117096841D01*
X202157679Y-116601474D01*
X201934658Y-116184228D01*
X201567899Y-115968106D01*
X199900005Y-117636000D01*
X199540795Y-117636000D01*
X197872901Y-115968106D01*
X197506142Y-116184228D01*
X197265462Y-116644105D01*
X197119125Y-117142098D01*
X197072752Y-117659071D01*
X190363909Y-117659071D01*
X190368048Y-117612929D01*
X190312673Y-117096841D01*
X190157679Y-116601474D01*
X189934658Y-116184228D01*
X189567899Y-115968106D01*
X187900005Y-117636000D01*
X187540795Y-117636000D01*
X185872901Y-115968106D01*
X185506142Y-116184228D01*
X185265462Y-116644105D01*
X185119125Y-117142098D01*
X185072752Y-117659071D01*
X181658800Y-117659071D01*
X181658800Y-115788501D01*
X186052506Y-115788501D01*
X187720400Y-117456395D01*
X189388294Y-115788501D01*
X189172172Y-115421742D01*
X188712295Y-115181062D01*
X188214302Y-115034725D01*
X187697329Y-114988352D01*
X187181241Y-115043727D01*
X186685874Y-115198721D01*
X186268628Y-115421742D01*
X186052506Y-115788501D01*
X181658800Y-115788501D01*
X181658800Y-112318461D01*
X187077400Y-112318461D01*
X187077400Y-112522339D01*
X187117174Y-112722298D01*
X187195195Y-112910656D01*
X187308463Y-113080174D01*
X187452626Y-113224337D01*
X187622144Y-113337605D01*
X187810502Y-113415626D01*
X188010461Y-113455400D01*
X188126838Y-113455400D01*
X188175753Y-113481546D01*
X188319014Y-113525003D01*
X188430667Y-113536000D01*
X188430676Y-113536000D01*
X188467999Y-113539676D01*
X188505322Y-113536000D01*
X191252357Y-113536000D01*
X191355763Y-113690759D01*
X191441004Y-113776000D01*
X191355763Y-113861241D01*
X191198720Y-114096273D01*
X191090547Y-114357426D01*
X191035400Y-114634665D01*
X191035400Y-114917335D01*
X191090547Y-115194574D01*
X191198720Y-115455727D01*
X191355763Y-115690759D01*
X191555641Y-115890637D01*
X191790673Y-116047680D01*
X192051826Y-116155853D01*
X192329065Y-116211000D01*
X192611735Y-116211000D01*
X192888974Y-116155853D01*
X193150127Y-116047680D01*
X193385159Y-115890637D01*
X193507094Y-115768702D01*
X194157303Y-115768702D01*
X194228886Y-116012671D01*
X194484396Y-116133571D01*
X194758584Y-116202300D01*
X195040912Y-116216217D01*
X195320530Y-116174787D01*
X195586692Y-116079603D01*
X195711914Y-116012671D01*
X195777687Y-115788501D01*
X198052506Y-115788501D01*
X199720400Y-117456395D01*
X201388294Y-115788501D01*
X201172172Y-115421742D01*
X200712295Y-115181062D01*
X200214302Y-115034725D01*
X199697329Y-114988352D01*
X199181241Y-115043727D01*
X198685874Y-115198721D01*
X198268628Y-115421742D01*
X198052506Y-115788501D01*
X195777687Y-115788501D01*
X195783497Y-115768702D01*
X194970400Y-114955605D01*
X194157303Y-115768702D01*
X193507094Y-115768702D01*
X193585037Y-115690759D01*
X193719092Y-115490131D01*
X193733729Y-115517514D01*
X193977698Y-115589097D01*
X194790795Y-114776000D01*
X194776653Y-114761858D01*
X194956258Y-114582253D01*
X194970400Y-114596395D01*
X194984543Y-114582253D01*
X195164148Y-114761858D01*
X195150005Y-114776000D01*
X195963102Y-115589097D01*
X196207071Y-115517514D01*
X196327971Y-115262004D01*
X196396700Y-114987816D01*
X196410617Y-114705488D01*
X196369187Y-114425870D01*
X196274003Y-114159708D01*
X196208784Y-114037691D01*
X196221585Y-114027185D01*
X196300937Y-113930494D01*
X196359902Y-113820180D01*
X196396212Y-113700482D01*
X196408472Y-113576000D01*
X196408472Y-111976000D01*
X196396212Y-111851518D01*
X196359902Y-111731820D01*
X196300937Y-111621506D01*
X196221585Y-111524815D01*
X196124894Y-111445463D01*
X196014580Y-111386498D01*
X195894882Y-111350188D01*
X195770400Y-111337928D01*
X194170400Y-111337928D01*
X194045918Y-111350188D01*
X193926220Y-111386498D01*
X193815906Y-111445463D01*
X193719215Y-111524815D01*
X193639863Y-111621506D01*
X193580898Y-111731820D01*
X193551739Y-111827943D01*
X193385159Y-111661363D01*
X193150127Y-111504320D01*
X192888974Y-111396147D01*
X192611735Y-111341000D01*
X192329065Y-111341000D01*
X192051826Y-111396147D01*
X191790673Y-111504320D01*
X191555641Y-111661363D01*
X191355763Y-111861241D01*
X191252357Y-112016000D01*
X189065168Y-112016000D01*
X189029605Y-111930144D01*
X188916337Y-111760626D01*
X188772174Y-111616463D01*
X188602656Y-111503195D01*
X188414298Y-111425174D01*
X188214339Y-111385400D01*
X188010461Y-111385400D01*
X187810502Y-111425174D01*
X187622144Y-111503195D01*
X187452626Y-111616463D01*
X187308463Y-111760626D01*
X187195195Y-111930144D01*
X187117174Y-112118502D01*
X187077400Y-112318461D01*
X181658800Y-112318461D01*
X181658800Y-110754001D01*
X185088803Y-107323999D01*
X197319079Y-107323999D01*
X197356401Y-107327675D01*
X197393723Y-107323999D01*
X197393734Y-107323999D01*
X197505387Y-107313002D01*
X197648648Y-107269545D01*
X197780626Y-107199000D01*
X197858339Y-107199000D01*
X198058298Y-107159226D01*
X198246656Y-107081205D01*
X198416174Y-106967937D01*
X198560337Y-106823774D01*
X198673605Y-106654256D01*
X198751626Y-106465898D01*
X198791400Y-106265939D01*
X198791400Y-106062061D01*
X198751626Y-105862102D01*
X198673605Y-105673744D01*
X198560337Y-105504226D01*
X198416174Y-105360063D01*
X198246656Y-105246795D01*
X198058298Y-105168774D01*
X197858339Y-105129000D01*
X197654461Y-105129000D01*
X197454502Y-105168774D01*
X197266144Y-105246795D01*
X197096626Y-105360063D01*
X196952463Y-105504226D01*
X196839195Y-105673744D01*
X196785241Y-105803999D01*
X191446315Y-105803999D01*
X191484200Y-105613539D01*
X191484200Y-105409661D01*
X191444426Y-105209702D01*
X191366405Y-105021344D01*
X191253137Y-104851826D01*
X191209200Y-104807889D01*
X191209200Y-103014911D01*
X191253137Y-102970974D01*
X191366405Y-102801456D01*
X191444426Y-102613098D01*
X191484200Y-102413139D01*
X191484200Y-102209261D01*
X191444426Y-102009302D01*
X191366405Y-101820944D01*
X191253137Y-101651426D01*
X191108974Y-101507263D01*
X190939456Y-101393995D01*
X190752609Y-101316600D01*
X208166489Y-101316600D01*
X208152463Y-101330626D01*
X208039195Y-101500144D01*
X207961174Y-101688502D01*
X207940815Y-101790857D01*
X207915537Y-101753026D01*
X207771374Y-101608863D01*
X207601856Y-101495595D01*
X207413498Y-101417574D01*
X207213539Y-101377800D01*
X207009661Y-101377800D01*
X206809702Y-101417574D01*
X206621344Y-101495595D01*
X206451826Y-101608863D01*
X206307663Y-101753026D01*
X206194395Y-101922544D01*
X206116374Y-102110902D01*
X206076600Y-102310861D01*
X206076600Y-102372998D01*
X205213798Y-103235801D01*
X205184800Y-103259599D01*
X205161002Y-103288597D01*
X205161001Y-103288598D01*
X205089826Y-103375324D01*
X205019254Y-103507354D01*
X204975798Y-103650615D01*
X204961124Y-103799600D01*
X204964801Y-103836932D01*
X204964800Y-107332689D01*
X204920863Y-107376626D01*
X204807595Y-107546144D01*
X204729574Y-107734502D01*
X204689800Y-107934461D01*
X204689800Y-108138339D01*
X204729574Y-108338298D01*
X204807595Y-108526656D01*
X204920863Y-108696174D01*
X205065026Y-108840337D01*
X205234544Y-108953605D01*
X205422902Y-109031626D01*
X205622861Y-109071400D01*
X205826739Y-109071400D01*
X206026698Y-109031626D01*
X206215056Y-108953605D01*
X206384574Y-108840337D01*
X206528737Y-108696174D01*
X206642005Y-108526656D01*
X206720026Y-108338298D01*
X206759800Y-108138339D01*
X206759800Y-107934461D01*
X206720026Y-107734502D01*
X206642005Y-107546144D01*
X206539605Y-107392891D01*
X210249316Y-111102603D01*
X210273114Y-111131601D01*
X210302112Y-111155399D01*
X210388838Y-111226574D01*
X210498004Y-111284925D01*
X210520868Y-111297146D01*
X210664129Y-111340603D01*
X210775782Y-111351600D01*
X210775791Y-111351600D01*
X210813114Y-111355276D01*
X210850437Y-111351600D01*
X214825022Y-111351600D01*
X214949725Y-111538232D01*
X215156568Y-111745075D01*
X215399789Y-111907590D01*
X215670042Y-112019532D01*
X215956940Y-112076600D01*
X216249460Y-112076600D01*
X216536358Y-112019532D01*
X216806611Y-111907590D01*
X217049832Y-111745075D01*
X217236915Y-111557992D01*
X217304795Y-111684986D01*
X217415238Y-111819562D01*
X217549814Y-111930005D01*
X217703350Y-112012072D01*
X217869946Y-112062608D01*
X218043200Y-112079672D01*
X219243200Y-112079672D01*
X219416454Y-112062608D01*
X219583050Y-112012072D01*
X219736586Y-111930005D01*
X219871162Y-111819562D01*
X219981605Y-111684986D01*
X220063672Y-111531450D01*
X220114208Y-111364854D01*
X220131272Y-111191600D01*
X220131272Y-109991600D01*
X220114208Y-109818346D01*
X220063672Y-109651750D01*
X219981605Y-109498214D01*
X219871162Y-109363638D01*
X219736586Y-109253195D01*
X219609592Y-109185315D01*
X219796675Y-108998232D01*
X219959190Y-108755011D01*
X220071132Y-108484758D01*
X220128200Y-108197860D01*
X220128200Y-107905340D01*
X220071132Y-107618442D01*
X219959190Y-107348189D01*
X219796675Y-107104968D01*
X219589832Y-106898125D01*
X219415440Y-106781600D01*
X219589832Y-106665075D01*
X219796675Y-106458232D01*
X219959190Y-106215011D01*
X220071132Y-105944758D01*
X220128200Y-105657860D01*
X220128200Y-105365340D01*
X220071132Y-105078442D01*
X219959190Y-104808189D01*
X219796675Y-104564968D01*
X219589832Y-104358125D01*
X219528200Y-104316944D01*
X219528200Y-104166256D01*
X219589832Y-104125075D01*
X219796675Y-103918232D01*
X219959190Y-103675011D01*
X220071132Y-103404758D01*
X220128200Y-103117860D01*
X220128200Y-102825340D01*
X220071132Y-102538442D01*
X219959190Y-102268189D01*
X219796675Y-102024968D01*
X219589832Y-101818125D01*
X219346611Y-101655610D01*
X219076358Y-101543668D01*
X218789460Y-101486600D01*
X218496940Y-101486600D01*
X218210042Y-101543668D01*
X217939789Y-101655610D01*
X217696568Y-101818125D01*
X217489725Y-102024968D01*
X217373889Y-102198329D01*
X217131597Y-102122808D01*
X216282805Y-102971600D01*
X217131597Y-103820392D01*
X217373889Y-103744871D01*
X217489725Y-103918232D01*
X217696568Y-104125075D01*
X217758201Y-104166257D01*
X217758200Y-104316944D01*
X217696568Y-104358125D01*
X217489725Y-104564968D01*
X217373889Y-104738329D01*
X217131597Y-104662808D01*
X216282805Y-105511600D01*
X216296948Y-105525743D01*
X216117343Y-105705348D01*
X216103200Y-105691205D01*
X216089058Y-105705348D01*
X215909453Y-105525743D01*
X215923595Y-105511600D01*
X215074803Y-104662808D01*
X214825728Y-104740443D01*
X214699829Y-105004483D01*
X214627861Y-105288011D01*
X214612589Y-105580131D01*
X214654601Y-105869619D01*
X214674788Y-105926601D01*
X213173403Y-105926601D01*
X211246799Y-103999997D01*
X215254408Y-103999997D01*
X215329714Y-104241600D01*
X215254408Y-104483203D01*
X216103200Y-105331995D01*
X216951992Y-104483203D01*
X216876686Y-104241600D01*
X216951992Y-103999997D01*
X216103200Y-103151205D01*
X215254408Y-103999997D01*
X211246799Y-103999997D01*
X210286933Y-103040131D01*
X214612589Y-103040131D01*
X214654601Y-103329619D01*
X214752281Y-103605347D01*
X214825728Y-103742757D01*
X215074803Y-103820392D01*
X215923595Y-102971600D01*
X215074803Y-102122808D01*
X214825728Y-102200443D01*
X214699829Y-102464483D01*
X214627861Y-102748011D01*
X214612589Y-103040131D01*
X210286933Y-103040131D01*
X209815066Y-102568265D01*
X209873605Y-102480656D01*
X209951626Y-102292298D01*
X209991400Y-102092339D01*
X209991400Y-101888461D01*
X209951626Y-101688502D01*
X209873605Y-101500144D01*
X209760337Y-101330626D01*
X209746311Y-101316600D01*
X211119456Y-101316600D01*
X211139355Y-101332931D01*
X211723066Y-101916643D01*
X211734375Y-101973497D01*
X211812396Y-102161855D01*
X211925664Y-102331373D01*
X212069827Y-102475536D01*
X212239345Y-102588804D01*
X212427703Y-102666825D01*
X212627662Y-102706599D01*
X212831540Y-102706599D01*
X213031499Y-102666825D01*
X213219857Y-102588804D01*
X213389375Y-102475536D01*
X213533538Y-102331373D01*
X213646806Y-102161855D01*
X213724827Y-101973497D01*
X213730852Y-101943203D01*
X215254408Y-101943203D01*
X216103200Y-102791995D01*
X216951992Y-101943203D01*
X216874357Y-101694128D01*
X216610317Y-101568229D01*
X216326789Y-101496261D01*
X216034669Y-101480989D01*
X215745181Y-101523001D01*
X215469453Y-101620681D01*
X215332043Y-101694128D01*
X215254408Y-101943203D01*
X213730852Y-101943203D01*
X213764601Y-101773538D01*
X213764601Y-101569660D01*
X213724827Y-101369701D01*
X213646806Y-101181343D01*
X213533538Y-101011825D01*
X213389375Y-100867662D01*
X213219857Y-100754394D01*
X213031499Y-100676373D01*
X212974645Y-100665064D01*
X212610845Y-100301265D01*
X212606595Y-100258110D01*
X212555989Y-100091287D01*
X212473811Y-99937541D01*
X212363217Y-99802783D01*
X212344128Y-99787117D01*
X212228459Y-99692189D01*
X212074713Y-99610011D01*
X211907890Y-99559405D01*
X211777877Y-99546600D01*
X211777876Y-99546600D01*
X211734400Y-99542318D01*
X211690923Y-99546600D01*
X191986400Y-99546600D01*
X191986400Y-93914050D01*
X192049400Y-93851050D01*
X192049400Y-93768941D01*
X192081937Y-93729294D01*
X192140902Y-93618980D01*
X192176400Y-93501959D01*
X192211898Y-93618980D01*
X192270863Y-93729294D01*
X192303400Y-93768941D01*
X192303400Y-93851050D01*
X192462150Y-94009800D01*
X192501400Y-94012872D01*
X192625882Y-94000612D01*
X192651400Y-93992871D01*
X192676918Y-94000612D01*
X192801400Y-94012872D01*
X192840650Y-94009800D01*
X192999400Y-93851050D01*
X192999400Y-93768941D01*
X193031937Y-93729294D01*
X193090902Y-93618980D01*
X193127212Y-93499282D01*
X193139472Y-93374800D01*
X193136400Y-93130550D01*
X192999400Y-92993550D01*
X192999400Y-92971800D01*
X193253400Y-92971800D01*
X193253400Y-93851050D01*
X193412150Y-94009800D01*
X193451400Y-94012872D01*
X193575882Y-94000612D01*
X193695580Y-93964302D01*
X193805894Y-93905337D01*
X193902585Y-93825985D01*
X193981937Y-93729294D01*
X194040902Y-93618980D01*
X194077212Y-93499282D01*
X194089472Y-93374800D01*
X194086400Y-93130550D01*
X193927650Y-92971800D01*
X193253400Y-92971800D01*
X192999400Y-92971800D01*
X192979400Y-92971800D01*
X192979400Y-92717800D01*
X192999400Y-92717800D01*
X192999400Y-92697800D01*
X193253400Y-92697800D01*
X193253400Y-92717800D01*
X193927650Y-92717800D01*
X194086400Y-92559050D01*
X194089472Y-92314800D01*
X194077212Y-92190318D01*
X194040902Y-92070620D01*
X193981937Y-91960306D01*
X193902585Y-91863615D01*
X193805894Y-91784263D01*
X193732065Y-91744800D01*
X193805894Y-91705337D01*
X193902585Y-91625985D01*
X193981937Y-91529294D01*
X194040902Y-91418980D01*
X194077212Y-91299282D01*
X194089472Y-91174800D01*
X194089472Y-90114800D01*
X194077212Y-89990318D01*
X194040902Y-89870620D01*
X194026474Y-89843627D01*
X194140722Y-89729379D01*
X194234213Y-89806105D01*
X194387749Y-89888172D01*
X194554345Y-89938708D01*
X194727599Y-89955772D01*
X195577601Y-89955772D01*
X195750855Y-89938708D01*
X195917451Y-89888172D01*
X196070987Y-89806105D01*
X196205562Y-89695662D01*
X196316005Y-89561087D01*
X196398072Y-89407551D01*
X196448608Y-89240955D01*
X196458226Y-89143293D01*
X197528800Y-89143293D01*
X197528800Y-89494907D01*
X197597396Y-89839765D01*
X197731953Y-90164615D01*
X197927300Y-90456971D01*
X198175929Y-90705600D01*
X198468285Y-90900947D01*
X198793135Y-91035504D01*
X199137993Y-91104100D01*
X199489607Y-91104100D01*
X199834465Y-91035504D01*
X200159315Y-90900947D01*
X200451671Y-90705600D01*
X200700300Y-90456971D01*
X200895647Y-90164615D01*
X201030204Y-89839765D01*
X201098800Y-89494907D01*
X201098800Y-89143293D01*
X201030204Y-88798435D01*
X200895647Y-88473585D01*
X200700300Y-88181229D01*
X200688171Y-88169100D01*
X205145728Y-88169100D01*
X205145728Y-90469100D01*
X205157988Y-90593582D01*
X205194298Y-90713280D01*
X205253263Y-90823594D01*
X205332615Y-90920285D01*
X205429306Y-90999637D01*
X205539620Y-91058602D01*
X205659318Y-91094912D01*
X205783800Y-91107172D01*
X208083800Y-91107172D01*
X208208282Y-91094912D01*
X208327980Y-91058602D01*
X208438294Y-90999637D01*
X208534985Y-90920285D01*
X208614337Y-90823594D01*
X208673302Y-90713280D01*
X208709612Y-90593582D01*
X208721872Y-90469100D01*
X208721872Y-88169100D01*
X208709612Y-88044618D01*
X208673302Y-87924920D01*
X208614337Y-87814606D01*
X208534985Y-87717915D01*
X208438294Y-87638563D01*
X208327980Y-87579598D01*
X208208282Y-87543288D01*
X208083800Y-87531028D01*
X205783800Y-87531028D01*
X205659318Y-87543288D01*
X205539620Y-87579598D01*
X205429306Y-87638563D01*
X205332615Y-87717915D01*
X205253263Y-87814606D01*
X205194298Y-87924920D01*
X205157988Y-88044618D01*
X205145728Y-88169100D01*
X200688171Y-88169100D01*
X200451671Y-87932600D01*
X200159315Y-87737253D01*
X199834465Y-87602696D01*
X199489607Y-87534100D01*
X199137993Y-87534100D01*
X198793135Y-87602696D01*
X198468285Y-87737253D01*
X198175929Y-87932600D01*
X197927300Y-88181229D01*
X197731953Y-88473585D01*
X197597396Y-88798435D01*
X197528800Y-89143293D01*
X196458226Y-89143293D01*
X196465672Y-89067701D01*
X196465672Y-88995420D01*
X199705293Y-85755800D01*
X209074008Y-85755800D01*
X210704330Y-87386123D01*
X210763355Y-87458045D01*
X210835277Y-87517070D01*
X210835279Y-87517072D01*
X210997410Y-87650129D01*
X211050383Y-87693603D01*
X211377852Y-87868639D01*
X211677517Y-87959541D01*
X211733176Y-87976425D01*
X212102700Y-88012820D01*
X212195297Y-88003700D01*
X216856197Y-88003700D01*
X217133124Y-87976425D01*
X217488448Y-87868639D01*
X217633792Y-87790951D01*
X217851957Y-87769464D01*
X218167696Y-87673685D01*
X218458682Y-87518150D01*
X218713734Y-87308834D01*
X218923050Y-87053782D01*
X219078585Y-86762796D01*
X219174364Y-86447057D01*
X219206704Y-86118700D01*
X219174364Y-85790343D01*
X219078585Y-85474604D01*
X218923050Y-85183618D01*
X218713734Y-84928566D01*
X218458682Y-84719250D01*
X218167696Y-84563715D01*
X217851957Y-84467936D01*
X217633792Y-84446449D01*
X217488448Y-84368761D01*
X217133124Y-84260975D01*
X216856197Y-84233700D01*
X212883493Y-84233700D01*
X211253174Y-82603382D01*
X211194145Y-82531455D01*
X210907117Y-82295897D01*
X210579648Y-82120861D01*
X210224324Y-82013075D01*
X209947397Y-81985800D01*
X209947389Y-81985800D01*
X209854800Y-81976681D01*
X209762211Y-81985800D01*
X199017086Y-81985800D01*
X198924499Y-81976681D01*
X198831912Y-81985800D01*
X198831903Y-81985800D01*
X198554976Y-82013075D01*
X198199652Y-82120861D01*
X197872183Y-82295897D01*
X197825815Y-82333950D01*
X197657079Y-82472428D01*
X197657077Y-82472430D01*
X197585155Y-82531455D01*
X197526130Y-82603377D01*
X194799880Y-85329628D01*
X194727599Y-85329628D01*
X194554345Y-85346692D01*
X194387749Y-85397228D01*
X194234213Y-85479295D01*
X194099638Y-85589738D01*
X193989195Y-85724313D01*
X193907128Y-85877849D01*
X193856592Y-86044445D01*
X193839528Y-86217699D01*
X193839528Y-86289980D01*
X193754228Y-86375280D01*
X193577698Y-86590383D01*
X193402662Y-86917852D01*
X193294875Y-87273176D01*
X193258481Y-87642700D01*
X193294875Y-88012224D01*
X193391092Y-88329407D01*
X192615398Y-89105101D01*
X192586400Y-89128899D01*
X192562602Y-89157897D01*
X192562601Y-89157898D01*
X192491426Y-89244624D01*
X192420854Y-89376654D01*
X192400977Y-89442182D01*
X192377398Y-89519914D01*
X192372521Y-89569429D01*
X192303400Y-89638550D01*
X192303400Y-89720659D01*
X192270863Y-89760306D01*
X192211898Y-89870620D01*
X192176400Y-89987641D01*
X192140902Y-89870620D01*
X192081937Y-89760306D01*
X192049400Y-89720659D01*
X192049400Y-89638550D01*
X191890650Y-89479800D01*
X191851400Y-89476728D01*
X191726918Y-89488988D01*
X191701400Y-89496729D01*
X191675882Y-89488988D01*
X191551400Y-89476728D01*
X190901400Y-89476728D01*
X190776918Y-89488988D01*
X190657220Y-89525298D01*
X190622583Y-89543812D01*
X190653412Y-89442182D01*
X190665672Y-89317700D01*
X190662600Y-87928450D01*
X190503852Y-87769702D01*
X190662600Y-87769702D01*
X190662600Y-87758547D01*
X190712063Y-87832574D01*
X190856226Y-87976737D01*
X191025744Y-88090005D01*
X191214102Y-88168026D01*
X191414061Y-88207800D01*
X191617939Y-88207800D01*
X191817898Y-88168026D01*
X192006256Y-88090005D01*
X192175774Y-87976737D01*
X192319937Y-87832574D01*
X192433205Y-87663056D01*
X192511226Y-87474698D01*
X192551000Y-87274739D01*
X192551000Y-87070861D01*
X192511226Y-86870902D01*
X192433205Y-86682544D01*
X192319937Y-86513026D01*
X192276000Y-86469089D01*
X192276000Y-84799422D01*
X192279676Y-84762099D01*
X192276000Y-84724776D01*
X192276000Y-84724767D01*
X192265003Y-84613114D01*
X192221546Y-84469853D01*
X192179771Y-84391698D01*
X192150974Y-84337823D01*
X192079799Y-84251097D01*
X192056001Y-84222099D01*
X192027004Y-84198302D01*
X190667922Y-82839220D01*
X190669672Y-82821450D01*
X190669672Y-82333950D01*
X190652728Y-82161915D01*
X190602547Y-81996491D01*
X190521058Y-81844036D01*
X190411392Y-81710408D01*
X190277764Y-81600742D01*
X190125309Y-81519253D01*
X189959885Y-81469072D01*
X189787850Y-81452128D01*
X188875350Y-81452128D01*
X188703315Y-81469072D01*
X188564876Y-81511067D01*
X188557228Y-81433415D01*
X188507047Y-81267991D01*
X188425558Y-81115536D01*
X188315892Y-80981908D01*
X188230344Y-80911700D01*
X188315892Y-80841492D01*
X188425558Y-80707864D01*
X188507047Y-80555409D01*
X188557228Y-80389985D01*
X188574172Y-80217950D01*
X188574172Y-79730450D01*
X188557228Y-79558415D01*
X188528264Y-79462933D01*
X188659448Y-79423139D01*
X188986917Y-79248103D01*
X189095367Y-79159100D01*
X205039680Y-79159100D01*
X205076075Y-79528624D01*
X205183861Y-79883948D01*
X205358897Y-80211417D01*
X205594455Y-80498445D01*
X205881483Y-80734003D01*
X206208952Y-80909039D01*
X206564276Y-81016825D01*
X206841203Y-81044100D01*
X214103208Y-81044100D01*
X214325528Y-81266420D01*
X214325528Y-81828701D01*
X214342592Y-82001955D01*
X214393128Y-82168551D01*
X214475195Y-82322087D01*
X214585638Y-82456662D01*
X214720213Y-82567105D01*
X214873749Y-82649172D01*
X215040345Y-82699708D01*
X215213599Y-82716772D01*
X215904299Y-82716772D01*
X216038751Y-82788638D01*
X216394076Y-82896425D01*
X216763600Y-82932819D01*
X217133124Y-82896425D01*
X217488448Y-82788638D01*
X217622900Y-82716772D01*
X218313601Y-82716772D01*
X218486855Y-82699708D01*
X218653451Y-82649172D01*
X218806987Y-82567105D01*
X218941562Y-82456662D01*
X219052005Y-82322087D01*
X219134072Y-82168551D01*
X219184608Y-82001955D01*
X219201672Y-81828701D01*
X219201672Y-80248699D01*
X219184608Y-80075445D01*
X219134072Y-79908849D01*
X219052005Y-79755313D01*
X218941562Y-79620738D01*
X218806987Y-79510295D01*
X218653451Y-79428228D01*
X218486855Y-79377692D01*
X218313601Y-79360628D01*
X217751321Y-79360628D01*
X216282374Y-77891682D01*
X216223345Y-77819755D01*
X215936317Y-77584197D01*
X215608848Y-77409161D01*
X215253524Y-77301375D01*
X214976597Y-77274100D01*
X214976589Y-77274100D01*
X214884000Y-77264981D01*
X214791411Y-77274100D01*
X206841203Y-77274100D01*
X206564276Y-77301375D01*
X206208952Y-77409161D01*
X205881483Y-77584197D01*
X205594455Y-77819755D01*
X205358897Y-78106783D01*
X205183861Y-78434252D01*
X205076075Y-78789576D01*
X205039680Y-79159100D01*
X189095367Y-79159100D01*
X189273945Y-79012545D01*
X189332974Y-78940618D01*
X194370299Y-73903293D01*
X197528800Y-73903293D01*
X197528800Y-74254907D01*
X197597396Y-74599765D01*
X197731953Y-74924615D01*
X197927300Y-75216971D01*
X198175929Y-75465600D01*
X198468285Y-75660947D01*
X198793135Y-75795504D01*
X199137993Y-75864100D01*
X199489607Y-75864100D01*
X199834465Y-75795504D01*
X200159315Y-75660947D01*
X200451671Y-75465600D01*
X200700300Y-75216971D01*
X200895647Y-74924615D01*
X201030204Y-74599765D01*
X201098800Y-74254907D01*
X201098800Y-73903293D01*
X201082408Y-73820881D01*
X216020324Y-73820881D01*
X216380512Y-74310548D01*
X217044482Y-74670849D01*
X217765985Y-74894694D01*
X218517295Y-74973480D01*
X219269538Y-74904178D01*
X219993808Y-74689452D01*
X220662270Y-74337555D01*
X220702688Y-74310548D01*
X221062876Y-73820881D01*
X218541600Y-71299605D01*
X216020324Y-73820881D01*
X201082408Y-73820881D01*
X201030204Y-73558435D01*
X200895647Y-73233585D01*
X200700300Y-72941229D01*
X200451671Y-72692600D01*
X200159315Y-72497253D01*
X199834465Y-72362696D01*
X199489607Y-72294100D01*
X199137993Y-72294100D01*
X198793135Y-72362696D01*
X198468285Y-72497253D01*
X198175929Y-72692600D01*
X197927300Y-72941229D01*
X197731953Y-73233585D01*
X197597396Y-73558435D01*
X197528800Y-73903293D01*
X194370299Y-73903293D01*
X195999492Y-72274101D01*
X205003009Y-72274101D01*
X205666380Y-72937472D01*
X205881482Y-73114002D01*
X206208951Y-73289038D01*
X206564275Y-73396824D01*
X206933799Y-73433219D01*
X207303323Y-73396824D01*
X207658648Y-73289038D01*
X207986116Y-73114002D01*
X208273144Y-72878444D01*
X208508702Y-72591416D01*
X208683738Y-72263948D01*
X208791524Y-71908623D01*
X208827919Y-71539099D01*
X208791524Y-71169575D01*
X208769113Y-71095695D01*
X214688120Y-71095695D01*
X214757422Y-71847938D01*
X214972148Y-72572208D01*
X215324045Y-73240670D01*
X215351052Y-73281088D01*
X215840719Y-73641276D01*
X218361995Y-71120000D01*
X218721205Y-71120000D01*
X221242481Y-73641276D01*
X221732148Y-73281088D01*
X222092449Y-72617118D01*
X222316294Y-71895615D01*
X222395080Y-71144305D01*
X222325778Y-70392062D01*
X222111052Y-69667792D01*
X221759155Y-68999330D01*
X221732148Y-68958912D01*
X221242481Y-68598724D01*
X218721205Y-71120000D01*
X218361995Y-71120000D01*
X215840719Y-68598724D01*
X215351052Y-68958912D01*
X214990751Y-69622882D01*
X214766906Y-70344385D01*
X214688120Y-71095695D01*
X208769113Y-71095695D01*
X208683738Y-70814251D01*
X208508702Y-70486782D01*
X208332172Y-70271680D01*
X207182175Y-69121683D01*
X207123146Y-69049756D01*
X206836118Y-68814198D01*
X206508649Y-68639162D01*
X206153325Y-68531376D01*
X205876398Y-68504101D01*
X205876390Y-68504101D01*
X205783801Y-68494982D01*
X205691212Y-68504101D01*
X195311296Y-68504101D01*
X195218699Y-68494981D01*
X195126102Y-68504101D01*
X194849175Y-68531376D01*
X194493851Y-68639162D01*
X194342614Y-68720000D01*
X194166382Y-68814198D01*
X193951278Y-68990729D01*
X193951276Y-68990731D01*
X193879354Y-69049756D01*
X193820329Y-69121678D01*
X187153808Y-75788200D01*
X186254672Y-75788200D01*
X186254672Y-75673200D01*
X186242412Y-75548718D01*
X186206102Y-75429020D01*
X186147137Y-75318706D01*
X186067785Y-75222015D01*
X185971094Y-75142663D01*
X185860780Y-75083698D01*
X185741082Y-75047388D01*
X185616600Y-75035128D01*
X181616600Y-75035128D01*
X181492118Y-75047388D01*
X181372420Y-75083698D01*
X181262106Y-75142663D01*
X181165415Y-75222015D01*
X181086063Y-75318706D01*
X181027098Y-75429020D01*
X180990788Y-75548718D01*
X180978528Y-75673200D01*
X180978528Y-79673200D01*
X180990788Y-79797682D01*
X181027098Y-79917380D01*
X181086063Y-80027694D01*
X181165415Y-80124385D01*
X181262106Y-80203737D01*
X181372420Y-80262702D01*
X181492118Y-80299012D01*
X181616600Y-80311272D01*
X185616600Y-80311272D01*
X185741082Y-80299012D01*
X185860780Y-80262702D01*
X185900352Y-80241550D01*
X185914972Y-80389985D01*
X185965153Y-80555409D01*
X186046642Y-80707864D01*
X186156308Y-80841492D01*
X186241856Y-80911700D01*
X186156308Y-80981908D01*
X186046642Y-81115536D01*
X185965153Y-81267991D01*
X185914972Y-81433415D01*
X185898028Y-81605450D01*
X185898028Y-82092950D01*
X185914972Y-82264985D01*
X185965153Y-82430409D01*
X186046642Y-82582864D01*
X186156308Y-82716492D01*
X186162349Y-82721450D01*
X186156308Y-82726408D01*
X186046642Y-82860036D01*
X185965153Y-83012491D01*
X185914972Y-83177915D01*
X185898028Y-83349950D01*
X185898028Y-83837450D01*
X185914972Y-84009485D01*
X185965153Y-84174909D01*
X186046642Y-84327364D01*
X186156308Y-84460992D01*
X186162664Y-84466208D01*
X186084915Y-84530015D01*
X186005563Y-84626706D01*
X185946598Y-84737020D01*
X185910288Y-84856718D01*
X185898028Y-84981200D01*
X185901100Y-85182950D01*
X186059850Y-85341700D01*
X187109100Y-85341700D01*
X187109100Y-85321700D01*
X187363100Y-85321700D01*
X187363100Y-85341700D01*
X187383100Y-85341700D01*
X187383100Y-85595700D01*
X187363100Y-85595700D01*
X187363100Y-86432450D01*
X187521850Y-86591200D01*
X187936100Y-86594272D01*
X188040891Y-86583951D01*
X188042600Y-87356950D01*
X188201350Y-87515700D01*
X189225600Y-87515700D01*
X189225600Y-85491450D01*
X189177600Y-85443450D01*
X189204600Y-85416450D01*
X189204600Y-84579700D01*
X189184600Y-84579700D01*
X189184600Y-84325700D01*
X189204600Y-84325700D01*
X189204600Y-84305700D01*
X189458600Y-84305700D01*
X189458600Y-84325700D01*
X189478600Y-84325700D01*
X189478600Y-84579700D01*
X189458600Y-84579700D01*
X189458600Y-85416450D01*
X189506600Y-85464450D01*
X189479600Y-85491450D01*
X189479600Y-87515700D01*
X189499600Y-87515700D01*
X189499600Y-87769700D01*
X189479600Y-87769700D01*
X189479600Y-87789700D01*
X189225600Y-87789700D01*
X189225600Y-87769700D01*
X188201350Y-87769700D01*
X188042600Y-87928450D01*
X188040381Y-88931800D01*
X188010461Y-88931800D01*
X187810502Y-88971574D01*
X187622144Y-89049595D01*
X187452626Y-89162863D01*
X187308463Y-89307026D01*
X187195195Y-89476544D01*
X187141241Y-89606799D01*
X185233757Y-89606799D01*
X185284494Y-89520699D01*
X183616600Y-87852805D01*
X181948706Y-89520699D01*
X181999443Y-89606799D01*
X175092724Y-89606799D01*
X175055401Y-89603123D01*
X175018078Y-89606799D01*
X175018068Y-89606799D01*
X174906415Y-89617796D01*
X174763154Y-89661253D01*
X174631125Y-89731825D01*
X174515400Y-89826798D01*
X174491602Y-89855796D01*
X173174408Y-91172991D01*
X173145410Y-91196789D01*
X173121612Y-91225787D01*
X173121611Y-91225788D01*
X173050436Y-91312514D01*
X172979864Y-91444544D01*
X172949590Y-91544348D01*
X172936408Y-91587804D01*
X172927650Y-91676728D01*
X172921734Y-91736790D01*
X172925411Y-91774122D01*
X172925409Y-99092789D01*
X170111189Y-101907010D01*
X146595115Y-101907010D01*
X146557790Y-101903334D01*
X146520465Y-101907010D01*
X146520457Y-101907010D01*
X146408804Y-101918007D01*
X146265543Y-101961464D01*
X146133514Y-102032036D01*
X146017789Y-102127009D01*
X145993991Y-102156007D01*
X144790999Y-103359000D01*
X144728861Y-103359000D01*
X144528902Y-103398774D01*
X144340544Y-103476795D01*
X144171026Y-103590063D01*
X144026863Y-103734226D01*
X143913595Y-103903744D01*
X143835574Y-104092102D01*
X143795800Y-104292061D01*
X143795800Y-104495939D01*
X143835574Y-104695898D01*
X143913595Y-104884256D01*
X144026863Y-105053774D01*
X144171026Y-105197937D01*
X144340544Y-105311205D01*
X144528902Y-105389226D01*
X144728861Y-105429000D01*
X144932739Y-105429000D01*
X144964200Y-105422742D01*
X144964200Y-105511939D01*
X145003974Y-105711898D01*
X145072109Y-105876390D01*
X144116630Y-105876390D01*
X144138600Y-105765939D01*
X144138600Y-105562061D01*
X144098826Y-105362102D01*
X144020805Y-105173744D01*
X143907537Y-105004226D01*
X143763374Y-104860063D01*
X143762000Y-104859145D01*
X143762000Y-102405311D01*
X143805937Y-102361374D01*
X143919205Y-102191856D01*
X143997226Y-102003498D01*
X144037000Y-101803539D01*
X144037000Y-101599661D01*
X143997226Y-101399702D01*
X143919205Y-101211344D01*
X143805937Y-101041826D01*
X143661774Y-100897663D01*
X143492256Y-100784395D01*
X143303898Y-100706374D01*
X143103939Y-100666600D01*
X142900061Y-100666600D01*
X142700102Y-100706374D01*
X142511744Y-100784395D01*
X142342226Y-100897663D01*
X142198063Y-101041826D01*
X142084795Y-101211344D01*
X142006774Y-101399702D01*
X141967000Y-101599661D01*
X141967000Y-101803539D01*
X142006774Y-102003498D01*
X142084795Y-102191856D01*
X142198063Y-102361374D01*
X142242000Y-102405311D01*
X142242001Y-105090524D01*
X142186395Y-105173744D01*
X142108374Y-105362102D01*
X142068600Y-105562061D01*
X142068600Y-105765939D01*
X142090570Y-105876390D01*
X134236940Y-105876390D01*
X134277392Y-105843192D01*
X134387058Y-105709564D01*
X134468547Y-105557109D01*
X134518728Y-105391685D01*
X134535672Y-105219650D01*
X134535672Y-104732150D01*
X134518728Y-104560115D01*
X134468547Y-104394691D01*
X134387058Y-104242236D01*
X134277392Y-104108608D01*
X134271036Y-104103392D01*
X134348785Y-104039585D01*
X134428137Y-103942894D01*
X134487102Y-103832580D01*
X134523412Y-103712882D01*
X134535672Y-103588400D01*
X134532600Y-103386650D01*
X134373850Y-103227900D01*
X133324600Y-103227900D01*
X133324600Y-103247900D01*
X133070600Y-103247900D01*
X133070600Y-103227900D01*
X131292600Y-103227900D01*
X131292600Y-103247900D01*
X131038600Y-103247900D01*
X131038600Y-103227900D01*
X129260600Y-103227900D01*
X129260600Y-103247900D01*
X129006600Y-103247900D01*
X129006600Y-103227900D01*
X127957350Y-103227900D01*
X127798600Y-103386650D01*
X127795528Y-103588400D01*
X127807788Y-103712882D01*
X127844098Y-103832580D01*
X127903063Y-103942894D01*
X127982415Y-104039585D01*
X128060164Y-104103392D01*
X128053808Y-104108608D01*
X127944142Y-104242236D01*
X127862653Y-104394691D01*
X127812472Y-104560115D01*
X127795528Y-104732150D01*
X127795528Y-105219650D01*
X127812472Y-105391685D01*
X127862653Y-105557109D01*
X127944142Y-105709564D01*
X128053808Y-105843192D01*
X128187436Y-105952858D01*
X128339891Y-106034347D01*
X128505315Y-106084528D01*
X128677350Y-106101472D01*
X129184371Y-106101472D01*
X129737030Y-106654132D01*
X129740395Y-106662256D01*
X129853663Y-106831774D01*
X129997826Y-106975937D01*
X130167344Y-107089205D01*
X130355702Y-107167226D01*
X130555661Y-107207000D01*
X130617799Y-107207000D01*
X131458210Y-108047412D01*
X131482009Y-108076411D01*
X131511007Y-108100209D01*
X131597733Y-108171384D01*
X131647266Y-108197860D01*
X131729763Y-108241956D01*
X131873024Y-108285413D01*
X131984677Y-108296410D01*
X131984686Y-108296410D01*
X132022009Y-108300086D01*
X132059332Y-108296410D01*
X152992409Y-108296410D01*
X153308399Y-108612400D01*
X150710122Y-108612400D01*
X150672799Y-108608724D01*
X150635476Y-108612400D01*
X150635467Y-108612400D01*
X150523814Y-108623397D01*
X150380553Y-108666854D01*
X150248524Y-108737426D01*
X150132799Y-108832399D01*
X150109001Y-108861397D01*
X148802522Y-110167877D01*
X148796005Y-110152144D01*
X148682737Y-109982626D01*
X148538574Y-109838463D01*
X148369056Y-109725195D01*
X148180698Y-109647174D01*
X147980739Y-109607400D01*
X147776861Y-109607400D01*
X147576902Y-109647174D01*
X147388544Y-109725195D01*
X147219026Y-109838463D01*
X147074863Y-109982626D01*
X146961595Y-110152144D01*
X146883574Y-110340502D01*
X146872265Y-110397356D01*
X145835822Y-111433800D01*
X142168854Y-111433800D01*
X142120656Y-111401595D01*
X141932298Y-111323574D01*
X141732339Y-111283800D01*
X141528461Y-111283800D01*
X141328502Y-111323574D01*
X141140144Y-111401595D01*
X140970626Y-111514863D01*
X140826463Y-111659026D01*
X140713195Y-111828544D01*
X140635174Y-112016902D01*
X140595400Y-112216861D01*
X140595400Y-112420739D01*
X140635174Y-112620698D01*
X140713195Y-112809056D01*
X140826463Y-112978574D01*
X140970626Y-113122737D01*
X141140144Y-113236005D01*
X141328502Y-113314026D01*
X141528461Y-113353800D01*
X141654198Y-113353800D01*
X138457365Y-116550633D01*
X138312411Y-116521800D01*
X138039589Y-116521800D01*
X137772011Y-116575025D01*
X137519957Y-116679429D01*
X137293114Y-116831001D01*
X137100201Y-117023914D01*
X136948629Y-117250757D01*
X136844225Y-117502811D01*
X136791000Y-117770389D01*
X136791000Y-118043211D01*
X136844225Y-118310789D01*
X136948629Y-118562843D01*
X137100201Y-118789686D01*
X137293114Y-118982599D01*
X137519957Y-119134171D01*
X137772011Y-119238575D01*
X138039589Y-119291800D01*
X138312411Y-119291800D01*
X138579989Y-119238575D01*
X138832043Y-119134171D01*
X139058886Y-118982599D01*
X139251799Y-118789686D01*
X139403371Y-118562843D01*
X139507775Y-118310789D01*
X139561000Y-118043211D01*
X139561000Y-117770389D01*
X139532167Y-117625435D01*
X143335602Y-113822000D01*
X146065998Y-113822000D01*
X143337365Y-116550633D01*
X143192411Y-116521800D01*
X142919589Y-116521800D01*
X142652011Y-116575025D01*
X142399957Y-116679429D01*
X142173114Y-116831001D01*
X141980201Y-117023914D01*
X141828629Y-117250757D01*
X141724225Y-117502811D01*
X141671000Y-117770389D01*
X141671000Y-118043211D01*
X141724225Y-118310789D01*
X141828629Y-118562843D01*
X141980201Y-118789686D01*
X142173114Y-118982599D01*
X142399957Y-119134171D01*
X142652011Y-119238575D01*
X142919589Y-119291800D01*
X143192411Y-119291800D01*
X143459989Y-119238575D01*
X143712043Y-119134171D01*
X143938886Y-118982599D01*
X144131799Y-118789686D01*
X144283371Y-118562843D01*
X144364657Y-118366600D01*
X149182328Y-118366600D01*
X149194588Y-118491082D01*
X149230898Y-118610780D01*
X149289863Y-118721094D01*
X149369215Y-118817785D01*
X149465906Y-118897137D01*
X149576220Y-118956102D01*
X149695918Y-118992412D01*
X149820400Y-119004672D01*
X150234650Y-119001600D01*
X150393400Y-118842850D01*
X150393400Y-118006100D01*
X149344150Y-118006100D01*
X149185400Y-118164850D01*
X149182328Y-118366600D01*
X144364657Y-118366600D01*
X144387775Y-118310789D01*
X144441000Y-118043211D01*
X144441000Y-117770389D01*
X144412167Y-117625435D01*
X147000145Y-115037456D01*
X147015826Y-115053137D01*
X147185344Y-115166405D01*
X147373702Y-115244426D01*
X147573661Y-115284200D01*
X147777539Y-115284200D01*
X147977498Y-115244426D01*
X148165856Y-115166405D01*
X148335374Y-115053137D01*
X148479537Y-114908974D01*
X148592805Y-114739456D01*
X148599322Y-114723723D01*
X148834401Y-114958803D01*
X148858199Y-114987801D01*
X148973924Y-115082774D01*
X149105953Y-115153346D01*
X149249214Y-115196803D01*
X149351825Y-115206909D01*
X149367451Y-115225950D01*
X149330942Y-115270436D01*
X149249453Y-115422891D01*
X149199272Y-115588315D01*
X149182328Y-115760350D01*
X149182328Y-116247850D01*
X149199272Y-116419885D01*
X149249453Y-116585309D01*
X149330942Y-116737764D01*
X149440608Y-116871392D01*
X149446964Y-116876608D01*
X149369215Y-116940415D01*
X149289863Y-117037106D01*
X149230898Y-117147420D01*
X149194588Y-117267118D01*
X149182328Y-117391600D01*
X149185400Y-117593350D01*
X149344150Y-117752100D01*
X150393400Y-117752100D01*
X150393400Y-117732100D01*
X150647400Y-117732100D01*
X150647400Y-117752100D01*
X150667400Y-117752100D01*
X150667400Y-118006100D01*
X150647400Y-118006100D01*
X150647400Y-118842850D01*
X150806150Y-119001600D01*
X151220400Y-119004672D01*
X151344882Y-118992412D01*
X151464580Y-118956102D01*
X151574894Y-118897137D01*
X151671585Y-118817785D01*
X151750937Y-118721094D01*
X151809902Y-118610780D01*
X151834920Y-118528306D01*
X151889400Y-118533672D01*
X152091150Y-118530600D01*
X152249900Y-118371850D01*
X152249900Y-117322600D01*
X152229900Y-117322600D01*
X152229900Y-117068600D01*
X152249900Y-117068600D01*
X152249900Y-115189000D01*
X152229900Y-115189000D01*
X152229900Y-114935000D01*
X152249900Y-114935000D01*
X152249900Y-114915000D01*
X152503900Y-114915000D01*
X152503900Y-114935000D01*
X152523900Y-114935000D01*
X152523900Y-115189000D01*
X152503900Y-115189000D01*
X152503900Y-117068600D01*
X152523900Y-117068600D01*
X152523900Y-117322600D01*
X152503900Y-117322600D01*
X152503900Y-118371850D01*
X152662650Y-118530600D01*
X152864400Y-118533672D01*
X152988882Y-118521412D01*
X153108580Y-118485102D01*
X153218894Y-118426137D01*
X153315585Y-118346785D01*
X153379392Y-118269036D01*
X153384608Y-118275392D01*
X153518236Y-118385058D01*
X153670691Y-118466547D01*
X153836115Y-118516728D01*
X154008150Y-118533672D01*
X154305126Y-118533672D01*
X152643999Y-120194800D01*
X126146402Y-120194800D01*
X126003000Y-120051398D01*
X126003000Y-119989261D01*
X125963226Y-119789302D01*
X125885205Y-119600944D01*
X125771937Y-119431426D01*
X125627774Y-119287263D01*
X125458256Y-119173995D01*
X125269898Y-119095974D01*
X125069939Y-119056200D01*
X124866061Y-119056200D01*
X124666102Y-119095974D01*
X124477744Y-119173995D01*
X124308226Y-119287263D01*
X124164063Y-119431426D01*
X124050795Y-119600944D01*
X123972774Y-119789302D01*
X123933000Y-119989261D01*
X123933000Y-120193139D01*
X123972774Y-120393098D01*
X124050795Y-120581456D01*
X124164063Y-120750974D01*
X124308226Y-120895137D01*
X124477744Y-121008405D01*
X124666102Y-121086426D01*
X124866061Y-121126200D01*
X124928198Y-121126200D01*
X125267801Y-121465803D01*
X125291599Y-121494801D01*
X125407324Y-121589774D01*
X125539353Y-121660346D01*
X125682614Y-121703803D01*
X125794267Y-121714800D01*
X125794277Y-121714800D01*
X125831600Y-121718476D01*
X125868923Y-121714800D01*
X128140404Y-121714800D01*
X128138374Y-121719702D01*
X128098600Y-121919661D01*
X128098600Y-122123539D01*
X128138374Y-122323498D01*
X128216395Y-122511856D01*
X128272752Y-122596201D01*
X120521403Y-122596201D01*
X120008600Y-122083399D01*
X120008600Y-122021261D01*
X119968826Y-121821302D01*
X119890805Y-121632944D01*
X119777537Y-121463426D01*
X119633374Y-121319263D01*
X119463856Y-121205995D01*
X119275498Y-121127974D01*
X119075539Y-121088200D01*
X118871661Y-121088200D01*
X118671702Y-121127974D01*
X118483344Y-121205995D01*
X118313826Y-121319263D01*
X118169663Y-121463426D01*
X118056395Y-121632944D01*
X117978374Y-121821302D01*
X117938600Y-122021261D01*
X89140450Y-122021261D01*
X89116652Y-121940992D01*
X88764755Y-121272530D01*
X88737748Y-121232112D01*
X88248081Y-120871924D01*
X85726805Y-123393200D01*
X85367595Y-123393200D01*
X82846319Y-120871924D01*
X82356652Y-121232112D01*
X81996351Y-121896082D01*
X81772506Y-122617585D01*
X81693720Y-123368895D01*
X81482800Y-123368895D01*
X81482800Y-120692319D01*
X83025924Y-120692319D01*
X85547200Y-123213595D01*
X88068476Y-120692319D01*
X87708288Y-120202652D01*
X87044318Y-119842351D01*
X86322815Y-119618506D01*
X85571505Y-119539720D01*
X84819262Y-119609022D01*
X84094992Y-119823748D01*
X83426530Y-120175645D01*
X83386112Y-120202652D01*
X83025924Y-120692319D01*
X81482800Y-120692319D01*
X81482800Y-107645200D01*
X87556309Y-107645200D01*
X87561800Y-107700952D01*
X87561801Y-113034952D01*
X87578224Y-113201699D01*
X87643125Y-113415647D01*
X87748517Y-113612823D01*
X87890352Y-113785649D01*
X88063178Y-113927484D01*
X88260354Y-114032876D01*
X88474302Y-114097777D01*
X88696800Y-114119691D01*
X88919299Y-114097777D01*
X89133247Y-114032876D01*
X89330423Y-113927484D01*
X89503249Y-113785649D01*
X89645084Y-113612823D01*
X89750476Y-113415647D01*
X89815377Y-113201699D01*
X89831800Y-113034952D01*
X89831800Y-108115331D01*
X90995732Y-106951400D01*
X95440269Y-106951400D01*
X95893001Y-107404132D01*
X95893000Y-109580551D01*
X95909423Y-109747298D01*
X95974324Y-109961246D01*
X96079716Y-110158423D01*
X96221551Y-110331249D01*
X96394377Y-110473084D01*
X96591553Y-110578476D01*
X96805501Y-110643377D01*
X97028000Y-110665291D01*
X97250498Y-110643377D01*
X97464446Y-110578476D01*
X97661623Y-110473084D01*
X97834449Y-110331249D01*
X97976284Y-110158423D01*
X98081676Y-109961247D01*
X98146577Y-109747299D01*
X98163000Y-109580552D01*
X98163000Y-106989751D01*
X98168491Y-106933999D01*
X98146577Y-106711501D01*
X98081676Y-106497553D01*
X98063873Y-106464246D01*
X97976284Y-106300377D01*
X97834449Y-106127551D01*
X97791140Y-106092008D01*
X96752396Y-105053264D01*
X96716849Y-105009951D01*
X96544023Y-104868116D01*
X96346847Y-104762724D01*
X96132899Y-104697823D01*
X95966152Y-104681400D01*
X95966151Y-104681400D01*
X95910400Y-104675909D01*
X95854649Y-104681400D01*
X90581352Y-104681400D01*
X90525600Y-104675909D01*
X90469848Y-104681400D01*
X90303101Y-104697823D01*
X90089153Y-104762724D01*
X89891977Y-104868116D01*
X89719151Y-105009951D01*
X89683609Y-105053260D01*
X87933665Y-106803204D01*
X87890351Y-106838751D01*
X87748516Y-107011577D01*
X87671055Y-107156498D01*
X87643124Y-107208754D01*
X87578223Y-107422702D01*
X87556309Y-107645200D01*
X81482800Y-107645200D01*
X81482800Y-102613400D01*
X127795528Y-102613400D01*
X127798600Y-102815150D01*
X127957350Y-102973900D01*
X129006600Y-102973900D01*
X129006600Y-102137150D01*
X129260600Y-102137150D01*
X129260600Y-102973900D01*
X131038600Y-102973900D01*
X131038600Y-102137150D01*
X131292600Y-102137150D01*
X131292600Y-102973900D01*
X133070600Y-102973900D01*
X133070600Y-102137150D01*
X133324600Y-102137150D01*
X133324600Y-102973900D01*
X134373850Y-102973900D01*
X134532600Y-102815150D01*
X134535672Y-102613400D01*
X134523412Y-102488918D01*
X134487102Y-102369220D01*
X134428137Y-102258906D01*
X134348785Y-102162215D01*
X134252094Y-102082863D01*
X134141780Y-102023898D01*
X134022082Y-101987588D01*
X133897600Y-101975328D01*
X133483350Y-101978400D01*
X133324600Y-102137150D01*
X133070600Y-102137150D01*
X132911850Y-101978400D01*
X132497600Y-101975328D01*
X132373118Y-101987588D01*
X132253420Y-102023898D01*
X132181600Y-102062287D01*
X132109780Y-102023898D01*
X131990082Y-101987588D01*
X131865600Y-101975328D01*
X131451350Y-101978400D01*
X131292600Y-102137150D01*
X131038600Y-102137150D01*
X130879850Y-101978400D01*
X130465600Y-101975328D01*
X130341118Y-101987588D01*
X130221420Y-102023898D01*
X130149600Y-102062287D01*
X130077780Y-102023898D01*
X129958082Y-101987588D01*
X129833600Y-101975328D01*
X129419350Y-101978400D01*
X129260600Y-102137150D01*
X129006600Y-102137150D01*
X128847850Y-101978400D01*
X128433600Y-101975328D01*
X128309118Y-101987588D01*
X128189420Y-102023898D01*
X128079106Y-102082863D01*
X127982415Y-102162215D01*
X127903063Y-102258906D01*
X127844098Y-102369220D01*
X127807788Y-102488918D01*
X127795528Y-102613400D01*
X81482800Y-102613400D01*
X81482800Y-100634461D01*
X128352600Y-100634461D01*
X128352600Y-100838339D01*
X128392374Y-101038298D01*
X128470395Y-101226656D01*
X128583663Y-101396174D01*
X128727826Y-101540337D01*
X128897344Y-101653605D01*
X129085702Y-101731626D01*
X129285661Y-101771400D01*
X129489539Y-101771400D01*
X129689498Y-101731626D01*
X129877856Y-101653605D01*
X129926054Y-101621400D01*
X136505879Y-101621400D01*
X136549348Y-101625681D01*
X136592817Y-101621400D01*
X136592825Y-101621400D01*
X136722838Y-101608595D01*
X136889661Y-101557989D01*
X137043407Y-101475811D01*
X137178165Y-101365217D01*
X137205882Y-101331444D01*
X137378581Y-101158745D01*
X137435436Y-101147436D01*
X137623794Y-101069415D01*
X137793312Y-100956147D01*
X137937475Y-100811984D01*
X138050743Y-100642466D01*
X138128764Y-100454108D01*
X138168538Y-100254149D01*
X138168538Y-100050271D01*
X138128764Y-99850312D01*
X138050743Y-99661954D01*
X137937475Y-99492436D01*
X137793312Y-99348273D01*
X137623794Y-99235005D01*
X137435436Y-99156984D01*
X137235477Y-99117210D01*
X137031599Y-99117210D01*
X136831640Y-99156984D01*
X136643282Y-99235005D01*
X136473764Y-99348273D01*
X136329601Y-99492436D01*
X136216333Y-99661954D01*
X136138312Y-99850312D01*
X136138096Y-99851400D01*
X129926054Y-99851400D01*
X129877856Y-99819195D01*
X129689498Y-99741174D01*
X129489539Y-99701400D01*
X129285661Y-99701400D01*
X129085702Y-99741174D01*
X128897344Y-99819195D01*
X128727826Y-99932463D01*
X128583663Y-100076626D01*
X128470395Y-100246144D01*
X128392374Y-100434502D01*
X128352600Y-100634461D01*
X81482800Y-100634461D01*
X81482800Y-83169699D01*
X85039528Y-83169699D01*
X85039528Y-84749701D01*
X85056592Y-84922955D01*
X85107128Y-85089551D01*
X85189195Y-85243087D01*
X85299638Y-85377662D01*
X85434213Y-85488105D01*
X85587749Y-85570172D01*
X85592600Y-85571644D01*
X85592601Y-97423101D01*
X85583481Y-97515700D01*
X85619875Y-97885224D01*
X85727662Y-98240548D01*
X85902698Y-98568017D01*
X86079228Y-98783120D01*
X86079231Y-98783123D01*
X86138256Y-98855045D01*
X86210178Y-98914070D01*
X86243180Y-98947072D01*
X86458283Y-99123602D01*
X86785752Y-99298638D01*
X87141076Y-99406425D01*
X87510599Y-99442819D01*
X87880124Y-99406425D01*
X88235448Y-99298638D01*
X88562916Y-99123602D01*
X88849945Y-98888045D01*
X89085502Y-98601016D01*
X89260538Y-98273548D01*
X89368325Y-97918224D01*
X89404719Y-97548699D01*
X89368325Y-97179176D01*
X89362600Y-97160303D01*
X89362600Y-89801700D01*
X95616481Y-89801700D01*
X95625601Y-89894299D01*
X95625600Y-97641296D01*
X95652875Y-97918223D01*
X95760661Y-98273547D01*
X95935697Y-98601017D01*
X96171255Y-98888045D01*
X96458283Y-99123603D01*
X96785752Y-99298639D01*
X97141076Y-99406425D01*
X97510600Y-99442820D01*
X97880123Y-99406425D01*
X98235447Y-99298639D01*
X98562917Y-99123603D01*
X98849945Y-98888045D01*
X99085503Y-98601017D01*
X99260539Y-98273548D01*
X99368325Y-97918224D01*
X99395600Y-97641297D01*
X99395600Y-95826180D01*
X138211037Y-95826180D01*
X138282029Y-96044294D01*
X138425631Y-96320123D01*
X138620285Y-96562637D01*
X138858511Y-96762516D01*
X139131154Y-96912079D01*
X139427737Y-97005578D01*
X139674600Y-96878770D01*
X139674600Y-95580200D01*
X139928600Y-95580200D01*
X139928600Y-96878770D01*
X140175463Y-97005578D01*
X140472046Y-96912079D01*
X140744689Y-96762516D01*
X140982915Y-96562637D01*
X141177569Y-96320123D01*
X141321171Y-96044294D01*
X141392163Y-95826180D01*
X141272194Y-95580200D01*
X139928600Y-95580200D01*
X139674600Y-95580200D01*
X138331006Y-95580200D01*
X138211037Y-95826180D01*
X99395600Y-95826180D01*
X99395600Y-95159147D01*
X105921758Y-95159147D01*
X106065735Y-95464470D01*
X106423492Y-95645297D01*
X106809653Y-95752855D01*
X107209377Y-95783010D01*
X107607304Y-95734604D01*
X107988140Y-95609495D01*
X108259465Y-95464470D01*
X108403442Y-95159147D01*
X107162600Y-93918305D01*
X105921758Y-95159147D01*
X99395600Y-95159147D01*
X99395600Y-93785477D01*
X105118290Y-93785477D01*
X105166696Y-94183404D01*
X105291805Y-94564240D01*
X105436830Y-94835565D01*
X105742153Y-94979542D01*
X106982995Y-93738700D01*
X107342205Y-93738700D01*
X108583047Y-94979542D01*
X108888370Y-94835565D01*
X109069197Y-94477808D01*
X109176755Y-94091647D01*
X109206910Y-93691923D01*
X109158504Y-93293996D01*
X109033409Y-92913200D01*
X138158919Y-92913200D01*
X138189570Y-93224404D01*
X138280345Y-93523649D01*
X138427755Y-93799435D01*
X138626137Y-94041163D01*
X138805499Y-94188363D01*
X138620285Y-94343763D01*
X138425631Y-94586277D01*
X138282029Y-94862106D01*
X138211037Y-95080220D01*
X138331006Y-95326200D01*
X139674600Y-95326200D01*
X139674600Y-95306200D01*
X139928600Y-95306200D01*
X139928600Y-95326200D01*
X141272194Y-95326200D01*
X141392163Y-95080220D01*
X141321171Y-94862106D01*
X141177569Y-94586277D01*
X140982915Y-94343763D01*
X140797701Y-94188363D01*
X140977063Y-94041163D01*
X141175445Y-93799435D01*
X141322855Y-93523649D01*
X141413630Y-93224404D01*
X141444281Y-92913200D01*
X141413630Y-92601996D01*
X141322855Y-92302751D01*
X141175445Y-92026965D01*
X141072154Y-91901105D01*
X141156094Y-91856237D01*
X141252785Y-91776885D01*
X141332137Y-91680194D01*
X141360289Y-91627526D01*
X141363998Y-91665185D01*
X141407454Y-91808446D01*
X141478026Y-91940476D01*
X141549201Y-92027202D01*
X141573000Y-92056201D01*
X141601998Y-92079999D01*
X145065800Y-95543802D01*
X145065800Y-95605939D01*
X145105574Y-95805898D01*
X145183595Y-95994256D01*
X145296863Y-96163774D01*
X145441026Y-96307937D01*
X145610544Y-96421205D01*
X145798902Y-96499226D01*
X145998861Y-96539000D01*
X146202739Y-96539000D01*
X146402698Y-96499226D01*
X146591056Y-96421205D01*
X146760574Y-96307937D01*
X146904737Y-96163774D01*
X147018005Y-95994256D01*
X147096026Y-95805898D01*
X147135800Y-95605939D01*
X147135800Y-95402061D01*
X147096026Y-95202102D01*
X147018005Y-95013744D01*
X146904737Y-94844226D01*
X146760574Y-94700063D01*
X146591056Y-94586795D01*
X146402698Y-94508774D01*
X146202739Y-94469000D01*
X146140602Y-94469000D01*
X142873000Y-91201399D01*
X142873000Y-86835111D01*
X142916937Y-86791174D01*
X143030205Y-86621656D01*
X143108226Y-86433298D01*
X143148000Y-86233339D01*
X143148000Y-86029461D01*
X143108226Y-85829502D01*
X143030205Y-85641144D01*
X142916937Y-85471626D01*
X142772774Y-85327463D01*
X142603256Y-85214195D01*
X142414898Y-85136174D01*
X142214939Y-85096400D01*
X142011061Y-85096400D01*
X141811102Y-85136174D01*
X141622744Y-85214195D01*
X141453226Y-85327463D01*
X141309063Y-85471626D01*
X141195795Y-85641144D01*
X141117774Y-85829502D01*
X141078000Y-86029461D01*
X141078000Y-86233339D01*
X141117774Y-86433298D01*
X141195795Y-86621656D01*
X141309063Y-86791174D01*
X141353000Y-86835111D01*
X141353001Y-89105238D01*
X141332137Y-89066206D01*
X141252785Y-88969515D01*
X141156094Y-88890163D01*
X141045780Y-88831198D01*
X140926082Y-88794888D01*
X140801600Y-88782628D01*
X138801600Y-88782628D01*
X138677118Y-88794888D01*
X138557420Y-88831198D01*
X138447106Y-88890163D01*
X138350415Y-88969515D01*
X138271063Y-89066206D01*
X138212098Y-89176520D01*
X138175788Y-89296218D01*
X138163528Y-89420700D01*
X138163528Y-91325700D01*
X138175788Y-91450182D01*
X138212098Y-91569880D01*
X138271063Y-91680194D01*
X138350415Y-91776885D01*
X138447106Y-91856237D01*
X138531046Y-91901105D01*
X138427755Y-92026965D01*
X138280345Y-92302751D01*
X138189570Y-92601996D01*
X138158919Y-92913200D01*
X109033409Y-92913200D01*
X109033395Y-92913160D01*
X108888370Y-92641835D01*
X108583047Y-92497858D01*
X107342205Y-93738700D01*
X106982995Y-93738700D01*
X105742153Y-92497858D01*
X105436830Y-92641835D01*
X105256003Y-92999592D01*
X105148445Y-93385753D01*
X105118290Y-93785477D01*
X99395600Y-93785477D01*
X99395600Y-92318253D01*
X105921758Y-92318253D01*
X107162600Y-93559095D01*
X108403442Y-92318253D01*
X108259465Y-92012930D01*
X107901708Y-91832103D01*
X107515547Y-91724545D01*
X107115823Y-91694390D01*
X106717896Y-91742796D01*
X106337060Y-91867905D01*
X106065735Y-92012930D01*
X105921758Y-92318253D01*
X99395600Y-92318253D01*
X99395600Y-90582492D01*
X99434392Y-90543700D01*
X106395682Y-90543700D01*
X106569013Y-90615496D01*
X106962170Y-90693700D01*
X107363030Y-90693700D01*
X107756187Y-90615496D01*
X108126534Y-90462093D01*
X108299981Y-90346199D01*
X120607706Y-90346199D01*
X120823828Y-90712958D01*
X121283705Y-90953638D01*
X121781698Y-91099975D01*
X122298671Y-91146348D01*
X122814759Y-91090973D01*
X123310126Y-90935979D01*
X123727372Y-90712958D01*
X123943494Y-90346199D01*
X122275600Y-88678305D01*
X120607706Y-90346199D01*
X108299981Y-90346199D01*
X108459837Y-90239387D01*
X108743287Y-89955937D01*
X108965993Y-89622634D01*
X109119396Y-89252287D01*
X109197600Y-88859130D01*
X109197600Y-88521771D01*
X119627952Y-88521771D01*
X119683327Y-89037859D01*
X119838321Y-89533226D01*
X120061342Y-89950472D01*
X120428101Y-90166594D01*
X122095995Y-88498700D01*
X122455205Y-88498700D01*
X124123099Y-90166594D01*
X124489858Y-89950472D01*
X124730538Y-89490595D01*
X124876875Y-88992602D01*
X124923248Y-88475629D01*
X124867873Y-87959541D01*
X124712879Y-87464174D01*
X124489858Y-87046928D01*
X124123099Y-86830806D01*
X122455205Y-88498700D01*
X122095995Y-88498700D01*
X120428101Y-86830806D01*
X120061342Y-87046928D01*
X119820662Y-87506805D01*
X119674325Y-88004798D01*
X119627952Y-88521771D01*
X109197600Y-88521771D01*
X109197600Y-88458270D01*
X109119396Y-88065113D01*
X108965993Y-87694766D01*
X108743287Y-87361463D01*
X108459837Y-87078013D01*
X108126534Y-86855307D01*
X107756187Y-86701904D01*
X107501287Y-86651201D01*
X120607706Y-86651201D01*
X122275600Y-88319095D01*
X123943494Y-86651201D01*
X123727372Y-86284442D01*
X123267495Y-86043762D01*
X122769502Y-85897425D01*
X122252529Y-85851052D01*
X121736441Y-85906427D01*
X121241074Y-86061421D01*
X120823828Y-86284442D01*
X120607706Y-86651201D01*
X107501287Y-86651201D01*
X107363030Y-86623700D01*
X106962170Y-86623700D01*
X106569013Y-86701904D01*
X106395682Y-86773700D01*
X98746188Y-86773700D01*
X98653599Y-86764581D01*
X98561010Y-86773700D01*
X98561003Y-86773700D01*
X98319332Y-86797503D01*
X98284075Y-86800975D01*
X98185736Y-86830806D01*
X97928752Y-86908761D01*
X97601283Y-87083797D01*
X97314255Y-87319355D01*
X97255226Y-87391282D01*
X96243178Y-88403330D01*
X96171256Y-88462355D01*
X96112231Y-88534277D01*
X96112228Y-88534280D01*
X95935698Y-88749383D01*
X95760662Y-89076852D01*
X95652875Y-89432176D01*
X95616481Y-89801700D01*
X89362600Y-89801700D01*
X89362600Y-85571644D01*
X89367451Y-85570172D01*
X89520987Y-85488105D01*
X89655562Y-85377662D01*
X89766005Y-85243087D01*
X89848072Y-85089551D01*
X89898608Y-84922955D01*
X89915672Y-84749701D01*
X89915672Y-83169699D01*
X89898608Y-82996445D01*
X89848072Y-82829849D01*
X89766005Y-82676313D01*
X89655562Y-82541738D01*
X89520987Y-82431295D01*
X89367451Y-82349228D01*
X89200855Y-82298692D01*
X89027601Y-82281628D01*
X88336901Y-82281628D01*
X88202447Y-82209761D01*
X87847123Y-82101975D01*
X87477600Y-82065580D01*
X87108076Y-82101975D01*
X86752752Y-82209761D01*
X86618298Y-82281628D01*
X85927599Y-82281628D01*
X85754345Y-82298692D01*
X85587749Y-82349228D01*
X85434213Y-82431295D01*
X85299638Y-82541738D01*
X85189195Y-82676313D01*
X85107128Y-82829849D01*
X85056592Y-82996445D01*
X85039528Y-83169699D01*
X81482800Y-83169699D01*
X81482800Y-78879700D01*
X85034496Y-78879700D01*
X85066836Y-79208057D01*
X85162615Y-79523796D01*
X85318150Y-79814782D01*
X85527466Y-80069834D01*
X85782518Y-80279150D01*
X86073504Y-80434685D01*
X86389243Y-80530464D01*
X86607408Y-80551951D01*
X86752752Y-80629639D01*
X87108076Y-80737425D01*
X87385003Y-80764700D01*
X89998808Y-80764700D01*
X94080226Y-84846118D01*
X94139255Y-84918045D01*
X94356581Y-85096400D01*
X94426283Y-85153603D01*
X94753751Y-85328639D01*
X94979860Y-85397228D01*
X95109076Y-85436425D01*
X95337695Y-85458942D01*
X95478600Y-85472820D01*
X95571197Y-85463700D01*
X106395682Y-85463700D01*
X106569013Y-85535496D01*
X106962170Y-85613700D01*
X107363030Y-85613700D01*
X107756187Y-85535496D01*
X108126534Y-85382093D01*
X108459837Y-85159387D01*
X108743287Y-84875937D01*
X108965993Y-84542634D01*
X109119396Y-84172287D01*
X109197600Y-83779130D01*
X109197600Y-83378270D01*
X109119396Y-82985113D01*
X108965993Y-82614766D01*
X108743287Y-82281463D01*
X108459837Y-81998013D01*
X108126534Y-81775307D01*
X107756187Y-81621904D01*
X107363030Y-81543700D01*
X106962170Y-81543700D01*
X106569013Y-81621904D01*
X106395682Y-81693700D01*
X96259392Y-81693700D01*
X92177974Y-77612282D01*
X92118945Y-77540355D01*
X91831917Y-77304797D01*
X91504448Y-77129761D01*
X91402054Y-77098700D01*
X105124528Y-77098700D01*
X105124528Y-79898700D01*
X105136788Y-80023182D01*
X105173098Y-80142880D01*
X105232063Y-80253194D01*
X105311415Y-80349885D01*
X105408106Y-80429237D01*
X105518420Y-80488202D01*
X105638118Y-80524512D01*
X105762600Y-80536772D01*
X108562600Y-80536772D01*
X108687082Y-80524512D01*
X108806780Y-80488202D01*
X108917094Y-80429237D01*
X108972581Y-80383700D01*
X119637528Y-80383700D01*
X119637528Y-80498700D01*
X119649788Y-80623182D01*
X119686098Y-80742880D01*
X119745063Y-80853194D01*
X119824415Y-80949885D01*
X119921106Y-81029237D01*
X120031420Y-81088202D01*
X120151118Y-81124512D01*
X120275600Y-81136772D01*
X124275600Y-81136772D01*
X124400082Y-81124512D01*
X124519780Y-81088202D01*
X124630094Y-81029237D01*
X124726785Y-80949885D01*
X124806137Y-80853194D01*
X124865102Y-80742880D01*
X124901412Y-80623182D01*
X124913672Y-80498700D01*
X124913672Y-78859700D01*
X138304158Y-78859700D01*
X138280345Y-78904251D01*
X138189570Y-79203496D01*
X138158919Y-79514700D01*
X138189570Y-79825904D01*
X138280345Y-80125149D01*
X138427755Y-80400935D01*
X138626137Y-80642663D01*
X138867865Y-80841045D01*
X139143651Y-80988455D01*
X139442896Y-81079230D01*
X139676114Y-81102200D01*
X139927086Y-81102200D01*
X140160304Y-81079230D01*
X140459549Y-80988455D01*
X140735335Y-80841045D01*
X140977063Y-80642663D01*
X141175445Y-80400935D01*
X141322855Y-80125149D01*
X141413630Y-79825904D01*
X141444281Y-79514700D01*
X141413630Y-79203496D01*
X141322855Y-78904251D01*
X141175445Y-78628465D01*
X141007371Y-78423667D01*
X141140945Y-78314045D01*
X141376503Y-78027017D01*
X141551539Y-77699548D01*
X141659325Y-77344224D01*
X141695720Y-76974700D01*
X141659325Y-76605176D01*
X141551539Y-76249852D01*
X141376503Y-75922383D01*
X141280176Y-75805009D01*
X141332137Y-75741694D01*
X141391102Y-75631380D01*
X141427412Y-75511682D01*
X141439672Y-75387200D01*
X141439672Y-73482200D01*
X141427412Y-73357718D01*
X141391102Y-73238020D01*
X141332137Y-73127706D01*
X141252785Y-73031015D01*
X141156094Y-72951663D01*
X141045780Y-72892698D01*
X140926082Y-72856388D01*
X140801600Y-72844128D01*
X138801600Y-72844128D01*
X138677118Y-72856388D01*
X138557420Y-72892698D01*
X138447106Y-72951663D01*
X138350415Y-73031015D01*
X138271063Y-73127706D01*
X138212098Y-73238020D01*
X138175788Y-73357718D01*
X138163528Y-73482200D01*
X138163528Y-75089700D01*
X123892186Y-75089700D01*
X123799599Y-75080581D01*
X123707012Y-75089700D01*
X123707003Y-75089700D01*
X123430076Y-75116975D01*
X123074752Y-75224761D01*
X122747283Y-75399797D01*
X122460255Y-75635355D01*
X122401226Y-75707282D01*
X122247880Y-75860628D01*
X120275600Y-75860628D01*
X120151118Y-75872888D01*
X120031420Y-75909198D01*
X119921106Y-75968163D01*
X119824415Y-76047515D01*
X119745063Y-76144206D01*
X119686098Y-76254520D01*
X119649788Y-76374218D01*
X119637528Y-76498700D01*
X119637528Y-76613700D01*
X108972581Y-76613700D01*
X108917094Y-76568163D01*
X108806780Y-76509198D01*
X108687082Y-76472888D01*
X108562600Y-76460628D01*
X105762600Y-76460628D01*
X105638118Y-76472888D01*
X105518420Y-76509198D01*
X105408106Y-76568163D01*
X105311415Y-76647515D01*
X105232063Y-76744206D01*
X105173098Y-76854520D01*
X105136788Y-76974218D01*
X105124528Y-77098700D01*
X91402054Y-77098700D01*
X91149124Y-77021975D01*
X90872197Y-76994700D01*
X90872189Y-76994700D01*
X90779600Y-76985581D01*
X90687011Y-76994700D01*
X87385003Y-76994700D01*
X87108076Y-77021975D01*
X86752752Y-77129761D01*
X86607408Y-77207449D01*
X86389243Y-77228936D01*
X86073504Y-77324715D01*
X85782518Y-77480250D01*
X85527466Y-77689566D01*
X85318150Y-77944618D01*
X85162615Y-78235604D01*
X85066836Y-78551343D01*
X85034496Y-78879700D01*
X81482800Y-78879700D01*
X81482800Y-74024081D01*
X93846324Y-74024081D01*
X94206512Y-74513748D01*
X94870482Y-74874049D01*
X95591985Y-75097894D01*
X96343295Y-75176680D01*
X97095538Y-75107378D01*
X97819808Y-74892652D01*
X98488270Y-74540755D01*
X98528688Y-74513748D01*
X98888876Y-74024081D01*
X96367600Y-71502805D01*
X93846324Y-74024081D01*
X81482800Y-74024081D01*
X81482800Y-71298895D01*
X92514120Y-71298895D01*
X92583422Y-72051138D01*
X92798148Y-72775408D01*
X93150045Y-73443870D01*
X93177052Y-73484288D01*
X93666719Y-73844476D01*
X96187995Y-71323200D01*
X96547205Y-71323200D01*
X99068481Y-73844476D01*
X99558148Y-73484288D01*
X99918449Y-72820318D01*
X100142294Y-72098815D01*
X100221080Y-71347505D01*
X100151778Y-70595262D01*
X100126619Y-70510400D01*
X147751800Y-70510400D01*
X147751800Y-80518000D01*
X147754240Y-80542776D01*
X147761467Y-80566601D01*
X147773203Y-80588557D01*
X147788997Y-80607803D01*
X147808243Y-80623597D01*
X147830199Y-80635333D01*
X147854024Y-80642560D01*
X147878800Y-80645000D01*
X154101800Y-80645000D01*
X154101800Y-89128600D01*
X147878800Y-89128600D01*
X147854024Y-89131040D01*
X147830199Y-89138267D01*
X147808243Y-89150003D01*
X147788997Y-89165797D01*
X147773203Y-89185043D01*
X147761467Y-89206999D01*
X147754240Y-89230824D01*
X147751800Y-89255600D01*
X147751800Y-99314000D01*
X147754240Y-99338776D01*
X147761467Y-99362601D01*
X147773203Y-99384557D01*
X147788997Y-99403803D01*
X147808243Y-99419597D01*
X147830199Y-99431333D01*
X147854024Y-99438560D01*
X147878800Y-99441000D01*
X167741600Y-99441000D01*
X167766376Y-99438560D01*
X167790201Y-99431333D01*
X167812157Y-99419597D01*
X167831403Y-99403803D01*
X167847197Y-99384557D01*
X167858933Y-99362601D01*
X167866160Y-99338776D01*
X167868600Y-99314000D01*
X167868600Y-89357200D01*
X167866160Y-89332424D01*
X167858933Y-89308599D01*
X167847197Y-89286643D01*
X167831403Y-89267397D01*
X167812157Y-89251603D01*
X167790201Y-89239867D01*
X167766376Y-89232640D01*
X167741600Y-89230200D01*
X162077400Y-89230200D01*
X162077400Y-87696271D01*
X180968952Y-87696271D01*
X181024327Y-88212359D01*
X181179321Y-88707726D01*
X181402342Y-89124972D01*
X181769101Y-89341094D01*
X183436995Y-87673200D01*
X183796205Y-87673200D01*
X185464099Y-89341094D01*
X185830858Y-89124972D01*
X186071538Y-88665095D01*
X186217875Y-88167102D01*
X186264248Y-87650129D01*
X186208873Y-87134041D01*
X186053879Y-86638674D01*
X185830858Y-86221428D01*
X185464099Y-86005306D01*
X183796205Y-87673200D01*
X183436995Y-87673200D01*
X181769101Y-86005306D01*
X181402342Y-86221428D01*
X181161662Y-86681305D01*
X181015325Y-87179298D01*
X180968952Y-87696271D01*
X162077400Y-87696271D01*
X162077400Y-85825701D01*
X181948706Y-85825701D01*
X183616600Y-87493595D01*
X185153995Y-85956200D01*
X185898028Y-85956200D01*
X185910288Y-86080682D01*
X185946598Y-86200380D01*
X186005563Y-86310694D01*
X186084915Y-86407385D01*
X186181606Y-86486737D01*
X186291920Y-86545702D01*
X186411618Y-86582012D01*
X186536100Y-86594272D01*
X186950350Y-86591200D01*
X187109100Y-86432450D01*
X187109100Y-85595700D01*
X186059850Y-85595700D01*
X185901100Y-85754450D01*
X185898028Y-85956200D01*
X185153995Y-85956200D01*
X185284494Y-85825701D01*
X185068372Y-85458942D01*
X184608495Y-85218262D01*
X184110502Y-85071925D01*
X183593529Y-85025552D01*
X183077441Y-85080927D01*
X182582074Y-85235921D01*
X182164828Y-85458942D01*
X181948706Y-85825701D01*
X162077400Y-85825701D01*
X162077400Y-80645000D01*
X167792400Y-80645000D01*
X167817176Y-80642560D01*
X167841001Y-80635333D01*
X167862957Y-80623597D01*
X167882203Y-80607803D01*
X167897997Y-80588557D01*
X167909733Y-80566601D01*
X167916960Y-80542776D01*
X167919400Y-80518000D01*
X167919400Y-70510400D01*
X167916960Y-70485624D01*
X167909733Y-70461799D01*
X167897997Y-70439843D01*
X167882203Y-70420597D01*
X167862957Y-70404803D01*
X167841001Y-70393067D01*
X167817176Y-70385840D01*
X167792400Y-70383400D01*
X147878800Y-70383400D01*
X147854024Y-70385840D01*
X147830199Y-70393067D01*
X147808243Y-70404803D01*
X147788997Y-70420597D01*
X147773203Y-70439843D01*
X147761467Y-70461799D01*
X147754240Y-70485624D01*
X147751800Y-70510400D01*
X100126619Y-70510400D01*
X99937052Y-69870992D01*
X99585155Y-69202530D01*
X99558148Y-69162112D01*
X99068481Y-68801924D01*
X96547205Y-71323200D01*
X96187995Y-71323200D01*
X93666719Y-68801924D01*
X93177052Y-69162112D01*
X92816751Y-69826082D01*
X92592906Y-70547585D01*
X92514120Y-71298895D01*
X81482800Y-71298895D01*
X81482800Y-68622319D01*
X93846324Y-68622319D01*
X96367600Y-71143595D01*
X98888876Y-68622319D01*
X98739407Y-68419119D01*
X216020324Y-68419119D01*
X218541600Y-70940395D01*
X221062876Y-68419119D01*
X220702688Y-67929452D01*
X220038718Y-67569151D01*
X219317215Y-67345306D01*
X218565905Y-67266520D01*
X217813662Y-67335822D01*
X217089392Y-67550548D01*
X216420930Y-67902445D01*
X216380512Y-67929452D01*
X216020324Y-68419119D01*
X98739407Y-68419119D01*
X98528688Y-68132652D01*
X97864718Y-67772351D01*
X97143215Y-67548506D01*
X96391905Y-67469720D01*
X95639662Y-67539022D01*
X94915392Y-67753748D01*
X94246930Y-68105645D01*
X94206512Y-68132652D01*
X93846324Y-68622319D01*
X81482800Y-68622319D01*
X81482800Y-66801600D01*
X223164800Y-66801600D01*
X223164801Y-127406800D01*
G36*
X190311898Y-91418980D02*
G01*
X190370863Y-91529294D01*
X190450215Y-91625985D01*
X190546906Y-91705337D01*
X190620735Y-91744800D01*
X190546906Y-91784263D01*
X190450215Y-91863615D01*
X190370863Y-91960306D01*
X190311898Y-92070620D01*
X190275588Y-92190318D01*
X190263328Y-92314800D01*
X190263328Y-93374800D01*
X190275588Y-93499282D01*
X190311898Y-93618980D01*
X190370863Y-93729294D01*
X190450215Y-93825985D01*
X190466400Y-93839268D01*
X190466401Y-99546600D01*
X188396854Y-99546600D01*
X188348656Y-99514395D01*
X188160298Y-99436374D01*
X187960339Y-99396600D01*
X187756461Y-99396600D01*
X187556502Y-99436374D01*
X187368144Y-99514395D01*
X187198626Y-99627663D01*
X187054463Y-99771826D01*
X186941195Y-99941344D01*
X186863174Y-100129702D01*
X186823400Y-100329661D01*
X186823400Y-100533539D01*
X186863174Y-100733498D01*
X186941195Y-100921856D01*
X187054463Y-101091374D01*
X187198626Y-101235537D01*
X187368144Y-101348805D01*
X187556502Y-101426826D01*
X187756461Y-101466600D01*
X187960339Y-101466600D01*
X188160298Y-101426826D01*
X188348656Y-101348805D01*
X188396854Y-101316600D01*
X190145791Y-101316600D01*
X189958944Y-101393995D01*
X189789426Y-101507263D01*
X189645263Y-101651426D01*
X189531995Y-101820944D01*
X189453974Y-102009302D01*
X189414200Y-102209261D01*
X189414200Y-102413139D01*
X189453974Y-102613098D01*
X189531995Y-102801456D01*
X189645263Y-102970974D01*
X189689201Y-103014912D01*
X189689200Y-104807889D01*
X189645263Y-104851826D01*
X189531995Y-105021344D01*
X189453974Y-105209702D01*
X189414200Y-105409661D01*
X189414200Y-105613539D01*
X189452085Y-105803999D01*
X184811324Y-105803999D01*
X184774001Y-105800323D01*
X184736678Y-105803999D01*
X184736668Y-105803999D01*
X184625015Y-105814996D01*
X184481754Y-105858453D01*
X184349725Y-105929025D01*
X184234000Y-106023998D01*
X184210202Y-106052996D01*
X180387803Y-109875396D01*
X180358799Y-109899199D01*
X180331760Y-109932147D01*
X180263826Y-110014924D01*
X180244223Y-110051599D01*
X180193254Y-110146954D01*
X180149797Y-110290215D01*
X180138800Y-110401868D01*
X180138800Y-110401878D01*
X180135124Y-110439200D01*
X180138800Y-110476522D01*
X180138801Y-122824397D01*
X180075999Y-122887200D01*
X178749685Y-122887200D01*
X179011411Y-122778790D01*
X179254632Y-122616275D01*
X179461475Y-122409432D01*
X179623990Y-122166211D01*
X179735932Y-121895958D01*
X179793000Y-121609060D01*
X179793000Y-121316540D01*
X179735932Y-121029642D01*
X179623990Y-120759389D01*
X179461475Y-120516168D01*
X179254632Y-120309325D01*
X179011411Y-120146810D01*
X178741158Y-120034868D01*
X178454260Y-119977800D01*
X178161740Y-119977800D01*
X177941592Y-120021590D01*
X176237394Y-118317393D01*
X176213591Y-118288389D01*
X176097866Y-118193416D01*
X175965837Y-118122844D01*
X175822576Y-118079387D01*
X175710923Y-118068390D01*
X175710912Y-118068390D01*
X175673590Y-118064714D01*
X175636268Y-118068390D01*
X167684003Y-118068390D01*
X166926800Y-117311189D01*
X166926800Y-114059600D01*
X171739928Y-114059600D01*
X171739928Y-115759600D01*
X171752188Y-115884082D01*
X171788498Y-116003780D01*
X171847463Y-116114094D01*
X171926815Y-116210785D01*
X172023506Y-116290137D01*
X172133820Y-116349102D01*
X172253518Y-116385412D01*
X172378000Y-116397672D01*
X174078000Y-116397672D01*
X174202482Y-116385412D01*
X174322180Y-116349102D01*
X174432494Y-116290137D01*
X174529185Y-116210785D01*
X174608537Y-116114094D01*
X174667502Y-116003780D01*
X174689513Y-115931220D01*
X174821368Y-116063075D01*
X175064589Y-116225590D01*
X175334842Y-116337532D01*
X175621740Y-116394600D01*
X175914260Y-116394600D01*
X176201158Y-116337532D01*
X176471411Y-116225590D01*
X176714632Y-116063075D01*
X176921475Y-115856232D01*
X177043195Y-115674066D01*
X177112822Y-115790955D01*
X177307731Y-116007188D01*
X177541080Y-116181241D01*
X177803901Y-116306425D01*
X177951110Y-116351076D01*
X178181000Y-116229755D01*
X178181000Y-115036600D01*
X178435000Y-115036600D01*
X178435000Y-116229755D01*
X178664890Y-116351076D01*
X178812099Y-116306425D01*
X179074920Y-116181241D01*
X179308269Y-116007188D01*
X179503178Y-115790955D01*
X179652157Y-115540852D01*
X179749481Y-115266491D01*
X179628814Y-115036600D01*
X178435000Y-115036600D01*
X178181000Y-115036600D01*
X178161000Y-115036600D01*
X178161000Y-114782600D01*
X178181000Y-114782600D01*
X178181000Y-113589445D01*
X178435000Y-113589445D01*
X178435000Y-114782600D01*
X179628814Y-114782600D01*
X179749481Y-114552709D01*
X179652157Y-114278348D01*
X179503178Y-114028245D01*
X179308269Y-113812012D01*
X179074920Y-113637959D01*
X178812099Y-113512775D01*
X178664890Y-113468124D01*
X178435000Y-113589445D01*
X178181000Y-113589445D01*
X177951110Y-113468124D01*
X177803901Y-113512775D01*
X177541080Y-113637959D01*
X177307731Y-113812012D01*
X177112822Y-114028245D01*
X177043195Y-114145134D01*
X176921475Y-113962968D01*
X176714632Y-113756125D01*
X176471411Y-113593610D01*
X176201158Y-113481668D01*
X175914260Y-113424600D01*
X175621740Y-113424600D01*
X175334842Y-113481668D01*
X175064589Y-113593610D01*
X174821368Y-113756125D01*
X174689513Y-113887980D01*
X174667502Y-113815420D01*
X174608537Y-113705106D01*
X174529185Y-113608415D01*
X174432494Y-113529063D01*
X174322180Y-113470098D01*
X174202482Y-113433788D01*
X174078000Y-113421528D01*
X172378000Y-113421528D01*
X172253518Y-113433788D01*
X172133820Y-113470098D01*
X172023506Y-113529063D01*
X171926815Y-113608415D01*
X171847463Y-113705106D01*
X171788498Y-113815420D01*
X171752188Y-113935118D01*
X171739928Y-114059600D01*
X166926800Y-114059600D01*
X166926800Y-113276511D01*
X166970737Y-113232574D01*
X167084005Y-113063056D01*
X167162026Y-112874698D01*
X167201800Y-112674739D01*
X167201800Y-112470861D01*
X167162026Y-112270902D01*
X167084005Y-112082544D01*
X166970737Y-111913026D01*
X166826574Y-111768863D01*
X166657056Y-111655595D01*
X166468698Y-111577574D01*
X166268739Y-111537800D01*
X166064861Y-111537800D01*
X165864902Y-111577574D01*
X165676544Y-111655595D01*
X165507026Y-111768863D01*
X165362863Y-111913026D01*
X165284929Y-112029663D01*
X165271539Y-112027000D01*
X165067661Y-112027000D01*
X164867702Y-112066774D01*
X164844000Y-112076592D01*
X164844000Y-109460522D01*
X164847676Y-109423199D01*
X164844000Y-109385876D01*
X164844000Y-109385867D01*
X164833003Y-109274214D01*
X164789546Y-109130953D01*
X164718974Y-108998924D01*
X164680158Y-108951626D01*
X164647799Y-108912196D01*
X164647795Y-108912192D01*
X164624001Y-108883199D01*
X164595008Y-108859405D01*
X161860994Y-106125393D01*
X161837191Y-106096389D01*
X161721466Y-106001416D01*
X161589437Y-105930844D01*
X161446176Y-105887387D01*
X161334523Y-105876390D01*
X161334512Y-105876390D01*
X161297190Y-105872714D01*
X161259868Y-105876390D01*
X146926291Y-105876390D01*
X146994426Y-105711898D01*
X147034200Y-105511939D01*
X147034200Y-105308061D01*
X146994426Y-105108102D01*
X146916405Y-104919744D01*
X146803137Y-104750226D01*
X146759200Y-104706289D01*
X146759200Y-104176811D01*
X147058992Y-103877020D01*
X170575068Y-103877020D01*
X170612390Y-103880696D01*
X170649712Y-103877020D01*
X170649723Y-103877020D01*
X170761376Y-103866023D01*
X170904637Y-103822566D01*
X171036666Y-103751994D01*
X171152391Y-103657021D01*
X171176194Y-103628017D01*
X174646422Y-100157790D01*
X174675419Y-100133993D01*
X174744128Y-100050271D01*
X174770392Y-100018269D01*
X174774365Y-100010836D01*
X175299802Y-99485400D01*
X175361939Y-99485400D01*
X175561898Y-99445626D01*
X175750256Y-99367605D01*
X175919774Y-99254337D01*
X176063937Y-99110174D01*
X176177205Y-98940656D01*
X176255226Y-98752298D01*
X176295000Y-98552339D01*
X176295000Y-98348461D01*
X176255226Y-98148502D01*
X176177205Y-97960144D01*
X176063937Y-97790626D01*
X175919774Y-97646463D01*
X175750256Y-97533195D01*
X175561898Y-97455174D01*
X175361939Y-97415400D01*
X175158061Y-97415400D01*
X174958102Y-97455174D01*
X174895418Y-97481139D01*
X174895419Y-92237993D01*
X175556604Y-91576809D01*
X188298071Y-91576809D01*
X188335393Y-91580485D01*
X188372715Y-91576809D01*
X188372726Y-91576809D01*
X188484379Y-91565812D01*
X188627640Y-91522355D01*
X188759669Y-91451783D01*
X188816918Y-91404800D01*
X190307597Y-91404800D01*
X190311898Y-91418980D01*
G37*
X190311898Y-91418980D02*
X190370863Y-91529294D01*
X190450215Y-91625985D01*
X190546906Y-91705337D01*
X190620735Y-91744800D01*
X190546906Y-91784263D01*
X190450215Y-91863615D01*
X190370863Y-91960306D01*
X190311898Y-92070620D01*
X190275588Y-92190318D01*
X190263328Y-92314800D01*
X190263328Y-93374800D01*
X190275588Y-93499282D01*
X190311898Y-93618980D01*
X190370863Y-93729294D01*
X190450215Y-93825985D01*
X190466400Y-93839268D01*
X190466401Y-99546600D01*
X188396854Y-99546600D01*
X188348656Y-99514395D01*
X188160298Y-99436374D01*
X187960339Y-99396600D01*
X187756461Y-99396600D01*
X187556502Y-99436374D01*
X187368144Y-99514395D01*
X187198626Y-99627663D01*
X187054463Y-99771826D01*
X186941195Y-99941344D01*
X186863174Y-100129702D01*
X186823400Y-100329661D01*
X186823400Y-100533539D01*
X186863174Y-100733498D01*
X186941195Y-100921856D01*
X187054463Y-101091374D01*
X187198626Y-101235537D01*
X187368144Y-101348805D01*
X187556502Y-101426826D01*
X187756461Y-101466600D01*
X187960339Y-101466600D01*
X188160298Y-101426826D01*
X188348656Y-101348805D01*
X188396854Y-101316600D01*
X190145791Y-101316600D01*
X189958944Y-101393995D01*
X189789426Y-101507263D01*
X189645263Y-101651426D01*
X189531995Y-101820944D01*
X189453974Y-102009302D01*
X189414200Y-102209261D01*
X189414200Y-102413139D01*
X189453974Y-102613098D01*
X189531995Y-102801456D01*
X189645263Y-102970974D01*
X189689201Y-103014912D01*
X189689200Y-104807889D01*
X189645263Y-104851826D01*
X189531995Y-105021344D01*
X189453974Y-105209702D01*
X189414200Y-105409661D01*
X189414200Y-105613539D01*
X189452085Y-105803999D01*
X184811324Y-105803999D01*
X184774001Y-105800323D01*
X184736678Y-105803999D01*
X184736668Y-105803999D01*
X184625015Y-105814996D01*
X184481754Y-105858453D01*
X184349725Y-105929025D01*
X184234000Y-106023998D01*
X184210202Y-106052996D01*
X180387803Y-109875396D01*
X180358799Y-109899199D01*
X180331760Y-109932147D01*
X180263826Y-110014924D01*
X180244223Y-110051599D01*
X180193254Y-110146954D01*
X180149797Y-110290215D01*
X180138800Y-110401868D01*
X180138800Y-110401878D01*
X180135124Y-110439200D01*
X180138800Y-110476522D01*
X180138801Y-122824397D01*
X180075999Y-122887200D01*
X178749685Y-122887200D01*
X179011411Y-122778790D01*
X179254632Y-122616275D01*
X179461475Y-122409432D01*
X179623990Y-122166211D01*
X179735932Y-121895958D01*
X179793000Y-121609060D01*
X179793000Y-121316540D01*
X179735932Y-121029642D01*
X179623990Y-120759389D01*
X179461475Y-120516168D01*
X179254632Y-120309325D01*
X179011411Y-120146810D01*
X178741158Y-120034868D01*
X178454260Y-119977800D01*
X178161740Y-119977800D01*
X177941592Y-120021590D01*
X176237394Y-118317393D01*
X176213591Y-118288389D01*
X176097866Y-118193416D01*
X175965837Y-118122844D01*
X175822576Y-118079387D01*
X175710923Y-118068390D01*
X175710912Y-118068390D01*
X175673590Y-118064714D01*
X175636268Y-118068390D01*
X167684003Y-118068390D01*
X166926800Y-117311189D01*
X166926800Y-114059600D01*
X171739928Y-114059600D01*
X171739928Y-115759600D01*
X171752188Y-115884082D01*
X171788498Y-116003780D01*
X171847463Y-116114094D01*
X171926815Y-116210785D01*
X172023506Y-116290137D01*
X172133820Y-116349102D01*
X172253518Y-116385412D01*
X172378000Y-116397672D01*
X174078000Y-116397672D01*
X174202482Y-116385412D01*
X174322180Y-116349102D01*
X174432494Y-116290137D01*
X174529185Y-116210785D01*
X174608537Y-116114094D01*
X174667502Y-116003780D01*
X174689513Y-115931220D01*
X174821368Y-116063075D01*
X175064589Y-116225590D01*
X175334842Y-116337532D01*
X175621740Y-116394600D01*
X175914260Y-116394600D01*
X176201158Y-116337532D01*
X176471411Y-116225590D01*
X176714632Y-116063075D01*
X176921475Y-115856232D01*
X177043195Y-115674066D01*
X177112822Y-115790955D01*
X177307731Y-116007188D01*
X177541080Y-116181241D01*
X177803901Y-116306425D01*
X177951110Y-116351076D01*
X178181000Y-116229755D01*
X178181000Y-115036600D01*
X178435000Y-115036600D01*
X178435000Y-116229755D01*
X178664890Y-116351076D01*
X178812099Y-116306425D01*
X179074920Y-116181241D01*
X179308269Y-116007188D01*
X179503178Y-115790955D01*
X179652157Y-115540852D01*
X179749481Y-115266491D01*
X179628814Y-115036600D01*
X178435000Y-115036600D01*
X178181000Y-115036600D01*
X178161000Y-115036600D01*
X178161000Y-114782600D01*
X178181000Y-114782600D01*
X178181000Y-113589445D01*
X178435000Y-113589445D01*
X178435000Y-114782600D01*
X179628814Y-114782600D01*
X179749481Y-114552709D01*
X179652157Y-114278348D01*
X179503178Y-114028245D01*
X179308269Y-113812012D01*
X179074920Y-113637959D01*
X178812099Y-113512775D01*
X178664890Y-113468124D01*
X178435000Y-113589445D01*
X178181000Y-113589445D01*
X177951110Y-113468124D01*
X177803901Y-113512775D01*
X177541080Y-113637959D01*
X177307731Y-113812012D01*
X177112822Y-114028245D01*
X177043195Y-114145134D01*
X176921475Y-113962968D01*
X176714632Y-113756125D01*
X176471411Y-113593610D01*
X176201158Y-113481668D01*
X175914260Y-113424600D01*
X175621740Y-113424600D01*
X175334842Y-113481668D01*
X175064589Y-113593610D01*
X174821368Y-113756125D01*
X174689513Y-113887980D01*
X174667502Y-113815420D01*
X174608537Y-113705106D01*
X174529185Y-113608415D01*
X174432494Y-113529063D01*
X174322180Y-113470098D01*
X174202482Y-113433788D01*
X174078000Y-113421528D01*
X172378000Y-113421528D01*
X172253518Y-113433788D01*
X172133820Y-113470098D01*
X172023506Y-113529063D01*
X171926815Y-113608415D01*
X171847463Y-113705106D01*
X171788498Y-113815420D01*
X171752188Y-113935118D01*
X171739928Y-114059600D01*
X166926800Y-114059600D01*
X166926800Y-113276511D01*
X166970737Y-113232574D01*
X167084005Y-113063056D01*
X167162026Y-112874698D01*
X167201800Y-112674739D01*
X167201800Y-112470861D01*
X167162026Y-112270902D01*
X167084005Y-112082544D01*
X166970737Y-111913026D01*
X166826574Y-111768863D01*
X166657056Y-111655595D01*
X166468698Y-111577574D01*
X166268739Y-111537800D01*
X166064861Y-111537800D01*
X165864902Y-111577574D01*
X165676544Y-111655595D01*
X165507026Y-111768863D01*
X165362863Y-111913026D01*
X165284929Y-112029663D01*
X165271539Y-112027000D01*
X165067661Y-112027000D01*
X164867702Y-112066774D01*
X164844000Y-112076592D01*
X164844000Y-109460522D01*
X164847676Y-109423199D01*
X164844000Y-109385876D01*
X164844000Y-109385867D01*
X164833003Y-109274214D01*
X164789546Y-109130953D01*
X164718974Y-108998924D01*
X164680158Y-108951626D01*
X164647799Y-108912196D01*
X164647795Y-108912192D01*
X164624001Y-108883199D01*
X164595008Y-108859405D01*
X161860994Y-106125393D01*
X161837191Y-106096389D01*
X161721466Y-106001416D01*
X161589437Y-105930844D01*
X161446176Y-105887387D01*
X161334523Y-105876390D01*
X161334512Y-105876390D01*
X161297190Y-105872714D01*
X161259868Y-105876390D01*
X146926291Y-105876390D01*
X146994426Y-105711898D01*
X147034200Y-105511939D01*
X147034200Y-105308061D01*
X146994426Y-105108102D01*
X146916405Y-104919744D01*
X146803137Y-104750226D01*
X146759200Y-104706289D01*
X146759200Y-104176811D01*
X147058992Y-103877020D01*
X170575068Y-103877020D01*
X170612390Y-103880696D01*
X170649712Y-103877020D01*
X170649723Y-103877020D01*
X170761376Y-103866023D01*
X170904637Y-103822566D01*
X171036666Y-103751994D01*
X171152391Y-103657021D01*
X171176194Y-103628017D01*
X174646422Y-100157790D01*
X174675419Y-100133993D01*
X174744128Y-100050271D01*
X174770392Y-100018269D01*
X174774365Y-100010836D01*
X175299802Y-99485400D01*
X175361939Y-99485400D01*
X175561898Y-99445626D01*
X175750256Y-99367605D01*
X175919774Y-99254337D01*
X176063937Y-99110174D01*
X176177205Y-98940656D01*
X176255226Y-98752298D01*
X176295000Y-98552339D01*
X176295000Y-98348461D01*
X176255226Y-98148502D01*
X176177205Y-97960144D01*
X176063937Y-97790626D01*
X175919774Y-97646463D01*
X175750256Y-97533195D01*
X175561898Y-97455174D01*
X175361939Y-97415400D01*
X175158061Y-97415400D01*
X174958102Y-97455174D01*
X174895418Y-97481139D01*
X174895419Y-92237993D01*
X175556604Y-91576809D01*
X188298071Y-91576809D01*
X188335393Y-91580485D01*
X188372715Y-91576809D01*
X188372726Y-91576809D01*
X188484379Y-91565812D01*
X188627640Y-91522355D01*
X188759669Y-91451783D01*
X188816918Y-91404800D01*
X190307597Y-91404800D01*
X190311898Y-91418980D01*
G36*
X170815000Y-121335800D02*
G01*
X170835000Y-121335800D01*
X170835000Y-121589800D01*
X170815000Y-121589800D01*
X170815000Y-121609800D01*
X170561000Y-121609800D01*
X170561000Y-121589800D01*
X170541000Y-121589800D01*
X170541000Y-121335800D01*
X170561000Y-121335800D01*
X170561000Y-121315800D01*
X170815000Y-121315800D01*
X170815000Y-121335800D01*
G37*
X170815000Y-121335800D02*
X170835000Y-121335800D01*
X170835000Y-121589800D01*
X170815000Y-121589800D01*
X170815000Y-121609800D01*
X170561000Y-121609800D01*
X170561000Y-121589800D01*
X170541000Y-121589800D01*
X170541000Y-121335800D01*
X170561000Y-121335800D01*
X170561000Y-121315800D01*
X170815000Y-121315800D01*
X170815000Y-121335800D01*
G36*
X159514001Y-111262003D02*
G01*
X159514000Y-117666277D01*
X159510324Y-117703600D01*
X159514000Y-117740922D01*
X159514000Y-117740932D01*
X159524997Y-117852585D01*
X159556344Y-117955924D01*
X159568454Y-117995846D01*
X159639026Y-118127876D01*
X159669370Y-118164850D01*
X159733999Y-118243601D01*
X159763002Y-118267404D01*
X160726200Y-119230602D01*
X160749999Y-119259601D01*
X160778997Y-119283399D01*
X160865723Y-119354574D01*
X160997753Y-119425146D01*
X161141014Y-119468603D01*
X161252667Y-119479600D01*
X161252677Y-119479600D01*
X161290000Y-119483276D01*
X161327322Y-119479600D01*
X162567489Y-119479600D01*
X162611426Y-119523537D01*
X162780944Y-119636805D01*
X162969302Y-119714826D01*
X163169261Y-119754600D01*
X163324000Y-119754600D01*
X163324000Y-120753600D01*
X155084911Y-120753600D01*
X155040974Y-120709663D01*
X154871456Y-120596395D01*
X154683098Y-120518374D01*
X154505378Y-120483024D01*
X156263803Y-118724599D01*
X156292801Y-118700801D01*
X156387774Y-118585076D01*
X156458346Y-118453047D01*
X156501803Y-118309786D01*
X156506597Y-118261114D01*
X156556737Y-118210974D01*
X156670005Y-118041456D01*
X156748026Y-117853098D01*
X156787800Y-117653139D01*
X156787800Y-117449261D01*
X156748026Y-117249302D01*
X156670005Y-117060944D01*
X156556737Y-116891426D01*
X156412574Y-116747263D01*
X156243056Y-116633995D01*
X156054698Y-116555974D01*
X155854739Y-116516200D01*
X155650861Y-116516200D01*
X155450902Y-116555974D01*
X155362997Y-116592386D01*
X155360528Y-116567315D01*
X155310347Y-116401891D01*
X155228858Y-116249436D01*
X155129854Y-116128800D01*
X155228858Y-116008164D01*
X155310347Y-115855709D01*
X155320573Y-115822000D01*
X156116345Y-115822000D01*
X156117263Y-115823374D01*
X156261426Y-115967537D01*
X156430944Y-116080805D01*
X156619302Y-116158826D01*
X156819261Y-116198600D01*
X157023139Y-116198600D01*
X157223098Y-116158826D01*
X157411456Y-116080805D01*
X157580974Y-115967537D01*
X157725137Y-115823374D01*
X157838405Y-115653856D01*
X157916426Y-115465498D01*
X157956200Y-115265539D01*
X157956200Y-115061661D01*
X157916426Y-114861702D01*
X157838405Y-114673344D01*
X157725137Y-114503826D01*
X157580974Y-114359663D01*
X157411456Y-114246395D01*
X157223098Y-114168374D01*
X157023139Y-114128600D01*
X156819261Y-114128600D01*
X156619302Y-114168374D01*
X156430944Y-114246395D01*
X156347725Y-114302000D01*
X155320573Y-114302000D01*
X155310347Y-114268291D01*
X155307975Y-114263853D01*
X155337750Y-114263400D01*
X155496500Y-114104650D01*
X155496500Y-113055400D01*
X155750500Y-113055400D01*
X155750500Y-114104650D01*
X155909250Y-114263400D01*
X156111000Y-114266472D01*
X156235482Y-114254212D01*
X156355180Y-114217902D01*
X156465494Y-114158937D01*
X156562185Y-114079585D01*
X156641537Y-113982894D01*
X156700502Y-113872580D01*
X156736812Y-113752882D01*
X156749072Y-113628400D01*
X156746000Y-113214150D01*
X156587250Y-113055400D01*
X155750500Y-113055400D01*
X155496500Y-113055400D01*
X155476500Y-113055400D01*
X155476500Y-112801400D01*
X155496500Y-112801400D01*
X155496500Y-111752150D01*
X155750500Y-111752150D01*
X155750500Y-112801400D01*
X156587250Y-112801400D01*
X156746000Y-112642650D01*
X156749072Y-112228400D01*
X156736812Y-112103918D01*
X156700502Y-111984220D01*
X156641537Y-111873906D01*
X156562185Y-111777215D01*
X156465494Y-111697863D01*
X156355180Y-111638898D01*
X156235482Y-111602588D01*
X156111000Y-111590328D01*
X155909250Y-111593400D01*
X155750500Y-111752150D01*
X155496500Y-111752150D01*
X155337750Y-111593400D01*
X155136000Y-111590328D01*
X155011518Y-111602588D01*
X154891820Y-111638898D01*
X154781506Y-111697863D01*
X154684815Y-111777215D01*
X154621008Y-111854964D01*
X154615792Y-111848608D01*
X154482164Y-111738942D01*
X154329709Y-111657453D01*
X154164285Y-111607272D01*
X153992250Y-111590328D01*
X153504750Y-111590328D01*
X153332715Y-111607272D01*
X153167291Y-111657453D01*
X153014836Y-111738942D01*
X152893033Y-111838903D01*
X152752698Y-111780774D01*
X152552739Y-111741000D01*
X152348861Y-111741000D01*
X152148902Y-111780774D01*
X152071585Y-111812800D01*
X151688245Y-111812800D01*
X151600192Y-111705508D01*
X151466564Y-111595842D01*
X151314109Y-111514353D01*
X151148685Y-111464172D01*
X150976650Y-111447228D01*
X150064150Y-111447228D01*
X149892115Y-111464172D01*
X149726691Y-111514353D01*
X149574236Y-111595842D01*
X149440608Y-111705508D01*
X149330942Y-111839136D01*
X149249453Y-111991591D01*
X149199272Y-112157015D01*
X149182328Y-112329050D01*
X149182328Y-112816550D01*
X149199272Y-112988585D01*
X149249453Y-113154009D01*
X149330111Y-113304910D01*
X149096000Y-113070799D01*
X149096000Y-112024001D01*
X150987602Y-110132400D01*
X158384399Y-110132400D01*
X159514001Y-111262003D01*
G37*
X159514001Y-111262003D02*
X159514000Y-117666277D01*
X159510324Y-117703600D01*
X159514000Y-117740922D01*
X159514000Y-117740932D01*
X159524997Y-117852585D01*
X159556344Y-117955924D01*
X159568454Y-117995846D01*
X159639026Y-118127876D01*
X159669370Y-118164850D01*
X159733999Y-118243601D01*
X159763002Y-118267404D01*
X160726200Y-119230602D01*
X160749999Y-119259601D01*
X160778997Y-119283399D01*
X160865723Y-119354574D01*
X160997753Y-119425146D01*
X161141014Y-119468603D01*
X161252667Y-119479600D01*
X161252677Y-119479600D01*
X161290000Y-119483276D01*
X161327322Y-119479600D01*
X162567489Y-119479600D01*
X162611426Y-119523537D01*
X162780944Y-119636805D01*
X162969302Y-119714826D01*
X163169261Y-119754600D01*
X163324000Y-119754600D01*
X163324000Y-120753600D01*
X155084911Y-120753600D01*
X155040974Y-120709663D01*
X154871456Y-120596395D01*
X154683098Y-120518374D01*
X154505378Y-120483024D01*
X156263803Y-118724599D01*
X156292801Y-118700801D01*
X156387774Y-118585076D01*
X156458346Y-118453047D01*
X156501803Y-118309786D01*
X156506597Y-118261114D01*
X156556737Y-118210974D01*
X156670005Y-118041456D01*
X156748026Y-117853098D01*
X156787800Y-117653139D01*
X156787800Y-117449261D01*
X156748026Y-117249302D01*
X156670005Y-117060944D01*
X156556737Y-116891426D01*
X156412574Y-116747263D01*
X156243056Y-116633995D01*
X156054698Y-116555974D01*
X155854739Y-116516200D01*
X155650861Y-116516200D01*
X155450902Y-116555974D01*
X155362997Y-116592386D01*
X155360528Y-116567315D01*
X155310347Y-116401891D01*
X155228858Y-116249436D01*
X155129854Y-116128800D01*
X155228858Y-116008164D01*
X155310347Y-115855709D01*
X155320573Y-115822000D01*
X156116345Y-115822000D01*
X156117263Y-115823374D01*
X156261426Y-115967537D01*
X156430944Y-116080805D01*
X156619302Y-116158826D01*
X156819261Y-116198600D01*
X157023139Y-116198600D01*
X157223098Y-116158826D01*
X157411456Y-116080805D01*
X157580974Y-115967537D01*
X157725137Y-115823374D01*
X157838405Y-115653856D01*
X157916426Y-115465498D01*
X157956200Y-115265539D01*
X157956200Y-115061661D01*
X157916426Y-114861702D01*
X157838405Y-114673344D01*
X157725137Y-114503826D01*
X157580974Y-114359663D01*
X157411456Y-114246395D01*
X157223098Y-114168374D01*
X157023139Y-114128600D01*
X156819261Y-114128600D01*
X156619302Y-114168374D01*
X156430944Y-114246395D01*
X156347725Y-114302000D01*
X155320573Y-114302000D01*
X155310347Y-114268291D01*
X155307975Y-114263853D01*
X155337750Y-114263400D01*
X155496500Y-114104650D01*
X155496500Y-113055400D01*
X155750500Y-113055400D01*
X155750500Y-114104650D01*
X155909250Y-114263400D01*
X156111000Y-114266472D01*
X156235482Y-114254212D01*
X156355180Y-114217902D01*
X156465494Y-114158937D01*
X156562185Y-114079585D01*
X156641537Y-113982894D01*
X156700502Y-113872580D01*
X156736812Y-113752882D01*
X156749072Y-113628400D01*
X156746000Y-113214150D01*
X156587250Y-113055400D01*
X155750500Y-113055400D01*
X155496500Y-113055400D01*
X155476500Y-113055400D01*
X155476500Y-112801400D01*
X155496500Y-112801400D01*
X155496500Y-111752150D01*
X155750500Y-111752150D01*
X155750500Y-112801400D01*
X156587250Y-112801400D01*
X156746000Y-112642650D01*
X156749072Y-112228400D01*
X156736812Y-112103918D01*
X156700502Y-111984220D01*
X156641537Y-111873906D01*
X156562185Y-111777215D01*
X156465494Y-111697863D01*
X156355180Y-111638898D01*
X156235482Y-111602588D01*
X156111000Y-111590328D01*
X155909250Y-111593400D01*
X155750500Y-111752150D01*
X155496500Y-111752150D01*
X155337750Y-111593400D01*
X155136000Y-111590328D01*
X155011518Y-111602588D01*
X154891820Y-111638898D01*
X154781506Y-111697863D01*
X154684815Y-111777215D01*
X154621008Y-111854964D01*
X154615792Y-111848608D01*
X154482164Y-111738942D01*
X154329709Y-111657453D01*
X154164285Y-111607272D01*
X153992250Y-111590328D01*
X153504750Y-111590328D01*
X153332715Y-111607272D01*
X153167291Y-111657453D01*
X153014836Y-111738942D01*
X152893033Y-111838903D01*
X152752698Y-111780774D01*
X152552739Y-111741000D01*
X152348861Y-111741000D01*
X152148902Y-111780774D01*
X152071585Y-111812800D01*
X151688245Y-111812800D01*
X151600192Y-111705508D01*
X151466564Y-111595842D01*
X151314109Y-111514353D01*
X151148685Y-111464172D01*
X150976650Y-111447228D01*
X150064150Y-111447228D01*
X149892115Y-111464172D01*
X149726691Y-111514353D01*
X149574236Y-111595842D01*
X149440608Y-111705508D01*
X149330942Y-111839136D01*
X149249453Y-111991591D01*
X149199272Y-112157015D01*
X149182328Y-112329050D01*
X149182328Y-112816550D01*
X149199272Y-112988585D01*
X149249453Y-113154009D01*
X149330111Y-113304910D01*
X149096000Y-113070799D01*
X149096000Y-112024001D01*
X150987602Y-110132400D01*
X158384399Y-110132400D01*
X159514001Y-111262003D01*
M02*
