G04 #@! TF.GenerationSoftware,KiCad,Pcbnew,(5.1.6)-1*
G04 #@! TF.CreationDate,2021-05-26T15:33:52+02:00*
G04 #@! TF.ProjectId,PowerSupplyPCB,506f7765-7253-4757-9070-6c795043422e,0.1*
G04 #@! TF.SameCoordinates,Original*
G04 #@! TF.FileFunction,Paste,Bot*
G04 #@! TF.FilePolarity,Positive*
%FSLAX46Y46*%
G04 Gerber Fmt 4.6, Leading zero omitted, Abs format (unit mm)*
G04 Created by KiCad (PCBNEW (5.1.6)-1) date 2021-05-26 15:33:52*
%MOMM*%
%LPD*%
G01*
G04 APERTURE LIST*
%ADD10R,0.650000X1.060000*%
G04 APERTURE END LIST*
G36*
G01*
X189787850Y-83065200D02*
X188875350Y-83065200D01*
G75*
G02*
X188631600Y-82821450I0J243750D01*
G01*
X188631600Y-82333950D01*
G75*
G02*
X188875350Y-82090200I243750J0D01*
G01*
X189787850Y-82090200D01*
G75*
G02*
X190031600Y-82333950I0J-243750D01*
G01*
X190031600Y-82821450D01*
G75*
G02*
X189787850Y-83065200I-243750J0D01*
G01*
G37*
G36*
G01*
X189787850Y-84940200D02*
X188875350Y-84940200D01*
G75*
G02*
X188631600Y-84696450I0J243750D01*
G01*
X188631600Y-84208950D01*
G75*
G02*
X188875350Y-83965200I243750J0D01*
G01*
X189787850Y-83965200D01*
G75*
G02*
X190031600Y-84208950I0J-243750D01*
G01*
X190031600Y-84696450D01*
G75*
G02*
X189787850Y-84940200I-243750J0D01*
G01*
G37*
G36*
G01*
X155136000Y-113384650D02*
X155136000Y-112472150D01*
G75*
G02*
X155379750Y-112228400I243750J0D01*
G01*
X155867250Y-112228400D01*
G75*
G02*
X156111000Y-112472150I0J-243750D01*
G01*
X156111000Y-113384650D01*
G75*
G02*
X155867250Y-113628400I-243750J0D01*
G01*
X155379750Y-113628400D01*
G75*
G02*
X155136000Y-113384650I0J243750D01*
G01*
G37*
G36*
G01*
X153261000Y-113384650D02*
X153261000Y-112472150D01*
G75*
G02*
X153504750Y-112228400I243750J0D01*
G01*
X153992250Y-112228400D01*
G75*
G02*
X154236000Y-112472150I0J-243750D01*
G01*
X154236000Y-113384650D01*
G75*
G02*
X153992250Y-113628400I-243750J0D01*
G01*
X153504750Y-113628400D01*
G75*
G02*
X153261000Y-113384650I0J243750D01*
G01*
G37*
G36*
G01*
X152864400Y-116739350D02*
X152864400Y-117651850D01*
G75*
G02*
X152620650Y-117895600I-243750J0D01*
G01*
X152133150Y-117895600D01*
G75*
G02*
X151889400Y-117651850I0J243750D01*
G01*
X151889400Y-116739350D01*
G75*
G02*
X152133150Y-116495600I243750J0D01*
G01*
X152620650Y-116495600D01*
G75*
G02*
X152864400Y-116739350I0J-243750D01*
G01*
G37*
G36*
G01*
X154739400Y-116739350D02*
X154739400Y-117651850D01*
G75*
G02*
X154495650Y-117895600I-243750J0D01*
G01*
X154008150Y-117895600D01*
G75*
G02*
X153764400Y-117651850I0J243750D01*
G01*
X153764400Y-116739350D01*
G75*
G02*
X154008150Y-116495600I243750J0D01*
G01*
X154495650Y-116495600D01*
G75*
G02*
X154739400Y-116739350I0J-243750D01*
G01*
G37*
G36*
G01*
X154739400Y-114605750D02*
X154739400Y-115518250D01*
G75*
G02*
X154495650Y-115762000I-243750J0D01*
G01*
X154008150Y-115762000D01*
G75*
G02*
X153764400Y-115518250I0J243750D01*
G01*
X153764400Y-114605750D01*
G75*
G02*
X154008150Y-114362000I243750J0D01*
G01*
X154495650Y-114362000D01*
G75*
G02*
X154739400Y-114605750I0J-243750D01*
G01*
G37*
G36*
G01*
X152864400Y-114605750D02*
X152864400Y-115518250D01*
G75*
G02*
X152620650Y-115762000I-243750J0D01*
G01*
X152133150Y-115762000D01*
G75*
G02*
X151889400Y-115518250I0J243750D01*
G01*
X151889400Y-114605750D01*
G75*
G02*
X152133150Y-114362000I243750J0D01*
G01*
X152620650Y-114362000D01*
G75*
G02*
X152864400Y-114605750I0J-243750D01*
G01*
G37*
G36*
G01*
X150064150Y-115516600D02*
X150976650Y-115516600D01*
G75*
G02*
X151220400Y-115760350I0J-243750D01*
G01*
X151220400Y-116247850D01*
G75*
G02*
X150976650Y-116491600I-243750J0D01*
G01*
X150064150Y-116491600D01*
G75*
G02*
X149820400Y-116247850I0J243750D01*
G01*
X149820400Y-115760350D01*
G75*
G02*
X150064150Y-115516600I243750J0D01*
G01*
G37*
G36*
G01*
X150064150Y-117391600D02*
X150976650Y-117391600D01*
G75*
G02*
X151220400Y-117635350I0J-243750D01*
G01*
X151220400Y-118122850D01*
G75*
G02*
X150976650Y-118366600I-243750J0D01*
G01*
X150064150Y-118366600D01*
G75*
G02*
X149820400Y-118122850I0J243750D01*
G01*
X149820400Y-117635350D01*
G75*
G02*
X150064150Y-117391600I243750J0D01*
G01*
G37*
G36*
G01*
X187692350Y-80461700D02*
X186779850Y-80461700D01*
G75*
G02*
X186536100Y-80217950I0J243750D01*
G01*
X186536100Y-79730450D01*
G75*
G02*
X186779850Y-79486700I243750J0D01*
G01*
X187692350Y-79486700D01*
G75*
G02*
X187936100Y-79730450I0J-243750D01*
G01*
X187936100Y-80217950D01*
G75*
G02*
X187692350Y-80461700I-243750J0D01*
G01*
G37*
G36*
G01*
X187692350Y-82336700D02*
X186779850Y-82336700D01*
G75*
G02*
X186536100Y-82092950I0J243750D01*
G01*
X186536100Y-81605450D01*
G75*
G02*
X186779850Y-81361700I243750J0D01*
G01*
X187692350Y-81361700D01*
G75*
G02*
X187936100Y-81605450I0J-243750D01*
G01*
X187936100Y-82092950D01*
G75*
G02*
X187692350Y-82336700I-243750J0D01*
G01*
G37*
G36*
G01*
X187692350Y-84081200D02*
X186779850Y-84081200D01*
G75*
G02*
X186536100Y-83837450I0J243750D01*
G01*
X186536100Y-83349950D01*
G75*
G02*
X186779850Y-83106200I243750J0D01*
G01*
X187692350Y-83106200D01*
G75*
G02*
X187936100Y-83349950I0J-243750D01*
G01*
X187936100Y-83837450D01*
G75*
G02*
X187692350Y-84081200I-243750J0D01*
G01*
G37*
G36*
G01*
X187692350Y-85956200D02*
X186779850Y-85956200D01*
G75*
G02*
X186536100Y-85712450I0J243750D01*
G01*
X186536100Y-85224950D01*
G75*
G02*
X186779850Y-84981200I243750J0D01*
G01*
X187692350Y-84981200D01*
G75*
G02*
X187936100Y-85224950I0J-243750D01*
G01*
X187936100Y-85712450D01*
G75*
G02*
X187692350Y-85956200I-243750J0D01*
G01*
G37*
G36*
G01*
X188677600Y-89067701D02*
X188677600Y-86217699D01*
G75*
G02*
X188927599Y-85967700I249999J0D01*
G01*
X189777601Y-85967700D01*
G75*
G02*
X190027600Y-86217699I0J-249999D01*
G01*
X190027600Y-89067701D01*
G75*
G02*
X189777601Y-89317700I-249999J0D01*
G01*
X188927599Y-89317700D01*
G75*
G02*
X188677600Y-89067701I0J249999D01*
G01*
G37*
G36*
G01*
X194477600Y-89067701D02*
X194477600Y-86217699D01*
G75*
G02*
X194727599Y-85967700I249999J0D01*
G01*
X195577601Y-85967700D01*
G75*
G02*
X195827600Y-86217699I0J-249999D01*
G01*
X195827600Y-89067701D01*
G75*
G02*
X195577601Y-89317700I-249999J0D01*
G01*
X194727599Y-89317700D01*
G75*
G02*
X194477600Y-89067701I0J249999D01*
G01*
G37*
G36*
G01*
X150064150Y-112085300D02*
X150976650Y-112085300D01*
G75*
G02*
X151220400Y-112329050I0J-243750D01*
G01*
X151220400Y-112816550D01*
G75*
G02*
X150976650Y-113060300I-243750J0D01*
G01*
X150064150Y-113060300D01*
G75*
G02*
X149820400Y-112816550I0J243750D01*
G01*
X149820400Y-112329050D01*
G75*
G02*
X150064150Y-112085300I243750J0D01*
G01*
G37*
G36*
G01*
X150064150Y-113960300D02*
X150976650Y-113960300D01*
G75*
G02*
X151220400Y-114204050I0J-243750D01*
G01*
X151220400Y-114691550D01*
G75*
G02*
X150976650Y-114935300I-243750J0D01*
G01*
X150064150Y-114935300D01*
G75*
G02*
X149820400Y-114691550I0J243750D01*
G01*
X149820400Y-114204050D01*
G75*
G02*
X150064150Y-113960300I243750J0D01*
G01*
G37*
D10*
X191226400Y-90644800D03*
X192176400Y-90644800D03*
X193126400Y-90644800D03*
X193126400Y-92844800D03*
X191226400Y-92844800D03*
X192176400Y-92844800D03*
G36*
G01*
X133653850Y-103588400D02*
X132741350Y-103588400D01*
G75*
G02*
X132497600Y-103344650I0J243750D01*
G01*
X132497600Y-102857150D01*
G75*
G02*
X132741350Y-102613400I243750J0D01*
G01*
X133653850Y-102613400D01*
G75*
G02*
X133897600Y-102857150I0J-243750D01*
G01*
X133897600Y-103344650D01*
G75*
G02*
X133653850Y-103588400I-243750J0D01*
G01*
G37*
G36*
G01*
X133653850Y-105463400D02*
X132741350Y-105463400D01*
G75*
G02*
X132497600Y-105219650I0J243750D01*
G01*
X132497600Y-104732150D01*
G75*
G02*
X132741350Y-104488400I243750J0D01*
G01*
X133653850Y-104488400D01*
G75*
G02*
X133897600Y-104732150I0J-243750D01*
G01*
X133897600Y-105219650D01*
G75*
G02*
X133653850Y-105463400I-243750J0D01*
G01*
G37*
G36*
G01*
X129589850Y-105463400D02*
X128677350Y-105463400D01*
G75*
G02*
X128433600Y-105219650I0J243750D01*
G01*
X128433600Y-104732150D01*
G75*
G02*
X128677350Y-104488400I243750J0D01*
G01*
X129589850Y-104488400D01*
G75*
G02*
X129833600Y-104732150I0J-243750D01*
G01*
X129833600Y-105219650D01*
G75*
G02*
X129589850Y-105463400I-243750J0D01*
G01*
G37*
G36*
G01*
X129589850Y-103588400D02*
X128677350Y-103588400D01*
G75*
G02*
X128433600Y-103344650I0J243750D01*
G01*
X128433600Y-102857150D01*
G75*
G02*
X128677350Y-102613400I243750J0D01*
G01*
X129589850Y-102613400D01*
G75*
G02*
X129833600Y-102857150I0J-243750D01*
G01*
X129833600Y-103344650D01*
G75*
G02*
X129589850Y-103588400I-243750J0D01*
G01*
G37*
G36*
G01*
X131621850Y-103588400D02*
X130709350Y-103588400D01*
G75*
G02*
X130465600Y-103344650I0J243750D01*
G01*
X130465600Y-102857150D01*
G75*
G02*
X130709350Y-102613400I243750J0D01*
G01*
X131621850Y-102613400D01*
G75*
G02*
X131865600Y-102857150I0J-243750D01*
G01*
X131865600Y-103344650D01*
G75*
G02*
X131621850Y-103588400I-243750J0D01*
G01*
G37*
G36*
G01*
X131621850Y-105463400D02*
X130709350Y-105463400D01*
G75*
G02*
X130465600Y-105219650I0J243750D01*
G01*
X130465600Y-104732150D01*
G75*
G02*
X130709350Y-104488400I243750J0D01*
G01*
X131621850Y-104488400D01*
G75*
G02*
X131865600Y-104732150I0J-243750D01*
G01*
X131865600Y-105219650D01*
G75*
G02*
X131621850Y-105463400I-243750J0D01*
G01*
G37*
M02*
