G04 #@! TF.GenerationSoftware,KiCad,Pcbnew,(5.1.6)-1*
G04 #@! TF.CreationDate,2021-05-26T15:33:52+02:00*
G04 #@! TF.ProjectId,PowerSupplyPCB,506f7765-7253-4757-9070-6c795043422e,0.1*
G04 #@! TF.SameCoordinates,Original*
G04 #@! TF.FileFunction,Paste,Top*
G04 #@! TF.FilePolarity,Positive*
%FSLAX46Y46*%
G04 Gerber Fmt 4.6, Leading zero omitted, Abs format (unit mm)*
G04 Created by KiCad (PCBNEW (5.1.6)-1) date 2021-05-26 15:33:52*
%MOMM*%
%LPD*%
G01*
G04 APERTURE LIST*
%ADD10R,2.500000X1.800000*%
%ADD11R,6.600000X2.850000*%
%ADD12R,0.900000X0.800000*%
%ADD13R,3.800000X2.000000*%
%ADD14R,1.500000X2.000000*%
%ADD15R,8.500000X8.000000*%
%ADD16R,1.060000X0.650000*%
%ADD17R,0.800000X0.900000*%
G04 APERTURE END LIST*
G36*
G01*
X125402200Y-116663600D02*
X125702200Y-116663600D01*
G75*
G02*
X125852200Y-116813600I0J-150000D01*
G01*
X125852200Y-118463600D01*
G75*
G02*
X125702200Y-118613600I-150000J0D01*
G01*
X125402200Y-118613600D01*
G75*
G02*
X125252200Y-118463600I0J150000D01*
G01*
X125252200Y-116813600D01*
G75*
G02*
X125402200Y-116663600I150000J0D01*
G01*
G37*
G36*
G01*
X124132200Y-116663600D02*
X124432200Y-116663600D01*
G75*
G02*
X124582200Y-116813600I0J-150000D01*
G01*
X124582200Y-118463600D01*
G75*
G02*
X124432200Y-118613600I-150000J0D01*
G01*
X124132200Y-118613600D01*
G75*
G02*
X123982200Y-118463600I0J150000D01*
G01*
X123982200Y-116813600D01*
G75*
G02*
X124132200Y-116663600I150000J0D01*
G01*
G37*
G36*
G01*
X122862200Y-116663600D02*
X123162200Y-116663600D01*
G75*
G02*
X123312200Y-116813600I0J-150000D01*
G01*
X123312200Y-118463600D01*
G75*
G02*
X123162200Y-118613600I-150000J0D01*
G01*
X122862200Y-118613600D01*
G75*
G02*
X122712200Y-118463600I0J150000D01*
G01*
X122712200Y-116813600D01*
G75*
G02*
X122862200Y-116663600I150000J0D01*
G01*
G37*
G36*
G01*
X121592200Y-116663600D02*
X121892200Y-116663600D01*
G75*
G02*
X122042200Y-116813600I0J-150000D01*
G01*
X122042200Y-118463600D01*
G75*
G02*
X121892200Y-118613600I-150000J0D01*
G01*
X121592200Y-118613600D01*
G75*
G02*
X121442200Y-118463600I0J150000D01*
G01*
X121442200Y-116813600D01*
G75*
G02*
X121592200Y-116663600I150000J0D01*
G01*
G37*
G36*
G01*
X121592200Y-111713600D02*
X121892200Y-111713600D01*
G75*
G02*
X122042200Y-111863600I0J-150000D01*
G01*
X122042200Y-113513600D01*
G75*
G02*
X121892200Y-113663600I-150000J0D01*
G01*
X121592200Y-113663600D01*
G75*
G02*
X121442200Y-113513600I0J150000D01*
G01*
X121442200Y-111863600D01*
G75*
G02*
X121592200Y-111713600I150000J0D01*
G01*
G37*
G36*
G01*
X122862200Y-111713600D02*
X123162200Y-111713600D01*
G75*
G02*
X123312200Y-111863600I0J-150000D01*
G01*
X123312200Y-113513600D01*
G75*
G02*
X123162200Y-113663600I-150000J0D01*
G01*
X122862200Y-113663600D01*
G75*
G02*
X122712200Y-113513600I0J150000D01*
G01*
X122712200Y-111863600D01*
G75*
G02*
X122862200Y-111713600I150000J0D01*
G01*
G37*
G36*
G01*
X124132200Y-111713600D02*
X124432200Y-111713600D01*
G75*
G02*
X124582200Y-111863600I0J-150000D01*
G01*
X124582200Y-113513600D01*
G75*
G02*
X124432200Y-113663600I-150000J0D01*
G01*
X124132200Y-113663600D01*
G75*
G02*
X123982200Y-113513600I0J150000D01*
G01*
X123982200Y-111863600D01*
G75*
G02*
X124132200Y-111713600I150000J0D01*
G01*
G37*
G36*
G01*
X125402200Y-111713600D02*
X125702200Y-111713600D01*
G75*
G02*
X125852200Y-111863600I0J-150000D01*
G01*
X125852200Y-113513600D01*
G75*
G02*
X125702200Y-113663600I-150000J0D01*
G01*
X125402200Y-113663600D01*
G75*
G02*
X125252200Y-113513600I0J150000D01*
G01*
X125252200Y-111863600D01*
G75*
G02*
X125402200Y-111713600I150000J0D01*
G01*
G37*
G36*
G01*
X89447600Y-115510400D02*
X89447600Y-114410400D01*
G75*
G02*
X89697600Y-114160400I250000J0D01*
G01*
X92197600Y-114160400D01*
G75*
G02*
X92447600Y-114410400I0J-250000D01*
G01*
X92447600Y-115510400D01*
G75*
G02*
X92197600Y-115760400I-250000J0D01*
G01*
X89697600Y-115760400D01*
G75*
G02*
X89447600Y-115510400I0J250000D01*
G01*
G37*
G36*
G01*
X85047600Y-115510400D02*
X85047600Y-114410400D01*
G75*
G02*
X85297600Y-114160400I250000J0D01*
G01*
X87797600Y-114160400D01*
G75*
G02*
X88047600Y-114410400I0J-250000D01*
G01*
X88047600Y-115510400D01*
G75*
G02*
X87797600Y-115760400I-250000J0D01*
G01*
X85297600Y-115760400D01*
G75*
G02*
X85047600Y-115510400I0J250000D01*
G01*
G37*
G36*
G01*
X121065200Y-99150400D02*
X122165200Y-99150400D01*
G75*
G02*
X122415200Y-99400400I0J-250000D01*
G01*
X122415200Y-101900400D01*
G75*
G02*
X122165200Y-102150400I-250000J0D01*
G01*
X121065200Y-102150400D01*
G75*
G02*
X120815200Y-101900400I0J250000D01*
G01*
X120815200Y-99400400D01*
G75*
G02*
X121065200Y-99150400I250000J0D01*
G01*
G37*
G36*
G01*
X121065200Y-94750400D02*
X122165200Y-94750400D01*
G75*
G02*
X122415200Y-95000400I0J-250000D01*
G01*
X122415200Y-97500400D01*
G75*
G02*
X122165200Y-97750400I-250000J0D01*
G01*
X121065200Y-97750400D01*
G75*
G02*
X120815200Y-97500400I0J250000D01*
G01*
X120815200Y-95000400D01*
G75*
G02*
X121065200Y-94750400I250000J0D01*
G01*
G37*
G36*
G01*
X122165200Y-110075200D02*
X121065200Y-110075200D01*
G75*
G02*
X120815200Y-109825200I0J250000D01*
G01*
X120815200Y-107325200D01*
G75*
G02*
X121065200Y-107075200I250000J0D01*
G01*
X122165200Y-107075200D01*
G75*
G02*
X122415200Y-107325200I0J-250000D01*
G01*
X122415200Y-109825200D01*
G75*
G02*
X122165200Y-110075200I-250000J0D01*
G01*
G37*
G36*
G01*
X122165200Y-105675200D02*
X121065200Y-105675200D01*
G75*
G02*
X120815200Y-105425200I0J250000D01*
G01*
X120815200Y-102925200D01*
G75*
G02*
X121065200Y-102675200I250000J0D01*
G01*
X122165200Y-102675200D01*
G75*
G02*
X122415200Y-102925200I0J-250000D01*
G01*
X122415200Y-105425200D01*
G75*
G02*
X122165200Y-105675200I-250000J0D01*
G01*
G37*
G36*
G01*
X85047600Y-109566800D02*
X85047600Y-108466800D01*
G75*
G02*
X85297600Y-108216800I250000J0D01*
G01*
X87797600Y-108216800D01*
G75*
G02*
X88047600Y-108466800I0J-250000D01*
G01*
X88047600Y-109566800D01*
G75*
G02*
X87797600Y-109816800I-250000J0D01*
G01*
X85297600Y-109816800D01*
G75*
G02*
X85047600Y-109566800I0J250000D01*
G01*
G37*
G36*
G01*
X89447600Y-109566800D02*
X89447600Y-108466800D01*
G75*
G02*
X89697600Y-108216800I250000J0D01*
G01*
X92197600Y-108216800D01*
G75*
G02*
X92447600Y-108466800I0J-250000D01*
G01*
X92447600Y-109566800D01*
G75*
G02*
X92197600Y-109816800I-250000J0D01*
G01*
X89697600Y-109816800D01*
G75*
G02*
X89447600Y-109566800I0J250000D01*
G01*
G37*
G36*
G01*
X138022650Y-83573200D02*
X137110150Y-83573200D01*
G75*
G02*
X136866400Y-83329450I0J243750D01*
G01*
X136866400Y-82841950D01*
G75*
G02*
X137110150Y-82598200I243750J0D01*
G01*
X138022650Y-82598200D01*
G75*
G02*
X138266400Y-82841950I0J-243750D01*
G01*
X138266400Y-83329450D01*
G75*
G02*
X138022650Y-83573200I-243750J0D01*
G01*
G37*
G36*
G01*
X138022650Y-85448200D02*
X137110150Y-85448200D01*
G75*
G02*
X136866400Y-85204450I0J243750D01*
G01*
X136866400Y-84716950D01*
G75*
G02*
X137110150Y-84473200I243750J0D01*
G01*
X138022650Y-84473200D01*
G75*
G02*
X138266400Y-84716950I0J-243750D01*
G01*
X138266400Y-85204450D01*
G75*
G02*
X138022650Y-85448200I-243750J0D01*
G01*
G37*
G36*
G01*
X130685600Y-95631950D02*
X130685600Y-96544450D01*
G75*
G02*
X130441850Y-96788200I-243750J0D01*
G01*
X129954350Y-96788200D01*
G75*
G02*
X129710600Y-96544450I0J243750D01*
G01*
X129710600Y-95631950D01*
G75*
G02*
X129954350Y-95388200I243750J0D01*
G01*
X130441850Y-95388200D01*
G75*
G02*
X130685600Y-95631950I0J-243750D01*
G01*
G37*
G36*
G01*
X128810600Y-95631950D02*
X128810600Y-96544450D01*
G75*
G02*
X128566850Y-96788200I-243750J0D01*
G01*
X128079350Y-96788200D01*
G75*
G02*
X127835600Y-96544450I0J243750D01*
G01*
X127835600Y-95631950D01*
G75*
G02*
X128079350Y-95388200I243750J0D01*
G01*
X128566850Y-95388200D01*
G75*
G02*
X128810600Y-95631950I0J-243750D01*
G01*
G37*
G36*
G01*
X211381400Y-116942550D02*
X211381400Y-117855050D01*
G75*
G02*
X211137650Y-118098800I-243750J0D01*
G01*
X210650150Y-118098800D01*
G75*
G02*
X210406400Y-117855050I0J243750D01*
G01*
X210406400Y-116942550D01*
G75*
G02*
X210650150Y-116698800I243750J0D01*
G01*
X211137650Y-116698800D01*
G75*
G02*
X211381400Y-116942550I0J-243750D01*
G01*
G37*
G36*
G01*
X209506400Y-116942550D02*
X209506400Y-117855050D01*
G75*
G02*
X209262650Y-118098800I-243750J0D01*
G01*
X208775150Y-118098800D01*
G75*
G02*
X208531400Y-117855050I0J243750D01*
G01*
X208531400Y-116942550D01*
G75*
G02*
X208775150Y-116698800I243750J0D01*
G01*
X209262650Y-116698800D01*
G75*
G02*
X209506400Y-116942550I0J-243750D01*
G01*
G37*
G36*
G01*
X176429350Y-108654000D02*
X177341850Y-108654000D01*
G75*
G02*
X177585600Y-108897750I0J-243750D01*
G01*
X177585600Y-109385250D01*
G75*
G02*
X177341850Y-109629000I-243750J0D01*
G01*
X176429350Y-109629000D01*
G75*
G02*
X176185600Y-109385250I0J243750D01*
G01*
X176185600Y-108897750D01*
G75*
G02*
X176429350Y-108654000I243750J0D01*
G01*
G37*
G36*
G01*
X176429350Y-106779000D02*
X177341850Y-106779000D01*
G75*
G02*
X177585600Y-107022750I0J-243750D01*
G01*
X177585600Y-107510250D01*
G75*
G02*
X177341850Y-107754000I-243750J0D01*
G01*
X176429350Y-107754000D01*
G75*
G02*
X176185600Y-107510250I0J243750D01*
G01*
X176185600Y-107022750D01*
G75*
G02*
X176429350Y-106779000I243750J0D01*
G01*
G37*
G36*
G01*
X174346550Y-109822400D02*
X175259050Y-109822400D01*
G75*
G02*
X175502800Y-110066150I0J-243750D01*
G01*
X175502800Y-110553650D01*
G75*
G02*
X175259050Y-110797400I-243750J0D01*
G01*
X174346550Y-110797400D01*
G75*
G02*
X174102800Y-110553650I0J243750D01*
G01*
X174102800Y-110066150D01*
G75*
G02*
X174346550Y-109822400I243750J0D01*
G01*
G37*
G36*
G01*
X174346550Y-107947400D02*
X175259050Y-107947400D01*
G75*
G02*
X175502800Y-108191150I0J-243750D01*
G01*
X175502800Y-108678650D01*
G75*
G02*
X175259050Y-108922400I-243750J0D01*
G01*
X174346550Y-108922400D01*
G75*
G02*
X174102800Y-108678650I0J243750D01*
G01*
X174102800Y-108191150D01*
G75*
G02*
X174346550Y-107947400I243750J0D01*
G01*
G37*
D10*
X112249200Y-97078800D03*
X116249200Y-97078800D03*
X95231200Y-115620800D03*
X99231200Y-115620800D03*
X131578600Y-93294200D03*
X135578600Y-93294200D03*
X200996800Y-93256100D03*
X204996800Y-93256100D03*
D11*
X105664000Y-100299000D03*
X105664000Y-105949000D03*
X105765600Y-111271800D03*
X105765600Y-116921800D03*
D12*
X195799200Y-92674400D03*
X195799200Y-94574400D03*
X197799200Y-93624400D03*
X210956400Y-101838800D03*
X210956400Y-99938800D03*
X208956400Y-100888800D03*
X208956400Y-108559600D03*
X210956400Y-107609600D03*
X210956400Y-109509600D03*
X195462400Y-108458000D03*
X193462400Y-109408000D03*
X193462400Y-107508000D03*
G36*
G01*
X136041450Y-81943000D02*
X135128950Y-81943000D01*
G75*
G02*
X134885200Y-81699250I0J243750D01*
G01*
X134885200Y-81211750D01*
G75*
G02*
X135128950Y-80968000I243750J0D01*
G01*
X136041450Y-80968000D01*
G75*
G02*
X136285200Y-81211750I0J-243750D01*
G01*
X136285200Y-81699250D01*
G75*
G02*
X136041450Y-81943000I-243750J0D01*
G01*
G37*
G36*
G01*
X136041450Y-80068000D02*
X135128950Y-80068000D01*
G75*
G02*
X134885200Y-79824250I0J243750D01*
G01*
X134885200Y-79336750D01*
G75*
G02*
X135128950Y-79093000I243750J0D01*
G01*
X136041450Y-79093000D01*
G75*
G02*
X136285200Y-79336750I0J-243750D01*
G01*
X136285200Y-79824250D01*
G75*
G02*
X136041450Y-80068000I-243750J0D01*
G01*
G37*
G36*
G01*
X136041450Y-83573200D02*
X135128950Y-83573200D01*
G75*
G02*
X134885200Y-83329450I0J243750D01*
G01*
X134885200Y-82841950D01*
G75*
G02*
X135128950Y-82598200I243750J0D01*
G01*
X136041450Y-82598200D01*
G75*
G02*
X136285200Y-82841950I0J-243750D01*
G01*
X136285200Y-83329450D01*
G75*
G02*
X136041450Y-83573200I-243750J0D01*
G01*
G37*
G36*
G01*
X136041450Y-85448200D02*
X135128950Y-85448200D01*
G75*
G02*
X134885200Y-85204450I0J243750D01*
G01*
X134885200Y-84716950D01*
G75*
G02*
X135128950Y-84473200I243750J0D01*
G01*
X136041450Y-84473200D01*
G75*
G02*
X136285200Y-84716950I0J-243750D01*
G01*
X136285200Y-85204450D01*
G75*
G02*
X136041450Y-85448200I-243750J0D01*
G01*
G37*
G36*
G01*
X136314600Y-74890950D02*
X136314600Y-73978450D01*
G75*
G02*
X136558350Y-73734700I243750J0D01*
G01*
X137045850Y-73734700D01*
G75*
G02*
X137289600Y-73978450I0J-243750D01*
G01*
X137289600Y-74890950D01*
G75*
G02*
X137045850Y-75134700I-243750J0D01*
G01*
X136558350Y-75134700D01*
G75*
G02*
X136314600Y-74890950I0J243750D01*
G01*
G37*
G36*
G01*
X134439600Y-74890950D02*
X134439600Y-73978450D01*
G75*
G02*
X134683350Y-73734700I243750J0D01*
G01*
X135170850Y-73734700D01*
G75*
G02*
X135414600Y-73978450I0J-243750D01*
G01*
X135414600Y-74890950D01*
G75*
G02*
X135170850Y-75134700I-243750J0D01*
G01*
X134683350Y-75134700D01*
G75*
G02*
X134439600Y-74890950I0J243750D01*
G01*
G37*
G36*
G01*
X134312600Y-90829450D02*
X134312600Y-89916950D01*
G75*
G02*
X134556350Y-89673200I243750J0D01*
G01*
X135043850Y-89673200D01*
G75*
G02*
X135287600Y-89916950I0J-243750D01*
G01*
X135287600Y-90829450D01*
G75*
G02*
X135043850Y-91073200I-243750J0D01*
G01*
X134556350Y-91073200D01*
G75*
G02*
X134312600Y-90829450I0J243750D01*
G01*
G37*
G36*
G01*
X136187600Y-90829450D02*
X136187600Y-89916950D01*
G75*
G02*
X136431350Y-89673200I243750J0D01*
G01*
X136918850Y-89673200D01*
G75*
G02*
X137162600Y-89916950I0J-243750D01*
G01*
X137162600Y-90829450D01*
G75*
G02*
X136918850Y-91073200I-243750J0D01*
G01*
X136431350Y-91073200D01*
G75*
G02*
X136187600Y-90829450I0J243750D01*
G01*
G37*
G36*
G01*
X195374200Y-96925450D02*
X195374200Y-96012950D01*
G75*
G02*
X195617950Y-95769200I243750J0D01*
G01*
X196105450Y-95769200D01*
G75*
G02*
X196349200Y-96012950I0J-243750D01*
G01*
X196349200Y-96925450D01*
G75*
G02*
X196105450Y-97169200I-243750J0D01*
G01*
X195617950Y-97169200D01*
G75*
G02*
X195374200Y-96925450I0J243750D01*
G01*
G37*
G36*
G01*
X197249200Y-96925450D02*
X197249200Y-96012950D01*
G75*
G02*
X197492950Y-95769200I243750J0D01*
G01*
X197980450Y-95769200D01*
G75*
G02*
X198224200Y-96012950I0J-243750D01*
G01*
X198224200Y-96925450D01*
G75*
G02*
X197980450Y-97169200I-243750J0D01*
G01*
X197492950Y-97169200D01*
G75*
G02*
X197249200Y-96925450I0J243750D01*
G01*
G37*
G36*
G01*
X193447350Y-94074400D02*
X194359850Y-94074400D01*
G75*
G02*
X194603600Y-94318150I0J-243750D01*
G01*
X194603600Y-94805650D01*
G75*
G02*
X194359850Y-95049400I-243750J0D01*
G01*
X193447350Y-95049400D01*
G75*
G02*
X193203600Y-94805650I0J243750D01*
G01*
X193203600Y-94318150D01*
G75*
G02*
X193447350Y-94074400I243750J0D01*
G01*
G37*
G36*
G01*
X193447350Y-92199400D02*
X194359850Y-92199400D01*
G75*
G02*
X194603600Y-92443150I0J-243750D01*
G01*
X194603600Y-92930650D01*
G75*
G02*
X194359850Y-93174400I-243750J0D01*
G01*
X193447350Y-93174400D01*
G75*
G02*
X193203600Y-92930650I0J243750D01*
G01*
X193203600Y-92443150D01*
G75*
G02*
X193447350Y-92199400I243750J0D01*
G01*
G37*
G36*
G01*
X211381400Y-97638550D02*
X211381400Y-98551050D01*
G75*
G02*
X211137650Y-98794800I-243750J0D01*
G01*
X210650150Y-98794800D01*
G75*
G02*
X210406400Y-98551050I0J243750D01*
G01*
X210406400Y-97638550D01*
G75*
G02*
X210650150Y-97394800I243750J0D01*
G01*
X211137650Y-97394800D01*
G75*
G02*
X211381400Y-97638550I0J-243750D01*
G01*
G37*
G36*
G01*
X209506400Y-97638550D02*
X209506400Y-98551050D01*
G75*
G02*
X209262650Y-98794800I-243750J0D01*
G01*
X208775150Y-98794800D01*
G75*
G02*
X208531400Y-98551050I0J243750D01*
G01*
X208531400Y-97638550D01*
G75*
G02*
X208775150Y-97394800I243750J0D01*
G01*
X209262650Y-97394800D01*
G75*
G02*
X209506400Y-97638550I0J-243750D01*
G01*
G37*
G36*
G01*
X211381400Y-105309350D02*
X211381400Y-106221850D01*
G75*
G02*
X211137650Y-106465600I-243750J0D01*
G01*
X210650150Y-106465600D01*
G75*
G02*
X210406400Y-106221850I0J243750D01*
G01*
X210406400Y-105309350D01*
G75*
G02*
X210650150Y-105065600I243750J0D01*
G01*
X211137650Y-105065600D01*
G75*
G02*
X211381400Y-105309350I0J-243750D01*
G01*
G37*
G36*
G01*
X209506400Y-105309350D02*
X209506400Y-106221850D01*
G75*
G02*
X209262650Y-106465600I-243750J0D01*
G01*
X208775150Y-106465600D01*
G75*
G02*
X208531400Y-106221850I0J243750D01*
G01*
X208531400Y-105309350D01*
G75*
G02*
X208775150Y-105065600I243750J0D01*
G01*
X209262650Y-105065600D01*
G75*
G02*
X209506400Y-105309350I0J-243750D01*
G01*
G37*
G36*
G01*
X210406400Y-115873850D02*
X210406400Y-114961350D01*
G75*
G02*
X210650150Y-114717600I243750J0D01*
G01*
X211137650Y-114717600D01*
G75*
G02*
X211381400Y-114961350I0J-243750D01*
G01*
X211381400Y-115873850D01*
G75*
G02*
X211137650Y-116117600I-243750J0D01*
G01*
X210650150Y-116117600D01*
G75*
G02*
X210406400Y-115873850I0J243750D01*
G01*
G37*
G36*
G01*
X208531400Y-115873850D02*
X208531400Y-114961350D01*
G75*
G02*
X208775150Y-114717600I243750J0D01*
G01*
X209262650Y-114717600D01*
G75*
G02*
X209506400Y-114961350I0J-243750D01*
G01*
X209506400Y-115873850D01*
G75*
G02*
X209262650Y-116117600I-243750J0D01*
G01*
X208775150Y-116117600D01*
G75*
G02*
X208531400Y-115873850I0J243750D01*
G01*
G37*
G36*
G01*
X209506400Y-103226550D02*
X209506400Y-104139050D01*
G75*
G02*
X209262650Y-104382800I-243750J0D01*
G01*
X208775150Y-104382800D01*
G75*
G02*
X208531400Y-104139050I0J243750D01*
G01*
X208531400Y-103226550D01*
G75*
G02*
X208775150Y-102982800I243750J0D01*
G01*
X209262650Y-102982800D01*
G75*
G02*
X209506400Y-103226550I0J-243750D01*
G01*
G37*
G36*
G01*
X211381400Y-103226550D02*
X211381400Y-104139050D01*
G75*
G02*
X211137650Y-104382800I-243750J0D01*
G01*
X210650150Y-104382800D01*
G75*
G02*
X210406400Y-104139050I0J243750D01*
G01*
X210406400Y-103226550D01*
G75*
G02*
X210650150Y-102982800I243750J0D01*
G01*
X211137650Y-102982800D01*
G75*
G02*
X211381400Y-103226550I0J-243750D01*
G01*
G37*
G36*
G01*
X211381400Y-110948150D02*
X211381400Y-111860650D01*
G75*
G02*
X211137650Y-112104400I-243750J0D01*
G01*
X210650150Y-112104400D01*
G75*
G02*
X210406400Y-111860650I0J243750D01*
G01*
X210406400Y-110948150D01*
G75*
G02*
X210650150Y-110704400I243750J0D01*
G01*
X211137650Y-110704400D01*
G75*
G02*
X211381400Y-110948150I0J-243750D01*
G01*
G37*
G36*
G01*
X209506400Y-110948150D02*
X209506400Y-111860650D01*
G75*
G02*
X209262650Y-112104400I-243750J0D01*
G01*
X208775150Y-112104400D01*
G75*
G02*
X208531400Y-111860650I0J243750D01*
G01*
X208531400Y-110948150D01*
G75*
G02*
X208775150Y-110704400I243750J0D01*
G01*
X209262650Y-110704400D01*
G75*
G02*
X209506400Y-110948150I0J-243750D01*
G01*
G37*
G36*
G01*
X190248600Y-107138150D02*
X190248600Y-108050650D01*
G75*
G02*
X190004850Y-108294400I-243750J0D01*
G01*
X189517350Y-108294400D01*
G75*
G02*
X189273600Y-108050650I0J243750D01*
G01*
X189273600Y-107138150D01*
G75*
G02*
X189517350Y-106894400I243750J0D01*
G01*
X190004850Y-106894400D01*
G75*
G02*
X190248600Y-107138150I0J-243750D01*
G01*
G37*
G36*
G01*
X188373600Y-107138150D02*
X188373600Y-108050650D01*
G75*
G02*
X188129850Y-108294400I-243750J0D01*
G01*
X187642350Y-108294400D01*
G75*
G02*
X187398600Y-108050650I0J243750D01*
G01*
X187398600Y-107138150D01*
G75*
G02*
X187642350Y-106894400I243750J0D01*
G01*
X188129850Y-106894400D01*
G75*
G02*
X188373600Y-107138150I0J-243750D01*
G01*
G37*
G36*
G01*
X186697200Y-109119350D02*
X186697200Y-110031850D01*
G75*
G02*
X186453450Y-110275600I-243750J0D01*
G01*
X185965950Y-110275600D01*
G75*
G02*
X185722200Y-110031850I0J243750D01*
G01*
X185722200Y-109119350D01*
G75*
G02*
X185965950Y-108875600I243750J0D01*
G01*
X186453450Y-108875600D01*
G75*
G02*
X186697200Y-109119350I0J-243750D01*
G01*
G37*
G36*
G01*
X188572200Y-109119350D02*
X188572200Y-110031850D01*
G75*
G02*
X188328450Y-110275600I-243750J0D01*
G01*
X187840950Y-110275600D01*
G75*
G02*
X187597200Y-110031850I0J243750D01*
G01*
X187597200Y-109119350D01*
G75*
G02*
X187840950Y-108875600I243750J0D01*
G01*
X188328450Y-108875600D01*
G75*
G02*
X188572200Y-109119350I0J-243750D01*
G01*
G37*
G36*
G01*
X192077400Y-109119350D02*
X192077400Y-110031850D01*
G75*
G02*
X191833650Y-110275600I-243750J0D01*
G01*
X191346150Y-110275600D01*
G75*
G02*
X191102400Y-110031850I0J243750D01*
G01*
X191102400Y-109119350D01*
G75*
G02*
X191346150Y-108875600I243750J0D01*
G01*
X191833650Y-108875600D01*
G75*
G02*
X192077400Y-109119350I0J-243750D01*
G01*
G37*
G36*
G01*
X190202400Y-109119350D02*
X190202400Y-110031850D01*
G75*
G02*
X189958650Y-110275600I-243750J0D01*
G01*
X189471150Y-110275600D01*
G75*
G02*
X189227400Y-110031850I0J243750D01*
G01*
X189227400Y-109119350D01*
G75*
G02*
X189471150Y-108875600I243750J0D01*
G01*
X189958650Y-108875600D01*
G75*
G02*
X190202400Y-109119350I0J-243750D01*
G01*
G37*
G36*
G01*
X194012400Y-105106150D02*
X194012400Y-106018650D01*
G75*
G02*
X193768650Y-106262400I-243750J0D01*
G01*
X193281150Y-106262400D01*
G75*
G02*
X193037400Y-106018650I0J243750D01*
G01*
X193037400Y-105106150D01*
G75*
G02*
X193281150Y-104862400I243750J0D01*
G01*
X193768650Y-104862400D01*
G75*
G02*
X194012400Y-105106150I0J-243750D01*
G01*
G37*
G36*
G01*
X195887400Y-105106150D02*
X195887400Y-106018650D01*
G75*
G02*
X195643650Y-106262400I-243750J0D01*
G01*
X195156150Y-106262400D01*
G75*
G02*
X194912400Y-106018650I0J243750D01*
G01*
X194912400Y-105106150D01*
G75*
G02*
X195156150Y-104862400I243750J0D01*
G01*
X195643650Y-104862400D01*
G75*
G02*
X195887400Y-105106150I0J-243750D01*
G01*
G37*
G36*
G01*
X111053200Y-101369000D02*
X111053200Y-101069000D01*
G75*
G02*
X111203200Y-100919000I150000J0D01*
G01*
X112853200Y-100919000D01*
G75*
G02*
X113003200Y-101069000I0J-150000D01*
G01*
X113003200Y-101369000D01*
G75*
G02*
X112853200Y-101519000I-150000J0D01*
G01*
X111203200Y-101519000D01*
G75*
G02*
X111053200Y-101369000I0J150000D01*
G01*
G37*
G36*
G01*
X111053200Y-102639000D02*
X111053200Y-102339000D01*
G75*
G02*
X111203200Y-102189000I150000J0D01*
G01*
X112853200Y-102189000D01*
G75*
G02*
X113003200Y-102339000I0J-150000D01*
G01*
X113003200Y-102639000D01*
G75*
G02*
X112853200Y-102789000I-150000J0D01*
G01*
X111203200Y-102789000D01*
G75*
G02*
X111053200Y-102639000I0J150000D01*
G01*
G37*
G36*
G01*
X111053200Y-103909000D02*
X111053200Y-103609000D01*
G75*
G02*
X111203200Y-103459000I150000J0D01*
G01*
X112853200Y-103459000D01*
G75*
G02*
X113003200Y-103609000I0J-150000D01*
G01*
X113003200Y-103909000D01*
G75*
G02*
X112853200Y-104059000I-150000J0D01*
G01*
X111203200Y-104059000D01*
G75*
G02*
X111053200Y-103909000I0J150000D01*
G01*
G37*
G36*
G01*
X111053200Y-105179000D02*
X111053200Y-104879000D01*
G75*
G02*
X111203200Y-104729000I150000J0D01*
G01*
X112853200Y-104729000D01*
G75*
G02*
X113003200Y-104879000I0J-150000D01*
G01*
X113003200Y-105179000D01*
G75*
G02*
X112853200Y-105329000I-150000J0D01*
G01*
X111203200Y-105329000D01*
G75*
G02*
X111053200Y-105179000I0J150000D01*
G01*
G37*
G36*
G01*
X116003200Y-105179000D02*
X116003200Y-104879000D01*
G75*
G02*
X116153200Y-104729000I150000J0D01*
G01*
X117803200Y-104729000D01*
G75*
G02*
X117953200Y-104879000I0J-150000D01*
G01*
X117953200Y-105179000D01*
G75*
G02*
X117803200Y-105329000I-150000J0D01*
G01*
X116153200Y-105329000D01*
G75*
G02*
X116003200Y-105179000I0J150000D01*
G01*
G37*
G36*
G01*
X116003200Y-103909000D02*
X116003200Y-103609000D01*
G75*
G02*
X116153200Y-103459000I150000J0D01*
G01*
X117803200Y-103459000D01*
G75*
G02*
X117953200Y-103609000I0J-150000D01*
G01*
X117953200Y-103909000D01*
G75*
G02*
X117803200Y-104059000I-150000J0D01*
G01*
X116153200Y-104059000D01*
G75*
G02*
X116003200Y-103909000I0J150000D01*
G01*
G37*
G36*
G01*
X116003200Y-102639000D02*
X116003200Y-102339000D01*
G75*
G02*
X116153200Y-102189000I150000J0D01*
G01*
X117803200Y-102189000D01*
G75*
G02*
X117953200Y-102339000I0J-150000D01*
G01*
X117953200Y-102639000D01*
G75*
G02*
X117803200Y-102789000I-150000J0D01*
G01*
X116153200Y-102789000D01*
G75*
G02*
X116003200Y-102639000I0J150000D01*
G01*
G37*
G36*
G01*
X116003200Y-101369000D02*
X116003200Y-101069000D01*
G75*
G02*
X116153200Y-100919000I150000J0D01*
G01*
X117803200Y-100919000D01*
G75*
G02*
X117953200Y-101069000I0J-150000D01*
G01*
X117953200Y-101369000D01*
G75*
G02*
X117803200Y-101519000I-150000J0D01*
G01*
X116153200Y-101519000D01*
G75*
G02*
X116003200Y-101369000I0J150000D01*
G01*
G37*
G36*
G01*
X100478000Y-111279800D02*
X100478000Y-111579800D01*
G75*
G02*
X100328000Y-111729800I-150000J0D01*
G01*
X98678000Y-111729800D01*
G75*
G02*
X98528000Y-111579800I0J150000D01*
G01*
X98528000Y-111279800D01*
G75*
G02*
X98678000Y-111129800I150000J0D01*
G01*
X100328000Y-111129800D01*
G75*
G02*
X100478000Y-111279800I0J-150000D01*
G01*
G37*
G36*
G01*
X100478000Y-110009800D02*
X100478000Y-110309800D01*
G75*
G02*
X100328000Y-110459800I-150000J0D01*
G01*
X98678000Y-110459800D01*
G75*
G02*
X98528000Y-110309800I0J150000D01*
G01*
X98528000Y-110009800D01*
G75*
G02*
X98678000Y-109859800I150000J0D01*
G01*
X100328000Y-109859800D01*
G75*
G02*
X100478000Y-110009800I0J-150000D01*
G01*
G37*
G36*
G01*
X100478000Y-108739800D02*
X100478000Y-109039800D01*
G75*
G02*
X100328000Y-109189800I-150000J0D01*
G01*
X98678000Y-109189800D01*
G75*
G02*
X98528000Y-109039800I0J150000D01*
G01*
X98528000Y-108739800D01*
G75*
G02*
X98678000Y-108589800I150000J0D01*
G01*
X100328000Y-108589800D01*
G75*
G02*
X100478000Y-108739800I0J-150000D01*
G01*
G37*
G36*
G01*
X100478000Y-107469800D02*
X100478000Y-107769800D01*
G75*
G02*
X100328000Y-107919800I-150000J0D01*
G01*
X98678000Y-107919800D01*
G75*
G02*
X98528000Y-107769800I0J150000D01*
G01*
X98528000Y-107469800D01*
G75*
G02*
X98678000Y-107319800I150000J0D01*
G01*
X100328000Y-107319800D01*
G75*
G02*
X100478000Y-107469800I0J-150000D01*
G01*
G37*
G36*
G01*
X95528000Y-107469800D02*
X95528000Y-107769800D01*
G75*
G02*
X95378000Y-107919800I-150000J0D01*
G01*
X93728000Y-107919800D01*
G75*
G02*
X93578000Y-107769800I0J150000D01*
G01*
X93578000Y-107469800D01*
G75*
G02*
X93728000Y-107319800I150000J0D01*
G01*
X95378000Y-107319800D01*
G75*
G02*
X95528000Y-107469800I0J-150000D01*
G01*
G37*
G36*
G01*
X95528000Y-108739800D02*
X95528000Y-109039800D01*
G75*
G02*
X95378000Y-109189800I-150000J0D01*
G01*
X93728000Y-109189800D01*
G75*
G02*
X93578000Y-109039800I0J150000D01*
G01*
X93578000Y-108739800D01*
G75*
G02*
X93728000Y-108589800I150000J0D01*
G01*
X95378000Y-108589800D01*
G75*
G02*
X95528000Y-108739800I0J-150000D01*
G01*
G37*
G36*
G01*
X95528000Y-110009800D02*
X95528000Y-110309800D01*
G75*
G02*
X95378000Y-110459800I-150000J0D01*
G01*
X93728000Y-110459800D01*
G75*
G02*
X93578000Y-110309800I0J150000D01*
G01*
X93578000Y-110009800D01*
G75*
G02*
X93728000Y-109859800I150000J0D01*
G01*
X95378000Y-109859800D01*
G75*
G02*
X95528000Y-110009800I0J-150000D01*
G01*
G37*
G36*
G01*
X95528000Y-111279800D02*
X95528000Y-111579800D01*
G75*
G02*
X95378000Y-111729800I-150000J0D01*
G01*
X93728000Y-111729800D01*
G75*
G02*
X93578000Y-111579800I0J150000D01*
G01*
X93578000Y-111279800D01*
G75*
G02*
X93728000Y-111129800I150000J0D01*
G01*
X95378000Y-111129800D01*
G75*
G02*
X95528000Y-111279800I0J-150000D01*
G01*
G37*
G36*
G01*
X135587600Y-97652200D02*
X135887600Y-97652200D01*
G75*
G02*
X136037600Y-97802200I0J-150000D01*
G01*
X136037600Y-99552200D01*
G75*
G02*
X135887600Y-99702200I-150000J0D01*
G01*
X135587600Y-99702200D01*
G75*
G02*
X135437600Y-99552200I0J150000D01*
G01*
X135437600Y-97802200D01*
G75*
G02*
X135587600Y-97652200I150000J0D01*
G01*
G37*
G36*
G01*
X134317600Y-97652200D02*
X134617600Y-97652200D01*
G75*
G02*
X134767600Y-97802200I0J-150000D01*
G01*
X134767600Y-99552200D01*
G75*
G02*
X134617600Y-99702200I-150000J0D01*
G01*
X134317600Y-99702200D01*
G75*
G02*
X134167600Y-99552200I0J150000D01*
G01*
X134167600Y-97802200D01*
G75*
G02*
X134317600Y-97652200I150000J0D01*
G01*
G37*
G36*
G01*
X133047600Y-97652200D02*
X133347600Y-97652200D01*
G75*
G02*
X133497600Y-97802200I0J-150000D01*
G01*
X133497600Y-99552200D01*
G75*
G02*
X133347600Y-99702200I-150000J0D01*
G01*
X133047600Y-99702200D01*
G75*
G02*
X132897600Y-99552200I0J150000D01*
G01*
X132897600Y-97802200D01*
G75*
G02*
X133047600Y-97652200I150000J0D01*
G01*
G37*
G36*
G01*
X131777600Y-97652200D02*
X132077600Y-97652200D01*
G75*
G02*
X132227600Y-97802200I0J-150000D01*
G01*
X132227600Y-99552200D01*
G75*
G02*
X132077600Y-99702200I-150000J0D01*
G01*
X131777600Y-99702200D01*
G75*
G02*
X131627600Y-99552200I0J150000D01*
G01*
X131627600Y-97802200D01*
G75*
G02*
X131777600Y-97652200I150000J0D01*
G01*
G37*
G36*
G01*
X130507600Y-97652200D02*
X130807600Y-97652200D01*
G75*
G02*
X130957600Y-97802200I0J-150000D01*
G01*
X130957600Y-99552200D01*
G75*
G02*
X130807600Y-99702200I-150000J0D01*
G01*
X130507600Y-99702200D01*
G75*
G02*
X130357600Y-99552200I0J150000D01*
G01*
X130357600Y-97802200D01*
G75*
G02*
X130507600Y-97652200I150000J0D01*
G01*
G37*
G36*
G01*
X129237600Y-97652200D02*
X129537600Y-97652200D01*
G75*
G02*
X129687600Y-97802200I0J-150000D01*
G01*
X129687600Y-99552200D01*
G75*
G02*
X129537600Y-99702200I-150000J0D01*
G01*
X129237600Y-99702200D01*
G75*
G02*
X129087600Y-99552200I0J150000D01*
G01*
X129087600Y-97802200D01*
G75*
G02*
X129237600Y-97652200I150000J0D01*
G01*
G37*
G36*
G01*
X127967600Y-97652200D02*
X128267600Y-97652200D01*
G75*
G02*
X128417600Y-97802200I0J-150000D01*
G01*
X128417600Y-99552200D01*
G75*
G02*
X128267600Y-99702200I-150000J0D01*
G01*
X127967600Y-99702200D01*
G75*
G02*
X127817600Y-99552200I0J150000D01*
G01*
X127817600Y-97802200D01*
G75*
G02*
X127967600Y-97652200I150000J0D01*
G01*
G37*
G36*
G01*
X126697600Y-97652200D02*
X126997600Y-97652200D01*
G75*
G02*
X127147600Y-97802200I0J-150000D01*
G01*
X127147600Y-99552200D01*
G75*
G02*
X126997600Y-99702200I-150000J0D01*
G01*
X126697600Y-99702200D01*
G75*
G02*
X126547600Y-99552200I0J150000D01*
G01*
X126547600Y-97802200D01*
G75*
G02*
X126697600Y-97652200I150000J0D01*
G01*
G37*
G36*
G01*
X126697600Y-106952200D02*
X126997600Y-106952200D01*
G75*
G02*
X127147600Y-107102200I0J-150000D01*
G01*
X127147600Y-108852200D01*
G75*
G02*
X126997600Y-109002200I-150000J0D01*
G01*
X126697600Y-109002200D01*
G75*
G02*
X126547600Y-108852200I0J150000D01*
G01*
X126547600Y-107102200D01*
G75*
G02*
X126697600Y-106952200I150000J0D01*
G01*
G37*
G36*
G01*
X127967600Y-106952200D02*
X128267600Y-106952200D01*
G75*
G02*
X128417600Y-107102200I0J-150000D01*
G01*
X128417600Y-108852200D01*
G75*
G02*
X128267600Y-109002200I-150000J0D01*
G01*
X127967600Y-109002200D01*
G75*
G02*
X127817600Y-108852200I0J150000D01*
G01*
X127817600Y-107102200D01*
G75*
G02*
X127967600Y-106952200I150000J0D01*
G01*
G37*
G36*
G01*
X129237600Y-106952200D02*
X129537600Y-106952200D01*
G75*
G02*
X129687600Y-107102200I0J-150000D01*
G01*
X129687600Y-108852200D01*
G75*
G02*
X129537600Y-109002200I-150000J0D01*
G01*
X129237600Y-109002200D01*
G75*
G02*
X129087600Y-108852200I0J150000D01*
G01*
X129087600Y-107102200D01*
G75*
G02*
X129237600Y-106952200I150000J0D01*
G01*
G37*
G36*
G01*
X130507600Y-106952200D02*
X130807600Y-106952200D01*
G75*
G02*
X130957600Y-107102200I0J-150000D01*
G01*
X130957600Y-108852200D01*
G75*
G02*
X130807600Y-109002200I-150000J0D01*
G01*
X130507600Y-109002200D01*
G75*
G02*
X130357600Y-108852200I0J150000D01*
G01*
X130357600Y-107102200D01*
G75*
G02*
X130507600Y-106952200I150000J0D01*
G01*
G37*
G36*
G01*
X131777600Y-106952200D02*
X132077600Y-106952200D01*
G75*
G02*
X132227600Y-107102200I0J-150000D01*
G01*
X132227600Y-108852200D01*
G75*
G02*
X132077600Y-109002200I-150000J0D01*
G01*
X131777600Y-109002200D01*
G75*
G02*
X131627600Y-108852200I0J150000D01*
G01*
X131627600Y-107102200D01*
G75*
G02*
X131777600Y-106952200I150000J0D01*
G01*
G37*
G36*
G01*
X133047600Y-106952200D02*
X133347600Y-106952200D01*
G75*
G02*
X133497600Y-107102200I0J-150000D01*
G01*
X133497600Y-108852200D01*
G75*
G02*
X133347600Y-109002200I-150000J0D01*
G01*
X133047600Y-109002200D01*
G75*
G02*
X132897600Y-108852200I0J150000D01*
G01*
X132897600Y-107102200D01*
G75*
G02*
X133047600Y-106952200I150000J0D01*
G01*
G37*
G36*
G01*
X134317600Y-106952200D02*
X134617600Y-106952200D01*
G75*
G02*
X134767600Y-107102200I0J-150000D01*
G01*
X134767600Y-108852200D01*
G75*
G02*
X134617600Y-109002200I-150000J0D01*
G01*
X134317600Y-109002200D01*
G75*
G02*
X134167600Y-108852200I0J150000D01*
G01*
X134167600Y-107102200D01*
G75*
G02*
X134317600Y-106952200I150000J0D01*
G01*
G37*
G36*
G01*
X135587600Y-106952200D02*
X135887600Y-106952200D01*
G75*
G02*
X136037600Y-107102200I0J-150000D01*
G01*
X136037600Y-108852200D01*
G75*
G02*
X135887600Y-109002200I-150000J0D01*
G01*
X135587600Y-109002200D01*
G75*
G02*
X135437600Y-108852200I0J150000D01*
G01*
X135437600Y-107102200D01*
G75*
G02*
X135587600Y-106952200I150000J0D01*
G01*
G37*
D13*
X115620800Y-117602400D03*
D14*
X115620800Y-111302400D03*
X113320800Y-111302400D03*
X117920800Y-111302400D03*
G36*
G01*
X149557800Y-112387000D02*
X149557800Y-112137000D01*
G75*
G02*
X149682800Y-112012000I125000J0D01*
G01*
X150932800Y-112012000D01*
G75*
G02*
X151057800Y-112137000I0J-125000D01*
G01*
X151057800Y-112387000D01*
G75*
G02*
X150932800Y-112512000I-125000J0D01*
G01*
X149682800Y-112512000D01*
G75*
G02*
X149557800Y-112387000I0J125000D01*
G01*
G37*
G36*
G01*
X149557800Y-113187000D02*
X149557800Y-112937000D01*
G75*
G02*
X149682800Y-112812000I125000J0D01*
G01*
X150932800Y-112812000D01*
G75*
G02*
X151057800Y-112937000I0J-125000D01*
G01*
X151057800Y-113187000D01*
G75*
G02*
X150932800Y-113312000I-125000J0D01*
G01*
X149682800Y-113312000D01*
G75*
G02*
X149557800Y-113187000I0J125000D01*
G01*
G37*
G36*
G01*
X149557800Y-113987000D02*
X149557800Y-113737000D01*
G75*
G02*
X149682800Y-113612000I125000J0D01*
G01*
X150932800Y-113612000D01*
G75*
G02*
X151057800Y-113737000I0J-125000D01*
G01*
X151057800Y-113987000D01*
G75*
G02*
X150932800Y-114112000I-125000J0D01*
G01*
X149682800Y-114112000D01*
G75*
G02*
X149557800Y-113987000I0J125000D01*
G01*
G37*
G36*
G01*
X149557800Y-114787000D02*
X149557800Y-114537000D01*
G75*
G02*
X149682800Y-114412000I125000J0D01*
G01*
X150932800Y-114412000D01*
G75*
G02*
X151057800Y-114537000I0J-125000D01*
G01*
X151057800Y-114787000D01*
G75*
G02*
X150932800Y-114912000I-125000J0D01*
G01*
X149682800Y-114912000D01*
G75*
G02*
X149557800Y-114787000I0J125000D01*
G01*
G37*
G36*
G01*
X149557800Y-115587000D02*
X149557800Y-115337000D01*
G75*
G02*
X149682800Y-115212000I125000J0D01*
G01*
X150932800Y-115212000D01*
G75*
G02*
X151057800Y-115337000I0J-125000D01*
G01*
X151057800Y-115587000D01*
G75*
G02*
X150932800Y-115712000I-125000J0D01*
G01*
X149682800Y-115712000D01*
G75*
G02*
X149557800Y-115587000I0J125000D01*
G01*
G37*
G36*
G01*
X149557800Y-116387000D02*
X149557800Y-116137000D01*
G75*
G02*
X149682800Y-116012000I125000J0D01*
G01*
X150932800Y-116012000D01*
G75*
G02*
X151057800Y-116137000I0J-125000D01*
G01*
X151057800Y-116387000D01*
G75*
G02*
X150932800Y-116512000I-125000J0D01*
G01*
X149682800Y-116512000D01*
G75*
G02*
X149557800Y-116387000I0J125000D01*
G01*
G37*
G36*
G01*
X149557800Y-117187000D02*
X149557800Y-116937000D01*
G75*
G02*
X149682800Y-116812000I125000J0D01*
G01*
X150932800Y-116812000D01*
G75*
G02*
X151057800Y-116937000I0J-125000D01*
G01*
X151057800Y-117187000D01*
G75*
G02*
X150932800Y-117312000I-125000J0D01*
G01*
X149682800Y-117312000D01*
G75*
G02*
X149557800Y-117187000I0J125000D01*
G01*
G37*
G36*
G01*
X149557800Y-117987000D02*
X149557800Y-117737000D01*
G75*
G02*
X149682800Y-117612000I125000J0D01*
G01*
X150932800Y-117612000D01*
G75*
G02*
X151057800Y-117737000I0J-125000D01*
G01*
X151057800Y-117987000D01*
G75*
G02*
X150932800Y-118112000I-125000J0D01*
G01*
X149682800Y-118112000D01*
G75*
G02*
X149557800Y-117987000I0J125000D01*
G01*
G37*
G36*
G01*
X151432800Y-119862000D02*
X151432800Y-118612000D01*
G75*
G02*
X151557800Y-118487000I125000J0D01*
G01*
X151807800Y-118487000D01*
G75*
G02*
X151932800Y-118612000I0J-125000D01*
G01*
X151932800Y-119862000D01*
G75*
G02*
X151807800Y-119987000I-125000J0D01*
G01*
X151557800Y-119987000D01*
G75*
G02*
X151432800Y-119862000I0J125000D01*
G01*
G37*
G36*
G01*
X152232800Y-119862000D02*
X152232800Y-118612000D01*
G75*
G02*
X152357800Y-118487000I125000J0D01*
G01*
X152607800Y-118487000D01*
G75*
G02*
X152732800Y-118612000I0J-125000D01*
G01*
X152732800Y-119862000D01*
G75*
G02*
X152607800Y-119987000I-125000J0D01*
G01*
X152357800Y-119987000D01*
G75*
G02*
X152232800Y-119862000I0J125000D01*
G01*
G37*
G36*
G01*
X153032800Y-119862000D02*
X153032800Y-118612000D01*
G75*
G02*
X153157800Y-118487000I125000J0D01*
G01*
X153407800Y-118487000D01*
G75*
G02*
X153532800Y-118612000I0J-125000D01*
G01*
X153532800Y-119862000D01*
G75*
G02*
X153407800Y-119987000I-125000J0D01*
G01*
X153157800Y-119987000D01*
G75*
G02*
X153032800Y-119862000I0J125000D01*
G01*
G37*
G36*
G01*
X153832800Y-119862000D02*
X153832800Y-118612000D01*
G75*
G02*
X153957800Y-118487000I125000J0D01*
G01*
X154207800Y-118487000D01*
G75*
G02*
X154332800Y-118612000I0J-125000D01*
G01*
X154332800Y-119862000D01*
G75*
G02*
X154207800Y-119987000I-125000J0D01*
G01*
X153957800Y-119987000D01*
G75*
G02*
X153832800Y-119862000I0J125000D01*
G01*
G37*
G36*
G01*
X154632800Y-119862000D02*
X154632800Y-118612000D01*
G75*
G02*
X154757800Y-118487000I125000J0D01*
G01*
X155007800Y-118487000D01*
G75*
G02*
X155132800Y-118612000I0J-125000D01*
G01*
X155132800Y-119862000D01*
G75*
G02*
X155007800Y-119987000I-125000J0D01*
G01*
X154757800Y-119987000D01*
G75*
G02*
X154632800Y-119862000I0J125000D01*
G01*
G37*
G36*
G01*
X155432800Y-119862000D02*
X155432800Y-118612000D01*
G75*
G02*
X155557800Y-118487000I125000J0D01*
G01*
X155807800Y-118487000D01*
G75*
G02*
X155932800Y-118612000I0J-125000D01*
G01*
X155932800Y-119862000D01*
G75*
G02*
X155807800Y-119987000I-125000J0D01*
G01*
X155557800Y-119987000D01*
G75*
G02*
X155432800Y-119862000I0J125000D01*
G01*
G37*
G36*
G01*
X156232800Y-119862000D02*
X156232800Y-118612000D01*
G75*
G02*
X156357800Y-118487000I125000J0D01*
G01*
X156607800Y-118487000D01*
G75*
G02*
X156732800Y-118612000I0J-125000D01*
G01*
X156732800Y-119862000D01*
G75*
G02*
X156607800Y-119987000I-125000J0D01*
G01*
X156357800Y-119987000D01*
G75*
G02*
X156232800Y-119862000I0J125000D01*
G01*
G37*
G36*
G01*
X157032800Y-119862000D02*
X157032800Y-118612000D01*
G75*
G02*
X157157800Y-118487000I125000J0D01*
G01*
X157407800Y-118487000D01*
G75*
G02*
X157532800Y-118612000I0J-125000D01*
G01*
X157532800Y-119862000D01*
G75*
G02*
X157407800Y-119987000I-125000J0D01*
G01*
X157157800Y-119987000D01*
G75*
G02*
X157032800Y-119862000I0J125000D01*
G01*
G37*
G36*
G01*
X157907800Y-117987000D02*
X157907800Y-117737000D01*
G75*
G02*
X158032800Y-117612000I125000J0D01*
G01*
X159282800Y-117612000D01*
G75*
G02*
X159407800Y-117737000I0J-125000D01*
G01*
X159407800Y-117987000D01*
G75*
G02*
X159282800Y-118112000I-125000J0D01*
G01*
X158032800Y-118112000D01*
G75*
G02*
X157907800Y-117987000I0J125000D01*
G01*
G37*
G36*
G01*
X157907800Y-117187000D02*
X157907800Y-116937000D01*
G75*
G02*
X158032800Y-116812000I125000J0D01*
G01*
X159282800Y-116812000D01*
G75*
G02*
X159407800Y-116937000I0J-125000D01*
G01*
X159407800Y-117187000D01*
G75*
G02*
X159282800Y-117312000I-125000J0D01*
G01*
X158032800Y-117312000D01*
G75*
G02*
X157907800Y-117187000I0J125000D01*
G01*
G37*
G36*
G01*
X157907800Y-116387000D02*
X157907800Y-116137000D01*
G75*
G02*
X158032800Y-116012000I125000J0D01*
G01*
X159282800Y-116012000D01*
G75*
G02*
X159407800Y-116137000I0J-125000D01*
G01*
X159407800Y-116387000D01*
G75*
G02*
X159282800Y-116512000I-125000J0D01*
G01*
X158032800Y-116512000D01*
G75*
G02*
X157907800Y-116387000I0J125000D01*
G01*
G37*
G36*
G01*
X157907800Y-115587000D02*
X157907800Y-115337000D01*
G75*
G02*
X158032800Y-115212000I125000J0D01*
G01*
X159282800Y-115212000D01*
G75*
G02*
X159407800Y-115337000I0J-125000D01*
G01*
X159407800Y-115587000D01*
G75*
G02*
X159282800Y-115712000I-125000J0D01*
G01*
X158032800Y-115712000D01*
G75*
G02*
X157907800Y-115587000I0J125000D01*
G01*
G37*
G36*
G01*
X157907800Y-114787000D02*
X157907800Y-114537000D01*
G75*
G02*
X158032800Y-114412000I125000J0D01*
G01*
X159282800Y-114412000D01*
G75*
G02*
X159407800Y-114537000I0J-125000D01*
G01*
X159407800Y-114787000D01*
G75*
G02*
X159282800Y-114912000I-125000J0D01*
G01*
X158032800Y-114912000D01*
G75*
G02*
X157907800Y-114787000I0J125000D01*
G01*
G37*
G36*
G01*
X157907800Y-113987000D02*
X157907800Y-113737000D01*
G75*
G02*
X158032800Y-113612000I125000J0D01*
G01*
X159282800Y-113612000D01*
G75*
G02*
X159407800Y-113737000I0J-125000D01*
G01*
X159407800Y-113987000D01*
G75*
G02*
X159282800Y-114112000I-125000J0D01*
G01*
X158032800Y-114112000D01*
G75*
G02*
X157907800Y-113987000I0J125000D01*
G01*
G37*
G36*
G01*
X157907800Y-113187000D02*
X157907800Y-112937000D01*
G75*
G02*
X158032800Y-112812000I125000J0D01*
G01*
X159282800Y-112812000D01*
G75*
G02*
X159407800Y-112937000I0J-125000D01*
G01*
X159407800Y-113187000D01*
G75*
G02*
X159282800Y-113312000I-125000J0D01*
G01*
X158032800Y-113312000D01*
G75*
G02*
X157907800Y-113187000I0J125000D01*
G01*
G37*
G36*
G01*
X157907800Y-112387000D02*
X157907800Y-112137000D01*
G75*
G02*
X158032800Y-112012000I125000J0D01*
G01*
X159282800Y-112012000D01*
G75*
G02*
X159407800Y-112137000I0J-125000D01*
G01*
X159407800Y-112387000D01*
G75*
G02*
X159282800Y-112512000I-125000J0D01*
G01*
X158032800Y-112512000D01*
G75*
G02*
X157907800Y-112387000I0J125000D01*
G01*
G37*
G36*
G01*
X157032800Y-111512000D02*
X157032800Y-110262000D01*
G75*
G02*
X157157800Y-110137000I125000J0D01*
G01*
X157407800Y-110137000D01*
G75*
G02*
X157532800Y-110262000I0J-125000D01*
G01*
X157532800Y-111512000D01*
G75*
G02*
X157407800Y-111637000I-125000J0D01*
G01*
X157157800Y-111637000D01*
G75*
G02*
X157032800Y-111512000I0J125000D01*
G01*
G37*
G36*
G01*
X156232800Y-111512000D02*
X156232800Y-110262000D01*
G75*
G02*
X156357800Y-110137000I125000J0D01*
G01*
X156607800Y-110137000D01*
G75*
G02*
X156732800Y-110262000I0J-125000D01*
G01*
X156732800Y-111512000D01*
G75*
G02*
X156607800Y-111637000I-125000J0D01*
G01*
X156357800Y-111637000D01*
G75*
G02*
X156232800Y-111512000I0J125000D01*
G01*
G37*
G36*
G01*
X155432800Y-111512000D02*
X155432800Y-110262000D01*
G75*
G02*
X155557800Y-110137000I125000J0D01*
G01*
X155807800Y-110137000D01*
G75*
G02*
X155932800Y-110262000I0J-125000D01*
G01*
X155932800Y-111512000D01*
G75*
G02*
X155807800Y-111637000I-125000J0D01*
G01*
X155557800Y-111637000D01*
G75*
G02*
X155432800Y-111512000I0J125000D01*
G01*
G37*
G36*
G01*
X154632800Y-111512000D02*
X154632800Y-110262000D01*
G75*
G02*
X154757800Y-110137000I125000J0D01*
G01*
X155007800Y-110137000D01*
G75*
G02*
X155132800Y-110262000I0J-125000D01*
G01*
X155132800Y-111512000D01*
G75*
G02*
X155007800Y-111637000I-125000J0D01*
G01*
X154757800Y-111637000D01*
G75*
G02*
X154632800Y-111512000I0J125000D01*
G01*
G37*
G36*
G01*
X153832800Y-111512000D02*
X153832800Y-110262000D01*
G75*
G02*
X153957800Y-110137000I125000J0D01*
G01*
X154207800Y-110137000D01*
G75*
G02*
X154332800Y-110262000I0J-125000D01*
G01*
X154332800Y-111512000D01*
G75*
G02*
X154207800Y-111637000I-125000J0D01*
G01*
X153957800Y-111637000D01*
G75*
G02*
X153832800Y-111512000I0J125000D01*
G01*
G37*
G36*
G01*
X153032800Y-111512000D02*
X153032800Y-110262000D01*
G75*
G02*
X153157800Y-110137000I125000J0D01*
G01*
X153407800Y-110137000D01*
G75*
G02*
X153532800Y-110262000I0J-125000D01*
G01*
X153532800Y-111512000D01*
G75*
G02*
X153407800Y-111637000I-125000J0D01*
G01*
X153157800Y-111637000D01*
G75*
G02*
X153032800Y-111512000I0J125000D01*
G01*
G37*
G36*
G01*
X152232800Y-111512000D02*
X152232800Y-110262000D01*
G75*
G02*
X152357800Y-110137000I125000J0D01*
G01*
X152607800Y-110137000D01*
G75*
G02*
X152732800Y-110262000I0J-125000D01*
G01*
X152732800Y-111512000D01*
G75*
G02*
X152607800Y-111637000I-125000J0D01*
G01*
X152357800Y-111637000D01*
G75*
G02*
X152232800Y-111512000I0J125000D01*
G01*
G37*
G36*
G01*
X151432800Y-111512000D02*
X151432800Y-110262000D01*
G75*
G02*
X151557800Y-110137000I125000J0D01*
G01*
X151807800Y-110137000D01*
G75*
G02*
X151932800Y-110262000I0J-125000D01*
G01*
X151932800Y-111512000D01*
G75*
G02*
X151807800Y-111637000I-125000J0D01*
G01*
X151557800Y-111637000D01*
G75*
G02*
X151432800Y-111512000I0J125000D01*
G01*
G37*
D15*
X149644100Y-84912200D03*
X166644100Y-84912200D03*
G36*
G01*
X196192200Y-98044950D02*
X196192200Y-98957450D01*
G75*
G02*
X195948450Y-99201200I-243750J0D01*
G01*
X195460950Y-99201200D01*
G75*
G02*
X195217200Y-98957450I0J243750D01*
G01*
X195217200Y-98044950D01*
G75*
G02*
X195460950Y-97801200I243750J0D01*
G01*
X195948450Y-97801200D01*
G75*
G02*
X196192200Y-98044950I0J-243750D01*
G01*
G37*
G36*
G01*
X194317200Y-98044950D02*
X194317200Y-98957450D01*
G75*
G02*
X194073450Y-99201200I-243750J0D01*
G01*
X193585950Y-99201200D01*
G75*
G02*
X193342200Y-98957450I0J243750D01*
G01*
X193342200Y-98044950D01*
G75*
G02*
X193585950Y-97801200I243750J0D01*
G01*
X194073450Y-97801200D01*
G75*
G02*
X194317200Y-98044950I0J-243750D01*
G01*
G37*
D16*
X203182400Y-108036400D03*
X203182400Y-107086400D03*
X203182400Y-106136400D03*
X200982400Y-106136400D03*
X200982400Y-108036400D03*
G36*
G01*
X211381400Y-118923750D02*
X211381400Y-119836250D01*
G75*
G02*
X211137650Y-120080000I-243750J0D01*
G01*
X210650150Y-120080000D01*
G75*
G02*
X210406400Y-119836250I0J243750D01*
G01*
X210406400Y-118923750D01*
G75*
G02*
X210650150Y-118680000I243750J0D01*
G01*
X211137650Y-118680000D01*
G75*
G02*
X211381400Y-118923750I0J-243750D01*
G01*
G37*
G36*
G01*
X209506400Y-118923750D02*
X209506400Y-119836250D01*
G75*
G02*
X209262650Y-120080000I-243750J0D01*
G01*
X208775150Y-120080000D01*
G75*
G02*
X208531400Y-119836250I0J243750D01*
G01*
X208531400Y-118923750D01*
G75*
G02*
X208775150Y-118680000I243750J0D01*
G01*
X209262650Y-118680000D01*
G75*
G02*
X209506400Y-118923750I0J-243750D01*
G01*
G37*
G36*
G01*
X208531400Y-113841850D02*
X208531400Y-112929350D01*
G75*
G02*
X208775150Y-112685600I243750J0D01*
G01*
X209262650Y-112685600D01*
G75*
G02*
X209506400Y-112929350I0J-243750D01*
G01*
X209506400Y-113841850D01*
G75*
G02*
X209262650Y-114085600I-243750J0D01*
G01*
X208775150Y-114085600D01*
G75*
G02*
X208531400Y-113841850I0J243750D01*
G01*
G37*
G36*
G01*
X210406400Y-113841850D02*
X210406400Y-112929350D01*
G75*
G02*
X210650150Y-112685600I243750J0D01*
G01*
X211137650Y-112685600D01*
G75*
G02*
X211381400Y-112929350I0J-243750D01*
G01*
X211381400Y-113841850D01*
G75*
G02*
X211137650Y-114085600I-243750J0D01*
G01*
X210650150Y-114085600D01*
G75*
G02*
X210406400Y-113841850I0J243750D01*
G01*
G37*
G36*
G01*
X139134000Y-122528650D02*
X139134000Y-121616150D01*
G75*
G02*
X139377750Y-121372400I243750J0D01*
G01*
X139865250Y-121372400D01*
G75*
G02*
X140109000Y-121616150I0J-243750D01*
G01*
X140109000Y-122528650D01*
G75*
G02*
X139865250Y-122772400I-243750J0D01*
G01*
X139377750Y-122772400D01*
G75*
G02*
X139134000Y-122528650I0J243750D01*
G01*
G37*
G36*
G01*
X137259000Y-122528650D02*
X137259000Y-121616150D01*
G75*
G02*
X137502750Y-121372400I243750J0D01*
G01*
X137990250Y-121372400D01*
G75*
G02*
X138234000Y-121616150I0J-243750D01*
G01*
X138234000Y-122528650D01*
G75*
G02*
X137990250Y-122772400I-243750J0D01*
G01*
X137502750Y-122772400D01*
G75*
G02*
X137259000Y-122528650I0J243750D01*
G01*
G37*
G36*
G01*
X143665000Y-121616150D02*
X143665000Y-122528650D01*
G75*
G02*
X143421250Y-122772400I-243750J0D01*
G01*
X142933750Y-122772400D01*
G75*
G02*
X142690000Y-122528650I0J243750D01*
G01*
X142690000Y-121616150D01*
G75*
G02*
X142933750Y-121372400I243750J0D01*
G01*
X143421250Y-121372400D01*
G75*
G02*
X143665000Y-121616150I0J-243750D01*
G01*
G37*
G36*
G01*
X141790000Y-121616150D02*
X141790000Y-122528650D01*
G75*
G02*
X141546250Y-122772400I-243750J0D01*
G01*
X141058750Y-122772400D01*
G75*
G02*
X140815000Y-122528650I0J243750D01*
G01*
X140815000Y-121616150D01*
G75*
G02*
X141058750Y-121372400I243750J0D01*
G01*
X141546250Y-121372400D01*
G75*
G02*
X141790000Y-121616150I0J-243750D01*
G01*
G37*
G36*
G01*
X111606650Y-126545400D02*
X110694150Y-126545400D01*
G75*
G02*
X110450400Y-126301650I0J243750D01*
G01*
X110450400Y-125814150D01*
G75*
G02*
X110694150Y-125570400I243750J0D01*
G01*
X111606650Y-125570400D01*
G75*
G02*
X111850400Y-125814150I0J-243750D01*
G01*
X111850400Y-126301650D01*
G75*
G02*
X111606650Y-126545400I-243750J0D01*
G01*
G37*
G36*
G01*
X111606650Y-124670400D02*
X110694150Y-124670400D01*
G75*
G02*
X110450400Y-124426650I0J243750D01*
G01*
X110450400Y-123939150D01*
G75*
G02*
X110694150Y-123695400I243750J0D01*
G01*
X111606650Y-123695400D01*
G75*
G02*
X111850400Y-123939150I0J-243750D01*
G01*
X111850400Y-124426650D01*
G75*
G02*
X111606650Y-124670400I-243750J0D01*
G01*
G37*
G36*
G01*
X133603050Y-122689200D02*
X132690550Y-122689200D01*
G75*
G02*
X132446800Y-122445450I0J243750D01*
G01*
X132446800Y-121957950D01*
G75*
G02*
X132690550Y-121714200I243750J0D01*
G01*
X133603050Y-121714200D01*
G75*
G02*
X133846800Y-121957950I0J-243750D01*
G01*
X133846800Y-122445450D01*
G75*
G02*
X133603050Y-122689200I-243750J0D01*
G01*
G37*
G36*
G01*
X133603050Y-124564200D02*
X132690550Y-124564200D01*
G75*
G02*
X132446800Y-124320450I0J243750D01*
G01*
X132446800Y-123832950D01*
G75*
G02*
X132690550Y-123589200I243750J0D01*
G01*
X133603050Y-123589200D01*
G75*
G02*
X133846800Y-123832950I0J-243750D01*
G01*
X133846800Y-124320450D01*
G75*
G02*
X133603050Y-124564200I-243750J0D01*
G01*
G37*
G36*
G01*
X123544650Y-124513400D02*
X122632150Y-124513400D01*
G75*
G02*
X122388400Y-124269650I0J243750D01*
G01*
X122388400Y-123782150D01*
G75*
G02*
X122632150Y-123538400I243750J0D01*
G01*
X123544650Y-123538400D01*
G75*
G02*
X123788400Y-123782150I0J-243750D01*
G01*
X123788400Y-124269650D01*
G75*
G02*
X123544650Y-124513400I-243750J0D01*
G01*
G37*
G36*
G01*
X123544650Y-122638400D02*
X122632150Y-122638400D01*
G75*
G02*
X122388400Y-122394650I0J243750D01*
G01*
X122388400Y-121907150D01*
G75*
G02*
X122632150Y-121663400I243750J0D01*
G01*
X123544650Y-121663400D01*
G75*
G02*
X123788400Y-121907150I0J-243750D01*
G01*
X123788400Y-122394650D01*
G75*
G02*
X123544650Y-122638400I-243750J0D01*
G01*
G37*
D17*
X129352000Y-124139200D03*
X131252000Y-124139200D03*
X130302000Y-122139200D03*
X120243600Y-122088400D03*
X121193600Y-124088400D03*
X119293600Y-124088400D03*
G36*
G01*
X111606650Y-122481400D02*
X110694150Y-122481400D01*
G75*
G02*
X110450400Y-122237650I0J243750D01*
G01*
X110450400Y-121750150D01*
G75*
G02*
X110694150Y-121506400I243750J0D01*
G01*
X111606650Y-121506400D01*
G75*
G02*
X111850400Y-121750150I0J-243750D01*
G01*
X111850400Y-122237650D01*
G75*
G02*
X111606650Y-122481400I-243750J0D01*
G01*
G37*
G36*
G01*
X111606650Y-120606400D02*
X110694150Y-120606400D01*
G75*
G02*
X110450400Y-120362650I0J243750D01*
G01*
X110450400Y-119875150D01*
G75*
G02*
X110694150Y-119631400I243750J0D01*
G01*
X111606650Y-119631400D01*
G75*
G02*
X111850400Y-119875150I0J-243750D01*
G01*
X111850400Y-120362650D01*
G75*
G02*
X111606650Y-120606400I-243750J0D01*
G01*
G37*
G36*
G01*
X127913450Y-122689200D02*
X127000950Y-122689200D01*
G75*
G02*
X126757200Y-122445450I0J243750D01*
G01*
X126757200Y-121957950D01*
G75*
G02*
X127000950Y-121714200I243750J0D01*
G01*
X127913450Y-121714200D01*
G75*
G02*
X128157200Y-121957950I0J-243750D01*
G01*
X128157200Y-122445450D01*
G75*
G02*
X127913450Y-122689200I-243750J0D01*
G01*
G37*
G36*
G01*
X127913450Y-124564200D02*
X127000950Y-124564200D01*
G75*
G02*
X126757200Y-124320450I0J243750D01*
G01*
X126757200Y-123832950D01*
G75*
G02*
X127000950Y-123589200I243750J0D01*
G01*
X127913450Y-123589200D01*
G75*
G02*
X128157200Y-123832950I0J-243750D01*
G01*
X128157200Y-124320450D01*
G75*
G02*
X127913450Y-124564200I-243750J0D01*
G01*
G37*
G36*
G01*
X117855050Y-124513400D02*
X116942550Y-124513400D01*
G75*
G02*
X116698800Y-124269650I0J243750D01*
G01*
X116698800Y-123782150D01*
G75*
G02*
X116942550Y-123538400I243750J0D01*
G01*
X117855050Y-123538400D01*
G75*
G02*
X118098800Y-123782150I0J-243750D01*
G01*
X118098800Y-124269650D01*
G75*
G02*
X117855050Y-124513400I-243750J0D01*
G01*
G37*
G36*
G01*
X117855050Y-122638400D02*
X116942550Y-122638400D01*
G75*
G02*
X116698800Y-122394650I0J243750D01*
G01*
X116698800Y-121907150D01*
G75*
G02*
X116942550Y-121663400I243750J0D01*
G01*
X117855050Y-121663400D01*
G75*
G02*
X118098800Y-121907150I0J-243750D01*
G01*
X118098800Y-122394650D01*
G75*
G02*
X117855050Y-122638400I-243750J0D01*
G01*
G37*
G36*
G01*
X130752000Y-126491050D02*
X130752000Y-125578550D01*
G75*
G02*
X130995750Y-125334800I243750J0D01*
G01*
X131483250Y-125334800D01*
G75*
G02*
X131727000Y-125578550I0J-243750D01*
G01*
X131727000Y-126491050D01*
G75*
G02*
X131483250Y-126734800I-243750J0D01*
G01*
X130995750Y-126734800D01*
G75*
G02*
X130752000Y-126491050I0J243750D01*
G01*
G37*
G36*
G01*
X128877000Y-126491050D02*
X128877000Y-125578550D01*
G75*
G02*
X129120750Y-125334800I243750J0D01*
G01*
X129608250Y-125334800D01*
G75*
G02*
X129852000Y-125578550I0J-243750D01*
G01*
X129852000Y-126491050D01*
G75*
G02*
X129608250Y-126734800I-243750J0D01*
G01*
X129120750Y-126734800D01*
G75*
G02*
X128877000Y-126491050I0J243750D01*
G01*
G37*
G36*
G01*
X134773350Y-123589200D02*
X135685850Y-123589200D01*
G75*
G02*
X135929600Y-123832950I0J-243750D01*
G01*
X135929600Y-124320450D01*
G75*
G02*
X135685850Y-124564200I-243750J0D01*
G01*
X134773350Y-124564200D01*
G75*
G02*
X134529600Y-124320450I0J243750D01*
G01*
X134529600Y-123832950D01*
G75*
G02*
X134773350Y-123589200I243750J0D01*
G01*
G37*
G36*
G01*
X134773350Y-121714200D02*
X135685850Y-121714200D01*
G75*
G02*
X135929600Y-121957950I0J-243750D01*
G01*
X135929600Y-122445450D01*
G75*
G02*
X135685850Y-122689200I-243750J0D01*
G01*
X134773350Y-122689200D01*
G75*
G02*
X134529600Y-122445450I0J243750D01*
G01*
X134529600Y-121957950D01*
G75*
G02*
X134773350Y-121714200I243750J0D01*
G01*
G37*
G36*
G01*
X118818600Y-126440250D02*
X118818600Y-125527750D01*
G75*
G02*
X119062350Y-125284000I243750J0D01*
G01*
X119549850Y-125284000D01*
G75*
G02*
X119793600Y-125527750I0J-243750D01*
G01*
X119793600Y-126440250D01*
G75*
G02*
X119549850Y-126684000I-243750J0D01*
G01*
X119062350Y-126684000D01*
G75*
G02*
X118818600Y-126440250I0J243750D01*
G01*
G37*
G36*
G01*
X120693600Y-126440250D02*
X120693600Y-125527750D01*
G75*
G02*
X120937350Y-125284000I243750J0D01*
G01*
X121424850Y-125284000D01*
G75*
G02*
X121668600Y-125527750I0J-243750D01*
G01*
X121668600Y-126440250D01*
G75*
G02*
X121424850Y-126684000I-243750J0D01*
G01*
X120937350Y-126684000D01*
G75*
G02*
X120693600Y-126440250I0J243750D01*
G01*
G37*
G36*
G01*
X124714950Y-121714200D02*
X125627450Y-121714200D01*
G75*
G02*
X125871200Y-121957950I0J-243750D01*
G01*
X125871200Y-122445450D01*
G75*
G02*
X125627450Y-122689200I-243750J0D01*
G01*
X124714950Y-122689200D01*
G75*
G02*
X124471200Y-122445450I0J243750D01*
G01*
X124471200Y-121957950D01*
G75*
G02*
X124714950Y-121714200I243750J0D01*
G01*
G37*
G36*
G01*
X124714950Y-123589200D02*
X125627450Y-123589200D01*
G75*
G02*
X125871200Y-123832950I0J-243750D01*
G01*
X125871200Y-124320450D01*
G75*
G02*
X125627450Y-124564200I-243750J0D01*
G01*
X124714950Y-124564200D01*
G75*
G02*
X124471200Y-124320450I0J243750D01*
G01*
X124471200Y-123832950D01*
G75*
G02*
X124714950Y-123589200I243750J0D01*
G01*
G37*
D10*
X210750400Y-93675200D03*
X214750400Y-93675200D03*
M02*
