G04 #@! TF.GenerationSoftware,KiCad,Pcbnew,(5.1.6)-1*
G04 #@! TF.CreationDate,2021-05-26T15:33:52+02:00*
G04 #@! TF.ProjectId,PowerSupplyPCB,506f7765-7253-4757-9070-6c795043422e,0.1*
G04 #@! TF.SameCoordinates,Original*
G04 #@! TF.FileFunction,Soldermask,Bot*
G04 #@! TF.FilePolarity,Negative*
%FSLAX46Y46*%
G04 Gerber Fmt 4.6, Leading zero omitted, Abs format (unit mm)*
G04 Created by KiCad (PCBNEW (5.1.6)-1) date 2021-05-26 15:33:52*
%MOMM*%
%LPD*%
G01*
G04 APERTURE LIST*
%ADD10C,0.100000*%
G04 APERTURE END LIST*
D10*
G36*
X154178000Y-89204800D02*
G01*
X145338800Y-89204800D01*
X145338800Y-80568800D01*
X154178000Y-80568800D01*
X154178000Y-89204800D01*
G37*
X154178000Y-89204800D02*
X145338800Y-89204800D01*
X145338800Y-80568800D01*
X154178000Y-80568800D01*
X154178000Y-89204800D01*
G36*
X171196000Y-80568800D02*
G01*
X171196000Y-89306400D01*
X162001200Y-89306400D01*
X162001200Y-80670400D01*
X161950400Y-80518000D01*
X162001200Y-80568800D01*
X162001200Y-80518000D01*
X171196000Y-80568800D01*
G37*
X171196000Y-80568800D02*
X171196000Y-89306400D01*
X162001200Y-89306400D01*
X162001200Y-80670400D01*
X161950400Y-80518000D01*
X162001200Y-80568800D01*
X162001200Y-80518000D01*
X171196000Y-80568800D01*
G36*
X167792400Y-80518000D02*
G01*
X161950400Y-80518000D01*
X161950400Y-89357200D01*
X167741600Y-89357200D01*
X167741600Y-99314000D01*
X147878800Y-99314000D01*
X147878800Y-89255600D01*
X154228800Y-89255600D01*
X154228800Y-80518000D01*
X147878800Y-80518000D01*
X147878800Y-70510400D01*
X167792400Y-70510400D01*
X167792400Y-80518000D01*
G37*
X167792400Y-80518000D02*
X161950400Y-80518000D01*
X161950400Y-89357200D01*
X167741600Y-89357200D01*
X167741600Y-99314000D01*
X147878800Y-99314000D01*
X147878800Y-89255600D01*
X154228800Y-89255600D01*
X154228800Y-80518000D01*
X147878800Y-80518000D01*
X147878800Y-70510400D01*
X167792400Y-70510400D01*
X167792400Y-80518000D01*
G36*
X86181439Y-120204667D02*
G01*
X86495482Y-120267134D01*
X87087126Y-120512201D01*
X87619592Y-120867984D01*
X88072416Y-121320808D01*
X88428199Y-121853274D01*
X88673266Y-122444918D01*
X88673266Y-122444919D01*
X88798200Y-123073003D01*
X88798200Y-123713397D01*
X88735733Y-124027439D01*
X88673266Y-124341482D01*
X88428199Y-124933126D01*
X88072416Y-125465592D01*
X87619592Y-125918416D01*
X87087126Y-126274199D01*
X86495482Y-126519266D01*
X86181439Y-126581733D01*
X85867397Y-126644200D01*
X85227003Y-126644200D01*
X84912961Y-126581733D01*
X84598918Y-126519266D01*
X84007274Y-126274199D01*
X83474808Y-125918416D01*
X83021984Y-125465592D01*
X82666201Y-124933126D01*
X82421134Y-124341482D01*
X82358667Y-124027439D01*
X82296200Y-123713397D01*
X82296200Y-123073003D01*
X82421134Y-122444919D01*
X82421134Y-122444918D01*
X82666201Y-121853274D01*
X83021984Y-121320808D01*
X83474808Y-120867984D01*
X84007274Y-120512201D01*
X84598918Y-120267134D01*
X84912961Y-120204667D01*
X85227003Y-120142200D01*
X85867397Y-120142200D01*
X86181439Y-120204667D01*
G37*
G36*
X219277439Y-120103067D02*
G01*
X219591482Y-120165534D01*
X220183126Y-120410601D01*
X220583273Y-120677971D01*
X220710449Y-120762947D01*
X220715592Y-120766384D01*
X221168416Y-121219208D01*
X221524199Y-121751674D01*
X221763408Y-122329176D01*
X221769266Y-122343319D01*
X221894200Y-122971403D01*
X221894200Y-123611797D01*
X221868000Y-123743514D01*
X221769266Y-124239882D01*
X221524199Y-124831526D01*
X221168416Y-125363992D01*
X220715592Y-125816816D01*
X220183126Y-126172599D01*
X219591482Y-126417666D01*
X219277439Y-126480133D01*
X218963397Y-126542600D01*
X218323003Y-126542600D01*
X218008961Y-126480133D01*
X217694918Y-126417666D01*
X217103274Y-126172599D01*
X216570808Y-125816816D01*
X216117984Y-125363992D01*
X215762201Y-124831526D01*
X215517134Y-124239882D01*
X215418400Y-123743514D01*
X215392200Y-123611797D01*
X215392200Y-122971403D01*
X215517134Y-122343319D01*
X215522992Y-122329176D01*
X215762201Y-121751674D01*
X216117984Y-121219208D01*
X216570808Y-120766384D01*
X216575952Y-120762947D01*
X216703127Y-120677971D01*
X217103274Y-120410601D01*
X217694918Y-120165534D01*
X218008961Y-120103067D01*
X218323003Y-120040600D01*
X218963397Y-120040600D01*
X219277439Y-120103067D01*
G37*
G36*
X169049000Y-122363800D02*
G01*
X167247000Y-122363800D01*
X167247000Y-120561800D01*
X169049000Y-120561800D01*
X169049000Y-122363800D01*
G37*
G36*
X170801512Y-120566727D02*
G01*
X170950812Y-120596424D01*
X171114784Y-120664344D01*
X171262354Y-120762947D01*
X171387853Y-120888446D01*
X171486456Y-121036016D01*
X171554376Y-121199988D01*
X171589000Y-121374059D01*
X171589000Y-121551541D01*
X171554376Y-121725612D01*
X171486456Y-121889584D01*
X171387853Y-122037154D01*
X171262354Y-122162653D01*
X171114784Y-122261256D01*
X170950812Y-122329176D01*
X170801512Y-122358873D01*
X170776742Y-122363800D01*
X170599258Y-122363800D01*
X170574488Y-122358873D01*
X170425188Y-122329176D01*
X170261216Y-122261256D01*
X170113646Y-122162653D01*
X169988147Y-122037154D01*
X169889544Y-121889584D01*
X169821624Y-121725612D01*
X169787000Y-121551541D01*
X169787000Y-121374059D01*
X169821624Y-121199988D01*
X169889544Y-121036016D01*
X169988147Y-120888446D01*
X170113646Y-120762947D01*
X170261216Y-120664344D01*
X170425188Y-120596424D01*
X170574488Y-120566727D01*
X170599258Y-120561800D01*
X170776742Y-120561800D01*
X170801512Y-120566727D01*
G37*
G36*
X173341512Y-120566727D02*
G01*
X173490812Y-120596424D01*
X173654784Y-120664344D01*
X173802354Y-120762947D01*
X173927853Y-120888446D01*
X174026456Y-121036016D01*
X174094376Y-121199988D01*
X174129000Y-121374059D01*
X174129000Y-121551541D01*
X174094376Y-121725612D01*
X174026456Y-121889584D01*
X173927853Y-122037154D01*
X173802354Y-122162653D01*
X173654784Y-122261256D01*
X173490812Y-122329176D01*
X173341512Y-122358873D01*
X173316742Y-122363800D01*
X173139258Y-122363800D01*
X173114488Y-122358873D01*
X172965188Y-122329176D01*
X172801216Y-122261256D01*
X172653646Y-122162653D01*
X172528147Y-122037154D01*
X172429544Y-121889584D01*
X172361624Y-121725612D01*
X172327000Y-121551541D01*
X172327000Y-121374059D01*
X172361624Y-121199988D01*
X172429544Y-121036016D01*
X172528147Y-120888446D01*
X172653646Y-120762947D01*
X172801216Y-120664344D01*
X172965188Y-120596424D01*
X173114488Y-120566727D01*
X173139258Y-120561800D01*
X173316742Y-120561800D01*
X173341512Y-120566727D01*
G37*
G36*
X175881512Y-120566727D02*
G01*
X176030812Y-120596424D01*
X176194784Y-120664344D01*
X176342354Y-120762947D01*
X176467853Y-120888446D01*
X176566456Y-121036016D01*
X176634376Y-121199988D01*
X176669000Y-121374059D01*
X176669000Y-121551541D01*
X176634376Y-121725612D01*
X176566456Y-121889584D01*
X176467853Y-122037154D01*
X176342354Y-122162653D01*
X176194784Y-122261256D01*
X176030812Y-122329176D01*
X175881512Y-122358873D01*
X175856742Y-122363800D01*
X175679258Y-122363800D01*
X175654488Y-122358873D01*
X175505188Y-122329176D01*
X175341216Y-122261256D01*
X175193646Y-122162653D01*
X175068147Y-122037154D01*
X174969544Y-121889584D01*
X174901624Y-121725612D01*
X174867000Y-121551541D01*
X174867000Y-121374059D01*
X174901624Y-121199988D01*
X174969544Y-121036016D01*
X175068147Y-120888446D01*
X175193646Y-120762947D01*
X175341216Y-120664344D01*
X175505188Y-120596424D01*
X175654488Y-120566727D01*
X175679258Y-120561800D01*
X175856742Y-120561800D01*
X175881512Y-120566727D01*
G37*
G36*
X178421512Y-120566727D02*
G01*
X178570812Y-120596424D01*
X178734784Y-120664344D01*
X178882354Y-120762947D01*
X179007853Y-120888446D01*
X179106456Y-121036016D01*
X179174376Y-121199988D01*
X179209000Y-121374059D01*
X179209000Y-121551541D01*
X179174376Y-121725612D01*
X179106456Y-121889584D01*
X179007853Y-122037154D01*
X178882354Y-122162653D01*
X178734784Y-122261256D01*
X178570812Y-122329176D01*
X178421512Y-122358873D01*
X178396742Y-122363800D01*
X178219258Y-122363800D01*
X178194488Y-122358873D01*
X178045188Y-122329176D01*
X177881216Y-122261256D01*
X177733646Y-122162653D01*
X177608147Y-122037154D01*
X177509544Y-121889584D01*
X177441624Y-121725612D01*
X177407000Y-121551541D01*
X177407000Y-121374059D01*
X177441624Y-121199988D01*
X177509544Y-121036016D01*
X177608147Y-120888446D01*
X177733646Y-120762947D01*
X177881216Y-120664344D01*
X178045188Y-120596424D01*
X178194488Y-120566727D01*
X178219258Y-120561800D01*
X178396742Y-120561800D01*
X178421512Y-120566727D01*
G37*
G36*
X200318654Y-115663818D02*
G01*
X200673017Y-115810600D01*
X200691913Y-115818427D01*
X201027836Y-116042884D01*
X201313516Y-116328564D01*
X201476484Y-116572462D01*
X201537974Y-116664489D01*
X201692582Y-117037746D01*
X201771400Y-117433993D01*
X201771400Y-117838007D01*
X201692582Y-118234254D01*
X201570503Y-118528978D01*
X201537973Y-118607513D01*
X201313516Y-118943436D01*
X201027836Y-119229116D01*
X200691913Y-119453573D01*
X200691912Y-119453574D01*
X200691911Y-119453574D01*
X200318654Y-119608182D01*
X199922407Y-119687000D01*
X199518393Y-119687000D01*
X199122146Y-119608182D01*
X198748889Y-119453574D01*
X198748888Y-119453574D01*
X198748887Y-119453573D01*
X198412964Y-119229116D01*
X198127284Y-118943436D01*
X197902827Y-118607513D01*
X197870297Y-118528978D01*
X197748218Y-118234254D01*
X197669400Y-117838007D01*
X197669400Y-117433993D01*
X197748218Y-117037746D01*
X197902826Y-116664489D01*
X197964317Y-116572462D01*
X198127284Y-116328564D01*
X198412964Y-116042884D01*
X198748887Y-115818427D01*
X198767783Y-115810600D01*
X199122146Y-115663818D01*
X199518393Y-115585000D01*
X199922407Y-115585000D01*
X200318654Y-115663818D01*
G37*
G36*
X188318654Y-115663818D02*
G01*
X188673017Y-115810600D01*
X188691913Y-115818427D01*
X189027836Y-116042884D01*
X189313516Y-116328564D01*
X189476484Y-116572462D01*
X189537974Y-116664489D01*
X189692582Y-117037746D01*
X189771400Y-117433993D01*
X189771400Y-117838007D01*
X189692582Y-118234254D01*
X189570503Y-118528978D01*
X189537973Y-118607513D01*
X189313516Y-118943436D01*
X189027836Y-119229116D01*
X188691913Y-119453573D01*
X188691912Y-119453574D01*
X188691911Y-119453574D01*
X188318654Y-119608182D01*
X187922407Y-119687000D01*
X187518393Y-119687000D01*
X187122146Y-119608182D01*
X186748889Y-119453574D01*
X186748888Y-119453574D01*
X186748887Y-119453573D01*
X186412964Y-119229116D01*
X186127284Y-118943436D01*
X185902827Y-118607513D01*
X185870297Y-118528978D01*
X185748218Y-118234254D01*
X185669400Y-117838007D01*
X185669400Y-117433993D01*
X185748218Y-117037746D01*
X185902826Y-116664489D01*
X185964317Y-116572462D01*
X186127284Y-116328564D01*
X186412964Y-116042884D01*
X186748887Y-115818427D01*
X186767783Y-115810600D01*
X187122146Y-115663818D01*
X187518393Y-115585000D01*
X187922407Y-115585000D01*
X188318654Y-115663818D01*
G37*
G36*
X143289642Y-117136581D02*
G01*
X143435414Y-117196962D01*
X143435416Y-117196963D01*
X143566608Y-117284622D01*
X143678178Y-117396192D01*
X143752091Y-117506812D01*
X143765838Y-117527386D01*
X143826219Y-117673158D01*
X143857000Y-117827907D01*
X143857000Y-117985693D01*
X143826219Y-118140442D01*
X143787360Y-118234255D01*
X143765837Y-118286216D01*
X143678178Y-118417408D01*
X143566608Y-118528978D01*
X143435416Y-118616637D01*
X143435415Y-118616638D01*
X143435414Y-118616638D01*
X143289642Y-118677019D01*
X143134893Y-118707800D01*
X142977107Y-118707800D01*
X142822358Y-118677019D01*
X142676586Y-118616638D01*
X142676585Y-118616638D01*
X142676584Y-118616637D01*
X142545392Y-118528978D01*
X142433822Y-118417408D01*
X142346163Y-118286216D01*
X142324640Y-118234255D01*
X142285781Y-118140442D01*
X142255000Y-117985693D01*
X142255000Y-117827907D01*
X142285781Y-117673158D01*
X142346162Y-117527386D01*
X142359909Y-117506812D01*
X142433822Y-117396192D01*
X142545392Y-117284622D01*
X142676584Y-117196963D01*
X142676586Y-117196962D01*
X142822358Y-117136581D01*
X142977107Y-117105800D01*
X143134893Y-117105800D01*
X143289642Y-117136581D01*
G37*
G36*
X138409642Y-117136581D02*
G01*
X138555414Y-117196962D01*
X138555416Y-117196963D01*
X138686608Y-117284622D01*
X138798178Y-117396192D01*
X138872091Y-117506812D01*
X138885838Y-117527386D01*
X138946219Y-117673158D01*
X138977000Y-117827907D01*
X138977000Y-117985693D01*
X138946219Y-118140442D01*
X138907360Y-118234255D01*
X138885837Y-118286216D01*
X138798178Y-118417408D01*
X138686608Y-118528978D01*
X138555416Y-118616637D01*
X138555415Y-118616638D01*
X138555414Y-118616638D01*
X138409642Y-118677019D01*
X138254893Y-118707800D01*
X138097107Y-118707800D01*
X137942358Y-118677019D01*
X137796586Y-118616638D01*
X137796585Y-118616638D01*
X137796584Y-118616637D01*
X137665392Y-118528978D01*
X137553822Y-118417408D01*
X137466163Y-118286216D01*
X137444640Y-118234255D01*
X137405781Y-118140442D01*
X137375000Y-117985693D01*
X137375000Y-117827907D01*
X137405781Y-117673158D01*
X137466162Y-117527386D01*
X137479909Y-117506812D01*
X137553822Y-117396192D01*
X137665392Y-117284622D01*
X137796584Y-117196963D01*
X137796586Y-117196962D01*
X137942358Y-117136581D01*
X138097107Y-117105800D01*
X138254893Y-117105800D01*
X138409642Y-117136581D01*
G37*
G36*
X151104868Y-117345165D02*
G01*
X151143538Y-117356896D01*
X151179177Y-117375946D01*
X151210417Y-117401583D01*
X151236054Y-117432823D01*
X151255104Y-117468462D01*
X151266835Y-117507132D01*
X151271400Y-117553488D01*
X151271400Y-118204712D01*
X151266835Y-118251068D01*
X151255104Y-118289738D01*
X151236054Y-118325377D01*
X151210417Y-118356617D01*
X151179177Y-118382254D01*
X151143538Y-118401304D01*
X151104868Y-118413035D01*
X151058512Y-118417600D01*
X149982288Y-118417600D01*
X149935932Y-118413035D01*
X149897262Y-118401304D01*
X149861623Y-118382254D01*
X149830383Y-118356617D01*
X149804746Y-118325377D01*
X149785696Y-118289738D01*
X149773965Y-118251068D01*
X149769400Y-118204712D01*
X149769400Y-117553488D01*
X149773965Y-117507132D01*
X149785696Y-117468462D01*
X149804746Y-117432823D01*
X149830383Y-117401583D01*
X149861623Y-117375946D01*
X149897262Y-117356896D01*
X149935932Y-117345165D01*
X149982288Y-117340600D01*
X151058512Y-117340600D01*
X151104868Y-117345165D01*
G37*
G36*
X154623868Y-116449165D02*
G01*
X154662538Y-116460896D01*
X154698177Y-116479946D01*
X154729417Y-116505583D01*
X154755054Y-116536823D01*
X154774104Y-116572462D01*
X154785835Y-116611132D01*
X154790400Y-116657488D01*
X154790400Y-117733712D01*
X154785835Y-117780068D01*
X154774104Y-117818738D01*
X154755054Y-117854377D01*
X154729417Y-117885617D01*
X154698177Y-117911254D01*
X154662538Y-117930304D01*
X154623868Y-117942035D01*
X154577512Y-117946600D01*
X153926288Y-117946600D01*
X153879932Y-117942035D01*
X153841262Y-117930304D01*
X153805623Y-117911254D01*
X153774383Y-117885617D01*
X153748746Y-117854377D01*
X153729696Y-117818738D01*
X153717965Y-117780068D01*
X153713400Y-117733712D01*
X153713400Y-116657488D01*
X153717965Y-116611132D01*
X153729696Y-116572462D01*
X153748746Y-116536823D01*
X153774383Y-116505583D01*
X153805623Y-116479946D01*
X153841262Y-116460896D01*
X153879932Y-116449165D01*
X153926288Y-116444600D01*
X154577512Y-116444600D01*
X154623868Y-116449165D01*
G37*
G36*
X152748868Y-116449165D02*
G01*
X152787538Y-116460896D01*
X152823177Y-116479946D01*
X152854417Y-116505583D01*
X152880054Y-116536823D01*
X152899104Y-116572462D01*
X152910835Y-116611132D01*
X152915400Y-116657488D01*
X152915400Y-117733712D01*
X152910835Y-117780068D01*
X152899104Y-117818738D01*
X152880054Y-117854377D01*
X152854417Y-117885617D01*
X152823177Y-117911254D01*
X152787538Y-117930304D01*
X152748868Y-117942035D01*
X152702512Y-117946600D01*
X152051288Y-117946600D01*
X152004932Y-117942035D01*
X151966262Y-117930304D01*
X151930623Y-117911254D01*
X151899383Y-117885617D01*
X151873746Y-117854377D01*
X151854696Y-117818738D01*
X151842965Y-117780068D01*
X151838400Y-117733712D01*
X151838400Y-116657488D01*
X151842965Y-116611132D01*
X151854696Y-116572462D01*
X151873746Y-116536823D01*
X151899383Y-116505583D01*
X151930623Y-116479946D01*
X151966262Y-116460896D01*
X152004932Y-116449165D01*
X152051288Y-116444600D01*
X152702512Y-116444600D01*
X152748868Y-116449165D01*
G37*
G36*
X151104868Y-115470165D02*
G01*
X151143538Y-115481896D01*
X151179177Y-115500946D01*
X151210417Y-115526583D01*
X151236054Y-115557823D01*
X151255104Y-115593462D01*
X151266835Y-115632132D01*
X151271400Y-115678488D01*
X151271400Y-116329712D01*
X151266835Y-116376068D01*
X151255104Y-116414738D01*
X151236054Y-116450377D01*
X151210417Y-116481617D01*
X151179177Y-116507254D01*
X151143538Y-116526304D01*
X151104868Y-116538035D01*
X151058512Y-116542600D01*
X149982288Y-116542600D01*
X149935932Y-116538035D01*
X149897262Y-116526304D01*
X149861623Y-116507254D01*
X149830383Y-116481617D01*
X149804746Y-116450377D01*
X149785696Y-116414738D01*
X149773965Y-116376068D01*
X149769400Y-116329712D01*
X149769400Y-115678488D01*
X149773965Y-115632132D01*
X149785696Y-115593462D01*
X149804746Y-115557823D01*
X149830383Y-115526583D01*
X149861623Y-115500946D01*
X149897262Y-115481896D01*
X149935932Y-115470165D01*
X149982288Y-115465600D01*
X151058512Y-115465600D01*
X151104868Y-115470165D01*
G37*
G36*
X152748868Y-114315565D02*
G01*
X152787538Y-114327296D01*
X152823177Y-114346346D01*
X152854417Y-114371983D01*
X152880054Y-114403223D01*
X152899104Y-114438862D01*
X152910835Y-114477532D01*
X152915400Y-114523888D01*
X152915400Y-115600112D01*
X152910835Y-115646468D01*
X152899104Y-115685138D01*
X152880054Y-115720777D01*
X152854417Y-115752017D01*
X152823177Y-115777654D01*
X152787538Y-115796704D01*
X152748868Y-115808435D01*
X152702512Y-115813000D01*
X152051288Y-115813000D01*
X152004932Y-115808435D01*
X151966262Y-115796704D01*
X151930623Y-115777654D01*
X151899383Y-115752017D01*
X151873746Y-115720777D01*
X151854696Y-115685138D01*
X151842965Y-115646468D01*
X151838400Y-115600112D01*
X151838400Y-114523888D01*
X151842965Y-114477532D01*
X151854696Y-114438862D01*
X151873746Y-114403223D01*
X151899383Y-114371983D01*
X151930623Y-114346346D01*
X151966262Y-114327296D01*
X152004932Y-114315565D01*
X152051288Y-114311000D01*
X152702512Y-114311000D01*
X152748868Y-114315565D01*
G37*
G36*
X154623868Y-114315565D02*
G01*
X154662538Y-114327296D01*
X154698177Y-114346346D01*
X154729417Y-114371983D01*
X154755054Y-114403223D01*
X154774104Y-114438862D01*
X154785835Y-114477532D01*
X154790400Y-114523888D01*
X154790400Y-115600112D01*
X154785835Y-115646468D01*
X154774104Y-115685138D01*
X154755054Y-115720777D01*
X154729417Y-115752017D01*
X154698177Y-115777654D01*
X154662538Y-115796704D01*
X154623868Y-115808435D01*
X154577512Y-115813000D01*
X153926288Y-115813000D01*
X153879932Y-115808435D01*
X153841262Y-115796704D01*
X153805623Y-115777654D01*
X153774383Y-115752017D01*
X153748746Y-115720777D01*
X153729696Y-115685138D01*
X153717965Y-115646468D01*
X153713400Y-115600112D01*
X153713400Y-114523888D01*
X153717965Y-114477532D01*
X153729696Y-114438862D01*
X153748746Y-114403223D01*
X153774383Y-114371983D01*
X153805623Y-114346346D01*
X153841262Y-114327296D01*
X153879932Y-114315565D01*
X153926288Y-114311000D01*
X154577512Y-114311000D01*
X154623868Y-114315565D01*
G37*
G36*
X174129000Y-115810600D02*
G01*
X172327000Y-115810600D01*
X172327000Y-114008600D01*
X174129000Y-114008600D01*
X174129000Y-115810600D01*
G37*
G36*
X175881512Y-114013527D02*
G01*
X176030812Y-114043224D01*
X176194784Y-114111144D01*
X176342354Y-114209747D01*
X176467853Y-114335246D01*
X176566456Y-114482816D01*
X176634376Y-114646788D01*
X176669000Y-114820859D01*
X176669000Y-114998341D01*
X176634376Y-115172412D01*
X176566456Y-115336384D01*
X176467853Y-115483954D01*
X176342354Y-115609453D01*
X176194784Y-115708056D01*
X176030812Y-115775976D01*
X175881512Y-115805673D01*
X175856742Y-115810600D01*
X175679258Y-115810600D01*
X175654488Y-115805673D01*
X175505188Y-115775976D01*
X175341216Y-115708056D01*
X175193646Y-115609453D01*
X175068147Y-115483954D01*
X174969544Y-115336384D01*
X174901624Y-115172412D01*
X174867000Y-114998341D01*
X174867000Y-114820859D01*
X174901624Y-114646788D01*
X174969544Y-114482816D01*
X175068147Y-114335246D01*
X175193646Y-114209747D01*
X175341216Y-114111144D01*
X175505188Y-114043224D01*
X175654488Y-114013527D01*
X175679258Y-114008600D01*
X175856742Y-114008600D01*
X175881512Y-114013527D01*
G37*
G36*
X178421512Y-114013527D02*
G01*
X178570812Y-114043224D01*
X178734784Y-114111144D01*
X178882354Y-114209747D01*
X179007853Y-114335246D01*
X179106456Y-114482816D01*
X179174376Y-114646788D01*
X179209000Y-114820859D01*
X179209000Y-114998341D01*
X179174376Y-115172412D01*
X179106456Y-115336384D01*
X179007853Y-115483954D01*
X178882354Y-115609453D01*
X178734784Y-115708056D01*
X178570812Y-115775976D01*
X178421512Y-115805673D01*
X178396742Y-115810600D01*
X178219258Y-115810600D01*
X178194488Y-115805673D01*
X178045188Y-115775976D01*
X177881216Y-115708056D01*
X177733646Y-115609453D01*
X177608147Y-115483954D01*
X177509544Y-115336384D01*
X177441624Y-115172412D01*
X177407000Y-114998341D01*
X177407000Y-114820859D01*
X177441624Y-114646788D01*
X177509544Y-114482816D01*
X177608147Y-114335246D01*
X177733646Y-114209747D01*
X177881216Y-114111144D01*
X178045188Y-114043224D01*
X178194488Y-114013527D01*
X178219258Y-114008600D01*
X178396742Y-114008600D01*
X178421512Y-114013527D01*
G37*
G36*
X192718628Y-113957703D02*
G01*
X192873500Y-114021853D01*
X193012881Y-114114985D01*
X193131415Y-114233519D01*
X193224547Y-114372900D01*
X193288697Y-114527772D01*
X193321400Y-114692184D01*
X193321400Y-114859816D01*
X193288697Y-115024228D01*
X193224547Y-115179100D01*
X193131415Y-115318481D01*
X193012881Y-115437015D01*
X192873500Y-115530147D01*
X192718628Y-115594297D01*
X192554216Y-115627000D01*
X192386584Y-115627000D01*
X192222172Y-115594297D01*
X192067300Y-115530147D01*
X191927919Y-115437015D01*
X191809385Y-115318481D01*
X191716253Y-115179100D01*
X191652103Y-115024228D01*
X191619400Y-114859816D01*
X191619400Y-114692184D01*
X191652103Y-114527772D01*
X191716253Y-114372900D01*
X191809385Y-114233519D01*
X191927919Y-114114985D01*
X192067300Y-114021853D01*
X192222172Y-113957703D01*
X192386584Y-113925000D01*
X192554216Y-113925000D01*
X192718628Y-113957703D01*
G37*
G36*
X195218628Y-113957703D02*
G01*
X195373500Y-114021853D01*
X195512881Y-114114985D01*
X195631415Y-114233519D01*
X195724547Y-114372900D01*
X195788697Y-114527772D01*
X195821400Y-114692184D01*
X195821400Y-114859816D01*
X195788697Y-115024228D01*
X195724547Y-115179100D01*
X195631415Y-115318481D01*
X195512881Y-115437015D01*
X195373500Y-115530147D01*
X195218628Y-115594297D01*
X195054216Y-115627000D01*
X194886584Y-115627000D01*
X194722172Y-115594297D01*
X194567300Y-115530147D01*
X194427919Y-115437015D01*
X194309385Y-115318481D01*
X194216253Y-115179100D01*
X194152103Y-115024228D01*
X194119400Y-114859816D01*
X194119400Y-114692184D01*
X194152103Y-114527772D01*
X194216253Y-114372900D01*
X194309385Y-114233519D01*
X194427919Y-114114985D01*
X194567300Y-114021853D01*
X194722172Y-113957703D01*
X194886584Y-113925000D01*
X195054216Y-113925000D01*
X195218628Y-113957703D01*
G37*
G36*
X151104868Y-113913865D02*
G01*
X151143538Y-113925596D01*
X151179177Y-113944646D01*
X151210417Y-113970283D01*
X151236054Y-114001523D01*
X151255104Y-114037162D01*
X151266835Y-114075832D01*
X151271400Y-114122188D01*
X151271400Y-114773412D01*
X151266835Y-114819768D01*
X151255104Y-114858438D01*
X151236054Y-114894077D01*
X151210417Y-114925317D01*
X151179177Y-114950954D01*
X151143538Y-114970004D01*
X151104868Y-114981735D01*
X151058512Y-114986300D01*
X149982288Y-114986300D01*
X149935932Y-114981735D01*
X149897262Y-114970004D01*
X149861623Y-114950954D01*
X149830383Y-114925317D01*
X149804746Y-114894077D01*
X149785696Y-114858438D01*
X149773965Y-114819768D01*
X149769400Y-114773412D01*
X149769400Y-114122188D01*
X149773965Y-114075832D01*
X149785696Y-114037162D01*
X149804746Y-114001523D01*
X149830383Y-113970283D01*
X149861623Y-113944646D01*
X149897262Y-113925596D01*
X149935932Y-113913865D01*
X149982288Y-113909300D01*
X151058512Y-113909300D01*
X151104868Y-113913865D01*
G37*
G36*
X154120468Y-112181965D02*
G01*
X154159138Y-112193696D01*
X154194777Y-112212746D01*
X154226017Y-112238383D01*
X154251654Y-112269623D01*
X154270704Y-112305262D01*
X154282435Y-112343932D01*
X154287000Y-112390288D01*
X154287000Y-113466512D01*
X154282435Y-113512868D01*
X154270704Y-113551538D01*
X154251654Y-113587177D01*
X154226017Y-113618417D01*
X154194777Y-113644054D01*
X154159138Y-113663104D01*
X154120468Y-113674835D01*
X154074112Y-113679400D01*
X153422888Y-113679400D01*
X153376532Y-113674835D01*
X153337862Y-113663104D01*
X153302223Y-113644054D01*
X153270983Y-113618417D01*
X153245346Y-113587177D01*
X153226296Y-113551538D01*
X153214565Y-113512868D01*
X153210000Y-113466512D01*
X153210000Y-112390288D01*
X153214565Y-112343932D01*
X153226296Y-112305262D01*
X153245346Y-112269623D01*
X153270983Y-112238383D01*
X153302223Y-112212746D01*
X153337862Y-112193696D01*
X153376532Y-112181965D01*
X153422888Y-112177400D01*
X154074112Y-112177400D01*
X154120468Y-112181965D01*
G37*
G36*
X155995468Y-112181965D02*
G01*
X156034138Y-112193696D01*
X156069777Y-112212746D01*
X156101017Y-112238383D01*
X156126654Y-112269623D01*
X156145704Y-112305262D01*
X156157435Y-112343932D01*
X156162000Y-112390288D01*
X156162000Y-113466512D01*
X156157435Y-113512868D01*
X156145704Y-113551538D01*
X156126654Y-113587177D01*
X156101017Y-113618417D01*
X156069777Y-113644054D01*
X156034138Y-113663104D01*
X155995468Y-113674835D01*
X155949112Y-113679400D01*
X155297888Y-113679400D01*
X155251532Y-113674835D01*
X155212862Y-113663104D01*
X155177223Y-113644054D01*
X155145983Y-113618417D01*
X155120346Y-113587177D01*
X155101296Y-113551538D01*
X155089565Y-113512868D01*
X155085000Y-113466512D01*
X155085000Y-112390288D01*
X155089565Y-112343932D01*
X155101296Y-112305262D01*
X155120346Y-112269623D01*
X155145983Y-112238383D01*
X155177223Y-112212746D01*
X155212862Y-112193696D01*
X155251532Y-112181965D01*
X155297888Y-112177400D01*
X155949112Y-112177400D01*
X155995468Y-112181965D01*
G37*
G36*
X192718628Y-111957703D02*
G01*
X192873500Y-112021853D01*
X193012881Y-112114985D01*
X193131415Y-112233519D01*
X193224547Y-112372900D01*
X193288697Y-112527772D01*
X193321400Y-112692184D01*
X193321400Y-112859816D01*
X193288697Y-113024228D01*
X193224547Y-113179100D01*
X193131415Y-113318481D01*
X193012881Y-113437015D01*
X192873500Y-113530147D01*
X192718628Y-113594297D01*
X192554216Y-113627000D01*
X192386584Y-113627000D01*
X192222172Y-113594297D01*
X192067300Y-113530147D01*
X191927919Y-113437015D01*
X191809385Y-113318481D01*
X191716253Y-113179100D01*
X191652103Y-113024228D01*
X191619400Y-112859816D01*
X191619400Y-112692184D01*
X191652103Y-112527772D01*
X191716253Y-112372900D01*
X191809385Y-112233519D01*
X191927919Y-112114985D01*
X192067300Y-112021853D01*
X192222172Y-111957703D01*
X192386584Y-111925000D01*
X192554216Y-111925000D01*
X192718628Y-111957703D01*
G37*
G36*
X195821400Y-113627000D02*
G01*
X194119400Y-113627000D01*
X194119400Y-111925000D01*
X195821400Y-111925000D01*
X195821400Y-113627000D01*
G37*
G36*
X151104868Y-112038865D02*
G01*
X151143538Y-112050596D01*
X151179177Y-112069646D01*
X151210417Y-112095283D01*
X151236054Y-112126523D01*
X151255104Y-112162162D01*
X151266835Y-112200832D01*
X151271400Y-112247188D01*
X151271400Y-112898412D01*
X151266835Y-112944768D01*
X151255104Y-112983438D01*
X151236054Y-113019077D01*
X151210417Y-113050317D01*
X151179177Y-113075954D01*
X151143538Y-113095004D01*
X151104868Y-113106735D01*
X151058512Y-113111300D01*
X149982288Y-113111300D01*
X149935932Y-113106735D01*
X149897262Y-113095004D01*
X149861623Y-113075954D01*
X149830383Y-113050317D01*
X149804746Y-113019077D01*
X149785696Y-112983438D01*
X149773965Y-112944768D01*
X149769400Y-112898412D01*
X149769400Y-112247188D01*
X149773965Y-112200832D01*
X149785696Y-112162162D01*
X149804746Y-112126523D01*
X149830383Y-112095283D01*
X149861623Y-112069646D01*
X149897262Y-112050596D01*
X149935932Y-112038865D01*
X149982288Y-112034300D01*
X151058512Y-112034300D01*
X151104868Y-112038865D01*
G37*
G36*
X216211996Y-109694589D02*
G01*
X216366012Y-109725224D01*
X216529984Y-109793144D01*
X216677554Y-109891747D01*
X216803053Y-110017246D01*
X216901656Y-110164816D01*
X216969576Y-110328788D01*
X217004200Y-110502859D01*
X217004200Y-110680341D01*
X216969576Y-110854412D01*
X216901656Y-111018384D01*
X216803053Y-111165954D01*
X216677554Y-111291453D01*
X216529984Y-111390056D01*
X216366012Y-111457976D01*
X216217541Y-111487508D01*
X216191942Y-111492600D01*
X216014458Y-111492600D01*
X215988859Y-111487508D01*
X215840388Y-111457976D01*
X215676416Y-111390056D01*
X215528846Y-111291453D01*
X215403347Y-111165954D01*
X215304744Y-111018384D01*
X215236824Y-110854412D01*
X215202200Y-110680341D01*
X215202200Y-110502859D01*
X215236824Y-110328788D01*
X215304744Y-110164816D01*
X215403347Y-110017246D01*
X215528846Y-109891747D01*
X215676416Y-109793144D01*
X215840388Y-109725224D01*
X215994404Y-109694589D01*
X216014458Y-109690600D01*
X216191942Y-109690600D01*
X216211996Y-109694589D01*
G37*
G36*
X219401800Y-109694589D02*
G01*
X219434852Y-109704615D01*
X219465303Y-109720892D01*
X219491999Y-109742801D01*
X219513908Y-109769497D01*
X219530185Y-109799948D01*
X219540211Y-109833000D01*
X219544200Y-109873503D01*
X219544200Y-111309697D01*
X219540211Y-111350200D01*
X219530185Y-111383252D01*
X219513908Y-111413703D01*
X219491999Y-111440399D01*
X219465303Y-111462308D01*
X219434852Y-111478585D01*
X219401800Y-111488611D01*
X219361297Y-111492600D01*
X217925103Y-111492600D01*
X217884600Y-111488611D01*
X217851548Y-111478585D01*
X217821097Y-111462308D01*
X217794401Y-111440399D01*
X217772492Y-111413703D01*
X217756215Y-111383252D01*
X217746189Y-111350200D01*
X217742200Y-111309697D01*
X217742200Y-109873503D01*
X217746189Y-109833000D01*
X217756215Y-109799948D01*
X217772492Y-109769497D01*
X217794401Y-109742801D01*
X217821097Y-109720892D01*
X217851548Y-109704615D01*
X217884600Y-109694589D01*
X217925103Y-109690600D01*
X219361297Y-109690600D01*
X219401800Y-109694589D01*
G37*
G36*
X216216712Y-107155527D02*
G01*
X216366012Y-107185224D01*
X216529984Y-107253144D01*
X216677554Y-107351747D01*
X216803053Y-107477246D01*
X216901656Y-107624816D01*
X216969576Y-107788788D01*
X217004200Y-107962859D01*
X217004200Y-108140341D01*
X216969576Y-108314412D01*
X216901656Y-108478384D01*
X216803053Y-108625954D01*
X216677554Y-108751453D01*
X216529984Y-108850056D01*
X216366012Y-108917976D01*
X216216712Y-108947673D01*
X216191942Y-108952600D01*
X216014458Y-108952600D01*
X215989688Y-108947673D01*
X215840388Y-108917976D01*
X215676416Y-108850056D01*
X215528846Y-108751453D01*
X215403347Y-108625954D01*
X215304744Y-108478384D01*
X215236824Y-108314412D01*
X215202200Y-108140341D01*
X215202200Y-107962859D01*
X215236824Y-107788788D01*
X215304744Y-107624816D01*
X215403347Y-107477246D01*
X215528846Y-107351747D01*
X215676416Y-107253144D01*
X215840388Y-107185224D01*
X215989688Y-107155527D01*
X216014458Y-107150600D01*
X216191942Y-107150600D01*
X216216712Y-107155527D01*
G37*
G36*
X218756712Y-107155527D02*
G01*
X218906012Y-107185224D01*
X219069984Y-107253144D01*
X219217554Y-107351747D01*
X219343053Y-107477246D01*
X219441656Y-107624816D01*
X219509576Y-107788788D01*
X219544200Y-107962859D01*
X219544200Y-108140341D01*
X219509576Y-108314412D01*
X219441656Y-108478384D01*
X219343053Y-108625954D01*
X219217554Y-108751453D01*
X219069984Y-108850056D01*
X218906012Y-108917976D01*
X218756712Y-108947673D01*
X218731942Y-108952600D01*
X218554458Y-108952600D01*
X218529688Y-108947673D01*
X218380388Y-108917976D01*
X218216416Y-108850056D01*
X218068846Y-108751453D01*
X217943347Y-108625954D01*
X217844744Y-108478384D01*
X217776824Y-108314412D01*
X217742200Y-108140341D01*
X217742200Y-107962859D01*
X217776824Y-107788788D01*
X217844744Y-107624816D01*
X217943347Y-107477246D01*
X218068846Y-107351747D01*
X218216416Y-107253144D01*
X218380388Y-107185224D01*
X218529688Y-107155527D01*
X218554458Y-107150600D01*
X218731942Y-107150600D01*
X218756712Y-107155527D01*
G37*
G36*
X218756712Y-104615527D02*
G01*
X218906012Y-104645224D01*
X219069984Y-104713144D01*
X219217554Y-104811747D01*
X219343053Y-104937246D01*
X219441656Y-105084816D01*
X219509576Y-105248788D01*
X219529347Y-105348188D01*
X219544065Y-105422177D01*
X219544200Y-105422859D01*
X219544200Y-105600341D01*
X219509576Y-105774412D01*
X219441656Y-105938384D01*
X219343053Y-106085954D01*
X219217554Y-106211453D01*
X219069984Y-106310056D01*
X218906012Y-106377976D01*
X218756712Y-106407673D01*
X218731942Y-106412600D01*
X218554458Y-106412600D01*
X218529688Y-106407673D01*
X218380388Y-106377976D01*
X218216416Y-106310056D01*
X218068846Y-106211453D01*
X217943347Y-106085954D01*
X217844744Y-105938384D01*
X217776824Y-105774412D01*
X217742200Y-105600341D01*
X217742200Y-105422859D01*
X217742336Y-105422177D01*
X217757053Y-105348188D01*
X217776824Y-105248788D01*
X217844744Y-105084816D01*
X217943347Y-104937246D01*
X218068846Y-104811747D01*
X218216416Y-104713144D01*
X218380388Y-104645224D01*
X218529688Y-104615527D01*
X218554458Y-104610600D01*
X218731942Y-104610600D01*
X218756712Y-104615527D01*
G37*
G36*
X216216712Y-104615527D02*
G01*
X216366012Y-104645224D01*
X216529984Y-104713144D01*
X216677554Y-104811747D01*
X216803053Y-104937246D01*
X216901656Y-105084816D01*
X216969576Y-105248788D01*
X216989347Y-105348188D01*
X217004065Y-105422177D01*
X217004200Y-105422859D01*
X217004200Y-105600341D01*
X216969576Y-105774412D01*
X216901656Y-105938384D01*
X216803053Y-106085954D01*
X216677554Y-106211453D01*
X216529984Y-106310056D01*
X216366012Y-106377976D01*
X216216712Y-106407673D01*
X216191942Y-106412600D01*
X216014458Y-106412600D01*
X215989688Y-106407673D01*
X215840388Y-106377976D01*
X215676416Y-106310056D01*
X215528846Y-106211453D01*
X215403347Y-106085954D01*
X215304744Y-105938384D01*
X215236824Y-105774412D01*
X215202200Y-105600341D01*
X215202200Y-105422859D01*
X215202336Y-105422177D01*
X215217053Y-105348188D01*
X215236824Y-105248788D01*
X215304744Y-105084816D01*
X215403347Y-104937246D01*
X215528846Y-104811747D01*
X215676416Y-104713144D01*
X215840388Y-104645224D01*
X215989688Y-104615527D01*
X216014458Y-104610600D01*
X216191942Y-104610600D01*
X216216712Y-104615527D01*
G37*
G36*
X131750068Y-104441965D02*
G01*
X131788738Y-104453696D01*
X131824377Y-104472746D01*
X131855617Y-104498383D01*
X131881254Y-104529623D01*
X131900304Y-104565262D01*
X131912035Y-104603932D01*
X131916600Y-104650288D01*
X131916600Y-105301512D01*
X131912035Y-105347868D01*
X131900304Y-105386538D01*
X131881254Y-105422177D01*
X131855617Y-105453417D01*
X131824377Y-105479054D01*
X131788738Y-105498104D01*
X131750068Y-105509835D01*
X131703712Y-105514400D01*
X130627488Y-105514400D01*
X130581132Y-105509835D01*
X130542462Y-105498104D01*
X130506823Y-105479054D01*
X130475583Y-105453417D01*
X130449946Y-105422177D01*
X130430896Y-105386538D01*
X130419165Y-105347868D01*
X130414600Y-105301512D01*
X130414600Y-104650288D01*
X130419165Y-104603932D01*
X130430896Y-104565262D01*
X130449946Y-104529623D01*
X130475583Y-104498383D01*
X130506823Y-104472746D01*
X130542462Y-104453696D01*
X130581132Y-104441965D01*
X130627488Y-104437400D01*
X131703712Y-104437400D01*
X131750068Y-104441965D01*
G37*
G36*
X129718068Y-104441965D02*
G01*
X129756738Y-104453696D01*
X129792377Y-104472746D01*
X129823617Y-104498383D01*
X129849254Y-104529623D01*
X129868304Y-104565262D01*
X129880035Y-104603932D01*
X129884600Y-104650288D01*
X129884600Y-105301512D01*
X129880035Y-105347868D01*
X129868304Y-105386538D01*
X129849254Y-105422177D01*
X129823617Y-105453417D01*
X129792377Y-105479054D01*
X129756738Y-105498104D01*
X129718068Y-105509835D01*
X129671712Y-105514400D01*
X128595488Y-105514400D01*
X128549132Y-105509835D01*
X128510462Y-105498104D01*
X128474823Y-105479054D01*
X128443583Y-105453417D01*
X128417946Y-105422177D01*
X128398896Y-105386538D01*
X128387165Y-105347868D01*
X128382600Y-105301512D01*
X128382600Y-104650288D01*
X128387165Y-104603932D01*
X128398896Y-104565262D01*
X128417946Y-104529623D01*
X128443583Y-104498383D01*
X128474823Y-104472746D01*
X128510462Y-104453696D01*
X128549132Y-104441965D01*
X128595488Y-104437400D01*
X129671712Y-104437400D01*
X129718068Y-104441965D01*
G37*
G36*
X133782068Y-104441965D02*
G01*
X133820738Y-104453696D01*
X133856377Y-104472746D01*
X133887617Y-104498383D01*
X133913254Y-104529623D01*
X133932304Y-104565262D01*
X133944035Y-104603932D01*
X133948600Y-104650288D01*
X133948600Y-105301512D01*
X133944035Y-105347868D01*
X133932304Y-105386538D01*
X133913254Y-105422177D01*
X133887617Y-105453417D01*
X133856377Y-105479054D01*
X133820738Y-105498104D01*
X133782068Y-105509835D01*
X133735712Y-105514400D01*
X132659488Y-105514400D01*
X132613132Y-105509835D01*
X132574462Y-105498104D01*
X132538823Y-105479054D01*
X132507583Y-105453417D01*
X132481946Y-105422177D01*
X132462896Y-105386538D01*
X132451165Y-105347868D01*
X132446600Y-105301512D01*
X132446600Y-104650288D01*
X132451165Y-104603932D01*
X132462896Y-104565262D01*
X132481946Y-104529623D01*
X132507583Y-104498383D01*
X132538823Y-104472746D01*
X132574462Y-104453696D01*
X132613132Y-104441965D01*
X132659488Y-104437400D01*
X133735712Y-104437400D01*
X133782068Y-104441965D01*
G37*
G36*
X218756712Y-102075527D02*
G01*
X218906012Y-102105224D01*
X219069984Y-102173144D01*
X219217554Y-102271747D01*
X219343053Y-102397246D01*
X219441656Y-102544816D01*
X219509576Y-102708788D01*
X219544200Y-102882859D01*
X219544200Y-103060341D01*
X219509576Y-103234412D01*
X219441656Y-103398384D01*
X219343053Y-103545954D01*
X219217554Y-103671453D01*
X219069984Y-103770056D01*
X218906012Y-103837976D01*
X218756712Y-103867673D01*
X218731942Y-103872600D01*
X218554458Y-103872600D01*
X218529688Y-103867673D01*
X218380388Y-103837976D01*
X218216416Y-103770056D01*
X218068846Y-103671453D01*
X217943347Y-103545954D01*
X217844744Y-103398384D01*
X217776824Y-103234412D01*
X217742200Y-103060341D01*
X217742200Y-102882859D01*
X217776824Y-102708788D01*
X217844744Y-102544816D01*
X217943347Y-102397246D01*
X218068846Y-102271747D01*
X218216416Y-102173144D01*
X218380388Y-102105224D01*
X218529688Y-102075527D01*
X218554458Y-102070600D01*
X218731942Y-102070600D01*
X218756712Y-102075527D01*
G37*
G36*
X216216712Y-102075527D02*
G01*
X216366012Y-102105224D01*
X216529984Y-102173144D01*
X216677554Y-102271747D01*
X216803053Y-102397246D01*
X216901656Y-102544816D01*
X216969576Y-102708788D01*
X217004200Y-102882859D01*
X217004200Y-103060341D01*
X216969576Y-103234412D01*
X216901656Y-103398384D01*
X216803053Y-103545954D01*
X216677554Y-103671453D01*
X216529984Y-103770056D01*
X216366012Y-103837976D01*
X216216712Y-103867673D01*
X216191942Y-103872600D01*
X216014458Y-103872600D01*
X215989688Y-103867673D01*
X215840388Y-103837976D01*
X215676416Y-103770056D01*
X215528846Y-103671453D01*
X215403347Y-103545954D01*
X215304744Y-103398384D01*
X215236824Y-103234412D01*
X215202200Y-103060341D01*
X215202200Y-102882859D01*
X215236824Y-102708788D01*
X215304744Y-102544816D01*
X215403347Y-102397246D01*
X215528846Y-102271747D01*
X215676416Y-102173144D01*
X215840388Y-102105224D01*
X215989688Y-102075527D01*
X216014458Y-102070600D01*
X216191942Y-102070600D01*
X216216712Y-102075527D01*
G37*
G36*
X133782068Y-102566965D02*
G01*
X133820738Y-102578696D01*
X133856377Y-102597746D01*
X133887617Y-102623383D01*
X133913254Y-102654623D01*
X133932304Y-102690262D01*
X133944035Y-102728932D01*
X133948600Y-102775288D01*
X133948600Y-103426512D01*
X133944035Y-103472868D01*
X133932304Y-103511538D01*
X133913254Y-103547177D01*
X133887617Y-103578417D01*
X133856377Y-103604054D01*
X133820738Y-103623104D01*
X133782068Y-103634835D01*
X133735712Y-103639400D01*
X132659488Y-103639400D01*
X132613132Y-103634835D01*
X132574462Y-103623104D01*
X132538823Y-103604054D01*
X132507583Y-103578417D01*
X132481946Y-103547177D01*
X132462896Y-103511538D01*
X132451165Y-103472868D01*
X132446600Y-103426512D01*
X132446600Y-102775288D01*
X132451165Y-102728932D01*
X132462896Y-102690262D01*
X132481946Y-102654623D01*
X132507583Y-102623383D01*
X132538823Y-102597746D01*
X132574462Y-102578696D01*
X132613132Y-102566965D01*
X132659488Y-102562400D01*
X133735712Y-102562400D01*
X133782068Y-102566965D01*
G37*
G36*
X129718068Y-102566965D02*
G01*
X129756738Y-102578696D01*
X129792377Y-102597746D01*
X129823617Y-102623383D01*
X129849254Y-102654623D01*
X129868304Y-102690262D01*
X129880035Y-102728932D01*
X129884600Y-102775288D01*
X129884600Y-103426512D01*
X129880035Y-103472868D01*
X129868304Y-103511538D01*
X129849254Y-103547177D01*
X129823617Y-103578417D01*
X129792377Y-103604054D01*
X129756738Y-103623104D01*
X129718068Y-103634835D01*
X129671712Y-103639400D01*
X128595488Y-103639400D01*
X128549132Y-103634835D01*
X128510462Y-103623104D01*
X128474823Y-103604054D01*
X128443583Y-103578417D01*
X128417946Y-103547177D01*
X128398896Y-103511538D01*
X128387165Y-103472868D01*
X128382600Y-103426512D01*
X128382600Y-102775288D01*
X128387165Y-102728932D01*
X128398896Y-102690262D01*
X128417946Y-102654623D01*
X128443583Y-102623383D01*
X128474823Y-102597746D01*
X128510462Y-102578696D01*
X128549132Y-102566965D01*
X128595488Y-102562400D01*
X129671712Y-102562400D01*
X129718068Y-102566965D01*
G37*
G36*
X131750068Y-102566965D02*
G01*
X131788738Y-102578696D01*
X131824377Y-102597746D01*
X131855617Y-102623383D01*
X131881254Y-102654623D01*
X131900304Y-102690262D01*
X131912035Y-102728932D01*
X131916600Y-102775288D01*
X131916600Y-103426512D01*
X131912035Y-103472868D01*
X131900304Y-103511538D01*
X131881254Y-103547177D01*
X131855617Y-103578417D01*
X131824377Y-103604054D01*
X131788738Y-103623104D01*
X131750068Y-103634835D01*
X131703712Y-103639400D01*
X130627488Y-103639400D01*
X130581132Y-103634835D01*
X130542462Y-103623104D01*
X130506823Y-103604054D01*
X130475583Y-103578417D01*
X130449946Y-103547177D01*
X130430896Y-103511538D01*
X130419165Y-103472868D01*
X130414600Y-103426512D01*
X130414600Y-102775288D01*
X130419165Y-102728932D01*
X130430896Y-102690262D01*
X130449946Y-102654623D01*
X130475583Y-102623383D01*
X130506823Y-102597746D01*
X130542462Y-102578696D01*
X130581132Y-102566965D01*
X130627488Y-102562400D01*
X131703712Y-102562400D01*
X131750068Y-102566965D01*
G37*
G36*
X97860918Y-96393853D02*
G01*
X98079485Y-96484387D01*
X98079487Y-96484388D01*
X98276193Y-96615822D01*
X98443478Y-96783107D01*
X98574912Y-96979813D01*
X98574913Y-96979815D01*
X98665447Y-97198382D01*
X98711600Y-97430410D01*
X98711600Y-97666990D01*
X98665447Y-97899018D01*
X98574913Y-98117585D01*
X98574912Y-98117587D01*
X98443478Y-98314293D01*
X98276193Y-98481578D01*
X98079487Y-98613012D01*
X98079486Y-98613013D01*
X98079485Y-98613013D01*
X97860918Y-98703547D01*
X97628890Y-98749700D01*
X97392310Y-98749700D01*
X97160282Y-98703547D01*
X96941715Y-98613013D01*
X96941714Y-98613013D01*
X96941713Y-98613012D01*
X96745007Y-98481578D01*
X96577722Y-98314293D01*
X96446288Y-98117587D01*
X96446287Y-98117585D01*
X96355753Y-97899018D01*
X96309600Y-97666990D01*
X96309600Y-97430410D01*
X96355753Y-97198382D01*
X96446287Y-96979815D01*
X96446288Y-96979813D01*
X96577722Y-96783107D01*
X96745007Y-96615822D01*
X96941713Y-96484388D01*
X96941715Y-96484387D01*
X97160282Y-96393853D01*
X97392310Y-96347700D01*
X97628890Y-96347700D01*
X97860918Y-96393853D01*
G37*
G36*
X87860918Y-96393853D02*
G01*
X88079485Y-96484387D01*
X88079487Y-96484388D01*
X88276193Y-96615822D01*
X88443478Y-96783107D01*
X88574912Y-96979813D01*
X88574913Y-96979815D01*
X88665447Y-97198382D01*
X88711600Y-97430410D01*
X88711600Y-97666990D01*
X88665447Y-97899018D01*
X88574913Y-98117585D01*
X88574912Y-98117587D01*
X88443478Y-98314293D01*
X88276193Y-98481578D01*
X88079487Y-98613012D01*
X88079486Y-98613013D01*
X88079485Y-98613013D01*
X87860918Y-98703547D01*
X87628890Y-98749700D01*
X87392310Y-98749700D01*
X87160282Y-98703547D01*
X86941715Y-98613013D01*
X86941714Y-98613013D01*
X86941713Y-98613012D01*
X86745007Y-98481578D01*
X86577722Y-98314293D01*
X86446288Y-98117587D01*
X86446287Y-98117585D01*
X86355753Y-97899018D01*
X86309600Y-97666990D01*
X86309600Y-97430410D01*
X86355753Y-97198382D01*
X86446287Y-96979815D01*
X86446288Y-96979813D01*
X86577722Y-96783107D01*
X86745007Y-96615822D01*
X86941713Y-96484388D01*
X86941715Y-96484387D01*
X87160282Y-96393853D01*
X87392310Y-96347700D01*
X87628890Y-96347700D01*
X87860918Y-96393853D01*
G37*
G36*
X139947536Y-94454540D02*
G01*
X140045820Y-94464220D01*
X140234981Y-94521601D01*
X140409312Y-94614783D01*
X140562115Y-94740185D01*
X140687517Y-94892988D01*
X140780699Y-95067319D01*
X140838080Y-95256480D01*
X140857455Y-95453200D01*
X140838080Y-95649920D01*
X140780699Y-95839081D01*
X140687517Y-96013412D01*
X140562115Y-96166215D01*
X140409312Y-96291617D01*
X140234981Y-96384799D01*
X140045820Y-96442180D01*
X139947536Y-96451860D01*
X139898395Y-96456700D01*
X139704805Y-96456700D01*
X139655664Y-96451860D01*
X139557380Y-96442180D01*
X139368219Y-96384799D01*
X139193888Y-96291617D01*
X139041085Y-96166215D01*
X138915683Y-96013412D01*
X138822501Y-95839081D01*
X138765120Y-95649920D01*
X138745745Y-95453200D01*
X138765120Y-95256480D01*
X138822501Y-95067319D01*
X138915683Y-94892988D01*
X139041085Y-94740185D01*
X139193888Y-94614783D01*
X139368219Y-94521601D01*
X139557380Y-94464220D01*
X139655664Y-94454540D01*
X139704805Y-94449700D01*
X139898395Y-94449700D01*
X139947536Y-94454540D01*
G37*
G36*
X107585841Y-92343460D02*
G01*
X107849905Y-92452839D01*
X108087558Y-92611634D01*
X108289666Y-92813742D01*
X108448461Y-93051395D01*
X108557840Y-93315459D01*
X108613600Y-93595788D01*
X108613600Y-93881612D01*
X108557840Y-94161941D01*
X108448461Y-94426005D01*
X108289666Y-94663658D01*
X108087558Y-94865766D01*
X107849905Y-95024561D01*
X107585841Y-95133940D01*
X107305512Y-95189700D01*
X107019688Y-95189700D01*
X106739359Y-95133940D01*
X106475295Y-95024561D01*
X106237642Y-94865766D01*
X106035534Y-94663658D01*
X105876739Y-94426005D01*
X105767360Y-94161941D01*
X105711600Y-93881612D01*
X105711600Y-93595788D01*
X105767360Y-93315459D01*
X105876739Y-93051395D01*
X106035534Y-92813742D01*
X106237642Y-92611634D01*
X106475295Y-92452839D01*
X106739359Y-92343460D01*
X107019688Y-92287700D01*
X107305512Y-92287700D01*
X107585841Y-92343460D01*
G37*
G36*
X139947536Y-91914540D02*
G01*
X140045820Y-91924220D01*
X140234981Y-91981601D01*
X140409312Y-92074783D01*
X140562115Y-92200185D01*
X140687517Y-92352988D01*
X140780699Y-92527319D01*
X140838080Y-92716480D01*
X140857455Y-92913200D01*
X140838080Y-93109920D01*
X140780699Y-93299081D01*
X140687517Y-93473412D01*
X140562115Y-93626215D01*
X140409312Y-93751617D01*
X140234981Y-93844799D01*
X140045820Y-93902180D01*
X139947536Y-93911860D01*
X139898395Y-93916700D01*
X139704805Y-93916700D01*
X139655664Y-93911860D01*
X139557380Y-93902180D01*
X139368219Y-93844799D01*
X139193888Y-93751617D01*
X139041085Y-93626215D01*
X138915683Y-93473412D01*
X138822501Y-93299081D01*
X138765120Y-93109920D01*
X138745745Y-92913200D01*
X138765120Y-92716480D01*
X138822501Y-92527319D01*
X138915683Y-92352988D01*
X139041085Y-92200185D01*
X139193888Y-92074783D01*
X139368219Y-91981601D01*
X139557380Y-91924220D01*
X139655664Y-91914540D01*
X139704805Y-91909700D01*
X139898395Y-91909700D01*
X139947536Y-91914540D01*
G37*
G36*
X193502400Y-93425800D02*
G01*
X190850400Y-93425800D01*
X190850400Y-92263800D01*
X193502400Y-92263800D01*
X193502400Y-93425800D01*
G37*
G36*
X140852600Y-91376700D02*
G01*
X138750600Y-91376700D01*
X138750600Y-89369700D01*
X140852600Y-89369700D01*
X140852600Y-91376700D01*
G37*
G36*
X193502400Y-91225800D02*
G01*
X190850400Y-91225800D01*
X190850400Y-90063800D01*
X193502400Y-90063800D01*
X193502400Y-91225800D01*
G37*
G36*
X122873854Y-86526518D02*
G01*
X123247111Y-86681126D01*
X123247113Y-86681127D01*
X123583036Y-86905584D01*
X123868716Y-87191264D01*
X124055760Y-87471194D01*
X124093174Y-87527189D01*
X124247782Y-87900446D01*
X124326600Y-88296693D01*
X124326600Y-88700707D01*
X124247782Y-89096954D01*
X124137361Y-89363533D01*
X124093173Y-89470213D01*
X123868716Y-89806136D01*
X123583036Y-90091816D01*
X123247113Y-90316273D01*
X123247112Y-90316274D01*
X123247111Y-90316274D01*
X122873854Y-90470882D01*
X122477607Y-90549700D01*
X122073593Y-90549700D01*
X121677346Y-90470882D01*
X121304089Y-90316274D01*
X121304088Y-90316274D01*
X121304087Y-90316273D01*
X120968164Y-90091816D01*
X120682484Y-89806136D01*
X120458027Y-89470213D01*
X120413839Y-89363533D01*
X120303418Y-89096954D01*
X120224600Y-88700707D01*
X120224600Y-88296693D01*
X120303418Y-87900446D01*
X120458026Y-87527189D01*
X120495441Y-87471194D01*
X120682484Y-87191264D01*
X120968164Y-86905584D01*
X121304087Y-86681127D01*
X121304089Y-86681126D01*
X121677346Y-86526518D01*
X122073593Y-86447700D01*
X122477607Y-86447700D01*
X122873854Y-86526518D01*
G37*
G36*
X199664118Y-88164253D02*
G01*
X199836023Y-88235459D01*
X199882687Y-88254788D01*
X200079393Y-88386222D01*
X200246678Y-88553507D01*
X200345033Y-88700707D01*
X200378113Y-88750215D01*
X200468647Y-88968782D01*
X200514800Y-89200810D01*
X200514800Y-89437390D01*
X200468647Y-89669418D01*
X200412016Y-89806136D01*
X200378112Y-89887987D01*
X200246678Y-90084693D01*
X200079393Y-90251978D01*
X199882687Y-90383412D01*
X199882686Y-90383413D01*
X199882685Y-90383413D01*
X199664118Y-90473947D01*
X199432090Y-90520100D01*
X199195510Y-90520100D01*
X198963482Y-90473947D01*
X198744915Y-90383413D01*
X198744914Y-90383413D01*
X198744913Y-90383412D01*
X198548207Y-90251978D01*
X198380922Y-90084693D01*
X198249488Y-89887987D01*
X198215584Y-89806136D01*
X198158953Y-89669418D01*
X198112800Y-89437390D01*
X198112800Y-89200810D01*
X198158953Y-88968782D01*
X198249487Y-88750215D01*
X198282567Y-88700707D01*
X198380922Y-88553507D01*
X198548207Y-88386222D01*
X198744913Y-88254788D01*
X198791577Y-88235459D01*
X198963482Y-88164253D01*
X199195510Y-88118100D01*
X199432090Y-88118100D01*
X199664118Y-88164253D01*
G37*
G36*
X208134800Y-90520100D02*
G01*
X205732800Y-90520100D01*
X205732800Y-88118100D01*
X208134800Y-88118100D01*
X208134800Y-90520100D01*
G37*
G36*
X107585841Y-87263460D02*
G01*
X107849905Y-87372839D01*
X108087558Y-87531634D01*
X108289666Y-87733742D01*
X108448461Y-87971395D01*
X108557840Y-88235459D01*
X108613600Y-88515788D01*
X108613600Y-88801612D01*
X108557840Y-89081941D01*
X108448461Y-89346005D01*
X108289666Y-89583658D01*
X108087558Y-89785766D01*
X107849905Y-89944561D01*
X107585841Y-90053940D01*
X107305512Y-90109700D01*
X107019688Y-90109700D01*
X106739359Y-90053940D01*
X106475295Y-89944561D01*
X106237642Y-89785766D01*
X106035534Y-89583658D01*
X105876739Y-89346005D01*
X105767360Y-89081941D01*
X105711600Y-88801612D01*
X105711600Y-88515788D01*
X105767360Y-88235459D01*
X105876739Y-87971395D01*
X106035534Y-87733742D01*
X106237642Y-87531634D01*
X106475295Y-87372839D01*
X106739359Y-87263460D01*
X107019688Y-87207700D01*
X107305512Y-87207700D01*
X107585841Y-87263460D01*
G37*
G36*
X184214854Y-85701018D02*
G01*
X184588111Y-85855626D01*
X184588113Y-85855627D01*
X184924036Y-86080084D01*
X185209716Y-86365764D01*
X185420435Y-86681126D01*
X185434174Y-86701689D01*
X185588782Y-87074946D01*
X185667600Y-87471193D01*
X185667600Y-87875207D01*
X185588782Y-88271454D01*
X185487575Y-88515789D01*
X185434173Y-88644713D01*
X185209716Y-88980636D01*
X184924036Y-89266316D01*
X184588113Y-89490773D01*
X184588112Y-89490774D01*
X184588111Y-89490774D01*
X184214854Y-89645382D01*
X183818607Y-89724200D01*
X183414593Y-89724200D01*
X183018346Y-89645382D01*
X182645089Y-89490774D01*
X182645088Y-89490774D01*
X182645087Y-89490773D01*
X182309164Y-89266316D01*
X182023484Y-88980636D01*
X181799027Y-88644713D01*
X181745625Y-88515789D01*
X181644418Y-88271454D01*
X181565600Y-87875207D01*
X181565600Y-87471193D01*
X181644418Y-87074946D01*
X181799026Y-86701689D01*
X181812766Y-86681126D01*
X182023484Y-86365764D01*
X182309164Y-86080084D01*
X182645087Y-85855627D01*
X182645089Y-85855626D01*
X183018346Y-85701018D01*
X183414593Y-85622200D01*
X183818607Y-85622200D01*
X184214854Y-85701018D01*
G37*
G36*
X195725398Y-85920947D02*
G01*
X195760967Y-85931737D01*
X195793739Y-85949254D01*
X195822469Y-85972831D01*
X195846046Y-86001561D01*
X195863563Y-86034333D01*
X195874353Y-86069902D01*
X195878600Y-86113025D01*
X195878600Y-89172375D01*
X195874353Y-89215498D01*
X195863563Y-89251067D01*
X195846046Y-89283839D01*
X195822469Y-89312569D01*
X195793739Y-89336146D01*
X195760967Y-89353663D01*
X195725398Y-89364453D01*
X195682275Y-89368700D01*
X194622925Y-89368700D01*
X194579802Y-89364453D01*
X194544233Y-89353663D01*
X194511461Y-89336146D01*
X194482731Y-89312569D01*
X194459154Y-89283839D01*
X194441637Y-89251067D01*
X194430847Y-89215498D01*
X194426600Y-89172375D01*
X194426600Y-86113025D01*
X194430847Y-86069902D01*
X194441637Y-86034333D01*
X194459154Y-86001561D01*
X194482731Y-85972831D01*
X194511461Y-85949254D01*
X194544233Y-85931737D01*
X194579802Y-85920947D01*
X194622925Y-85916700D01*
X195682275Y-85916700D01*
X195725398Y-85920947D01*
G37*
G36*
X189925398Y-85920947D02*
G01*
X189960967Y-85931737D01*
X189993739Y-85949254D01*
X190022469Y-85972831D01*
X190046046Y-86001561D01*
X190063563Y-86034333D01*
X190074353Y-86069902D01*
X190078600Y-86113025D01*
X190078600Y-89172375D01*
X190074353Y-89215498D01*
X190063563Y-89251067D01*
X190046046Y-89283839D01*
X190022469Y-89312569D01*
X189993739Y-89336146D01*
X189960967Y-89353663D01*
X189925398Y-89364453D01*
X189882275Y-89368700D01*
X188822925Y-89368700D01*
X188779802Y-89364453D01*
X188744233Y-89353663D01*
X188711461Y-89336146D01*
X188682731Y-89312569D01*
X188659154Y-89283839D01*
X188641637Y-89251067D01*
X188630847Y-89215498D01*
X188626600Y-89172375D01*
X188626600Y-86113025D01*
X188630847Y-86069902D01*
X188641637Y-86034333D01*
X188659154Y-86001561D01*
X188682731Y-85972831D01*
X188711461Y-85949254D01*
X188744233Y-85931737D01*
X188779802Y-85920947D01*
X188822925Y-85916700D01*
X189882275Y-85916700D01*
X189925398Y-85920947D01*
G37*
G36*
X217737471Y-85043486D02*
G01*
X217904845Y-85094258D01*
X217913000Y-85096732D01*
X217943130Y-85105872D01*
X218132655Y-85207175D01*
X218132658Y-85207177D01*
X218132659Y-85207178D01*
X218298786Y-85343514D01*
X218435122Y-85509641D01*
X218435125Y-85509645D01*
X218536428Y-85699170D01*
X218598814Y-85904829D01*
X218619878Y-86118700D01*
X218598814Y-86332571D01*
X218598813Y-86332573D01*
X218539981Y-86526519D01*
X218536428Y-86538230D01*
X218435125Y-86727755D01*
X218435123Y-86727758D01*
X218435122Y-86727759D01*
X218298786Y-86893886D01*
X218132659Y-87030222D01*
X218132655Y-87030225D01*
X217943130Y-87131528D01*
X217737471Y-87193914D01*
X217577191Y-87209700D01*
X215950009Y-87209700D01*
X215789729Y-87193914D01*
X215584070Y-87131528D01*
X215394545Y-87030225D01*
X215394541Y-87030222D01*
X215228414Y-86893886D01*
X215092078Y-86727759D01*
X215092077Y-86727758D01*
X215092075Y-86727755D01*
X214990772Y-86538230D01*
X214987220Y-86526519D01*
X214928387Y-86332573D01*
X214928386Y-86332571D01*
X214907322Y-86118700D01*
X214928386Y-85904829D01*
X214990772Y-85699170D01*
X215092075Y-85509645D01*
X215092078Y-85509641D01*
X215228414Y-85343514D01*
X215394541Y-85207178D01*
X215394542Y-85207177D01*
X215394545Y-85207175D01*
X215584070Y-85105872D01*
X215614201Y-85096732D01*
X215622355Y-85094258D01*
X215789729Y-85043486D01*
X215950009Y-85027700D01*
X217577191Y-85027700D01*
X217737471Y-85043486D01*
G37*
G36*
X187820568Y-84934765D02*
G01*
X187859238Y-84946496D01*
X187894877Y-84965546D01*
X187926117Y-84991183D01*
X187951754Y-85022423D01*
X187970804Y-85058062D01*
X187982535Y-85096732D01*
X187987100Y-85143088D01*
X187987100Y-85794312D01*
X187982535Y-85840668D01*
X187970804Y-85879338D01*
X187951754Y-85914977D01*
X187926117Y-85946217D01*
X187894877Y-85971854D01*
X187859238Y-85990904D01*
X187820568Y-86002635D01*
X187774212Y-86007200D01*
X186697988Y-86007200D01*
X186651632Y-86002635D01*
X186612962Y-85990904D01*
X186577323Y-85971854D01*
X186546083Y-85946217D01*
X186520446Y-85914977D01*
X186501396Y-85879338D01*
X186489665Y-85840668D01*
X186485100Y-85794312D01*
X186485100Y-85143088D01*
X186489665Y-85096732D01*
X186501396Y-85058062D01*
X186520446Y-85022423D01*
X186546083Y-84991183D01*
X186577323Y-84965546D01*
X186612962Y-84946496D01*
X186651632Y-84934765D01*
X186697988Y-84930200D01*
X187774212Y-84930200D01*
X187820568Y-84934765D01*
G37*
G36*
X89193817Y-82872508D02*
G01*
X89225089Y-82881994D01*
X89253908Y-82897398D01*
X89279170Y-82918130D01*
X89299902Y-82943392D01*
X89315306Y-82972211D01*
X89324792Y-83003483D01*
X89328600Y-83042148D01*
X89328600Y-84877252D01*
X89324792Y-84915917D01*
X89315306Y-84947189D01*
X89299902Y-84976008D01*
X89279170Y-85001270D01*
X89253908Y-85022002D01*
X89225089Y-85037406D01*
X89193817Y-85046892D01*
X89155152Y-85050700D01*
X85800048Y-85050700D01*
X85761383Y-85046892D01*
X85730111Y-85037406D01*
X85701292Y-85022002D01*
X85676030Y-85001270D01*
X85655298Y-84976008D01*
X85639894Y-84947189D01*
X85630408Y-84915917D01*
X85626600Y-84877252D01*
X85626600Y-83042148D01*
X85630408Y-83003483D01*
X85639894Y-82972211D01*
X85655298Y-82943392D01*
X85676030Y-82918130D01*
X85701292Y-82897398D01*
X85730111Y-82881994D01*
X85761383Y-82872508D01*
X85800048Y-82868700D01*
X89155152Y-82868700D01*
X89193817Y-82872508D01*
G37*
G36*
X107585841Y-82183460D02*
G01*
X107849905Y-82292839D01*
X108087558Y-82451634D01*
X108289666Y-82653742D01*
X108448461Y-82891395D01*
X108557840Y-83155459D01*
X108613600Y-83435788D01*
X108613600Y-83721612D01*
X108557840Y-84001941D01*
X108448461Y-84266005D01*
X108289666Y-84503658D01*
X108087558Y-84705766D01*
X107849905Y-84864561D01*
X107585841Y-84973940D01*
X107305512Y-85029700D01*
X107019688Y-85029700D01*
X106739359Y-84973940D01*
X106475295Y-84864561D01*
X106237642Y-84705766D01*
X106035534Y-84503658D01*
X105876739Y-84266005D01*
X105767360Y-84001941D01*
X105711600Y-83721612D01*
X105711600Y-83435788D01*
X105767360Y-83155459D01*
X105876739Y-82891395D01*
X106035534Y-82653742D01*
X106237642Y-82451634D01*
X106475295Y-82292839D01*
X106739359Y-82183460D01*
X107019688Y-82127700D01*
X107305512Y-82127700D01*
X107585841Y-82183460D01*
G37*
G36*
X189916068Y-83918765D02*
G01*
X189954738Y-83930496D01*
X189990377Y-83949546D01*
X190021617Y-83975183D01*
X190047254Y-84006423D01*
X190066304Y-84042062D01*
X190078035Y-84080732D01*
X190082600Y-84127088D01*
X190082600Y-84778312D01*
X190078035Y-84824668D01*
X190066304Y-84863338D01*
X190047254Y-84898977D01*
X190021617Y-84930217D01*
X189990377Y-84955854D01*
X189954738Y-84974904D01*
X189916068Y-84986635D01*
X189869712Y-84991200D01*
X188793488Y-84991200D01*
X188747132Y-84986635D01*
X188708462Y-84974904D01*
X188672823Y-84955854D01*
X188641583Y-84930217D01*
X188615946Y-84898977D01*
X188596896Y-84863338D01*
X188585165Y-84824668D01*
X188580600Y-84778312D01*
X188580600Y-84127088D01*
X188585165Y-84080732D01*
X188596896Y-84042062D01*
X188615946Y-84006423D01*
X188641583Y-83975183D01*
X188672823Y-83949546D01*
X188708462Y-83930496D01*
X188747132Y-83918765D01*
X188793488Y-83914200D01*
X189869712Y-83914200D01*
X189916068Y-83918765D01*
G37*
G36*
X187820568Y-83059765D02*
G01*
X187859238Y-83071496D01*
X187894877Y-83090546D01*
X187926117Y-83116183D01*
X187951754Y-83147423D01*
X187970804Y-83183062D01*
X187982535Y-83221732D01*
X187987100Y-83268088D01*
X187987100Y-83919312D01*
X187982535Y-83965666D01*
X187970804Y-84004338D01*
X187951754Y-84039977D01*
X187926117Y-84071217D01*
X187894877Y-84096854D01*
X187859238Y-84115904D01*
X187820568Y-84127635D01*
X187774212Y-84132200D01*
X186697988Y-84132200D01*
X186651632Y-84127635D01*
X186612962Y-84115904D01*
X186577323Y-84096854D01*
X186546083Y-84071217D01*
X186520446Y-84039977D01*
X186501396Y-84004338D01*
X186489665Y-83965666D01*
X186485100Y-83919312D01*
X186485100Y-83268088D01*
X186489665Y-83221732D01*
X186501396Y-83183062D01*
X186520446Y-83147423D01*
X186546083Y-83116183D01*
X186577323Y-83090546D01*
X186612962Y-83071496D01*
X186651632Y-83059765D01*
X186697988Y-83055200D01*
X187774212Y-83055200D01*
X187820568Y-83059765D01*
G37*
G36*
X189916068Y-82043765D02*
G01*
X189954738Y-82055496D01*
X189990377Y-82074546D01*
X190021617Y-82100183D01*
X190047254Y-82131423D01*
X190066304Y-82167062D01*
X190078035Y-82205732D01*
X190082600Y-82252088D01*
X190082600Y-82903312D01*
X190078035Y-82949668D01*
X190066304Y-82988338D01*
X190047254Y-83023977D01*
X190021617Y-83055217D01*
X189990377Y-83080854D01*
X189954738Y-83099904D01*
X189916068Y-83111635D01*
X189869712Y-83116200D01*
X188793488Y-83116200D01*
X188747132Y-83111635D01*
X188708462Y-83099904D01*
X188672823Y-83080854D01*
X188641583Y-83055217D01*
X188615946Y-83023977D01*
X188596896Y-82988338D01*
X188585165Y-82949668D01*
X188580600Y-82903312D01*
X188580600Y-82252088D01*
X188585165Y-82205732D01*
X188596896Y-82167062D01*
X188615946Y-82131423D01*
X188641583Y-82100183D01*
X188672823Y-82074546D01*
X188708462Y-82055496D01*
X188747132Y-82043765D01*
X188793488Y-82039200D01*
X189869712Y-82039200D01*
X189916068Y-82043765D01*
G37*
G36*
X187820568Y-81315265D02*
G01*
X187859238Y-81326996D01*
X187894877Y-81346046D01*
X187926117Y-81371683D01*
X187951754Y-81402923D01*
X187970804Y-81438562D01*
X187982535Y-81477232D01*
X187987100Y-81523588D01*
X187987100Y-82174812D01*
X187982535Y-82221168D01*
X187970804Y-82259838D01*
X187951754Y-82295477D01*
X187926117Y-82326717D01*
X187894877Y-82352354D01*
X187859238Y-82371404D01*
X187820568Y-82383135D01*
X187774212Y-82387700D01*
X186697988Y-82387700D01*
X186651632Y-82383135D01*
X186612962Y-82371404D01*
X186577323Y-82352354D01*
X186546083Y-82326717D01*
X186520446Y-82295477D01*
X186501396Y-82259838D01*
X186489665Y-82221168D01*
X186485100Y-82174812D01*
X186485100Y-81523588D01*
X186489665Y-81477232D01*
X186501396Y-81438562D01*
X186520446Y-81402923D01*
X186546083Y-81371683D01*
X186577323Y-81346046D01*
X186612962Y-81326996D01*
X186651632Y-81315265D01*
X186697988Y-81310700D01*
X187774212Y-81310700D01*
X187820568Y-81315265D01*
G37*
G36*
X218479817Y-79951508D02*
G01*
X218511089Y-79960994D01*
X218539908Y-79976398D01*
X218565170Y-79997130D01*
X218585902Y-80022392D01*
X218601306Y-80051211D01*
X218610792Y-80082483D01*
X218614600Y-80121148D01*
X218614600Y-81956252D01*
X218610792Y-81994917D01*
X218601306Y-82026189D01*
X218585902Y-82055008D01*
X218565170Y-82080270D01*
X218539908Y-82101002D01*
X218511089Y-82116406D01*
X218479817Y-82125892D01*
X218441152Y-82129700D01*
X215086048Y-82129700D01*
X215047383Y-82125892D01*
X215016111Y-82116406D01*
X214987292Y-82101002D01*
X214962030Y-82080270D01*
X214941298Y-82055008D01*
X214925894Y-82026189D01*
X214916408Y-81994917D01*
X214912600Y-81956252D01*
X214912600Y-80121148D01*
X214916408Y-80082483D01*
X214925894Y-80051211D01*
X214941298Y-80022392D01*
X214962030Y-79997130D01*
X214987292Y-79976398D01*
X215016111Y-79960994D01*
X215047383Y-79951508D01*
X215086048Y-79947700D01*
X218441152Y-79947700D01*
X218479817Y-79951508D01*
G37*
G36*
X124326600Y-80549700D02*
G01*
X120224600Y-80549700D01*
X120224600Y-76447700D01*
X124326600Y-76447700D01*
X124326600Y-80549700D01*
G37*
G36*
X139947536Y-78516040D02*
G01*
X140045820Y-78525720D01*
X140234981Y-78583101D01*
X140409312Y-78676283D01*
X140562115Y-78801685D01*
X140687517Y-78954488D01*
X140780699Y-79128819D01*
X140838080Y-79317980D01*
X140857455Y-79514700D01*
X140838080Y-79711420D01*
X140780699Y-79900581D01*
X140687517Y-80074912D01*
X140562115Y-80227715D01*
X140409312Y-80353117D01*
X140234981Y-80446299D01*
X140045820Y-80503680D01*
X139954237Y-80512700D01*
X139898395Y-80518200D01*
X139704805Y-80518200D01*
X139648963Y-80512700D01*
X139557380Y-80503680D01*
X139368219Y-80446299D01*
X139193888Y-80353117D01*
X139041085Y-80227715D01*
X138915683Y-80074912D01*
X138822501Y-79900581D01*
X138765120Y-79711420D01*
X138745745Y-79514700D01*
X138765120Y-79317980D01*
X138822501Y-79128819D01*
X138915683Y-78954488D01*
X139041085Y-78801685D01*
X139193888Y-78676283D01*
X139368219Y-78583101D01*
X139557380Y-78525720D01*
X139655664Y-78516040D01*
X139704805Y-78511200D01*
X139898395Y-78511200D01*
X139947536Y-78516040D01*
G37*
G36*
X187820568Y-79440265D02*
G01*
X187859238Y-79451996D01*
X187894877Y-79471046D01*
X187926117Y-79496683D01*
X187951754Y-79527923D01*
X187970804Y-79563562D01*
X187982535Y-79602232D01*
X187987100Y-79648588D01*
X187987100Y-80299812D01*
X187982535Y-80346168D01*
X187970804Y-80384838D01*
X187951754Y-80420477D01*
X187926117Y-80451717D01*
X187894877Y-80477354D01*
X187859238Y-80496404D01*
X187820568Y-80508135D01*
X187774212Y-80512700D01*
X186697988Y-80512700D01*
X186651632Y-80508135D01*
X186612962Y-80496404D01*
X186577323Y-80477354D01*
X186546083Y-80451717D01*
X186520446Y-80420477D01*
X186501396Y-80384838D01*
X186489665Y-80346168D01*
X186485100Y-80299812D01*
X186485100Y-79648588D01*
X186489665Y-79602232D01*
X186501396Y-79563562D01*
X186520446Y-79527923D01*
X186546083Y-79496683D01*
X186577323Y-79471046D01*
X186612962Y-79451996D01*
X186651632Y-79440265D01*
X186697988Y-79435700D01*
X187774212Y-79435700D01*
X187820568Y-79440265D01*
G37*
G36*
X207284118Y-78004253D02*
G01*
X207502685Y-78094787D01*
X207502687Y-78094788D01*
X207699393Y-78226222D01*
X207866678Y-78393507D01*
X207998112Y-78590213D01*
X207998113Y-78590215D01*
X208088647Y-78808782D01*
X208134800Y-79040810D01*
X208134800Y-79277390D01*
X208088647Y-79509418D01*
X208007654Y-79704950D01*
X207998112Y-79727987D01*
X207866678Y-79924693D01*
X207699393Y-80091978D01*
X207502687Y-80223412D01*
X207502686Y-80223413D01*
X207502685Y-80223413D01*
X207284118Y-80313947D01*
X207052090Y-80360100D01*
X206815510Y-80360100D01*
X206583482Y-80313947D01*
X206364915Y-80223413D01*
X206364914Y-80223413D01*
X206364913Y-80223412D01*
X206168207Y-80091978D01*
X206000922Y-79924693D01*
X205869488Y-79727987D01*
X205859946Y-79704950D01*
X205778953Y-79509418D01*
X205732800Y-79277390D01*
X205732800Y-79040810D01*
X205778953Y-78808782D01*
X205869487Y-78590215D01*
X205869488Y-78590213D01*
X206000922Y-78393507D01*
X206168207Y-78226222D01*
X206364913Y-78094788D01*
X206364915Y-78094787D01*
X206583482Y-78004253D01*
X206815510Y-77958100D01*
X207052090Y-77958100D01*
X207284118Y-78004253D01*
G37*
G36*
X88451471Y-77804486D02*
G01*
X88657130Y-77866872D01*
X88846655Y-77968175D01*
X88846658Y-77968177D01*
X88846659Y-77968178D01*
X89012786Y-78104514D01*
X89149122Y-78270641D01*
X89149125Y-78270645D01*
X89250428Y-78460170D01*
X89312814Y-78665829D01*
X89333878Y-78879700D01*
X89312814Y-79093571D01*
X89250428Y-79299230D01*
X89149125Y-79488755D01*
X89149123Y-79488758D01*
X89149122Y-79488759D01*
X89012786Y-79654886D01*
X88846659Y-79791222D01*
X88846655Y-79791225D01*
X88657130Y-79892528D01*
X88451471Y-79954914D01*
X88291191Y-79970700D01*
X86664009Y-79970700D01*
X86503729Y-79954914D01*
X86298070Y-79892528D01*
X86108545Y-79791225D01*
X86108541Y-79791222D01*
X85942414Y-79654886D01*
X85806078Y-79488759D01*
X85806077Y-79488758D01*
X85806075Y-79488755D01*
X85704772Y-79299230D01*
X85642386Y-79093571D01*
X85621322Y-78879700D01*
X85642386Y-78665829D01*
X85704772Y-78460170D01*
X85806075Y-78270645D01*
X85806078Y-78270641D01*
X85942414Y-78104514D01*
X86108541Y-77968178D01*
X86108542Y-77968177D01*
X86108545Y-77968175D01*
X86298070Y-77866872D01*
X86503729Y-77804486D01*
X86664009Y-77788700D01*
X88291191Y-77788700D01*
X88451471Y-77804486D01*
G37*
G36*
X108613600Y-79949700D02*
G01*
X105711600Y-79949700D01*
X105711600Y-77047700D01*
X108613600Y-77047700D01*
X108613600Y-79949700D01*
G37*
G36*
X185667600Y-79724200D02*
G01*
X181565600Y-79724200D01*
X181565600Y-75622200D01*
X185667600Y-75622200D01*
X185667600Y-79724200D01*
G37*
G36*
X139947536Y-75976040D02*
G01*
X140045820Y-75985720D01*
X140234981Y-76043101D01*
X140409312Y-76136283D01*
X140562115Y-76261685D01*
X140687517Y-76414488D01*
X140780699Y-76588819D01*
X140838080Y-76777980D01*
X140857455Y-76974700D01*
X140838080Y-77171420D01*
X140780699Y-77360581D01*
X140687517Y-77534912D01*
X140562115Y-77687715D01*
X140409312Y-77813117D01*
X140234981Y-77906299D01*
X140045820Y-77963680D01*
X139947536Y-77973360D01*
X139898395Y-77978200D01*
X139704805Y-77978200D01*
X139655664Y-77973360D01*
X139557380Y-77963680D01*
X139368219Y-77906299D01*
X139193888Y-77813117D01*
X139041085Y-77687715D01*
X138915683Y-77534912D01*
X138822501Y-77360581D01*
X138765120Y-77171420D01*
X138745745Y-76974700D01*
X138765120Y-76777980D01*
X138822501Y-76588819D01*
X138915683Y-76414488D01*
X139041085Y-76261685D01*
X139193888Y-76136283D01*
X139368219Y-76043101D01*
X139557380Y-75985720D01*
X139655664Y-75976040D01*
X139704805Y-75971200D01*
X139898395Y-75971200D01*
X139947536Y-75976040D01*
G37*
G36*
X140852600Y-75438200D02*
G01*
X138750600Y-75438200D01*
X138750600Y-73431200D01*
X140852600Y-73431200D01*
X140852600Y-75438200D01*
G37*
G36*
X199664118Y-72924253D02*
G01*
X199882685Y-73014787D01*
X199882687Y-73014788D01*
X200079393Y-73146222D01*
X200246678Y-73313507D01*
X200340501Y-73453924D01*
X200378113Y-73510215D01*
X200468647Y-73728782D01*
X200514800Y-73960810D01*
X200514800Y-74197390D01*
X200468647Y-74429418D01*
X200408676Y-74574200D01*
X200378112Y-74647987D01*
X200246678Y-74844693D01*
X200079393Y-75011978D01*
X199882687Y-75143412D01*
X199882686Y-75143413D01*
X199882685Y-75143413D01*
X199664118Y-75233947D01*
X199432090Y-75280100D01*
X199195510Y-75280100D01*
X198963482Y-75233947D01*
X198744915Y-75143413D01*
X198744914Y-75143413D01*
X198744913Y-75143412D01*
X198548207Y-75011978D01*
X198380922Y-74844693D01*
X198249488Y-74647987D01*
X198218924Y-74574200D01*
X198158953Y-74429418D01*
X198112800Y-74197390D01*
X198112800Y-73960810D01*
X198158953Y-73728782D01*
X198249487Y-73510215D01*
X198287099Y-73453924D01*
X198380922Y-73313507D01*
X198548207Y-73146222D01*
X198744913Y-73014788D01*
X198744915Y-73014787D01*
X198963482Y-72924253D01*
X199195510Y-72878100D01*
X199432090Y-72878100D01*
X199664118Y-72924253D01*
G37*
G36*
X97001839Y-68134667D02*
G01*
X97315882Y-68197134D01*
X97907526Y-68442201D01*
X98307673Y-68709571D01*
X98439991Y-68797983D01*
X98892817Y-69250809D01*
X98940967Y-69322871D01*
X99248599Y-69783274D01*
X99493666Y-70374918D01*
X99555610Y-70686332D01*
X99618600Y-71003003D01*
X99618600Y-71643397D01*
X99569663Y-71889418D01*
X99493666Y-72271482D01*
X99248599Y-72863126D01*
X99028590Y-73192392D01*
X98892817Y-73395591D01*
X98439991Y-73848417D01*
X98334077Y-73919186D01*
X97907526Y-74204199D01*
X97315882Y-74449266D01*
X97001839Y-74511733D01*
X96687797Y-74574200D01*
X96047403Y-74574200D01*
X95733361Y-74511733D01*
X95419318Y-74449266D01*
X94827674Y-74204199D01*
X94401123Y-73919186D01*
X94295209Y-73848417D01*
X93842383Y-73395591D01*
X93706610Y-73192392D01*
X93486601Y-72863126D01*
X93241534Y-72271482D01*
X93165537Y-71889418D01*
X93116600Y-71643397D01*
X93116600Y-71003003D01*
X93179590Y-70686332D01*
X93241534Y-70374918D01*
X93486601Y-69783274D01*
X93794233Y-69322871D01*
X93842383Y-69250809D01*
X94295209Y-68797983D01*
X94427527Y-68709571D01*
X94827674Y-68442201D01*
X95419318Y-68197134D01*
X95733361Y-68134667D01*
X96047403Y-68072200D01*
X96687797Y-68072200D01*
X97001839Y-68134667D01*
G37*
G36*
X219175839Y-67931467D02*
G01*
X219489882Y-67993934D01*
X220081526Y-68239001D01*
X220481673Y-68506371D01*
X220613991Y-68594783D01*
X221066817Y-69047609D01*
X221081988Y-69070314D01*
X221422599Y-69580074D01*
X221621313Y-70059812D01*
X221667666Y-70171719D01*
X221792600Y-70799803D01*
X221792600Y-71440197D01*
X221746190Y-71673514D01*
X221667666Y-72068282D01*
X221422599Y-72659926D01*
X221211514Y-72975836D01*
X221093934Y-73151808D01*
X221066816Y-73192392D01*
X220613992Y-73645216D01*
X220081526Y-74000999D01*
X219489882Y-74246066D01*
X219175839Y-74308533D01*
X218861797Y-74371000D01*
X218221403Y-74371000D01*
X217907361Y-74308533D01*
X217593318Y-74246066D01*
X217001674Y-74000999D01*
X216469208Y-73645216D01*
X216016384Y-73192392D01*
X215989267Y-73151808D01*
X215871686Y-72975836D01*
X215660601Y-72659926D01*
X215415534Y-72068282D01*
X215337010Y-71673514D01*
X215290600Y-71440197D01*
X215290600Y-70799803D01*
X215415534Y-70171719D01*
X215461887Y-70059812D01*
X215660601Y-69580074D01*
X216001212Y-69070314D01*
X216016383Y-69047609D01*
X216469209Y-68594783D01*
X216601527Y-68506371D01*
X217001674Y-68239001D01*
X217593318Y-67993934D01*
X217907361Y-67931467D01*
X218221403Y-67869000D01*
X218861797Y-67869000D01*
X219175839Y-67931467D01*
G37*
G36*
X207284118Y-70384253D02*
G01*
X207502685Y-70474787D01*
X207502687Y-70474788D01*
X207699393Y-70606222D01*
X207866678Y-70773507D01*
X207906098Y-70832504D01*
X207998113Y-70970215D01*
X208088647Y-71188782D01*
X208134800Y-71420810D01*
X208134800Y-71657390D01*
X208088647Y-71889418D01*
X207998113Y-72107985D01*
X207998112Y-72107987D01*
X207866678Y-72304693D01*
X207699393Y-72471978D01*
X207502687Y-72603412D01*
X207502686Y-72603413D01*
X207502685Y-72603413D01*
X207284118Y-72693947D01*
X207052090Y-72740100D01*
X206815510Y-72740100D01*
X206583482Y-72693947D01*
X206364915Y-72603413D01*
X206364914Y-72603413D01*
X206364913Y-72603412D01*
X206168207Y-72471978D01*
X206000922Y-72304693D01*
X205869488Y-72107987D01*
X205869487Y-72107985D01*
X205778953Y-71889418D01*
X205732800Y-71657390D01*
X205732800Y-71420810D01*
X205778953Y-71188782D01*
X205869487Y-70970215D01*
X205961502Y-70832504D01*
X206000922Y-70773507D01*
X206168207Y-70606222D01*
X206364913Y-70474788D01*
X206364915Y-70474787D01*
X206583482Y-70384253D01*
X206815510Y-70338100D01*
X207052090Y-70338100D01*
X207284118Y-70384253D01*
G37*
M02*
