G04 #@! TF.GenerationSoftware,KiCad,Pcbnew,(5.1.6)-1*
G04 #@! TF.CreationDate,2021-05-26T15:33:52+02:00*
G04 #@! TF.ProjectId,PowerSupplyPCB,506f7765-7253-4757-9070-6c795043422e,0.1*
G04 #@! TF.SameCoordinates,Original*
G04 #@! TF.FileFunction,Legend,Bot*
G04 #@! TF.FilePolarity,Positive*
%FSLAX46Y46*%
G04 Gerber Fmt 4.6, Leading zero omitted, Abs format (unit mm)*
G04 Created by KiCad (PCBNEW (5.1.6)-1) date 2021-05-26 15:33:52*
%MOMM*%
%LPD*%
G01*
G04 APERTURE LIST*
%ADD10C,0.120000*%
%ADD11C,0.150000*%
G04 APERTURE END LIST*
D10*
X190041600Y-83773778D02*
X190041600Y-83256622D01*
X188621600Y-83773778D02*
X188621600Y-83256622D01*
X154427422Y-113638400D02*
X154944578Y-113638400D01*
X154427422Y-112218400D02*
X154944578Y-112218400D01*
X153572978Y-116485600D02*
X153055822Y-116485600D01*
X153572978Y-117905600D02*
X153055822Y-117905600D01*
X153572978Y-115772000D02*
X153055822Y-115772000D01*
X153572978Y-114352000D02*
X153055822Y-114352000D01*
X151230400Y-116683022D02*
X151230400Y-117200178D01*
X149810400Y-116683022D02*
X149810400Y-117200178D01*
X187946100Y-81170278D02*
X187946100Y-80653122D01*
X186526100Y-81170278D02*
X186526100Y-80653122D01*
X187946100Y-84789778D02*
X187946100Y-84272622D01*
X186526100Y-84789778D02*
X186526100Y-84272622D01*
X190200536Y-85932700D02*
X194304664Y-85932700D01*
X190200536Y-89352700D02*
X194304664Y-89352700D01*
X151230400Y-113251722D02*
X151230400Y-113768878D01*
X149810400Y-113251722D02*
X149810400Y-113768878D01*
X190566400Y-92644800D02*
X190566400Y-90194800D01*
X193786400Y-90844800D02*
X193786400Y-92644800D01*
X133907600Y-104296978D02*
X133907600Y-103779822D01*
X132487600Y-104296978D02*
X132487600Y-103779822D01*
X128423600Y-104296978D02*
X128423600Y-103779822D01*
X129843600Y-104296978D02*
X129843600Y-103779822D01*
X131875600Y-104296978D02*
X131875600Y-103779822D01*
X130455600Y-104296978D02*
X130455600Y-103779822D01*
D11*
X191338742Y-82396152D02*
X191386361Y-82348533D01*
X191433980Y-82205676D01*
X191433980Y-82110438D01*
X191386361Y-81967580D01*
X191291123Y-81872342D01*
X191195885Y-81824723D01*
X191005409Y-81777104D01*
X190862552Y-81777104D01*
X190672076Y-81824723D01*
X190576838Y-81872342D01*
X190481600Y-81967580D01*
X190433980Y-82110438D01*
X190433980Y-82205676D01*
X190481600Y-82348533D01*
X190529219Y-82396152D01*
X190529219Y-82777104D02*
X190481600Y-82824723D01*
X190433980Y-82919961D01*
X190433980Y-83158057D01*
X190481600Y-83253295D01*
X190529219Y-83300914D01*
X190624457Y-83348533D01*
X190719695Y-83348533D01*
X190862552Y-83300914D01*
X191433980Y-82729485D01*
X191433980Y-83348533D01*
X190433980Y-83967580D02*
X190433980Y-84062819D01*
X190481600Y-84158057D01*
X190529219Y-84205676D01*
X190624457Y-84253295D01*
X190814933Y-84300914D01*
X191053028Y-84300914D01*
X191243504Y-84253295D01*
X191338742Y-84205676D01*
X191386361Y-84158057D01*
X191433980Y-84062819D01*
X191433980Y-83967580D01*
X191386361Y-83872342D01*
X191338742Y-83824723D01*
X191243504Y-83777104D01*
X191053028Y-83729485D01*
X190814933Y-83729485D01*
X190624457Y-83777104D01*
X190529219Y-83824723D01*
X190481600Y-83872342D01*
X190433980Y-83967580D01*
X190433980Y-84634247D02*
X190433980Y-85253295D01*
X190814933Y-84919961D01*
X190814933Y-85062819D01*
X190862552Y-85158057D01*
X190910171Y-85205676D01*
X191005409Y-85253295D01*
X191243504Y-85253295D01*
X191338742Y-85205676D01*
X191386361Y-85158057D01*
X191433980Y-85062819D01*
X191433980Y-84777104D01*
X191386361Y-84681866D01*
X191338742Y-84634247D01*
X155805047Y-114935542D02*
X155852666Y-114983161D01*
X155995523Y-115030780D01*
X156090761Y-115030780D01*
X156233619Y-114983161D01*
X156328857Y-114887923D01*
X156376476Y-114792685D01*
X156424095Y-114602209D01*
X156424095Y-114459352D01*
X156376476Y-114268876D01*
X156328857Y-114173638D01*
X156233619Y-114078400D01*
X156090761Y-114030780D01*
X155995523Y-114030780D01*
X155852666Y-114078400D01*
X155805047Y-114126019D01*
X155471714Y-114030780D02*
X154852666Y-114030780D01*
X155186000Y-114411733D01*
X155043142Y-114411733D01*
X154947904Y-114459352D01*
X154900285Y-114506971D01*
X154852666Y-114602209D01*
X154852666Y-114840304D01*
X154900285Y-114935542D01*
X154947904Y-114983161D01*
X155043142Y-115030780D01*
X155328857Y-115030780D01*
X155424095Y-114983161D01*
X155471714Y-114935542D01*
X154233619Y-114030780D02*
X154138380Y-114030780D01*
X154043142Y-114078400D01*
X153995523Y-114126019D01*
X153947904Y-114221257D01*
X153900285Y-114411733D01*
X153900285Y-114649828D01*
X153947904Y-114840304D01*
X153995523Y-114935542D01*
X154043142Y-114983161D01*
X154138380Y-115030780D01*
X154233619Y-115030780D01*
X154328857Y-114983161D01*
X154376476Y-114935542D01*
X154424095Y-114840304D01*
X154471714Y-114649828D01*
X154471714Y-114411733D01*
X154424095Y-114221257D01*
X154376476Y-114126019D01*
X154328857Y-114078400D01*
X154233619Y-114030780D01*
X152995523Y-114030780D02*
X153471714Y-114030780D01*
X153519333Y-114506971D01*
X153471714Y-114459352D01*
X153376476Y-114411733D01*
X153138380Y-114411733D01*
X153043142Y-114459352D01*
X152995523Y-114506971D01*
X152947904Y-114602209D01*
X152947904Y-114840304D01*
X152995523Y-114935542D01*
X153043142Y-114983161D01*
X153138380Y-115030780D01*
X153376476Y-115030780D01*
X153471714Y-114983161D01*
X153519333Y-114935542D01*
X154433447Y-115902742D02*
X154481066Y-115950361D01*
X154623923Y-115997980D01*
X154719161Y-115997980D01*
X154862019Y-115950361D01*
X154957257Y-115855123D01*
X155004876Y-115759885D01*
X155052495Y-115569409D01*
X155052495Y-115426552D01*
X155004876Y-115236076D01*
X154957257Y-115140838D01*
X154862019Y-115045600D01*
X154719161Y-114997980D01*
X154623923Y-114997980D01*
X154481066Y-115045600D01*
X154433447Y-115093219D01*
X154100114Y-114997980D02*
X153481066Y-114997980D01*
X153814400Y-115378933D01*
X153671542Y-115378933D01*
X153576304Y-115426552D01*
X153528685Y-115474171D01*
X153481066Y-115569409D01*
X153481066Y-115807504D01*
X153528685Y-115902742D01*
X153576304Y-115950361D01*
X153671542Y-115997980D01*
X153957257Y-115997980D01*
X154052495Y-115950361D01*
X154100114Y-115902742D01*
X152862019Y-114997980D02*
X152766780Y-114997980D01*
X152671542Y-115045600D01*
X152623923Y-115093219D01*
X152576304Y-115188457D01*
X152528685Y-115378933D01*
X152528685Y-115617028D01*
X152576304Y-115807504D01*
X152623923Y-115902742D01*
X152671542Y-115950361D01*
X152766780Y-115997980D01*
X152862019Y-115997980D01*
X152957257Y-115950361D01*
X153004876Y-115902742D01*
X153052495Y-115807504D01*
X153100114Y-115617028D01*
X153100114Y-115378933D01*
X153052495Y-115188457D01*
X153004876Y-115093219D01*
X152957257Y-115045600D01*
X152862019Y-114997980D01*
X151671542Y-114997980D02*
X151862019Y-114997980D01*
X151957257Y-115045600D01*
X152004876Y-115093219D01*
X152100114Y-115236076D01*
X152147733Y-115426552D01*
X152147733Y-115807504D01*
X152100114Y-115902742D01*
X152052495Y-115950361D01*
X151957257Y-115997980D01*
X151766780Y-115997980D01*
X151671542Y-115950361D01*
X151623923Y-115902742D01*
X151576304Y-115807504D01*
X151576304Y-115569409D01*
X151623923Y-115474171D01*
X151671542Y-115426552D01*
X151766780Y-115378933D01*
X151957257Y-115378933D01*
X152052495Y-115426552D01*
X152100114Y-115474171D01*
X152147733Y-115569409D01*
X154433447Y-113769142D02*
X154481066Y-113816761D01*
X154623923Y-113864380D01*
X154719161Y-113864380D01*
X154862019Y-113816761D01*
X154957257Y-113721523D01*
X155004876Y-113626285D01*
X155052495Y-113435809D01*
X155052495Y-113292952D01*
X155004876Y-113102476D01*
X154957257Y-113007238D01*
X154862019Y-112912000D01*
X154719161Y-112864380D01*
X154623923Y-112864380D01*
X154481066Y-112912000D01*
X154433447Y-112959619D01*
X154100114Y-112864380D02*
X153481066Y-112864380D01*
X153814400Y-113245333D01*
X153671542Y-113245333D01*
X153576304Y-113292952D01*
X153528685Y-113340571D01*
X153481066Y-113435809D01*
X153481066Y-113673904D01*
X153528685Y-113769142D01*
X153576304Y-113816761D01*
X153671542Y-113864380D01*
X153957257Y-113864380D01*
X154052495Y-113816761D01*
X154100114Y-113769142D01*
X152862019Y-112864380D02*
X152766780Y-112864380D01*
X152671542Y-112912000D01*
X152623923Y-112959619D01*
X152576304Y-113054857D01*
X152528685Y-113245333D01*
X152528685Y-113483428D01*
X152576304Y-113673904D01*
X152623923Y-113769142D01*
X152671542Y-113816761D01*
X152766780Y-113864380D01*
X152862019Y-113864380D01*
X152957257Y-113816761D01*
X153004876Y-113769142D01*
X153052495Y-113673904D01*
X153100114Y-113483428D01*
X153100114Y-113245333D01*
X153052495Y-113054857D01*
X153004876Y-112959619D01*
X152957257Y-112912000D01*
X152862019Y-112864380D01*
X151957257Y-113292952D02*
X152052495Y-113245333D01*
X152100114Y-113197714D01*
X152147733Y-113102476D01*
X152147733Y-113054857D01*
X152100114Y-112959619D01*
X152052495Y-112912000D01*
X151957257Y-112864380D01*
X151766780Y-112864380D01*
X151671542Y-112912000D01*
X151623923Y-112959619D01*
X151576304Y-113054857D01*
X151576304Y-113102476D01*
X151623923Y-113197714D01*
X151671542Y-113245333D01*
X151766780Y-113292952D01*
X151957257Y-113292952D01*
X152052495Y-113340571D01*
X152100114Y-113388190D01*
X152147733Y-113483428D01*
X152147733Y-113673904D01*
X152100114Y-113769142D01*
X152052495Y-113816761D01*
X151957257Y-113864380D01*
X151766780Y-113864380D01*
X151671542Y-113816761D01*
X151623923Y-113769142D01*
X151576304Y-113673904D01*
X151576304Y-113483428D01*
X151623923Y-113388190D01*
X151671542Y-113340571D01*
X151766780Y-113292952D01*
X149227542Y-115822552D02*
X149275161Y-115774933D01*
X149322780Y-115632076D01*
X149322780Y-115536838D01*
X149275161Y-115393980D01*
X149179923Y-115298742D01*
X149084685Y-115251123D01*
X148894209Y-115203504D01*
X148751352Y-115203504D01*
X148560876Y-115251123D01*
X148465638Y-115298742D01*
X148370400Y-115393980D01*
X148322780Y-115536838D01*
X148322780Y-115632076D01*
X148370400Y-115774933D01*
X148418019Y-115822552D01*
X148322780Y-116155885D02*
X148322780Y-116774933D01*
X148703733Y-116441600D01*
X148703733Y-116584457D01*
X148751352Y-116679695D01*
X148798971Y-116727314D01*
X148894209Y-116774933D01*
X149132304Y-116774933D01*
X149227542Y-116727314D01*
X149275161Y-116679695D01*
X149322780Y-116584457D01*
X149322780Y-116298742D01*
X149275161Y-116203504D01*
X149227542Y-116155885D01*
X149322780Y-117727314D02*
X149322780Y-117155885D01*
X149322780Y-117441600D02*
X148322780Y-117441600D01*
X148465638Y-117346361D01*
X148560876Y-117251123D01*
X148608495Y-117155885D01*
X148322780Y-118346361D02*
X148322780Y-118441600D01*
X148370400Y-118536838D01*
X148418019Y-118584457D01*
X148513257Y-118632076D01*
X148703733Y-118679695D01*
X148941828Y-118679695D01*
X149132304Y-118632076D01*
X149227542Y-118584457D01*
X149275161Y-118536838D01*
X149322780Y-118441600D01*
X149322780Y-118346361D01*
X149275161Y-118251123D01*
X149227542Y-118203504D01*
X149132304Y-118155885D01*
X148941828Y-118108266D01*
X148703733Y-118108266D01*
X148513257Y-118155885D01*
X148418019Y-118203504D01*
X148370400Y-118251123D01*
X148322780Y-118346361D01*
X189338480Y-79792652D02*
X188862290Y-79459319D01*
X189338480Y-79221223D02*
X188338480Y-79221223D01*
X188338480Y-79602176D01*
X188386100Y-79697414D01*
X188433719Y-79745033D01*
X188528957Y-79792652D01*
X188671814Y-79792652D01*
X188767052Y-79745033D01*
X188814671Y-79697414D01*
X188862290Y-79602176D01*
X188862290Y-79221223D01*
X188433719Y-80173604D02*
X188386100Y-80221223D01*
X188338480Y-80316461D01*
X188338480Y-80554557D01*
X188386100Y-80649795D01*
X188433719Y-80697414D01*
X188528957Y-80745033D01*
X188624195Y-80745033D01*
X188767052Y-80697414D01*
X189338480Y-80125985D01*
X189338480Y-80745033D01*
X188338480Y-81364080D02*
X188338480Y-81459319D01*
X188386100Y-81554557D01*
X188433719Y-81602176D01*
X188528957Y-81649795D01*
X188719433Y-81697414D01*
X188957528Y-81697414D01*
X189148004Y-81649795D01*
X189243242Y-81602176D01*
X189290861Y-81554557D01*
X189338480Y-81459319D01*
X189338480Y-81364080D01*
X189290861Y-81268842D01*
X189243242Y-81221223D01*
X189148004Y-81173604D01*
X188957528Y-81125985D01*
X188719433Y-81125985D01*
X188528957Y-81173604D01*
X188433719Y-81221223D01*
X188386100Y-81268842D01*
X188338480Y-81364080D01*
X188338480Y-82030747D02*
X188338480Y-82649795D01*
X188719433Y-82316461D01*
X188719433Y-82459319D01*
X188767052Y-82554557D01*
X188814671Y-82602176D01*
X188909909Y-82649795D01*
X189148004Y-82649795D01*
X189243242Y-82602176D01*
X189290861Y-82554557D01*
X189338480Y-82459319D01*
X189338480Y-82173604D01*
X189290861Y-82078366D01*
X189243242Y-82030747D01*
X189338480Y-83412152D02*
X188862290Y-83078819D01*
X189338480Y-82840723D02*
X188338480Y-82840723D01*
X188338480Y-83221676D01*
X188386100Y-83316914D01*
X188433719Y-83364533D01*
X188528957Y-83412152D01*
X188671814Y-83412152D01*
X188767052Y-83364533D01*
X188814671Y-83316914D01*
X188862290Y-83221676D01*
X188862290Y-82840723D01*
X188433719Y-83793104D02*
X188386100Y-83840723D01*
X188338480Y-83935961D01*
X188338480Y-84174057D01*
X188386100Y-84269295D01*
X188433719Y-84316914D01*
X188528957Y-84364533D01*
X188624195Y-84364533D01*
X188767052Y-84316914D01*
X189338480Y-83745485D01*
X189338480Y-84364533D01*
X188338480Y-84983580D02*
X188338480Y-85078819D01*
X188386100Y-85174057D01*
X188433719Y-85221676D01*
X188528957Y-85269295D01*
X188719433Y-85316914D01*
X188957528Y-85316914D01*
X189148004Y-85269295D01*
X189243242Y-85221676D01*
X189290861Y-85174057D01*
X189338480Y-85078819D01*
X189338480Y-84983580D01*
X189290861Y-84888342D01*
X189243242Y-84840723D01*
X189148004Y-84793104D01*
X188957528Y-84745485D01*
X188719433Y-84745485D01*
X188528957Y-84793104D01*
X188433719Y-84840723D01*
X188386100Y-84888342D01*
X188338480Y-84983580D01*
X188671814Y-86174057D02*
X189338480Y-86174057D01*
X188290861Y-85935961D02*
X189005147Y-85697866D01*
X189005147Y-86316914D01*
X192927147Y-85428080D02*
X193260480Y-84951890D01*
X193498576Y-85428080D02*
X193498576Y-84428080D01*
X193117623Y-84428080D01*
X193022385Y-84475700D01*
X192974766Y-84523319D01*
X192927147Y-84618557D01*
X192927147Y-84761414D01*
X192974766Y-84856652D01*
X193022385Y-84904271D01*
X193117623Y-84951890D01*
X193498576Y-84951890D01*
X192546195Y-84523319D02*
X192498576Y-84475700D01*
X192403338Y-84428080D01*
X192165242Y-84428080D01*
X192070004Y-84475700D01*
X192022385Y-84523319D01*
X191974766Y-84618557D01*
X191974766Y-84713795D01*
X192022385Y-84856652D01*
X192593814Y-85428080D01*
X191974766Y-85428080D01*
X191355719Y-84428080D02*
X191260480Y-84428080D01*
X191165242Y-84475700D01*
X191117623Y-84523319D01*
X191070004Y-84618557D01*
X191022385Y-84809033D01*
X191022385Y-85047128D01*
X191070004Y-85237604D01*
X191117623Y-85332842D01*
X191165242Y-85380461D01*
X191260480Y-85428080D01*
X191355719Y-85428080D01*
X191450957Y-85380461D01*
X191498576Y-85332842D01*
X191546195Y-85237604D01*
X191593814Y-85047128D01*
X191593814Y-84809033D01*
X191546195Y-84618557D01*
X191498576Y-84523319D01*
X191450957Y-84475700D01*
X191355719Y-84428080D01*
X190689052Y-84428080D02*
X190022385Y-84428080D01*
X190450957Y-85428080D01*
X149322780Y-112391252D02*
X148846590Y-112057919D01*
X149322780Y-111819823D02*
X148322780Y-111819823D01*
X148322780Y-112200776D01*
X148370400Y-112296014D01*
X148418019Y-112343633D01*
X148513257Y-112391252D01*
X148656114Y-112391252D01*
X148751352Y-112343633D01*
X148798971Y-112296014D01*
X148846590Y-112200776D01*
X148846590Y-111819823D01*
X148322780Y-112724585D02*
X148322780Y-113343633D01*
X148703733Y-113010300D01*
X148703733Y-113153157D01*
X148751352Y-113248395D01*
X148798971Y-113296014D01*
X148894209Y-113343633D01*
X149132304Y-113343633D01*
X149227542Y-113296014D01*
X149275161Y-113248395D01*
X149322780Y-113153157D01*
X149322780Y-112867442D01*
X149275161Y-112772204D01*
X149227542Y-112724585D01*
X148322780Y-113962680D02*
X148322780Y-114057919D01*
X148370400Y-114153157D01*
X148418019Y-114200776D01*
X148513257Y-114248395D01*
X148703733Y-114296014D01*
X148941828Y-114296014D01*
X149132304Y-114248395D01*
X149227542Y-114200776D01*
X149275161Y-114153157D01*
X149322780Y-114057919D01*
X149322780Y-113962680D01*
X149275161Y-113867442D01*
X149227542Y-113819823D01*
X149132304Y-113772204D01*
X148941828Y-113724585D01*
X148703733Y-113724585D01*
X148513257Y-113772204D01*
X148418019Y-113819823D01*
X148370400Y-113867442D01*
X148322780Y-113962680D01*
X149322780Y-114772204D02*
X149322780Y-114962680D01*
X149275161Y-115057919D01*
X149227542Y-115105538D01*
X149084685Y-115200776D01*
X148894209Y-115248395D01*
X148513257Y-115248395D01*
X148418019Y-115200776D01*
X148370400Y-115153157D01*
X148322780Y-115057919D01*
X148322780Y-114867442D01*
X148370400Y-114772204D01*
X148418019Y-114724585D01*
X148513257Y-114676966D01*
X148751352Y-114676966D01*
X148846590Y-114724585D01*
X148894209Y-114772204D01*
X148941828Y-114867442D01*
X148941828Y-115057919D01*
X148894209Y-115153157D01*
X148846590Y-115200776D01*
X148751352Y-115248395D01*
X188728780Y-90030514D02*
X189538304Y-90030514D01*
X189633542Y-90078133D01*
X189681161Y-90125752D01*
X189728780Y-90220990D01*
X189728780Y-90411466D01*
X189681161Y-90506704D01*
X189633542Y-90554323D01*
X189538304Y-90601942D01*
X188728780Y-90601942D01*
X188824019Y-91030514D02*
X188776400Y-91078133D01*
X188728780Y-91173371D01*
X188728780Y-91411466D01*
X188776400Y-91506704D01*
X188824019Y-91554323D01*
X188919257Y-91601942D01*
X189014495Y-91601942D01*
X189157352Y-91554323D01*
X189728780Y-90982895D01*
X189728780Y-91601942D01*
X188728780Y-92220990D02*
X188728780Y-92316228D01*
X188776400Y-92411466D01*
X188824019Y-92459085D01*
X188919257Y-92506704D01*
X189109733Y-92554323D01*
X189347828Y-92554323D01*
X189538304Y-92506704D01*
X189633542Y-92459085D01*
X189681161Y-92411466D01*
X189728780Y-92316228D01*
X189728780Y-92220990D01*
X189681161Y-92125752D01*
X189633542Y-92078133D01*
X189538304Y-92030514D01*
X189347828Y-91982895D01*
X189109733Y-91982895D01*
X188919257Y-92030514D01*
X188824019Y-92078133D01*
X188776400Y-92125752D01*
X188728780Y-92220990D01*
X188824019Y-92935276D02*
X188776400Y-92982895D01*
X188728780Y-93078133D01*
X188728780Y-93316228D01*
X188776400Y-93411466D01*
X188824019Y-93459085D01*
X188919257Y-93506704D01*
X189014495Y-93506704D01*
X189157352Y-93459085D01*
X189728780Y-92887657D01*
X189728780Y-93506704D01*
X133751580Y-99261752D02*
X133275390Y-98928419D01*
X133751580Y-98690323D02*
X132751580Y-98690323D01*
X132751580Y-99071276D01*
X132799200Y-99166514D01*
X132846819Y-99214133D01*
X132942057Y-99261752D01*
X133084914Y-99261752D01*
X133180152Y-99214133D01*
X133227771Y-99166514D01*
X133275390Y-99071276D01*
X133275390Y-98690323D01*
X132751580Y-99595085D02*
X132751580Y-100214133D01*
X133132533Y-99880800D01*
X133132533Y-100023657D01*
X133180152Y-100118895D01*
X133227771Y-100166514D01*
X133323009Y-100214133D01*
X133561104Y-100214133D01*
X133656342Y-100166514D01*
X133703961Y-100118895D01*
X133751580Y-100023657D01*
X133751580Y-99737942D01*
X133703961Y-99642704D01*
X133656342Y-99595085D01*
X133751580Y-101166514D02*
X133751580Y-100595085D01*
X133751580Y-100880800D02*
X132751580Y-100880800D01*
X132894438Y-100785561D01*
X132989676Y-100690323D01*
X133037295Y-100595085D01*
X133084914Y-102023657D02*
X133751580Y-102023657D01*
X132703961Y-101785561D02*
X133418247Y-101547466D01*
X133418247Y-102166514D01*
X129636780Y-99312552D02*
X129160590Y-98979219D01*
X129636780Y-98741123D02*
X128636780Y-98741123D01*
X128636780Y-99122076D01*
X128684400Y-99217314D01*
X128732019Y-99264933D01*
X128827257Y-99312552D01*
X128970114Y-99312552D01*
X129065352Y-99264933D01*
X129112971Y-99217314D01*
X129160590Y-99122076D01*
X129160590Y-98741123D01*
X128636780Y-99645885D02*
X128636780Y-100264933D01*
X129017733Y-99931600D01*
X129017733Y-100074457D01*
X129065352Y-100169695D01*
X129112971Y-100217314D01*
X129208209Y-100264933D01*
X129446304Y-100264933D01*
X129541542Y-100217314D01*
X129589161Y-100169695D01*
X129636780Y-100074457D01*
X129636780Y-99788742D01*
X129589161Y-99693504D01*
X129541542Y-99645885D01*
X129636780Y-101217314D02*
X129636780Y-100645885D01*
X129636780Y-100931600D02*
X128636780Y-100931600D01*
X128779638Y-100836361D01*
X128874876Y-100741123D01*
X128922495Y-100645885D01*
X128636780Y-102122076D02*
X128636780Y-101645885D01*
X129112971Y-101598266D01*
X129065352Y-101645885D01*
X129017733Y-101741123D01*
X129017733Y-101979219D01*
X129065352Y-102074457D01*
X129112971Y-102122076D01*
X129208209Y-102169695D01*
X129446304Y-102169695D01*
X129541542Y-102122076D01*
X129589161Y-102074457D01*
X129636780Y-101979219D01*
X129636780Y-101741123D01*
X129589161Y-101645885D01*
X129541542Y-101598266D01*
X131668780Y-99210952D02*
X131192590Y-98877619D01*
X131668780Y-98639523D02*
X130668780Y-98639523D01*
X130668780Y-99020476D01*
X130716400Y-99115714D01*
X130764019Y-99163333D01*
X130859257Y-99210952D01*
X131002114Y-99210952D01*
X131097352Y-99163333D01*
X131144971Y-99115714D01*
X131192590Y-99020476D01*
X131192590Y-98639523D01*
X130668780Y-99544285D02*
X130668780Y-100163333D01*
X131049733Y-99830000D01*
X131049733Y-99972857D01*
X131097352Y-100068095D01*
X131144971Y-100115714D01*
X131240209Y-100163333D01*
X131478304Y-100163333D01*
X131573542Y-100115714D01*
X131621161Y-100068095D01*
X131668780Y-99972857D01*
X131668780Y-99687142D01*
X131621161Y-99591904D01*
X131573542Y-99544285D01*
X131668780Y-101115714D02*
X131668780Y-100544285D01*
X131668780Y-100830000D02*
X130668780Y-100830000D01*
X130811638Y-100734761D01*
X130906876Y-100639523D01*
X130954495Y-100544285D01*
X130668780Y-101972857D02*
X130668780Y-101782380D01*
X130716400Y-101687142D01*
X130764019Y-101639523D01*
X130906876Y-101544285D01*
X131097352Y-101496666D01*
X131478304Y-101496666D01*
X131573542Y-101544285D01*
X131621161Y-101591904D01*
X131668780Y-101687142D01*
X131668780Y-101877619D01*
X131621161Y-101972857D01*
X131573542Y-102020476D01*
X131478304Y-102068095D01*
X131240209Y-102068095D01*
X131144971Y-102020476D01*
X131097352Y-101972857D01*
X131049733Y-101877619D01*
X131049733Y-101687142D01*
X131097352Y-101591904D01*
X131144971Y-101544285D01*
X131240209Y-101496666D01*
X133599180Y-121448723D02*
X132599180Y-121448723D01*
X132599180Y-121686819D01*
X132646800Y-121829676D01*
X132742038Y-121924914D01*
X132837276Y-121972533D01*
X133027752Y-122020152D01*
X133170609Y-122020152D01*
X133361085Y-121972533D01*
X133456323Y-121924914D01*
X133551561Y-121829676D01*
X133599180Y-121686819D01*
X133599180Y-121448723D01*
X132599180Y-122353485D02*
X132599180Y-122972533D01*
X132980133Y-122639200D01*
X132980133Y-122782057D01*
X133027752Y-122877295D01*
X133075371Y-122924914D01*
X133170609Y-122972533D01*
X133408704Y-122972533D01*
X133503942Y-122924914D01*
X133551561Y-122877295D01*
X133599180Y-122782057D01*
X133599180Y-122496342D01*
X133551561Y-122401104D01*
X133503942Y-122353485D01*
X132599180Y-123591580D02*
X132599180Y-123686819D01*
X132646800Y-123782057D01*
X132694419Y-123829676D01*
X132789657Y-123877295D01*
X132980133Y-123924914D01*
X133218228Y-123924914D01*
X133408704Y-123877295D01*
X133503942Y-123829676D01*
X133551561Y-123782057D01*
X133599180Y-123686819D01*
X133599180Y-123591580D01*
X133551561Y-123496342D01*
X133503942Y-123448723D01*
X133408704Y-123401104D01*
X133218228Y-123353485D01*
X132980133Y-123353485D01*
X132789657Y-123401104D01*
X132694419Y-123448723D01*
X132646800Y-123496342D01*
X132599180Y-123591580D01*
X132694419Y-124305866D02*
X132646800Y-124353485D01*
X132599180Y-124448723D01*
X132599180Y-124686819D01*
X132646800Y-124782057D01*
X132694419Y-124829676D01*
X132789657Y-124877295D01*
X132884895Y-124877295D01*
X133027752Y-124829676D01*
X133599180Y-124258247D01*
X133599180Y-124877295D01*
X123591580Y-121397923D02*
X122591580Y-121397923D01*
X122591580Y-121636019D01*
X122639200Y-121778876D01*
X122734438Y-121874114D01*
X122829676Y-121921733D01*
X123020152Y-121969352D01*
X123163009Y-121969352D01*
X123353485Y-121921733D01*
X123448723Y-121874114D01*
X123543961Y-121778876D01*
X123591580Y-121636019D01*
X123591580Y-121397923D01*
X122591580Y-122302685D02*
X122591580Y-122921733D01*
X122972533Y-122588400D01*
X122972533Y-122731257D01*
X123020152Y-122826495D01*
X123067771Y-122874114D01*
X123163009Y-122921733D01*
X123401104Y-122921733D01*
X123496342Y-122874114D01*
X123543961Y-122826495D01*
X123591580Y-122731257D01*
X123591580Y-122445542D01*
X123543961Y-122350304D01*
X123496342Y-122302685D01*
X122591580Y-123540780D02*
X122591580Y-123636019D01*
X122639200Y-123731257D01*
X122686819Y-123778876D01*
X122782057Y-123826495D01*
X122972533Y-123874114D01*
X123210628Y-123874114D01*
X123401104Y-123826495D01*
X123496342Y-123778876D01*
X123543961Y-123731257D01*
X123591580Y-123636019D01*
X123591580Y-123540780D01*
X123543961Y-123445542D01*
X123496342Y-123397923D01*
X123401104Y-123350304D01*
X123210628Y-123302685D01*
X122972533Y-123302685D01*
X122782057Y-123350304D01*
X122686819Y-123397923D01*
X122639200Y-123445542D01*
X122591580Y-123540780D01*
X122591580Y-124207447D02*
X122591580Y-124826495D01*
X122972533Y-124493161D01*
X122972533Y-124636019D01*
X123020152Y-124731257D01*
X123067771Y-124778876D01*
X123163009Y-124826495D01*
X123401104Y-124826495D01*
X123496342Y-124778876D01*
X123543961Y-124731257D01*
X123591580Y-124636019D01*
X123591580Y-124350304D01*
X123543961Y-124255066D01*
X123496342Y-124207447D01*
X130849619Y-122142380D02*
X130802000Y-122047142D01*
X130706761Y-121951904D01*
X130563904Y-121809047D01*
X130516285Y-121713809D01*
X130516285Y-121618571D01*
X130754380Y-121666190D02*
X130706761Y-121570952D01*
X130611523Y-121475714D01*
X130421047Y-121428095D01*
X130087714Y-121428095D01*
X129897238Y-121475714D01*
X129802000Y-121570952D01*
X129754380Y-121666190D01*
X129754380Y-121856666D01*
X129802000Y-121951904D01*
X129897238Y-122047142D01*
X130087714Y-122094761D01*
X130421047Y-122094761D01*
X130611523Y-122047142D01*
X130706761Y-121951904D01*
X130754380Y-121856666D01*
X130754380Y-121666190D01*
X129754380Y-122428095D02*
X129754380Y-123047142D01*
X130135333Y-122713809D01*
X130135333Y-122856666D01*
X130182952Y-122951904D01*
X130230571Y-122999523D01*
X130325809Y-123047142D01*
X130563904Y-123047142D01*
X130659142Y-122999523D01*
X130706761Y-122951904D01*
X130754380Y-122856666D01*
X130754380Y-122570952D01*
X130706761Y-122475714D01*
X130659142Y-122428095D01*
X129754380Y-123666190D02*
X129754380Y-123761428D01*
X129802000Y-123856666D01*
X129849619Y-123904285D01*
X129944857Y-123951904D01*
X130135333Y-123999523D01*
X130373428Y-123999523D01*
X130563904Y-123951904D01*
X130659142Y-123904285D01*
X130706761Y-123856666D01*
X130754380Y-123761428D01*
X130754380Y-123666190D01*
X130706761Y-123570952D01*
X130659142Y-123523333D01*
X130563904Y-123475714D01*
X130373428Y-123428095D01*
X130135333Y-123428095D01*
X129944857Y-123475714D01*
X129849619Y-123523333D01*
X129802000Y-123570952D01*
X129754380Y-123666190D01*
X130087714Y-124856666D02*
X130754380Y-124856666D01*
X129706761Y-124618571D02*
X130421047Y-124380476D01*
X130421047Y-124999523D01*
X120791219Y-121989980D02*
X120743600Y-121894742D01*
X120648361Y-121799504D01*
X120505504Y-121656647D01*
X120457885Y-121561409D01*
X120457885Y-121466171D01*
X120695980Y-121513790D02*
X120648361Y-121418552D01*
X120553123Y-121323314D01*
X120362647Y-121275695D01*
X120029314Y-121275695D01*
X119838838Y-121323314D01*
X119743600Y-121418552D01*
X119695980Y-121513790D01*
X119695980Y-121704266D01*
X119743600Y-121799504D01*
X119838838Y-121894742D01*
X120029314Y-121942361D01*
X120362647Y-121942361D01*
X120553123Y-121894742D01*
X120648361Y-121799504D01*
X120695980Y-121704266D01*
X120695980Y-121513790D01*
X119695980Y-122275695D02*
X119695980Y-122894742D01*
X120076933Y-122561409D01*
X120076933Y-122704266D01*
X120124552Y-122799504D01*
X120172171Y-122847123D01*
X120267409Y-122894742D01*
X120505504Y-122894742D01*
X120600742Y-122847123D01*
X120648361Y-122799504D01*
X120695980Y-122704266D01*
X120695980Y-122418552D01*
X120648361Y-122323314D01*
X120600742Y-122275695D01*
X119695980Y-123513790D02*
X119695980Y-123609028D01*
X119743600Y-123704266D01*
X119791219Y-123751885D01*
X119886457Y-123799504D01*
X120076933Y-123847123D01*
X120315028Y-123847123D01*
X120505504Y-123799504D01*
X120600742Y-123751885D01*
X120648361Y-123704266D01*
X120695980Y-123609028D01*
X120695980Y-123513790D01*
X120648361Y-123418552D01*
X120600742Y-123370933D01*
X120505504Y-123323314D01*
X120315028Y-123275695D01*
X120076933Y-123275695D01*
X119886457Y-123323314D01*
X119791219Y-123370933D01*
X119743600Y-123418552D01*
X119695980Y-123513790D01*
X119695980Y-124751885D02*
X119695980Y-124275695D01*
X120172171Y-124228076D01*
X120124552Y-124275695D01*
X120076933Y-124370933D01*
X120076933Y-124609028D01*
X120124552Y-124704266D01*
X120172171Y-124751885D01*
X120267409Y-124799504D01*
X120505504Y-124799504D01*
X120600742Y-124751885D01*
X120648361Y-124704266D01*
X120695980Y-124609028D01*
X120695980Y-124370933D01*
X120648361Y-124275695D01*
X120600742Y-124228076D01*
X127909580Y-122020152D02*
X127433390Y-121686819D01*
X127909580Y-121448723D02*
X126909580Y-121448723D01*
X126909580Y-121829676D01*
X126957200Y-121924914D01*
X127004819Y-121972533D01*
X127100057Y-122020152D01*
X127242914Y-122020152D01*
X127338152Y-121972533D01*
X127385771Y-121924914D01*
X127433390Y-121829676D01*
X127433390Y-121448723D01*
X126909580Y-122353485D02*
X126909580Y-122972533D01*
X127290533Y-122639200D01*
X127290533Y-122782057D01*
X127338152Y-122877295D01*
X127385771Y-122924914D01*
X127481009Y-122972533D01*
X127719104Y-122972533D01*
X127814342Y-122924914D01*
X127861961Y-122877295D01*
X127909580Y-122782057D01*
X127909580Y-122496342D01*
X127861961Y-122401104D01*
X127814342Y-122353485D01*
X126909580Y-123591580D02*
X126909580Y-123686819D01*
X126957200Y-123782057D01*
X127004819Y-123829676D01*
X127100057Y-123877295D01*
X127290533Y-123924914D01*
X127528628Y-123924914D01*
X127719104Y-123877295D01*
X127814342Y-123829676D01*
X127861961Y-123782057D01*
X127909580Y-123686819D01*
X127909580Y-123591580D01*
X127861961Y-123496342D01*
X127814342Y-123448723D01*
X127719104Y-123401104D01*
X127528628Y-123353485D01*
X127290533Y-123353485D01*
X127100057Y-123401104D01*
X127004819Y-123448723D01*
X126957200Y-123496342D01*
X126909580Y-123591580D01*
X127338152Y-124496342D02*
X127290533Y-124401104D01*
X127242914Y-124353485D01*
X127147676Y-124305866D01*
X127100057Y-124305866D01*
X127004819Y-124353485D01*
X126957200Y-124401104D01*
X126909580Y-124496342D01*
X126909580Y-124686819D01*
X126957200Y-124782057D01*
X127004819Y-124829676D01*
X127100057Y-124877295D01*
X127147676Y-124877295D01*
X127242914Y-124829676D01*
X127290533Y-124782057D01*
X127338152Y-124686819D01*
X127338152Y-124496342D01*
X127385771Y-124401104D01*
X127433390Y-124353485D01*
X127528628Y-124305866D01*
X127719104Y-124305866D01*
X127814342Y-124353485D01*
X127861961Y-124401104D01*
X127909580Y-124496342D01*
X127909580Y-124686819D01*
X127861961Y-124782057D01*
X127814342Y-124829676D01*
X127719104Y-124877295D01*
X127528628Y-124877295D01*
X127433390Y-124829676D01*
X127385771Y-124782057D01*
X127338152Y-124686819D01*
X117851180Y-121969352D02*
X117374990Y-121636019D01*
X117851180Y-121397923D02*
X116851180Y-121397923D01*
X116851180Y-121778876D01*
X116898800Y-121874114D01*
X116946419Y-121921733D01*
X117041657Y-121969352D01*
X117184514Y-121969352D01*
X117279752Y-121921733D01*
X117327371Y-121874114D01*
X117374990Y-121778876D01*
X117374990Y-121397923D01*
X116851180Y-122302685D02*
X116851180Y-122921733D01*
X117232133Y-122588400D01*
X117232133Y-122731257D01*
X117279752Y-122826495D01*
X117327371Y-122874114D01*
X117422609Y-122921733D01*
X117660704Y-122921733D01*
X117755942Y-122874114D01*
X117803561Y-122826495D01*
X117851180Y-122731257D01*
X117851180Y-122445542D01*
X117803561Y-122350304D01*
X117755942Y-122302685D01*
X117851180Y-123874114D02*
X117851180Y-123302685D01*
X117851180Y-123588400D02*
X116851180Y-123588400D01*
X116994038Y-123493161D01*
X117089276Y-123397923D01*
X117136895Y-123302685D01*
X117279752Y-124445542D02*
X117232133Y-124350304D01*
X117184514Y-124302685D01*
X117089276Y-124255066D01*
X117041657Y-124255066D01*
X116946419Y-124302685D01*
X116898800Y-124350304D01*
X116851180Y-124445542D01*
X116851180Y-124636019D01*
X116898800Y-124731257D01*
X116946419Y-124778876D01*
X117041657Y-124826495D01*
X117089276Y-124826495D01*
X117184514Y-124778876D01*
X117232133Y-124731257D01*
X117279752Y-124636019D01*
X117279752Y-124445542D01*
X117327371Y-124350304D01*
X117374990Y-124302685D01*
X117470228Y-124255066D01*
X117660704Y-124255066D01*
X117755942Y-124302685D01*
X117803561Y-124350304D01*
X117851180Y-124445542D01*
X117851180Y-124636019D01*
X117803561Y-124731257D01*
X117755942Y-124778876D01*
X117660704Y-124826495D01*
X117470228Y-124826495D01*
X117374990Y-124778876D01*
X117327371Y-124731257D01*
X117279752Y-124636019D01*
X131421047Y-126385580D02*
X131754380Y-125909390D01*
X131992476Y-126385580D02*
X131992476Y-125385580D01*
X131611523Y-125385580D01*
X131516285Y-125433200D01*
X131468666Y-125480819D01*
X131421047Y-125576057D01*
X131421047Y-125718914D01*
X131468666Y-125814152D01*
X131516285Y-125861771D01*
X131611523Y-125909390D01*
X131992476Y-125909390D01*
X131087714Y-125385580D02*
X130468666Y-125385580D01*
X130802000Y-125766533D01*
X130659142Y-125766533D01*
X130563904Y-125814152D01*
X130516285Y-125861771D01*
X130468666Y-125957009D01*
X130468666Y-126195104D01*
X130516285Y-126290342D01*
X130563904Y-126337961D01*
X130659142Y-126385580D01*
X130944857Y-126385580D01*
X131040095Y-126337961D01*
X131087714Y-126290342D01*
X129516285Y-126385580D02*
X130087714Y-126385580D01*
X129802000Y-126385580D02*
X129802000Y-125385580D01*
X129897238Y-125528438D01*
X129992476Y-125623676D01*
X130087714Y-125671295D01*
X129040095Y-126385580D02*
X128849619Y-126385580D01*
X128754380Y-126337961D01*
X128706761Y-126290342D01*
X128611523Y-126147485D01*
X128563904Y-125957009D01*
X128563904Y-125576057D01*
X128611523Y-125480819D01*
X128659142Y-125433200D01*
X128754380Y-125385580D01*
X128944857Y-125385580D01*
X129040095Y-125433200D01*
X129087714Y-125480819D01*
X129135333Y-125576057D01*
X129135333Y-125814152D01*
X129087714Y-125909390D01*
X129040095Y-125957009D01*
X128944857Y-126004628D01*
X128754380Y-126004628D01*
X128659142Y-125957009D01*
X128611523Y-125909390D01*
X128563904Y-125814152D01*
X135732780Y-122020152D02*
X135256590Y-121686819D01*
X135732780Y-121448723D02*
X134732780Y-121448723D01*
X134732780Y-121829676D01*
X134780400Y-121924914D01*
X134828019Y-121972533D01*
X134923257Y-122020152D01*
X135066114Y-122020152D01*
X135161352Y-121972533D01*
X135208971Y-121924914D01*
X135256590Y-121829676D01*
X135256590Y-121448723D01*
X134732780Y-122353485D02*
X134732780Y-122972533D01*
X135113733Y-122639200D01*
X135113733Y-122782057D01*
X135161352Y-122877295D01*
X135208971Y-122924914D01*
X135304209Y-122972533D01*
X135542304Y-122972533D01*
X135637542Y-122924914D01*
X135685161Y-122877295D01*
X135732780Y-122782057D01*
X135732780Y-122496342D01*
X135685161Y-122401104D01*
X135637542Y-122353485D01*
X134828019Y-123353485D02*
X134780400Y-123401104D01*
X134732780Y-123496342D01*
X134732780Y-123734438D01*
X134780400Y-123829676D01*
X134828019Y-123877295D01*
X134923257Y-123924914D01*
X135018495Y-123924914D01*
X135161352Y-123877295D01*
X135732780Y-123305866D01*
X135732780Y-123924914D01*
X134732780Y-124543961D02*
X134732780Y-124639200D01*
X134780400Y-124734438D01*
X134828019Y-124782057D01*
X134923257Y-124829676D01*
X135113733Y-124877295D01*
X135351828Y-124877295D01*
X135542304Y-124829676D01*
X135637542Y-124782057D01*
X135685161Y-124734438D01*
X135732780Y-124639200D01*
X135732780Y-124543961D01*
X135685161Y-124448723D01*
X135637542Y-124401104D01*
X135542304Y-124353485D01*
X135351828Y-124305866D01*
X135113733Y-124305866D01*
X134923257Y-124353485D01*
X134828019Y-124401104D01*
X134780400Y-124448723D01*
X134732780Y-124543961D01*
X121362647Y-126385580D02*
X121695980Y-125909390D01*
X121934076Y-126385580D02*
X121934076Y-125385580D01*
X121553123Y-125385580D01*
X121457885Y-125433200D01*
X121410266Y-125480819D01*
X121362647Y-125576057D01*
X121362647Y-125718914D01*
X121410266Y-125814152D01*
X121457885Y-125861771D01*
X121553123Y-125909390D01*
X121934076Y-125909390D01*
X121029314Y-125385580D02*
X120410266Y-125385580D01*
X120743600Y-125766533D01*
X120600742Y-125766533D01*
X120505504Y-125814152D01*
X120457885Y-125861771D01*
X120410266Y-125957009D01*
X120410266Y-126195104D01*
X120457885Y-126290342D01*
X120505504Y-126337961D01*
X120600742Y-126385580D01*
X120886457Y-126385580D01*
X120981695Y-126337961D01*
X121029314Y-126290342D01*
X120029314Y-125480819D02*
X119981695Y-125433200D01*
X119886457Y-125385580D01*
X119648361Y-125385580D01*
X119553123Y-125433200D01*
X119505504Y-125480819D01*
X119457885Y-125576057D01*
X119457885Y-125671295D01*
X119505504Y-125814152D01*
X120076933Y-126385580D01*
X119457885Y-126385580D01*
X118505504Y-126385580D02*
X119076933Y-126385580D01*
X118791219Y-126385580D02*
X118791219Y-125385580D01*
X118886457Y-125528438D01*
X118981695Y-125623676D01*
X119076933Y-125671295D01*
X125674380Y-122020152D02*
X125198190Y-121686819D01*
X125674380Y-121448723D02*
X124674380Y-121448723D01*
X124674380Y-121829676D01*
X124722000Y-121924914D01*
X124769619Y-121972533D01*
X124864857Y-122020152D01*
X125007714Y-122020152D01*
X125102952Y-121972533D01*
X125150571Y-121924914D01*
X125198190Y-121829676D01*
X125198190Y-121448723D01*
X124674380Y-122353485D02*
X124674380Y-122972533D01*
X125055333Y-122639200D01*
X125055333Y-122782057D01*
X125102952Y-122877295D01*
X125150571Y-122924914D01*
X125245809Y-122972533D01*
X125483904Y-122972533D01*
X125579142Y-122924914D01*
X125626761Y-122877295D01*
X125674380Y-122782057D01*
X125674380Y-122496342D01*
X125626761Y-122401104D01*
X125579142Y-122353485D01*
X124769619Y-123353485D02*
X124722000Y-123401104D01*
X124674380Y-123496342D01*
X124674380Y-123734438D01*
X124722000Y-123829676D01*
X124769619Y-123877295D01*
X124864857Y-123924914D01*
X124960095Y-123924914D01*
X125102952Y-123877295D01*
X125674380Y-123305866D01*
X125674380Y-123924914D01*
X124769619Y-124305866D02*
X124722000Y-124353485D01*
X124674380Y-124448723D01*
X124674380Y-124686819D01*
X124722000Y-124782057D01*
X124769619Y-124829676D01*
X124864857Y-124877295D01*
X124960095Y-124877295D01*
X125102952Y-124829676D01*
X125674380Y-124258247D01*
X125674380Y-124877295D01*
M02*
