M48
; DRILL file {KiCad (5.1.6)-1} date 05/26/21 15:33:54
; FORMAT={-:-/ absolute / inch / decimal}
; #@! TF.CreationDate,2021-05-26T15:33:54+02:00
; #@! TF.GenerationSoftware,Kicad,Pcbnew,(5.1.6)-1
; #@! TF.FileFunction,Plated,1,2,PTH
FMAT,2
INCH
T1C0.0157
T2C0.0197
T3C0.0315
T4C0.0374
T5C0.0394
T6C0.0433
T7C0.0512
T8C0.0551
T9C0.0787
T10C0.0906
T11C0.1260
%
G90
G05
T1
X3.492Y-4.448
X3.674Y-4.52
X3.82Y-4.312
X4.6726Y-3.7554
X4.684Y-4.808
X4.687Y-4.085
X4.7034Y-4.4366
X4.92Y-4.728
X5.084Y-4.804
X5.094Y-3.966
X5.144Y-4.18
X5.194Y-4.178
X5.1965Y-3.758
X5.244Y-4.178
X5.294Y-4.002
X5.329Y-3.758
X5.34Y-3.406
X5.369Y-3.758
X5.399Y-3.943
X5.576Y-4.422
X5.595Y-3.391
X5.63Y-4.004
X5.634Y-4.16
X5.702Y-4.11
X5.748Y-4.15
X5.752Y-3.76
X5.8047Y-4.4513
X5.814Y-4.498
X5.822Y-4.356
X6.002Y-4.44
X6.002Y-4.476
X6.018Y-4.828
X6.078Y-4.784
X6.078Y-4.828
X6.0977Y-4.2503
X6.132Y-4.628
X6.1436Y-4.5704
X6.178Y-4.534
X6.408Y-4.594
X6.428Y-4.674
X6.5Y-4.674
X6.5027Y-4.4513
X6.512Y-4.17
X6.512Y-4.226
X6.512Y-4.28
X6.542Y-4.432
X6.9Y-3.876
X7.098Y-4.164
X7.154Y-4.164
X7.208Y-4.164
X7.396Y-3.954
X7.406Y-3.542
X7.406Y-4.426
X7.498Y-4.028
X7.498Y-4.154
X7.54Y-3.432
X7.7857Y-4.1797
X7.83Y-4.234
X7.83Y-4.29
X7.83Y-4.344
X8.0994Y-4.2534
X8.136Y-4.168
X8.154Y-4.032
X8.2266Y-4.0154
X8.2291Y-4.2269
X8.3752Y-4.0028
T2
X8.5095Y-2.8
X8.5372Y-2.7332
X8.5372Y-2.8668
X8.604Y-2.7055
X8.604Y-2.8945
X8.6708Y-2.7332
X8.6708Y-2.8668
X8.6985Y-2.8
X3.2735Y-4.858
X3.3012Y-4.7912
X3.3012Y-4.9248
X3.368Y-4.7635
X3.368Y-4.9525
X3.4348Y-4.7912
X3.4348Y-4.9248
X3.4625Y-4.858
X8.5135Y-4.854
X8.5412Y-4.7872
X8.5412Y-4.9208
X8.608Y-4.7595
X8.608Y-4.9485
X8.6748Y-4.7872
X8.6748Y-4.9208
X8.7025Y-4.854
X3.6995Y-2.808
X3.7272Y-2.7412
X3.7272Y-2.8748
X3.794Y-2.7135
X3.794Y-2.9025
X3.8608Y-2.7412
X3.8608Y-2.8748
X3.8885Y-2.808
T3
X5.44Y-4.642
X5.6321Y-4.642
T4
X7.5776Y-4.44
X7.5776Y-4.5187
X7.676Y-4.44
X7.676Y-4.5187
T5
X8.508Y-4.054
X8.508Y-4.154
X8.508Y-4.254
X8.508Y-4.354
X8.608Y-4.054
X8.608Y-4.154
X8.608Y-4.254
X8.608Y-4.354
X6.82Y-4.524
X6.92Y-4.524
X7.02Y-4.524
X6.62Y-4.782
X6.72Y-4.782
X6.82Y-4.782
X6.92Y-4.782
X7.02Y-4.782
T6
X5.504Y-3.558
X5.504Y-3.658
X5.504Y-3.758
X5.504Y-2.9305
X5.504Y-3.0305
X5.504Y-3.1305
T7
X3.4453Y-3.8405
X3.839Y-3.8405
X7.847Y-2.9165
X7.847Y-3.5165
X8.147Y-2.8165
X8.147Y-3.1165
X8.147Y-3.5165
T8
X8.534Y-3.1905
X8.534Y-3.3905
X4.219Y-3.0905
X4.219Y-3.2905
X4.219Y-3.4905
X4.219Y-3.6905
X3.444Y-3.1055
X3.444Y-3.3055
T9
X4.814Y-3.0905
X4.814Y-3.4842
X7.229Y-3.058
X7.229Y-3.4517
T10
X7.3906Y-4.6313
X7.863Y-4.6313
T11
X8.604Y-2.8
X3.368Y-4.858
X8.608Y-4.854
X3.794Y-2.808
T0
M30
